<?xml version="1.0" encoding="UTF-8"?>
<svg version="1.1" xmlns="http://www.w3.org/2000/svg" width="224" height="224">
<path d="M0 0 C35.42789129 -1.06641332 35.42789129 -1.06641332 51 5 C51.77504883 5.3000293 52.55009766 5.60005859 53.34863281 5.90917969 C70.54399312 12.74689694 86.29700406 22.45032937 98 37 C99.175625 38.14855469 99.175625 38.14855469 100.375 39.3203125 C107.16270715 46.24943021 112.08203546 54.61221372 116.25 63.3125 C116.70693237 64.25077637 116.70693237 64.25077637 117.1730957 65.20800781 C118.20161601 67.44428341 119.10823703 69.70548552 120 72 C120.43610596 73.07830078 120.87221191 74.15660156 121.3215332 75.26757812 C125.46022162 86.30196821 125.80237254 97.03187992 125.70678711 108.72607422 C125.68756402 111.86454796 125.72708825 114.99857468 125.77148438 118.13671875 C125.82586366 131.1809419 124.04772897 141.97679964 119 154 C118.637854 154.92119629 118.27570801 155.84239258 117.90258789 156.79150391 C117.06052116 158.85821257 116.15846147 160.86623264 115.1875 162.875 C114.85983643 163.56424561 114.53217285 164.25349121 114.19458008 164.96362305 C110.90662152 171.62226096 106.69555741 177.26715969 102 183 C101.45988281 183.76699219 100.91976562 184.53398437 100.36328125 185.32421875 C99.91339844 185.87722656 99.46351563 186.43023437 99 187 C98.34 187 97.68 187 97 187 C96.79375 187.53625 96.5875 188.0725 96.375 188.625 C94.46749574 191.91978009 91.95180616 194.59363628 89 197 C88.34 197 87.68 197 87 197 C87 197.66 87 198.32 87 199 C85.07198604 200.51098273 83.1565994 201.89081553 81.125 203.25 C80.23143799 203.8538855 80.23143799 203.8538855 79.31982422 204.4699707 C77.55262237 205.65608699 75.77744049 206.82930181 74 208 C73.154375 208.56589844 72.30875 209.13179687 71.4375 209.71484375 C64.44643389 214.1669247 56.85672864 217.40318983 49 220 C47.9780957 220.34635498 46.95619141 220.69270996 45.90332031 221.04956055 C35.85856641 224.11590422 26.3248909 224.65052352 15.85791016 224.57641602 C13.13449625 224.56254836 10.41453279 224.59676053 7.69140625 224.63476562 C-4.02211419 224.68652908 -14.00592104 223.01905835 -25 219 C-25.88284668 218.67990967 -26.76569336 218.35981934 -27.67529297 218.0300293 C-29.65105115 217.26593007 -31.5751082 216.4457699 -33.5 215.5625 C-34.15234619 215.27101074 -34.80469238 214.97952148 -35.47680664 214.67919922 C-40.92788645 212.17686433 -46.70563231 209.29436769 -51 205 C-51.2265771 203.59808908 -51.39430846 202.1865381 -51.53515625 200.7734375 C-51.62216797 199.90589844 -51.70917969 199.03835937 -51.79882812 198.14453125 C-51.88583984 197.23058594 -51.97285156 196.31664062 -52.0625 195.375 C-52.15337891 194.48425781 -52.24425781 193.59351563 -52.33789062 192.67578125 C-52.8196037 187.75723723 -53.10153633 182.94143486 -53 178 C-49.85165657 176.95055219 -47.61256573 176.87084494 -44.30859375 176.8671875 C-43.19935547 176.86589844 -42.09011719 176.86460937 -40.94726562 176.86328125 C-39.20993164 176.86908203 -39.20993164 176.86908203 -37.4375 176.875 C-36.27541016 176.87113281 -35.11332031 176.86726562 -33.91601562 176.86328125 C-32.2540918 176.86521484 -32.2540918 176.86521484 -30.55859375 176.8671875 C-29.54079834 176.86831543 -28.52300293 176.86944336 -27.47436523 176.87060547 C-25 177 -25 177 -23 178 C-23 178.66 -23 179.32 -23 180 C-21.7625 180.1546875 -21.7625 180.1546875 -20.5 180.3125 C-17.22182453 180.95642733 -14.32992454 181.990387 -11.21484375 183.16796875 C-10.11849609 183.57982422 -10.11849609 183.57982422 -9 184 C-8.27941406 184.28488281 -7.55882812 184.56976563 -6.81640625 184.86328125 C8.88695125 190.16473474 26.81215147 187.79144672 42 182 C42.63373535 181.75894531 43.2674707 181.51789063 43.92041016 181.26953125 C53.48910084 177.44912979 60.55033775 171.62789275 67.65332031 164.37353516 C68.77455241 163.22994347 69.92665893 162.11672398 71.0859375 161.01171875 C84.18699529 147.64389734 88.61473604 127.77749775 88.55224609 109.7253418 C88.25671707 99.75742833 86.63327915 88.44991872 81 80 C81 78.68 81 77.36 81 76 C80.34 76 79.68 76 79 76 C77.7734375 74.12890625 77.7734375 74.12890625 76.375 71.5625 C67.2649731 56.01413678 52.1628421 45.09028646 34.9296875 40.11328125 C24.79057232 37.50862134 15.45616803 36.86947918 5 37 C6.47642627 31.77345099 9.82231936 28.83173561 13.625 25.1875 C14.23601562 24.59001953 14.84703125 23.99253906 15.4765625 23.37695312 C16.97764839 21.91104894 18.48792862 20.45457007 20 19 C18.7625 17.824375 18.7625 17.824375 17.5 16.625 C15 14 15 14 15 12 C14.45859375 11.76410156 13.9171875 11.52820312 13.359375 11.28515625 C10.35581814 9.64911286 7.8882908 7.61164705 5.25 5.4375 C4.26515625 4.63183594 3.2803125 3.82617188 2.265625 2.99609375 C1.14414063 2.00802734 1.14414063 2.00802734 0 1 C0 0.67 0 0.34 0 0 Z " fill="#42AE29" transform="translate(99,0)"/>
<path d="M0 0 C0.67363372 2.72761511 1.33909444 5.456799 2 8.1875 C2.19078125 8.95642578 2.3815625 9.72535156 2.578125 10.51757812 C4.56800704 18.79690875 4.56800704 18.79690875 4 22 C2.27734375 23.625 2.27734375 23.625 -0.0625 25 C-3.10356645 26.84567869 -5.99311102 28.7052963 -8.8125 30.875 C-12 33 -12 33 -16 33 C-24.95744681 15.85106383 -24.95744681 15.85106383 -27 7 C-18.17295438 3.05600089 -9.80363603 0 0 0 Z " fill="#42AC2A" transform="translate(36,59)"/>
<path d="M0 0 C3.00845419 0.90953266 5.67849405 1.80540429 8.375 3.4375 C11.27829571 5.16565221 14.08999834 6.04793186 17.328125 6.9609375 C19 8 19 8 19.79296875 10.05078125 C20.07449454 14.0611958 19.59880208 17.83853492 19.0625 21.8125 C18.96259766 22.60076172 18.86269531 23.38902344 18.75976562 24.20117188 C18.51363759 26.13503503 18.25778782 28.06765656 18 30 C7.67656034 30.26098583 -0.26182449 29.40836143 -10 26 C-6.21881838 6.21881838 -6.21881838 6.21881838 0 0 Z " fill="#43AC2A" transform="translate(24,142)"/>
<path d="M0 0 C1.55078125 1.9765625 1.55078125 1.9765625 3.3125 4.625 C6.02729463 8.62335861 8.83317173 12.35334926 12 16 C8.66380014 22.24430328 5.01229308 28.16769769 1 34 C-3.82121153 32.45097956 -7.2450458 29.69505249 -11.125 26.5625 C-11.74503906 26.07201172 -12.36507813 25.58152344 -13.00390625 25.07617188 C-15.81970871 22.83261314 -18.48479766 20.58173959 -21 18 C-18.58749669 15.55834935 -16.16928161 13.12243315 -13.75 10.6875 C-13.06808594 9.99720703 -12.38617188 9.30691406 -11.68359375 8.59570312 C-11.01972656 7.92861328 -10.35585937 7.26152344 -9.671875 6.57421875 C-9.0644043 5.96151123 -8.45693359 5.34880371 -7.83105469 4.7175293 C-2.80170576 0 -2.80170576 0 0 0 Z " fill="#42AF28" transform="translate(21,101)"/>
<path d="M0 0 C8.185766 0.3376774 15.35526412 0.96846681 23 4 C22.54678672 6.06363112 22.08720894 8.12586507 21.625 10.1875 C21.24214844 11.91033203 21.24214844 11.91033203 20.8515625 13.66796875 C20 17 20 17 18 22 C8.595 22.495 8.595 22.495 -1 23 C-1.0309375 18.42125 -1.0309375 18.42125 -1.0625 13.75 C-1.071604 12.79448242 -1.08070801 11.83896484 -1.09008789 10.85449219 C-1.09258545 10.09297852 -1.09508301 9.33146484 -1.09765625 8.546875 C-1.10551147 7.38430176 -1.10551147 7.38430176 -1.11352539 6.19824219 C-1.00036998 4.00716402 -0.60552448 2.10362139 0 0 Z " fill="#42AC2A" transform="translate(43,27)"/>
<path d="M0 0 C1.79206547 0.14084796 3.58364917 0.28783701 5.375 0.4375 C6.87160156 0.55931641 6.87160156 0.55931641 8.3984375 0.68359375 C11 1 11 1 13 2 C16.11269291 2.31432523 19.22617578 2.51089874 22.34765625 2.71875 C25 3 25 3 26 4 C26.22603233 5.32870604 26.39405513 6.66742419 26.53515625 8.0078125 C26.62216797 8.83023438 26.70917969 9.65265625 26.79882812 10.5 C26.88583984 11.36625 26.97285156 12.2325 27.0625 13.125 C27.15337891 13.96804687 27.24425781 14.81109375 27.33789062 15.6796875 C27.83379653 20.48214467 28.09811567 25.17270908 28 30 C25 30 25 30 22.67578125 27.8515625 C21.79277344 26.91054687 20.90976562 25.96953125 20 25 C19.06542969 24.10023438 18.13085938 23.20046875 17.16796875 22.2734375 C10.7117047 16.02523246 4.70661602 9.72438747 0 2 C0 1.34 0 0.68 0 0 Z " fill="#42AE28" transform="translate(16,173)"/>
<path d="M0 0 C4.67199091 1.53093488 8.02170005 4.10757395 11.8125 7.125 C12.40998047 7.59292969 13.00746094 8.06085937 13.62304688 8.54296875 C15.08616792 9.69005565 16.54366297 10.84431234 18 12 C16.39493083 16.43058263 14.42262994 18.74432762 11 22 C9.97186389 23.31175986 8.95915568 24.6369893 8 26 C1.77012202 25.49487476 -3.45474233 22.67395877 -9 20 C-7.20551055 12.48972933 -4.28655993 6.37053966 0 0 Z " fill="#41B028" transform="translate(87,6)"/>
<path d="M0 0 C0.44988281 0.35191406 0.89976563 0.70382813 1.36328125 1.06640625 C6.32910264 4.87784832 11.45604613 8.15254844 16.875 11.2890625 C17.57625 11.85367188 18.2775 12.41828125 19 13 C19 17.13122675 18.30925704 19.08580756 16.6875 22.8125 C16.23375 23.86566406 15.78 24.91882813 15.3125 26.00390625 C14.879375 26.99261719 14.44625 27.98132813 14 29 C13.39474504 30.41620205 12.7903321 31.83276492 12.1875 33.25 C11.795625 34.1575 11.40375 35.065 11 36 C10.01 35.67 9.02 35.34 8 35 C6.71875 32.15625 6.71875 32.15625 5.5 28.5 C5.28641846 27.86143066 5.07283691 27.22286133 4.8527832 26.56494141 C4.23305367 24.71067317 3.61645782 22.85535849 3 21 C2.67386719 20.17242187 2.34773437 19.34484375 2.01171875 18.4921875 C-0.38035799 12.34761122 -0.29857489 6.5354727 0 0 Z " fill="#42A82B" transform="translate(0,125)"/>
<path d="M0 0 C2.74439629 2.44218598 4.28359978 5.08084021 6 8.3125 C6.51820312 9.28703125 7.03640625 10.2615625 7.5703125 11.265625 C8.04210938 12.16796875 8.51390625 13.0703125 9 14 C9.34804687 14.65484375 9.69609375 15.3096875 10.0546875 15.984375 C12 19.72678571 12 19.72678571 12 22 C8.53846154 25 8.53846154 25 6 25 C5.67 25.99 5.34 26.98 5 28 C3.0625 30.1875 3.0625 30.1875 1 32 C0.34 32 -0.32 32 -1 32 C-1.28875 32.639375 -1.5775 33.27875 -1.875 33.9375 C-3 36 -3 36 -5 37 C-5.44329889 24.44782157 -5.82294932 12.83462664 -1 1 C-0.67 0.67 -0.34 0.34 0 0 Z " fill="#43A629" transform="translate(5,75)"/>
<path d="M0 0 C0.66 0 1.32 0 2 0 C3.33203125 1.7578125 3.33203125 1.7578125 4.8125 4.125 C8.87133086 10.39505832 13.12613914 15.35555188 19 20 C14.99561779 22.8202907 10.87663461 22.00863471 6.25 21.625 C5.45722656 21.56828125 4.66445313 21.5115625 3.84765625 21.453125 C1.89768265 21.31216305 -0.05128671 21.1574288 -2 21 C-3.42790289 18.14419423 -2.92980758 15.91808114 -2.6875 12.75 C-2.60886719 11.63109375 -2.53023437 10.5121875 -2.44921875 9.359375 C-2.00316085 6.02363767 -1.16857637 3.14800166 0 0 Z " fill="#45AB2B" transform="translate(48,152)"/>
<path d="M0 0 C0.66 0 1.32 0 2 0 C2 6.6 2 13.2 2 20 C-7.405 21.98 -7.405 21.98 -17 24 C-13.62465977 16.12420613 -13.62465977 16.12420613 -10.8984375 12.8515625 C-10.32609375 12.15675781 -9.75375 11.46195313 -9.1640625 10.74609375 C-8.57367188 10.04613281 -7.98328125 9.34617187 -7.375 8.625 C-6.776875 7.90183594 -6.17875 7.17867187 -5.5625 6.43359375 C-1.33147321 1.33147321 -1.33147321 1.33147321 0 0 Z " fill="#45A130" transform="translate(32,32)"/>
<path d="M0 0 C0.66 0.33 1.32 0.66 2 1 C2.57052072 3.50909638 3.03343546 5.96357796 3.4375 8.5 C4.47932574 14.57382381 5.82924748 20.2113266 8 26 C3.86840367 25.36495834 0.50273514 24.01303002 -3.25 22.1875 C-4.30703125 21.68605469 -5.3640625 21.18460938 -6.453125 20.66796875 C-9 19 -9 19 -10.0625 17.14453125 C-9.96884684 13.9310571 -8.53356022 12.1390891 -6.75 9.5 C-5.81414063 8.09234375 -5.81414063 8.09234375 -4.859375 6.65625 C-3.281155 4.40165 -1.67080027 2.18647937 0 0 Z " fill="#41AB2A" transform="translate(37,120)"/>
<path d="M0 0 C0.578125 1.85546875 0.578125 1.85546875 1 4 C-0.25 6.3125 -0.25 6.3125 -2 9 C-2.54144331 10.22022834 -3.0618428 11.44997811 -3.5625 12.6875 C-5 16 -5 16 -7 18 C-9.95025776 17.48767979 -12.7372882 16.87974286 -15.625 16.125 C-16.82769531 15.82529297 -16.82769531 15.82529297 -18.0546875 15.51953125 C-20.03908984 15.02343066 -22.01991016 14.51304255 -24 14 C-22.49679306 9.49037919 -19.28460517 8.70090823 -15.2109375 6.5625 C-10.23442778 4.14084077 -5.14691597 2.03002271 0 0 Z " fill="#41AF29" transform="translate(75,5)"/>
<path d="M0 0 C1.11248885 3.33746656 0.87090488 4.70707443 0.22265625 8.10546875 C0.03896484 9.08837891 -0.14472656 10.07128906 -0.33398438 11.08398438 C-0.53314453 12.10814453 -0.73230469 13.13230469 -0.9375 14.1875 C-1.13279297 15.22326172 -1.32808594 16.25902344 -1.52929688 17.32617188 C-2.01284959 19.88546309 -2.50333331 22.44322701 -3 25 C-3.99 24.34 -4.98 23.68 -6 23 C-6 22.34 -6 21.68 -6 21 C-6.66 21 -7.32 21 -8 21 C-8.103125 20.360625 -8.20625 19.72125 -8.3125 19.0625 C-8.6528125 18.0415625 -8.6528125 18.0415625 -9 17 C-9.99 16.67 -10.98 16.34 -12 16 C-12.33 15.01 -12.66 14.02 -13 13 C-14.49985609 11.33289654 -14.49985609 11.33289654 -16 10 C-13.70912072 8.51960151 -11.41734017 7.04063324 -9.125 5.5625 C-8.47402344 5.14162109 -7.82304688 4.72074219 -7.15234375 4.28710938 C-2.2265625 1.11328125 -2.2265625 1.11328125 0 0 Z " fill="#45A22D" transform="translate(40,87)"/>
<path d="M0 0 C4.67199091 1.53093488 8.02170005 4.10757395 11.8125 7.125 C12.40998047 7.59292969 13.00746094 8.06085937 13.62304688 8.54296875 C15.08616792 9.69005565 16.54366297 10.84431234 18 12 C16.39493083 16.43058263 14.42262994 18.74432762 11 22 C9.97186389 23.31175986 8.95915568 24.6369893 8 26 C1.77012202 25.49487476 -3.45474233 22.67395877 -9 20 C-8.33989524 17.15449988 -7.48275034 14.47674001 -6.4375 11.75 C-6.16808594 11.04359375 -5.89867188 10.3371875 -5.62109375 9.609375 C-5.41613281 9.07828125 -5.21117188 8.5471875 -5 8 C-4.67 9.32 -4.34 10.64 -4 12 C-2.68 12.33 -1.36 12.66 0 13 C-2.49092811 14.24546405 -3.41080733 13.7767578 -6 13 C-6.21790719 15.883975 -6.21790719 15.883975 -5 19 C-2.1546087 20.77165873 0.83714265 21.91376616 4 23 C4.33 22.34 4.66 21.68 5 21 C5.825 20.278125 6.65 19.55625 7.5 18.8125 C10.46689278 15.47474562 10.74214741 13.3834941 11 9 C7.57653445 5.85041169 4.55737263 5.43820891 0 5 C-0.66 6.32 -1.32 7.64 -2 9 C-2.6875 7.3125 -2.6875 7.3125 -3 5 C-1.5625 2.25 -1.5625 2.25 0 0 Z " fill="#43A52D" transform="translate(87,6)"/>
<path d="M0 0 C0 0.99 0 1.98 0 3 C-1.14724182 4.14724182 -2.30094059 5.28884152 -3.48828125 6.39453125 C-6.46897717 9.56007653 -8.67870769 13.33858016 -11 17 C-11.99 16.67 -12.98 16.34 -14 16 C-14.66 11.05 -15.32 6.1 -16 1 C-10.60869279 0.3364545 -5.42910999 -0.11551298 0 0 Z " fill="#42AA29" transform="translate(59,57)"/>
<path d="M0 0 C5.20540698 0.96396425 9.59913433 1.87680501 14 5 C10.67513619 7.74054368 7.16942114 9.42376049 3.25 11.1875 C2.07953125 11.71730469 0.9090625 12.24710938 -0.296875 12.79296875 C-1.18890625 13.19128906 -2.0809375 13.58960938 -3 14 C-4 12 -4 12 -3.22265625 9.1796875 C-2.83980469 8.08914062 -2.45695312 6.99859375 -2.0625 5.875 C-1.68222656 4.77929688 -1.30195312 3.68359375 -0.91015625 2.5546875 C-0.60980469 1.71164063 -0.30945313 0.86859375 0 0 Z " fill="#42AB2A" transform="translate(74,35)"/>
<path d="M0 0 C0.578125 1.85546875 0.578125 1.85546875 1 4 C-0.25 6.3125 -0.25 6.3125 -2 9 C-2.54144331 10.22022834 -3.0618428 11.44997811 -3.5625 12.6875 C-5 16 -5 16 -7 18 C-10.0390625 17.5390625 -10.0390625 17.5390625 -13.625 16.625 C-14.81351563 16.32851563 -16.00203125 16.03203125 -17.2265625 15.7265625 C-18.59941406 15.36691406 -18.59941406 15.36691406 -20 15 C-20 14.67 -20 14.34 -20 14 C-15.52572076 13.91051442 -11.39436211 14.14256349 -7 15 C-7 13.68 -7 12.36 -7 11 C-6.34 10.67 -5.68 10.34 -5 10 C-6.03568595 8.29264699 -6.03568595 8.29264699 -8 7 C-11.64541845 7.23477199 -11.64541845 7.23477199 -15 8 C-12.41734886 4.90988056 -9.51043341 3.78372082 -5.8125 2.3125 C-4.72582031 1.87550781 -3.63914062 1.43851562 -2.51953125 0.98828125 C-1.68808594 0.66214844 -0.85664062 0.33601562 0 0 Z " fill="#47A02E" transform="translate(75,5)"/>
<path d="M0 0 C1.79206547 0.14084796 3.58364917 0.28783701 5.375 0.4375 C6.87160156 0.55931641 6.87160156 0.55931641 8.3984375 0.68359375 C11 1 11 1 13 2 C16.11269291 2.31432523 19.22617578 2.51089874 22.34765625 2.71875 C25 3 25 3 26 4 C26.22603233 5.32870604 26.39405513 6.66742419 26.53515625 8.0078125 C26.62216797 8.83023438 26.70917969 9.65265625 26.79882812 10.5 C26.88583984 11.36625 26.97285156 12.2325 27.0625 13.125 C27.15337891 13.96804687 27.24425781 14.81109375 27.33789062 15.6796875 C27.83379653 20.48214467 28.09811567 25.17270908 28 30 C27.34 29.67 26.68 29.34 26 29 C25.58935547 27.23754883 25.58935547 27.23754883 25.3671875 24.95703125 C25.24150391 23.71663086 25.24150391 23.71663086 25.11328125 22.45117188 C25.03464844 21.58041016 24.95601562 20.70964844 24.875 19.8125 C24.78863281 18.96107422 24.70226562 18.10964844 24.61328125 17.23242188 C24.18182206 12.80482879 23.89794094 8.45414914 24 4 C23.07058594 4.02320313 22.14117187 4.04640625 21.18359375 4.0703125 C8.90509666 4.24956063 8.90509666 4.24956063 3 2 C3.7734375 3.175625 3.7734375 3.175625 4.5625 4.375 C5.036875 5.24125 5.51125 6.1075 6 7 C5.67 7.66 5.34 8.32 5 9 C4.16094435 7.87926138 3.32892169 6.75325453 2.5 5.625 C2.0359375 4.99851563 1.571875 4.37203125 1.09375 3.7265625 C0 2 0 2 0 0 Z " fill="#4E9E3A" transform="translate(16,173)"/>
<path d="M0 0 C1.32 0.33 2.64 0.66 4 1 C4.08082094 2.95766281 4.13910778 4.91626728 4.1875 6.875 C4.22230469 7.96554688 4.25710937 9.05609375 4.29296875 10.1796875 C4.19628906 11.11039063 4.09960938 12.04109375 4 13 C1 15 1 15 -1.6875 14.625 C-2.450625 14.41875 -3.21375 14.2125 -4 14 C-3.34 13.67 -2.68 13.34 -2 13 C-2.99 11.02 -3.98 9.04 -5 7 C-3.6875 5.5 -3.6875 5.5 -2 4 C-1.01 4 -0.02 4 1 4 C0.67 2.68 0.34 1.36 0 0 Z " fill="#40AE26" transform="translate(29,37)"/>
<path d="M0 0 C3.63 0 7.26 0 11 0 C11.66 1.98 12.32 3.96 13 6 C12.34 6 11.68 6 11 6 C13.57784846 8.64752004 15.91648098 10.94432065 19 13 C19 13.66 19 14.32 19 15 C19.66 15 20.32 15 21 15 C21 15.66 21 16.32 21 17 C19 16 17 15 15 14 C15 13.34 15 12.68 15 12 C14.45859375 11.76410156 13.9171875 11.52820312 13.359375 11.28515625 C10.35581814 9.64911286 7.8882908 7.61164705 5.25 5.4375 C4.26515625 4.63183594 3.2803125 3.82617188 2.265625 2.99609375 C1.51796875 2.33738281 0.7703125 1.67867188 0 1 C0 0.67 0 0.34 0 0 Z " fill="#48A834" transform="translate(99,0)"/>
<path d="M0 0 C4.45831982 -0.02891546 8.91661569 -0.04676981 13.375 -0.0625 C14.64601563 -0.07087891 15.91703125 -0.07925781 17.2265625 -0.08789062 C19.04414062 -0.09272461 19.04414062 -0.09272461 20.8984375 -0.09765625 C22.57945557 -0.10551147 22.57945557 -0.10551147 24.29443359 -0.11352539 C27 0 27 0 29 1 C29 1.66 29 2.32 29 3 C30.3921875 3.185625 30.3921875 3.185625 31.8125 3.375 C35 4 35 4 38 6 C37.67 6.66 37.34 7.32 37 8 C36.278125 7.54625 35.55625 7.0925 34.8125 6.625 C29.82653367 3.74421945 26.17777652 2.75180113 20.38671875 2.8046875 C19.13955078 2.81113281 17.89238281 2.81757813 16.60742188 2.82421875 C15.31384766 2.84097656 14.02027344 2.85773438 12.6875 2.875 C11.37458984 2.88402344 10.06167969 2.89304688 8.70898438 2.90234375 C5.47247087 2.92588203 2.23632851 2.9587648 -1 3 C-0.67 2.01 -0.34 1.02 0 0 Z " fill="#4F9A3D" transform="translate(47,177)"/>
<path d="M0 0 C0.33 0 0.66 0 1 0 C1 5.94 1 11.88 1 18 C4.898125 17.4121875 4.898125 17.4121875 8.875 16.8125 C9.69210449 16.70139893 10.50920898 16.59029785 11.35107422 16.47583008 C13.62489563 16.13443974 13.62489563 16.13443974 17 15 C18.60923375 12.52740348 18.60923375 12.52740348 19 10 C19.66 10.33 20.32 10.66 21 11 C20.34 13.31 19.68 15.62 19 18 C9.595 18.495 9.595 18.495 0 19 C0 12.73 0 6.46 0 0 Z " fill="#4A973A" transform="translate(42,31)"/>
<path d="M0 0 C1.485 0.99 1.485 0.99 3 2 C3.66 1.34 4.32 0.68 5 0 C5 0.99 5 1.98 5 3 C5.66 3 6.32 3 7 3 C6.43454163 6.95820859 5.19097652 9.6659053 3 13 C2.67 11.68 2.34 10.36 2 9 C1.34 9 0.68 9 0 9 C-0.87890625 2.84765625 -0.87890625 2.84765625 -1 1 C-0.67 0.67 -0.34 0.34 0 0 Z " fill="#41B027" transform="translate(7,145)"/>
<path d="M0 0 C1.38938077 1.96147874 2.7260411 3.96166576 4 6 C3.67 6.66 3.34 7.32 3 8 C1.5 6.625 1.5 6.625 0 5 C0 4.34 0 3.68 0 3 C-4.78152648 5.09368615 -8.17661475 7.76823756 -11.75 11.5 C-12.23082031 11.98597656 -12.71164062 12.47195312 -13.20703125 12.97265625 C-15.40575436 15.22037597 -17.25011256 17.37516884 -19 20 C-19.66 19.34 -20.32 18.68 -21 18 C-18.58749669 15.55834935 -16.16928161 13.12243315 -13.75 10.6875 C-13.06808594 9.99720703 -12.38617188 9.30691406 -11.68359375 8.59570312 C-11.01972656 7.92861328 -10.35585937 7.26152344 -9.671875 6.57421875 C-9.0644043 5.96151123 -8.45693359 5.34880371 -7.83105469 4.7175293 C-2.80170576 0 -2.80170576 0 0 0 Z " fill="#4B9036" transform="translate(21,101)"/>
<path d="M0 0 C0.33 1.32 0.66 2.64 1 4 C0.34 4 -0.32 4 -1 4 C-1 5.32 -1 6.64 -1 8 C3.455 8.99 3.455 8.99 8 10 C8 10.66 8 11.32 8 12 C10.97 12.495 10.97 12.495 14 13 C14.33 13.99 14.66 14.98 15 16 C10.86840367 15.36495834 7.50273514 14.01303002 3.75 12.1875 C2.69296875 11.68605469 1.6359375 11.18460938 0.546875 10.66796875 C-2 9 -2 9 -2.94921875 6.97265625 C-3.02468564 4.04105794 -1.63363101 2.35242866 0 0 Z " fill="#4C9634" transform="translate(30,130)"/>
<path d="M0 0 C0.33 1.32 0.66 2.64 1 4 C2.32 4.33 3.64 4.66 5 5 C2.50907189 6.24546405 1.58919267 5.7767578 -1 5 C-1.21790719 7.883975 -1.21790719 7.883975 0 11 C2.8453913 12.77165873 5.83714265 13.91376616 9 15 C9 15.66 9 16.32 9 17 C7.58208592 16.54554036 6.16571954 16.08625056 4.75 15.625 C3.96109375 15.36976562 3.1721875 15.11453125 2.359375 14.8515625 C0.13372042 14.04826333 -1.90931672 13.10288338 -4 12 C-3.33989524 9.15449988 -2.48275034 6.47674001 -1.4375 3.75 C-1.16808594 3.04359375 -0.89867188 2.3371875 -0.62109375 1.609375 C-0.41613281 1.07828125 -0.21117188 0.5471875 0 0 Z " fill="#4A9C35" transform="translate(82,14)"/>
<path d="M0 0 C3.83663072 1.34929464 6.65172569 3.07751025 9.8125 5.625 C10.99779297 6.57246094 10.99779297 6.57246094 12.20703125 7.5390625 C13.09455078 8.26222656 13.09455078 8.26222656 14 9 C11 9 11 9 9.25 7.5625 C6.25870588 5.48521242 3.57727324 5.34396858 0 5 C-0.66 6.32 -1.32 7.64 -2 9 C-2.6875 7.3125 -2.6875 7.3125 -3 5 C-1.5625 2.25 -1.5625 2.25 0 0 Z " fill="#489C34" transform="translate(87,6)"/>
<path d="M0 0 C1.79206547 0.14084796 3.58364917 0.28783701 5.375 0.4375 C6.87160156 0.55931641 6.87160156 0.55931641 8.3984375 0.68359375 C11 1 11 1 13 2 C15.0374763 2.22858114 17.08040303 2.41024278 19.125 2.5625 C20.76855469 2.68818359 20.76855469 2.68818359 22.4453125 2.81640625 C23.28835937 2.87699219 24.13140625 2.93757812 25 3 C25 3.33 25 3.66 25 4 C22.64551325 4.05454409 20.29232125 4.0939279 17.9375 4.125 C16.62652344 4.14820313 15.31554687 4.17140625 13.96484375 4.1953125 C9.88175701 3.99417522 6.85000947 3.27165462 3 2 C3.7734375 3.175625 3.7734375 3.175625 4.5625 4.375 C5.036875 5.24125 5.51125 6.1075 6 7 C5.67 7.66 5.34 8.32 5 9 C4.16094435 7.87926138 3.32892169 6.75325453 2.5 5.625 C2.0359375 4.99851563 1.571875 4.37203125 1.09375 3.7265625 C0 2 0 2 0 0 Z " fill="#4E943C" transform="translate(16,173)"/>
<path d="M0 0 C0.33 0 0.66 0 1 0 C1.50690584 2.06081361 2.00524619 4.12373526 2.5 6.1875 C2.7784375 7.33605469 3.056875 8.48460938 3.34375 9.66796875 C3.92348009 12.61147927 4.38012815 15.02760905 4 18 C3.01 18.66 2.02 19.32 1 20 C0.17361624 17.10765685 0 15.11257569 0 12 C-1.32 11.67 -2.64 11.34 -4 11 C-3.2884375 10.2265625 -3.2884375 10.2265625 -2.5625 9.4375 C-0.57190593 6.33217325 -0.34939182 3.63367496 0 0 Z " fill="#489D34" transform="translate(36,63)"/>
<path d="M0 0 C0.66 0 1.32 0 2 0 C1.47462276 5.0302076 0.89405214 10.01885239 0 15 C-0.99 14.34 -1.98 13.68 -3 13 C-3 12.34 -3 11.68 -3 11 C-3.66 11 -4.32 11 -5 11 C-5.33 9.68 -5.66 8.36 -6 7 C-5.34 7 -4.68 7 -4 7 C-4 7.66 -4 8.32 -4 9 C-3.01 9 -2.02 9 -1 9 C-1.33 7.02 -1.66 5.04 -2 3 C-1.34 3 -0.68 3 0 3 C0 2.01 0 1.02 0 0 Z " fill="#4E9A3B" transform="translate(37,97)"/>
<path d="M0 0 C0 0.99 0 1.98 0 3 C-3 5 -3 5 -5.0625 5.9375 C-7.32261104 6.98251298 -7.32261104 6.98251298 -9 10 C-9.99 9.67 -10.98 9.34 -12 9 C-11.34 7.35 -10.68 5.7 -10 4 C-9.34 4 -8.68 4 -8 4 C-7.67 3.34 -7.34 2.68 -7 2 C-4 0 -4 0 0 0 Z " fill="#3BB024" transform="translate(57,162)"/>
<path d="M0 0 C4.875 4.75 4.875 4.75 6 7 C2.04 12.94 2.04 12.94 -2 19 C-2.33 18.34 -2.66 17.68 -3 17 C-2.505 15.515 -2.505 15.515 -2 14 C-1.34 14 -0.68 14 0 14 C0.39180108 12.42074025 0.76280736 10.83631206 1.125 9.25 C1.43824219 7.92742187 1.43824219 7.92742187 1.7578125 6.578125 C2.03088304 3.67124507 1.53508028 2.43338652 0 0 Z " fill="#439828" transform="translate(27,111)"/>
<path d="M0 0 C0.66 0 1.32 0 2 0 C2 6.6 2 13.2 2 20 C0.68 19.67 -0.64 19.34 -2 19 C-1.01 18.67 -0.02 18.34 1 18 C0.67 14.04 0.34 10.08 0 6 C-1.32 6 -2.64 6 -4 6 C-2.84826645 3.53199953 -1.95216435 1.95216435 0 0 Z " fill="#4D973B" transform="translate(32,32)"/>
<path d="M0 0 C1.98 0 3.96 0 6 0 C5.34 1.65 4.68 3.3 4 5 C5.98 5.66 7.96 6.32 10 7 C6.08428299 8.305239 4.96107003 7.32239848 1.3125 5.5625 C0.31863281 5.08941406 -0.67523438 4.61632812 -1.69921875 4.12890625 C-2.45847656 3.75636719 -3.21773437 3.38382813 -4 3 C-2.68 2.67 -1.36 2.34 0 2 C0 1.34 0 0.68 0 0 Z " fill="#48A231" transform="translate(64,210)"/>
<path d="M0 0 C2.35716404 2.15454249 3.78966144 4.19719874 5.1875 7.0625 C5.53167969 7.75472656 5.87585938 8.44695312 6.23046875 9.16015625 C7 11 7 11 7 13 C6.01 12.67 5.02 12.34 4 12 C3.3125 9.9375 3.3125 9.9375 3 8 C1.68 7.67 0.36 7.34 -1 7 C-1.33 7.66 -1.66 8.32 -2 9 C-1.125 1.125 -1.125 1.125 0 0 Z " fill="#41962B" transform="translate(5,75)"/>
<path d="M0 0 C7.48291572 6.15034169 7.48291572 6.15034169 10 10 C6.0186217 11.3271261 2.14954773 11.06915913 -2 11 C-2 10.67 -2 10.34 -2 10 C-0.02 10 1.96 10 4 10 C3.72382467 8.05925139 3.72382467 8.05925139 3 6 C2.01 5.34 1.02 4.68 0 4 C0 2.68 0 1.36 0 0 Z " fill="#479135" transform="translate(57,163)"/>
<path d="M0 0 C0.66 0.33 1.32 0.66 2 1 C2.73075648 3.3140622 3.40138258 5.64828869 4 8 C3.38125 7.835 2.7625 7.67 2.125 7.5 C0.03936614 6.92365356 0.03936614 6.92365356 -2 7 C-3.57840572 8.55705194 -3.57840572 8.55705194 -5.125 10.5 C-5.66382813 11.1496875 -6.20265625 11.799375 -6.7578125 12.46875 C-7.37269531 13.22671875 -7.37269531 13.22671875 -8 14 C-8.66 13.67 -9.32 13.34 -10 13 C-9.44570312 12.39671875 -8.89140625 11.7934375 -8.3203125 11.171875 C-7.59585938 10.37265625 -6.87140625 9.5734375 -6.125 8.75 C-5.04605469 7.56664062 -5.04605469 7.56664062 -3.9453125 6.359375 C-2.23064517 4.27973832 -1.07019127 2.45580733 0 0 Z " fill="#4A9F34" transform="translate(177,151)"/>
<path d="M0 0 C0.33 0.66 0.66 1.32 1 2 C1.66 2 2.32 2 3 2 C3 3.65 3 5.3 3 7 C3.66 7 4.32 7 5 7 C5.83819158 8.62249941 6.6704116 10.24808497 7.5 11.875 C7.9640625 12.77992187 8.428125 13.68484375 8.90625 14.6171875 C10 17 10 17 10 19 C9.34 19 8.68 19 8 19 C6.65929682 16.39939496 5.32726646 13.79495084 4 11.1875 C3.6184375 10.44951172 3.236875 9.71152344 2.84375 8.95117188 C2.4828125 8.23896484 2.121875 7.52675781 1.75 6.79296875 C1.41484375 6.1383667 1.0796875 5.48376465 0.734375 4.80932617 C0 3 0 3 0 0 Z " fill="#4A9A33" transform="translate(12,73)"/>
<path d="M0 0 C5.97618048 2.77549884 11.13959908 5.52331494 16 10 C15.67 10.66 15.34 11.32 15 12 C10.87735775 10.1260717 8.13003079 8.23099952 5 5 C4.0925 4.46375 3.185 3.9275 2.25 3.375 C1.5075 2.92125 0.765 2.4675 0 2 C0 1.34 0 0.68 0 0 Z " fill="#4D9A3A" transform="translate(165,12)"/>
<path d="M0 0 C0.33 0 0.66 0 1 0 C1.125 5.75 1.125 5.75 0 8 C0.66 8 1.32 8 2 8 C2.33 7.34 2.66 6.68 3 6 C3.99 6.66 4.98 7.32 6 8 C2.04 9.98 2.04 9.98 -2 12 C-3.40907283 9.18185434 -2.50872691 7.82722796 -1.5625 4.875 C-1.27503906 3.96492188 -0.98757812 3.05484375 -0.69140625 2.1171875 C-0.46324219 1.41851562 -0.23507813 0.71984375 0 0 Z " fill="#499636" transform="translate(73,37)"/>
<path d="M0 0 C0.37125 0.515625 0.7425 1.03125 1.125 1.5625 C3.18487503 4.24033754 5.37316032 6.7749338 7.59765625 9.31640625 C9 11 9 11 11 14 C7.09714233 12.41332422 4.66479018 9.86649519 1.75 6.875 C0.85796875 5.96492187 -0.0340625 5.05484375 -0.953125 4.1171875 C-1.62859375 3.41851562 -2.3040625 2.71984375 -3 2 C-2.01 1.34 -1.02 0.68 0 0 Z " fill="#4B9935" transform="translate(29,186)"/>
<path d="M0 0 C0.94875 0.350625 1.8975 0.70125 2.875 1.0625 C1.875 3.0625 1.875 3.0625 -0.19140625 3.9140625 C-1.42697266 4.29691406 -1.42697266 4.29691406 -2.6875 4.6875 C-3.51378906 4.94789063 -4.34007812 5.20828125 -5.19140625 5.4765625 C-5.82949219 5.66992188 -6.46757812 5.86328125 -7.125 6.0625 C-7.125 5.4025 -7.125 4.7425 -7.125 4.0625 C-6.465 4.0625 -5.805 4.0625 -5.125 4.0625 C-5.125 2.7425 -5.125 1.4225 -5.125 0.0625 C-3.125 -0.9375 -3.125 -0.9375 0 0 Z " fill="#48A230" transform="translate(161.125,210.9375)"/>
<path d="M0 0 C0.886875 0.309375 1.77375 0.61875 2.6875 0.9375 C5.46709155 1.8290671 8.13136375 2.49377007 11 3 C11.33 5.31 11.66 7.62 12 10 C3.55353075 3.84965831 3.55353075 3.84965831 0 0 Z " fill="#489C33" transform="translate(3,121)"/>
<path d="M0 0 C2.475 0.99 2.475 0.99 5 2 C4.67 3.32 4.34 4.64 4 6 C1.36 6 -1.28 6 -4 6 C-3.34 4.68 -2.68 3.36 -2 2 C-1.34 2 -0.68 2 0 2 C0 1.34 0 0.68 0 0 Z " fill="#48A831" transform="translate(50,167)"/>
<path d="M0 0 C0.66 0 1.32 0 2 0 C2.33 1.32 2.66 2.64 3 4 C2.01 4.495 2.01 4.495 1 5 C1 5.99 1 6.98 1 8 C0.34 8 -0.32 8 -1 8 C-1 11.3 -1 14.6 -1 18 C-1.33 18 -1.66 18 -2 18 C-2.3690205 5.33029613 -2.3690205 5.33029613 0 0 Z " fill="#439230" transform="translate(48,152)"/>
<path d="M0 0 C3.26845713 4.90268569 4.27944109 9.13173703 4 15 C3.34 15 2.68 15 2 15 C1.8046875 12.94921875 1.609375 10.8984375 1.4140625 8.84765625 C1.20910156 7.93306641 1.20910156 7.93306641 1 7 C0.34 6.67 -0.32 6.34 -1 6 C-0.67 4.02 -0.34 2.04 0 0 Z " fill="#499A2E" transform="translate(220,79)"/>
<path d="M0 0 C0.99 0.33 1.98 0.66 3 1 C4 4 4 4 3.22265625 5.82421875 C2.1484375 7.54947917 1.07421875 9.27473958 0 11 C-1.24546405 8.50907189 -0.7767578 7.58919267 0 5 C-0.66 4.67 -1.32 4.34 -2 4 C-1.34 2.68 -0.68 1.36 0 0 Z " fill="#45A42F" transform="translate(211,157)"/>
<path d="M0 0 C1.32 0.33 2.64 0.66 4 1 C4 3.64 4 6.28 4 9 C3.01 8.67 2.02 8.34 1 8 C0.67 5.36 0.34 2.72 0 0 Z " fill="#41B126" transform="translate(2,129)"/>
<path d="M0 0 C5.20540698 0.96396425 9.59913433 1.87680501 14 5 C12.68 5.33 11.36 5.66 10 6 C10 5.34 10 4.68 10 4 C8.906875 3.855625 7.81375 3.71125 6.6875 3.5625 C3 3 3 3 0 2 C0 1.34 0 0.68 0 0 Z " fill="#489435" transform="translate(74,35)"/>
<path d="M0 0 C0.33 0.99 0.66 1.98 1 3 C-0.43359375 5.48046875 -0.43359375 5.48046875 -2.4375 8.1875 C-3.09621094 9.08855469 -3.75492188 9.98960937 -4.43359375 10.91796875 C-5.20896484 11.94857422 -5.20896484 11.94857422 -6 13 C-7 10 -7 10 -6.375 7.625 C-4.72039116 4.46620131 -2.60999033 2.40393846 0 0 Z " fill="#469433" transform="translate(209,168)"/>
<path d="M0 0 C0.66 0.33 1.32 0.66 2 1 C0.3125 3 0.3125 3 -2 5 C-3.66617115 5.04063832 -5.33388095 5.042721 -7 5 C-8.81476003 6.39585785 -8.81476003 6.39585785 -10 8 C-10.66 7.67 -11.32 7.34 -12 7 C-6.01676446 1.57334451 -6.01676446 1.57334451 -1 1 C-0.67 0.67 -0.34 0.34 0 0 Z " fill="#45A52F" transform="translate(173,163)"/>
<path d="M0 0 C2.97 1.98 2.97 1.98 6 4 C5.01 4.495 5.01 4.495 4 5 C3.34 4.67 2.68 4.34 2 4 C1.67 6.31 1.34 8.62 1 11 C0.67 11 0.34 11 0 11 C0 7.37 0 3.74 0 0 Z " fill="#41942B" transform="translate(0,125)"/>
<path d="M0 0 C0.33 0 0.66 0 1 0 C1 3.3 1 6.6 1 10 C-0.98 9.01 -2.96 8.02 -5 7 C-5 6.34 -5 5.68 -5 5 C-3.68 4.67 -2.36 4.34 -1 4 C-0.67 2.68 -0.34 1.36 0 0 Z " fill="#48B02F" transform="translate(32,38)"/>
<path d="M0 0 C5.94 0.66 11.88 1.32 18 2 C18 2.33 18 2.66 18 3 C15.56183415 3.0809723 13.12635616 3.14046972 10.6875 3.1875 C9.65206055 3.22520508 9.65206055 3.22520508 8.59570312 3.26367188 C6.57421875 3.29296875 6.57421875 3.29296875 3 3 C2.01 2.01 1.02 1.02 0 0 Z " fill="#45922A" transform="translate(23,174)"/>
<path d="M0 0 C2.64465038 3.1254959 3.84414715 6.08788267 5 10 C3.68 9.67 2.36 9.34 1 9 C0.67 6.03 0.34 3.06 0 0 Z " fill="#469D33" transform="translate(211,57)"/>
<path d="M0 0 C1.98 0 3.96 0 6 0 C5.34 1.32 4.68 2.64 4 4 C4 3.34 4 2.68 4 2 C3.34 2 2.68 2 2 2 C2 4.97 2 7.94 2 11 C1.67 11 1.34 11 1 11 C0.67 7.37 0.34 3.74 0 0 Z " fill="#4BA039" transform="translate(43,58)"/>
<path d="M0 0 C2.475 0.99 2.475 0.99 5 2 C5 2.66 5 3.32 5 4 C5.66 4.33 6.32 4.66 7 5 C4.69 5 2.38 5 0 5 C-0.33 4.01 -0.66 3.02 -1 2 C-0.67 1.34 -0.34 0.68 0 0 Z " fill="#3FAB25" transform="translate(54,168)"/>
<path d="M0 0 C0.33 0 0.66 0 1 0 C1 1.98 1 3.96 1 6 C1.66 6.33 2.32 6.66 3 7 C2 8 2 8 -0.5625 8.0625 C-1.366875 8.041875 -2.17125 8.02125 -3 8 C-1.125 2.25 -1.125 2.25 0 0 Z " fill="#499E30" transform="translate(181,143)"/>
<path d="M0 0 C1.32 0.33 2.64 0.66 4 1 C4 1.66 4 2.32 4 3 C2.5459375 3.4021875 2.5459375 3.4021875 1.0625 3.8125 C0.051875 4.204375 -0.95875 4.59625 -2 5 C-2.33 5.99 -2.66 6.98 -3 8 C-3.33 7.34 -3.66 6.68 -4 6 C-2.68 4.02 -1.36 2.04 0 0 Z " fill="#4B9D37" transform="translate(24,142)"/>
<path d="M0 0 C0.66 0.33 1.32 0.66 2 1 C2 1.99 2 2.98 2 4 C1.38125 4.2475 0.7625 4.495 0.125 4.75 C-2.35068687 6.20628639 -2.95125002 7.37812506 -4 10 C-4.66 9.67 -5.32 9.34 -6 9 C-4.02 6.03 -2.04 3.06 0 0 Z " fill="#4D8F35" transform="translate(37,120)"/>
<path d="M0 0 C0.6875 1.8125 0.6875 1.8125 1 4 C-0.4375 5.75 -0.4375 5.75 -2 7 C-2 5.68 -2 4.36 -2 3 C-3.65 3.33 -5.3 3.66 -7 4 C-4.61426621 2.10786631 -2.92824652 0.97608217 0 0 Z " fill="#4E9834" transform="translate(75,5)"/>
<path d="M0 0 C1.46067199 0.45082469 2.91848032 0.91093537 4.375 1.375 C5.18710937 1.63023437 5.99921875 1.88546875 6.8359375 2.1484375 C9 3 9 3 11 5 C9 6 9 6 5.5 5.3125 C2 4 2 4 0.78125 1.91796875 C0.5234375 1.28503906 0.265625 0.65210938 0 0 Z " fill="#4C982B" transform="translate(30,145)"/>
<path d="M0 0 C3.93846154 4.30769231 3.93846154 4.30769231 4.25 7.8125 C4.1675 8.534375 4.085 9.25625 4 10 C3.34 10 2.68 10 2 10 C1.34 6.7 0.68 3.4 0 0 Z " fill="#47A032" transform="translate(3,143)"/>
<path d="M0 0 C0.66 0.33 1.32 0.66 2 1 C2 2.65 2 4.3 2 6 C1.01 6 0.02 6 -1 6 C-1 5.34 -1 4.68 -1 4 C-1.66 4 -2.32 4 -3 4 C-3 3.34 -3 2.68 -3 2 C-2.01 1.34 -1.02 0.68 0 0 Z " fill="#3EB125" transform="translate(34,100)"/>
<path d="M0 0 C2.31 0 4.62 0 7 0 C7 0.99 7 1.98 7 3 C3.37673261 4.2077558 2.35853631 3.54311128 -1 2 C-0.67 1.34 -0.34 0.68 0 0 Z " fill="#559943" transform="translate(52,57)"/>
<path d="M0 0 C0.99 0.33 1.98 0.66 3 1 C3 1.66 3 2.32 3 3 C0.09451118 5.04169485 -1.40142046 6 -5 6 C-3.35 4.02 -1.7 2.04 0 0 Z " fill="#46A430" transform="translate(27,38)"/>
<path d="M0 0 C0.33 0.99 0.66 1.98 1 3 C-3 3 -3 3 -4.75 1.5 C-5.1625 1.005 -5.575 0.51 -6 0 C-3 -1 -3 -1 0 0 Z " fill="#4B9B38" transform="translate(22,131)"/>
<path d="M0 0 C0.66 0.33 1.32 0.66 2 1 C2 3.97 2 6.94 2 10 C0.23934164 7.35901246 -0.52722899 6.0257345 -1 3 C-0.67 2.01 -0.34 1.02 0 0 Z " fill="#4EA038" transform="translate(1,133)"/>
<path d="M0 0 C1.65 0 3.3 0 5 0 C4.34 1.65 3.68 3.3 3 5 C2.01 4.67 1.02 4.34 0 4 C0 2.68 0 1.36 0 0 Z " fill="#4E963D" transform="translate(45,69)"/>
<path d="M0 0 C0.66 0.33 1.32 0.66 2 1 C0.25 3.5 0.25 3.5 -2 6 C-3.32 6 -4.64 6 -6 6 C-5 3 -5 3 -2.5625 1.25 C-1.716875 0.8375 -0.87125 0.425 0 0 Z " fill="#53953E" transform="translate(57,13)"/>
</svg>
