<?xml version="1.0" encoding="UTF-8"?>
<svg version="1.1" xmlns="http://www.w3.org/2000/svg" width="286" height="176">
<path d="M0 0 C9.46548681 7.71570492 16.32112036 18.82812262 18 31 C19.46875065 47.92327143 16.21284794 61.96756671 5.12109375 75.25 C-4.39633875 85.401928 -16.78943265 90.92835578 -30.67163086 91.47290039 C-45.76605399 91.64858257 -58.55813816 87.12112531 -69.75 76.75 C-80.11696271 65.56263017 -84.66042307 52.76165483 -84.47070312 37.66943359 C-83.89504202 23.25647184 -77.78576059 10.73158203 -67.29296875 0.84765625 C-47.06205408 -15.45425625 -20.66408433 -15.52995226 0 0 Z M-55 25 C-58.7290321 31.25006789 -60.12721353 37.79963605 -59 45 C-56.98656187 51.89998461 -53.13170414 58.37580953 -46.9765625 62.28515625 C-39.64542388 66.08699208 -32.54681438 67.20283807 -24.5 64.9375 C-16.66604579 62.05557902 -11.49862827 56.41709194 -8 49 C-5.79075035 41.67066501 -6.44389851 34.34827544 -9.54296875 27.39453125 C-13.22731228 21.33956453 -19.08311091 16.47365383 -25.90625 14.40234375 C-37.42220986 12.18938878 -47.40995322 16.03929014 -55 25 Z " fill="#F6AB05" transform="translate(212,48)"/>
<path d="M0 0 C0.86625 0.721875 1.7325 1.44375 2.625 2.1875 C1.97517013 5.43341637 0.79473614 7.8872592 -0.87890625 10.734375 C-1.37197266 11.57871094 -1.86503906 12.42304687 -2.37304688 13.29296875 C-3.14745117 14.60201172 -3.14745117 14.60201172 -3.9375 15.9375 C-4.45763672 16.82566406 -4.97777344 17.71382812 -5.51367188 18.62890625 C-6.79637705 20.8177426 -8.08361056 23.00377981 -9.375 25.1875 C-10.1803418 24.66893433 -10.1803418 24.66893433 -11.00195312 24.13989258 C-11.71287109 23.68767334 -12.42378906 23.2354541 -13.15625 22.76953125 C-13.85814453 22.3206958 -14.56003906 21.87186035 -15.28320312 21.40942383 C-21.30041795 17.89446582 -27.86909408 17.31793921 -34.6015625 18.6171875 C-41.54603675 20.55018549 -47.03563637 24.26000501 -50.76171875 30.515625 C-54.21510544 38.22213003 -54.58355932 45.38233164 -51.875 53.375 C-49.1203396 59.50074831 -45.06267685 63.42010595 -39.01953125 66.31640625 C-32.0690135 68.78058027 -24.94601421 68.92237338 -18.0078125 66.2890625 C-14.94874168 64.79874595 -12.20836754 63.0764117 -9.375 61.1875 C-7.33385124 64.42515348 -5.3207799 67.67937439 -3.3125 70.9375 C-2.73177734 71.85789062 -2.15105469 72.77828125 -1.55273438 73.7265625 C-0.73579102 75.06074219 -0.73579102 75.06074219 0.09765625 76.421875 C0.60562744 77.23881836 1.11359863 78.05576172 1.63696289 78.89746094 C2.625 81.1875 2.625 81.1875 2.46289062 83.36962891 C1.04028918 86.45607714 -1.99446629 87.44509457 -4.9375 88.8125 C-5.58154785 89.11808838 -6.2255957 89.42367676 -6.88916016 89.73852539 C-19.66440165 95.66839083 -33.15821544 96.10151965 -46.484375 91.375 C-60.44368738 85.64036356 -70.52447339 76.08319331 -76.69140625 62.23046875 C-81.4465477 49.05856125 -81.09833022 33.98479883 -75.375 21.1875 C-68.3935858 7.79025453 -58.06610432 -1.38445879 -43.875 -6.75 C-29.16236068 -10.52308008 -12.55662582 -8.73721478 0 0 Z " fill="#E87103" transform="translate(135.375,44.8125)"/>
<path d="M0 0 C5.66265439 2.52643781 9.00251587 10.69974902 11.24316406 16.14599609 C16.07816754 28.86415741 15.39113795 44.48419165 9.86816406 56.83349609 C2.9356468 70.13690897 -7.00228547 79.12541253 -21.13183594 84.20849609 C-34.8774598 88.06634808 -49.74757081 87.02257866 -62.30371094 80.07958984 C-65.84106286 77.88478211 -69.18243987 75.78289216 -72.13183594 72.83349609 C-71.82554807 69.28950353 -70.23685319 67.58292468 -67.75292969 65.16162109 C-67.07939453 64.49775391 -66.40585938 63.83388672 -65.71191406 63.14990234 C-65.00486328 62.46798828 -64.2978125 61.78607422 -63.56933594 61.08349609 C-62.85841797 60.38611328 -62.1475 59.68873047 -61.41503906 58.97021484 C-59.6605288 57.25103029 -57.89940241 55.53923738 -56.13183594 53.83349609 C-53.35974127 54.91700518 -50.72447909 56.04133122 -48.06933594 57.39599609 C-41.71948642 60.50336926 -35.41029394 60.67926665 -28.63183594 58.77099609 C-22.65598855 56.54166442 -18.0290103 53.01861136 -14.74511719 47.50537109 C-11.72988546 40.77664346 -10.7744264 34.23556254 -12.96777344 27.12255859 C-14.47972436 23.24605285 -16.26817297 19.55009451 -18.13183594 15.83349609 C-15.56891743 13.12586798 -12.9784839 10.44626229 -10.38183594 7.77099609 C-9.65222656 6.99949219 -8.92261719 6.22798828 -8.17089844 5.43310547 C-7.46191406 4.70800781 -6.75292969 3.98291016 -6.02246094 3.23583984 C-5.3730957 2.56029053 -4.72373047 1.88474121 -4.0546875 1.1887207 C-2.13183594 -0.16650391 -2.13183594 -0.16650391 0 0 Z " fill="#E77104" transform="translate(216.1318359375,53.16650390625)"/>
<path d="M0 0 C0.86625 0.721875 1.7325 1.44375 2.625 2.1875 C1.97517013 5.43341637 0.79473614 7.8872592 -0.87890625 10.734375 C-1.37197266 11.57871094 -1.86503906 12.42304687 -2.37304688 13.29296875 C-2.88931641 14.16566406 -3.40558594 15.03835937 -3.9375 15.9375 C-4.45763672 16.82566406 -4.97777344 17.71382812 -5.51367188 18.62890625 C-6.79637705 20.8177426 -8.08361056 23.00377981 -9.375 25.1875 C-10.1803418 24.66893433 -10.1803418 24.66893433 -11.00195312 24.13989258 C-11.71287109 23.68767334 -12.42378906 23.2354541 -13.15625 22.76953125 C-14.2090918 22.09627808 -14.2090918 22.09627808 -15.28320312 21.40942383 C-21.28750427 17.90200935 -28.04541925 17.14439969 -34.7421875 18.7578125 C-38.12697181 19.81208958 -40.84573515 20.78697525 -43.6875 22.9375 C-45.375 24.1875 -45.375 24.1875 -47.375 24.125 C-49.9715759 22.90785505 -51.52799357 21.364329 -53.375 19.1875 C-53.375 18.5275 -53.375 17.8675 -53.375 17.1875 C-54.23351562 16.80464844 -54.23351562 16.80464844 -55.109375 16.4140625 C-57.61673733 15.05662841 -59.5080456 13.46775896 -61.625 11.5625 C-62.33140625 10.93085937 -63.0378125 10.29921875 -63.765625 9.6484375 C-64.29671875 9.16632812 -64.8278125 8.68421875 -65.375 8.1875 C-59.99429454 0.30860987 -50.63770192 -5.01569419 -41.453125 -7.37109375 C-26.79934194 -9.47246112 -12.49954525 -8.69749669 0 0 Z " fill="#F6AB05" transform="translate(135.375,44.8125)"/>
<path d="M0 0 C3.5592537 3.33469715 5.77459626 7.27336743 8.25 11.4375 C8.72179687 12.20126953 9.19359375 12.96503906 9.6796875 13.75195312 C10.12054688 14.49251953 10.56140625 15.23308594 11.015625 15.99609375 C11.62325684 17.00434204 11.62325684 17.00434204 12.24316406 18.03295898 C13.18938759 20.49222445 13.03606488 21.59593935 12 24 C9.80058789 25.41454727 7.78873096 26.5325606 5.4375 27.625 C4.79345215 27.93058838 4.1494043 28.23617676 3.48583984 28.55102539 C-9.29544967 34.48369813 -22.76078727 34.89762129 -36.09765625 30.19921875 C-43.43683282 27.16674606 -49.15004132 23.35208986 -55 18 C-54.30003906 17.30648437 -53.60007812 16.61296875 -52.87890625 15.8984375 C-50.89208404 13.91511445 -48.95037746 11.89670353 -47.02734375 9.8515625 C-45.99751153 8.77593088 -44.96756247 7.70041113 -43.9375 6.625 C-43.42123047 6.06683594 -42.90496094 5.50867188 -42.37304688 4.93359375 C-40.83984375 3.3515625 -40.83984375 3.3515625 -38 1 C-35.0188337 1.03252181 -32.97359454 2.51011293 -30.4375 4 C-23.73853672 7.3929814 -16.83149783 7.76425983 -9.625 5.8125 C-5.80041643 4.49703814 -2.94015888 2.84215359 0 0 Z " fill="#F6AB06" transform="translate(125,106)"/>
<path d="M0 0 C0.33 0.66 0.66 1.32 1 2 C-1.51243077 7.16444104 -5.25866381 10.83910921 -10 14 C-10.2236068 16.9254644 -10.2236068 16.9254644 -9 19 C-12.16115776 17.63016497 -12.9927092 17.0109362 -15 14 C-14.50371094 13.57589844 -14.00742188 13.15179688 -13.49609375 12.71484375 C-8.79678658 8.65756716 -4.32846012 4.45019806 0 0 Z " fill="#F8A718" transform="translate(85,109)"/>
<path d="M0 0 C1.155 0.33 2.31 0.66 3.5 1 C11.09141026 2.86783381 17.5565682 1.92977862 25 0 C23.84826645 2.46800047 22.95216435 4.04783565 21 6 C21 5.34 21 4.68 21 4 C19.02 4.66 17.04 5.32 15 6 C14.67 5.67 14.34 5.34 14 5 C12.58776052 4.81617544 11.16948956 4.67765727 9.75 4.5625 C6.1810892 4.20959335 3.26064655 3.5777322 0 2 C0 1.34 0 0.68 0 0 Z " fill="#DB7118" transform="translate(167,111)"/>
<path d="M0 0 C1.4783226 2.95664519 1.06032783 5.74229737 1 9 C-1.47410718 9.63847927 -3.46269888 10 -6 10 C-6.103125 10.763125 -6.20625 11.52625 -6.3125 12.3125 C-7.04364039 15.17059424 -7.76951913 16.15742885 -10 18 C-9.4308221 13.71947031 -7.91990078 10.90496315 -5.5625 7.3125 C-4.94503906 6.35988281 -4.32757813 5.40726563 -3.69140625 4.42578125 C-2 2 -2 2 0 0 Z " fill="#D87113" transform="translate(69,53)"/>
<path d="M0 0 C3.40062014 1.40715316 4.89229698 3.02868228 7 6 C2.38465781 10.06478107 -2.25585812 14.08608295 -7 18 C-7.33 17.01 -7.66 16.02 -8 15 C-7.34 15 -6.68 15 -6 15 C-6 14.34 -6 13.68 -6 13 C-4.34928604 11.97388051 -2.68029994 10.97691857 -1 10 C0.85602615 8.72840348 0.85602615 8.72840348 2 7 C2.25069913 4.37429296 2.25069913 4.37429296 2 2 C1.34 2 0.68 2 0 2 C0 1.34 0 0.68 0 0 Z " fill="#FDA718" transform="translate(209,47)"/>
<path d="M0 0 C3.10408807 -0.05807043 6.2080364 -0.09361914 9.3125 -0.125 C10.19357422 -0.14175781 11.07464844 -0.15851562 11.98242188 -0.17578125 C12.82998047 -0.18222656 13.67753906 -0.18867187 14.55078125 -0.1953125 C15.72120972 -0.21102295 15.72120972 -0.21102295 16.9152832 -0.22705078 C19 0 19 0 22 2 C19.64628886 2.1968999 17.2925305 2.38270974 14.9375 2.5625 C12.97103516 2.71912109 12.97103516 2.71912109 10.96484375 2.87890625 C7.07674103 2.99765619 3.80889777 2.66866216 0 2 C0 1.34 0 0.68 0 0 Z " fill="#EFAE21" transform="translate(98,37)"/>
<path d="M0 0 C2.625 0.9375 2.625 0.9375 5 2 C3.35 4.31 1.7 6.62 0 9 C-1.7074998 7.71937515 -3.37373596 6.38232443 -5 5 C-5 4.34 -5 3.68 -5 3 C-4.01 3 -3.02 3 -2 3 C-2 2.34 -2 1.68 -2 1 C-1.34 0.67 -0.68 0.34 0 0 Z " fill="#F2A512" transform="translate(144,116)"/>
<path d="M0 0 C2.97 1.98 2.97 1.98 6 4 C5.19185349 5.33597652 4.37836819 6.668725 3.5625 8 C3.11003906 8.7425 2.65757813 9.485 2.19140625 10.25 C1.79824219 10.8275 1.40507813 11.405 1 12 C0.67 12 0.34 12 0 12 C-0.19401633 10.18818595 -0.38004375 8.37551468 -0.5625 6.5625 C-0.66691406 5.55316406 -0.77132812 4.54382813 -0.87890625 3.50390625 C-0.91886719 2.67761719 -0.95882812 1.85132812 -1 1 C-0.67 0.67 -0.34 0.34 0 0 Z " fill="#DB720C" transform="translate(83,65)"/>
<path d="M0 0 C-1.11878383 1.17262904 -2.24523051 2.33795138 -3.375 3.5 C-4.00148437 4.1496875 -4.62796875 4.799375 -5.2734375 5.46875 C-7 7 -7 7 -9 7 C-8.67 4.69 -8.34 2.38 -8 0 C-4.90645403 -0.99435406 -3.09720845 -0.87840996 0 0 Z " fill="#DF7110" transform="translate(218,122)"/>
<path d="M0 0 C0.66 0.66 1.32 1.32 2 2 C1.01 2.33 0.02 2.66 -1 3 C-0.69964844 3.77085938 -0.39929687 4.54171875 -0.08984375 5.3359375 C0.29042969 6.33882813 0.67070313 7.34171875 1.0625 8.375 C1.63677734 9.87160156 1.63677734 9.87160156 2.22265625 11.3984375 C3 14 3 14 2 16 C-0.81532819 10.95859836 -2.5188509 6.77378925 -3 1 C-2.01 0.67 -1.02 0.34 0 0 Z " fill="#D67114" transform="translate(60,97)"/>
<path d="M0 0 C2 3 2 3 2 5 C0.00669158 6.34331654 -1.99384866 7.67594012 -4 9 C-4.99 10.485 -4.99 10.485 -6 12 C-7.32 11.67 -8.64 11.34 -10 11 C-9.44570312 10.54109375 -8.89140625 10.0821875 -8.3203125 9.609375 C-7.59585938 8.99578125 -6.87140625 8.3821875 -6.125 7.75 C-5.04605469 6.84507813 -5.04605469 6.84507813 -3.9453125 5.921875 C-2.02947882 4.02912366 -1.03550955 2.46342273 0 0 Z " fill="#D36E16" transform="translate(202,99)"/>
<path d="M0 0 C0.99 0.33 1.98 0.66 3 1 C2.34 2.98 1.68 4.96 1 7 C-1.475 6.01 -1.475 6.01 -4 5 C-2.68 3.35 -1.36 1.7 0 0 Z " fill="#EAAD14" transform="translate(147,47)"/>
<path d="M0 0 C4.12751449 0.60698743 7.3321148 2.03810791 11 4 C9.68 4.33 8.36 4.66 7 5 C6.67 4.34 6.34 3.68 6 3 C5.01 3 4.02 3 3 3 C2.67 3.66 2.34 4.32 2 5 C2 4.01 2 3.02 2 2 C1.34 2 0.68 2 0 2 C0 1.34 0 0.68 0 0 Z M4 5 C6 6 6 6 6 6 Z " fill="#EDB116" transform="translate(121,39)"/>
<path d="M0 0 C-3.28804981 2.91227269 -5.59885603 4.49701212 -10 5 C-9.34 4.67 -8.68 4.34 -8 4 C-8.33 3.01 -8.66 2.02 -9 1 C-6.04335481 -0.4783226 -3.25770263 -0.06032783 0 0 Z " fill="#D87416" transform="translate(208,130)"/>
<path d="M0 0 C0.33 0.66 0.66 1.32 1 2 C-1.475 3.485 -1.475 3.485 -4 5 C-3.67 5.66 -3.34 6.32 -3 7 C-5.31 7.66 -7.62 8.32 -10 9 C-6.93906776 5.06451569 -4.50884026 2.31883213 0 0 Z " fill="#E9A626" transform="translate(80,44)"/>
<path d="M0 0 C2.48862878 3.23521742 4.75421558 6.59260295 7 10 C5.35 9.67 3.7 9.34 2 9 C2 8.01 2 7.02 2 6 C1.34 6 0.68 6 0 6 C0 4.02 0 2.04 0 0 Z " fill="#D67216" transform="translate(82,97)"/>
<path d="M0 0 C3.36720387 1.39332574 4.9859524 2.9789286 7 6 C5.02 6.99 5.02 6.99 3 8 C2.67 6.02 2.34 4.04 2 2 C1.34 2 0.68 2 0 2 C0 1.34 0 0.68 0 0 Z " fill="#EFA425" transform="translate(209,47)"/>
<path d="M0 0 C3.08089673 2.77280706 4.68775452 5.06326356 6 9 C3 7.3125 3 7.3125 0 5 C-0.375 2.25 -0.375 2.25 0 0 Z " fill="#D7731A" transform="translate(218,55)"/>
<path d="M0 0 C0 0.66 0 1.32 0 2 C-0.99 2.33 -1.98 2.66 -3 3 C-3.33 3.66 -3.66 4.32 -4 5 C-7.0625 5.625 -7.0625 5.625 -10 6 C-4.4 0 -4.4 0 0 0 Z " fill="#EEAF1B" transform="translate(159,41)"/>
<path d="M0 0 C0.33 0.99 0.66 1.98 1 3 C-4.75 1.25 -4.75 1.25 -7 -1 C-3.51418144 -2.2020064 -3.32007656 -2.21338437 0 0 Z " fill="#F0A81B" transform="translate(87,132)"/>
<path d="M0 0 C-2.25 1.625 -2.25 1.625 -5 3 C-7.3125 2.1875 -7.3125 2.1875 -9 1 C-5.57367167 -0.61798838 -3.61944899 -1.34053666 0 0 Z " fill="#F1B219" transform="translate(97,39)"/>
</svg>
