<?xml version="1.0" encoding="UTF-8"?>
<svg version="1.1" xmlns="http://www.w3.org/2000/svg" width="310" height="163">
<path d="M0 0 C0.86625 0.825 1.7325 1.65 2.625 2.5 C18.41037077 15.93503387 38.34899742 21.41814994 58.75 21.3125 C60.4657019 21.30404053 60.4657019 21.30404053 62.21606445 21.29541016 C81.33731542 21.02161043 98.04881516 16.18792955 113 4 C113.92554688 3.26007813 114.85109375 2.52015625 115.8046875 1.7578125 C116.52914062 1.17773438 117.25359375 0.59765625 118 0 C115.90465424 7.9885057 112.08582895 13.55729922 107 20 C106.35933594 20.85207031 105.71867187 21.70414063 105.05859375 22.58203125 C94.85605905 34.5656536 78.48132761 41.05680777 63.1484375 42.31640625 C45.74904602 43.06245883 30.15096277 37.36090432 17 26 C16.32066406 25.42765625 15.64132813 24.8553125 14.94140625 24.265625 C8.43535159 18.33027689 1.55760845 8.86301145 0 0 Z " fill="#F07626" transform="translate(96,99)"/>
<path d="M0 0 C7.9890575 6.79332686 15.22335617 16.31824597 18.6875 26.3125 C18.1925 27.3025 18.1925 27.3025 17.6875 28.3125 C17.12804687 27.74402344 16.56859375 27.17554688 15.9921875 26.58984375 C-1.69071163 9.56081388 -23.73188227 6.77678434 -47.22265625 7.04296875 C-65.10861282 7.52165684 -81.54666222 13.76146285 -95.3125 25.3125 C-96.64129613 26.31852118 -97.97359903 27.31996689 -99.3125 28.3125 C-94.71358277 13.41552888 -84.59503938 1.77016722 -71.28125 -6.1875 C-47.43716422 -18.23503808 -21.40626545 -15.90558423 0 0 Z " fill="#F17627" transform="translate(195.3125,28.6875)"/>
<path d="M0 0 C3.90854743 2.43198507 5.83014582 4.53328405 7 9 C7.50522392 12.95758736 7.18992188 14.65407087 5.25 18.1875 C0.85543237 23.68070953 0.85543237 23.68070953 -3.04296875 24.3515625 C-7.21318274 24.61700326 -10.10645472 24.4017412 -13.4375 21.75 C-16.14676917 18.84249162 -17.87212687 16.83284825 -18.15234375 12.81640625 C-17.75462526 8.64397768 -17.36056989 6.47074402 -14.75 3.0625 C-9.59495785 -0.80378161 -6.36792365 -1.59198091 0 0 Z " fill="#9B9B9B" transform="translate(114,137)"/>
<path d="M0 0 C3.64184981 2.55704348 4.77792202 4.22272709 6 8.5 C6 12.48112565 5.5290797 13.96510436 3 17 C-0.01757067 19.51464223 -1.54477949 19.99187106 -5.5 20.0625 C-10.03251036 18.68655935 -11.51527166 16.99062431 -14 13 C-14.7709911 8.88804746 -14.19728042 7.34852874 -12.125 3.6875 C-8.77246278 -0.55247354 -5.2074391 -0.86790652 0 0 Z " fill="#767576" transform="translate(205,2)"/>
<path d="M0 0 C1.32 0 2.64 0 4 0 C4.33 0.66 4.66 1.32 5 2 C5.99 1.34 6.98 0.68 8 0 C11.8973724 -0.50835292 13.50556726 -0.32962183 16.8125 1.875 C19.86612546 4.84137902 20.2113513 6.59584079 20.375 10.75 C20.32374147 14.28683872 20.074851 16.71463853 18 19.625 C13.93136684 22.84600125 12.07594466 22.58248545 7 22 C6.34 21.67 5.68 21.34 5 21 C5 23.97 5 26.94 5 30 C3.35 30 1.7 30 0 30 C0 20.1 0 10.2 0 0 Z M6.3671875 5.23828125 C4.20730053 8.02144989 4.5260963 10.48566043 4.6484375 13.89453125 C4.85853028 16.17247911 4.85853028 16.17247911 6.6875 18.1875 C9.02689724 19.24369938 9.02689724 19.24369938 11.625 18.375 C14.26634471 17.07948232 14.26634471 17.07948232 16 14 C16.1014858 12.00123885 16.1014858 12.00123885 15.75 9.9375 C15.66234375 9.24527344 15.5746875 8.55304688 15.484375 7.83984375 C15.10419911 5.76834528 15.10419911 5.76834528 13 4 C10.19718362 3.64066457 8.65921521 3.50006885 6.3671875 5.23828125 Z " fill="#3B3B3B" transform="translate(128,67)"/>
<path d="M0 0 C1.65 0 3.3 0 5 0 C6.65 4.29 8.3 8.58 10 13 C10.721875 11.040625 11.44375 9.08125 12.1875 7.0625 C13.41796875 3.72265625 13.41796875 3.72265625 15 1 C17.67578125 0.12109375 17.67578125 0.12109375 20 0 C19.05265717 5.28640689 17.21334886 10.01944591 15.25 15 C14.91484375 15.88945313 14.5796875 16.77890625 14.234375 17.6953125 C12.19396215 22.873633 10.35477344 26.47470722 6 30 C3.6875 30.8125 3.6875 30.8125 2 31 C1.67 29.68 1.34 28.36 1 27 C1.804375 26.5875 2.60875 26.175 3.4375 25.75 C6.07901818 24.29202167 6.07901818 24.29202167 6.74975586 22.15673828 C7.05231429 19.54912737 6.56751518 18.15835918 5.56640625 15.7421875 C5.24736328 14.95199219 4.92832031 14.16179687 4.59960938 13.34765625 C4.25736328 12.53167969 3.91511719 11.71570313 3.5625 10.875 C2.89435186 9.24853653 2.22885346 7.62098124 1.56640625 5.9921875 C1.26677979 5.27401855 0.96715332 4.55584961 0.65844727 3.81591797 C0 2 0 2 0 0 Z " fill="#3F3F3F" transform="translate(150,67)"/>
<path d="M0 0 C1.32 0 2.64 0 4 0 C4.06058594 1.05960937 4.12117188 2.11921875 4.18359375 3.2109375 C4.26800127 4.59897221 4.35264917 5.98699232 4.4375 7.375 C4.47681641 8.07367188 4.51613281 8.77234375 4.55664062 9.4921875 C4.74280134 13.37360492 4.74280134 13.37360492 6 17 C7.66611905 17.042721 9.33382885 17.04063832 11 17 C13.05922402 14.94077598 12.41427579 10.78291876 12.5625 7.9375 C12.60568359 7.17888672 12.64886719 6.42027344 12.69335938 5.63867188 C12.79973633 3.75934562 12.90039934 1.87969756 13 0 C14.65 0 16.3 0 18 0 C18 7.26 18 14.52 18 22 C16.35 21.67 14.7 21.34 13 21 C12.34 21.33 11.68 21.66 11 22 C3.70023943 22.57934608 3.70023943 22.57934608 1.2578125 20.55859375 C-0.65116953 16.67541602 -0.31732927 13.01106331 -0.1875 8.75 C-0.17396484 7.90953125 -0.16042969 7.0690625 -0.14648438 6.203125 C-0.11123464 4.13514062 -0.0574302 2.06748729 0 0 Z " fill="#3D3D3D" transform="translate(104,67)"/>
<path d="M0 0 C2.8125 2.0625 2.8125 2.0625 5 5 C5.33 7.31 5.66 9.62 6 12 C1.05 12 -3.9 12 -9 12 C-6.67530967 17.17650222 -6.67530967 17.17650222 -3.0625 17.8125 C-0.71190524 17.95641396 1.64500383 18 4 18 C4.33 18.99 4.66 19.98 5 21 C3.28310511 22.71689489 1.09121863 22.25303054 -1.25 22.3125 C-5.16475809 22.28707949 -6.69718853 22.18168688 -10.125 20.125 C-13.25374139 16.5790931 -13.38905828 13.9290328 -13.359375 9.328125 C-12.75455722 5.40995764 -10.83123243 3.69641184 -8 1 C-5.11138291 -0.44430855 -3.20352299 -0.37688506 0 0 Z M-6.75 5.375 C-9.10846523 7.55032124 -9.10846523 7.55032124 -9 9 C-5.37 9 -1.74 9 2 9 C0.63053015 4.14320957 0.63053015 4.14320957 -1.8125 2.875 C-4.32824024 2.7958618 -4.32824024 2.7958618 -6.75 5.375 Z " fill="#404040" transform="translate(201,67)"/>
<path d="M0 0 C2.375 1.625 2.375 1.625 4 4 C4.48288863 7.31123632 4.29618989 9.296549 3 12.375 C0.29455964 14.5731703 -1.7087924 14.5712063 -5.125 14.3828125 C-7 14 -7 14 -9 12.375 C-10.29618989 9.296549 -10.48288863 7.31123632 -10 4 C-7.21921757 -0.06422047 -4.81255755 -0.80209293 0 0 Z " fill="#5A5C5B" transform="translate(102,17)"/>
<path d="M0 0 C1.32 0 2.64 0 4 0 C4.33 1.65 4.66 3.3 5 5 C6.65 5.33 8.3 5.66 10 6 C9.67 6.99 9.34 7.98 9 9 C7.35 9 5.7 9 4 9 C4.33 13.29 4.66 17.58 5 22 C6.32 22.33 7.64 22.66 9 23 C9 24.32 9 25.64 9 27 C5.625 27.125 5.625 27.125 2 27 C0 25 0 25 -0.1953125 21.3046875 C-0.182009 19.82799892 -0.15814835 18.35137642 -0.125 16.875 C-0.11597656 16.12089844 -0.10695312 15.36679688 -0.09765625 14.58984375 C-0.0740687 12.72642746 -0.03819719 10.86317407 0 9 C-1.32 9 -2.64 9 -4 9 C-3.67 7.68 -3.34 6.36 -3 5 C-2.01 5 -1.02 5 0 5 C0 3.35 0 1.7 0 0 Z " fill="#454545" transform="translate(176,62)"/>
<path d="M0 0 C1.65 0.33 3.3 0.66 5 1 C5.08761663 4.54150893 5.14059739 8.08273633 5.1875 11.625 C5.22520508 13.12353516 5.22520508 13.12353516 5.26367188 14.65234375 C5.31802201 20.12359087 5.33520433 24.39135401 2 29 C-1.6875 30.375 -1.6875 30.375 -5 31 C-5 29.68 -5 28.36 -5 27 C-3.68 26.67 -2.36 26.34 -1 26 C-0.67 17.42 -0.34 8.84 0 0 Z " fill="#434343" transform="translate(93,67)"/>
<path d="M0 0 C1.11375 0.2475 1.11375 0.2475 2.25 0.5 C5.18606431 1.03382988 7.13588733 0.73648612 10 0 C10.33 1.32 10.66 2.64 11 4 C10.02804688 4.33644531 9.05609375 4.67289062 8.0546875 5.01953125 C4.62091276 6.74024145 4.62091276 6.74024145 4.1953125 10.57421875 C4.14235516 11.94448986 4.11987849 13.31621551 4.125 14.6875 C4.104375 15.38939453 4.08375 16.09128906 4.0625 16.81445312 C4.01547955 18.54245468 4.00425249 20.27136406 4 22 C2.35 21.67 0.7 21.34 -1 21 C-1.02888146 17.68751813 -1.04675799 14.37506833 -1.0625 11.0625 C-1.07087891 10.11697266 -1.07925781 9.17144531 -1.08789062 8.19726562 C-1.09111328 7.29814453 -1.09433594 6.39902344 -1.09765625 5.47265625 C-1.10289307 4.64000244 -1.10812988 3.80734863 -1.11352539 2.94946289 C-1 1 -1 1 0 0 Z " fill="#424242" transform="translate(212,67)"/>
<path d="M0 0 C0.33 0.66 0.66 1.32 1 2 C-0.109375 4.75 -0.109375 4.75 -1.75 8 C-2.28109375 9.0725 -2.8121875 10.145 -3.359375 11.25 C-5 14 -5 14 -8 16 C-8 15.34 -8 14.68 -8 14 C-8.66 14 -9.32 14 -10 14 C-10 13.34 -10 12.68 -10 12 C-13.00384054 12.6954344 -13.00384054 12.6954344 -16 14 C-16.33 15.32 -16.66 16.64 -17 18 C-20.3 18 -23.6 18 -27 18 C-23.90335869 15.93557246 -20.81175409 14.50425025 -17.4375 12.9375 C-10.60650596 9.66086603 -5.32844707 5.41438976 0 0 Z " fill="#E37429" transform="translate(213,99)"/>
<path d="M0 0 C0.68578125 -0.00386719 1.3715625 -0.00773438 2.078125 -0.01171875 C6.15626809 -0.00393603 9.99977115 0.33745494 14 1.125 C14 1.455 14 1.785 14 2.125 C13.23969482 2.1343457 12.47938965 2.14369141 11.69604492 2.15332031 C8.19258167 2.20758396 4.69037448 2.29112065 1.1875 2.375 C-0.00810547 2.38917969 -1.20371094 2.40335938 -2.43554688 2.41796875 C-13.37082556 2.71593275 -23.25939441 5.25404266 -32 12.125 C-32.33 12.785 -32.66 13.445 -33 14.125 C-33.99 14.62 -33.99 14.62 -35 15.125 C-35.99 14.795 -36.98 14.465 -38 14.125 C-38 14.785 -38 15.445 -38 16.125 C-39.32 16.455 -40.64 16.785 -42 17.125 C-31.10445031 5.17504228 -15.96079197 -0.09000447 0 0 Z " fill="#D77637" transform="translate(155,14.875)"/>
<path d="M0 0 C0.66 0.33 1.32 0.66 2 1 C1.175 1.66 0.35 2.32 -0.5 3 C-3.85305515 7.02366618 -3.43160977 8.90700467 -3 14 C1.11865213 15.56901033 4.58891096 16.68616941 9 16 C11.20572041 14.01950153 11.20572041 14.01950153 12 11 C11.5942372 7.28786141 11.5942372 7.28786141 10 4 C8.01432266 2.50256112 8.01432266 2.50256112 6 2 C6 1.34 6 0.68 6 0 C9.06135874 0.91013368 10.74300621 1.70874038 12.875 4.125 C14.40344758 8.0310327 14.21014061 11.01070889 13 15 C10.79611308 18.30583039 9.41015164 18.88814046 5.5625 19.9375 C1.53538287 20.00815118 0.10039007 19.49753645 -3 17 C-5.33163242 14.66836758 -5.9385006 13.40413889 -6.4375 10.125 C-5.88939233 6.20994522 -4.43242523 4.0763025 -2 1 C-1.34 0.67 -0.68 0.34 0 0 Z " fill="#696A69" transform="translate(197,2)"/>
<path d="M0 0 C0.65355469 0.58007812 0.65355469 0.58007812 1.3203125 1.171875 C5.05744652 4.43984501 8.8076016 7.34140589 13 10 C12.67 10.66 12.34 11.32 12 12 C12 12.66 12 13.32 12 14 C11.68521554 15.33783393 11.35412344 16.67203709 11 18 C12.32 18 13.64 18 15 18 C15 19.65 15 21.3 15 23 C10.28197135 19.44291688 7.47256589 16.11761269 4.6875 10.9375 C4.34138672 10.32583984 3.99527344 9.71417969 3.63867188 9.08398438 C1.99384189 6.11816034 0.57827929 3.36072458 0 0 Z " fill="#E27327" transform="translate(96,99)"/>
<path d="M0 0 C2.67438936 2.38335287 4.15158012 4.87036148 5.75 8.0625 C6.19859375 8.94035156 6.6471875 9.81820312 7.109375 10.72265625 C7.40328125 11.47417969 7.6971875 12.22570313 8 13 C7.67 13.66 7.34 14.32 7 15 C6.33613281 14.38511719 5.67226562 13.77023438 4.98828125 13.13671875 C4.10527344 12.32847656 3.22226563 11.52023438 2.3125 10.6875 C1.44238281 9.88699219 0.57226562 9.08648437 -0.32421875 8.26171875 C-2.78170312 6.18451663 -5.19503316 4.56168424 -8 3 C-5.13822943 1.56911472 -3.06624227 2.40008303 0 3 C0 2.01 0 1.02 0 0 Z " fill="#E2762E" transform="translate(206,42)"/>
<path d="M0 0 C0.99 0.33 1.98 0.66 3 1 C3.08071788 3.79224073 3.14035408 6.58216566 3.1875 9.375 C3.22520508 10.56609375 3.22520508 10.56609375 3.26367188 11.78125 C3.29004405 13.85586148 3.15486462 15.93100865 3 18 C2.01 18.66 1.02 19.32 0 20 C-0.33 19.34 -0.66 18.68 -1 18 C-2.258125 18.226875 -3.51625 18.45375 -4.8125 18.6875 C-8.72231986 19.1995826 -8.72231986 19.1995826 -11 17.5625 C-11.33 17.046875 -11.66 16.53125 -12 16 C-9 16 -9 16 -7.0625 16.625 C-4.37649805 17.11336399 -3.24952685 16.47382794 -1 15 C0.44207941 12.11584117 0.09394887 9.58278472 0.0625 6.375 C0.05347656 5.18648438 0.04445313 3.99796875 0.03515625 2.7734375 C0.02355469 1.85820313 0.01195313 0.94296875 0 0 Z " fill="#484848" transform="translate(118,69)"/>
<path d="M0 0 C0.33 0.99 0.66 1.98 1 3 C0.67 3.66 0.34 4.32 0 5 C0.66 5 1.32 5 2 5 C2 4.34 2 3.68 2 3 C3.65 3.33 5.3 3.66 7 4 C6.360625 4.495 5.72125 4.99 5.0625 5.5 C0.9286492 8.87457208 -3.02939246 12.43596883 -7 16 C-7.33 15.34 -7.66 14.68 -8 14 C-6.94589776 11.73574127 -5.84861906 9.60685517 -4.625 7.4375 C-4.295 6.83486328 -3.965 6.23222656 -3.625 5.61132812 C-1.17569314 1.17569314 -1.17569314 1.17569314 0 0 Z " fill="#E2752C" transform="translate(104,41)"/>
<path d="M0 0 C1.1653125 0.27714844 2.330625 0.55429688 3.53125 0.83984375 C17.02822308 3.87819581 30.18658691 4.79254843 44 5 C44 5.33 44 5.66 44 6 C35.42 6.33 26.84 6.66 18 7 C18 6.34 18 5.68 18 5 C17.33613281 5.10699219 16.67226562 5.21398437 15.98828125 5.32421875 C8.72823861 6.30988877 8.72823861 6.30988877 5.0625 4.75 C3.27748652 3.2354431 1.64160724 1.66499196 0 0 Z " fill="#D77636" transform="translate(122,116)"/>
<path d="M0 0 C2.62506802 -0.02690844 5.24986173 -0.04679404 7.875 -0.0625 C8.62136719 -0.07087891 9.36773437 -0.07925781 10.13671875 -0.08789062 C15.7734375 -0.11328125 15.7734375 -0.11328125 18 1 C18 1.66 18 2.32 18 3 C19.32 3 20.64 3 22 3 C22 3.66 22 4.32 22 5 C23.65 5.66 25.3 6.32 27 7 C25 8 25 8 21.875 7.07421875 C20.58138477 6.61746078 19.28981722 6.15487537 18 5.6875 C12.06045215 3.6104802 6.23100358 1.98229939 0 1 C0 0.67 0 0.34 0 0 Z " fill="#E2762C" transform="translate(169,35)"/>
<path d="M0 0 C2.475 0.495 2.475 0.495 5 1 C5 8.26 5 15.52 5 23 C4.34 23 3.68 23 3 23 C3 16.07 3 9.14 3 2 C2.01 2 1.02 2 0 2 C0 1.34 0 0.68 0 0 Z " fill="#393939" transform="translate(93,67)"/>
<path d="M0 0 C0.66 0.33 1.32 0.66 2 1 C2.02908357 4.41664873 2.04682691 7.8332655 2.0625 11.25 C2.07087891 12.21808594 2.07925781 13.18617187 2.08789062 14.18359375 C2.09111328 15.11816406 2.09433594 16.05273438 2.09765625 17.015625 C2.10289307 17.87446289 2.10812988 18.73330078 2.11352539 19.61816406 C2.00539986 21.88670744 1.63582423 23.82631715 1 26 C0.34 25.67 -0.32 25.34 -1 25 C-1.02908357 21.58335127 -1.04682691 18.1667345 -1.0625 14.75 C-1.07087891 13.78191406 -1.07925781 12.81382813 -1.08789062 11.81640625 C-1.09111328 10.88183594 -1.09433594 9.94726562 -1.09765625 8.984375 C-1.10289307 8.12553711 -1.10812988 7.26669922 -1.11352539 6.38183594 C-1.00539986 4.11329256 -0.63582423 2.17368285 0 0 Z " fill="#4B4B4B" transform="translate(130,70)"/>
<path d="M0 0 C2.64 0 5.28 0 8 0 C8 0.66 8 1.32 8 2 C8.66 2 9.32 2 10 2 C9.67 3.65 9.34 5.3 9 7 C9.66 7 10.32 7 11 7 C10.67 7.66 10.34 8.32 10 9 C8.70391053 8.06862408 7.41328368 7.1296434 6.125 6.1875 C5.40570313 5.66542969 4.68640625 5.14335938 3.9453125 4.60546875 C2 3 2 3 0 0 Z " fill="#EB7629" transform="translate(111,122)"/>
<path d="M0 0 C0.56847656 0.21914063 1.13695312 0.43828125 1.72265625 0.6640625 C1.15675781 1.00179688 0.59085938 1.33953125 0.0078125 1.6875 C-0.72566406 2.13351563 -1.45914063 2.57953125 -2.21484375 3.0390625 C-3.31119141 3.70035156 -3.31119141 3.70035156 -4.4296875 4.375 C-6.41506647 5.5414609 -6.41506647 5.5414609 -7.27734375 7.6640625 C-8.26734375 8.1590625 -8.26734375 8.1590625 -9.27734375 8.6640625 C-10.26734375 8.3340625 -11.25734375 8.0040625 -12.27734375 7.6640625 C-12.27734375 8.3240625 -12.27734375 8.9840625 -12.27734375 9.6640625 C-13.59734375 9.9940625 -14.91734375 10.3240625 -16.27734375 10.6640625 C-5.77721035 -0.85221285 -5.77721035 -0.85221285 0 0 Z " fill="#DE732B" transform="translate(129.27734375,21.3359375)"/>
<path d="M0 0 C1.65 1.65 3.3 3.3 5 5 C3.02 5.99 3.02 5.99 1 7 C1 9.97 1 12.94 1 16 C-0.65 16 -2.3 16 -4 16 C-3.67 15.34 -3.34 14.68 -3 14 C-2.34 14.33 -1.68 14.66 -1 15 C-1.01160156 14.33613281 -1.02320313 13.67226562 -1.03515625 12.98828125 C-1.12478032 4.21792619 -1.12478032 4.21792619 0 0 Z " fill="#333333" transform="translate(132,81)"/>
<path d="M0 0 C5.94 2.475 5.94 2.475 12 5 C11.01 5.99 10.02 6.98 9 8 C8.01 8 7.02 8 6 8 C4.66018514 8.3062434 3.32488113 8.63451555 2 9 C2.50603992 6.83125748 2.99983813 5.00032373 4 3 C2.68 2.67 1.36 2.34 0 2 C0 1.34 0 0.68 0 0 Z " fill="#E17531" transform="translate(110,110)"/>
<path d="M0 0 C0.48352834 5.31881177 -1.35212017 9.56741549 -4.3125 13.9375 C-6.84411337 15.53147879 -9.08577285 15.19428181 -12 15 C-11.4225 14.7525 -10.845 14.505 -10.25 14.25 C-7.50107845 12.72282136 -5.87978153 11.55113208 -4 9 C-3.66189727 6.24234962 -3.81364872 3.79526914 -4 1 C-1 0 -1 0 0 0 Z " fill="#4A4A4A" transform="translate(148,73)"/>
<path d="M0 0 C0.66 0.99 1.32 1.98 2 3 C1.67 3.99 1.34 4.98 1 6 C-0.62463842 6.05395478 -2.24978541 6.09277195 -3.875 6.125 C-4.77992188 6.14820312 -5.68484375 6.17140625 -6.6171875 6.1953125 C-9 6 -9 6 -11 4 C-8.01405576 2.50702788 -5.29146376 2.88244772 -2 3 C-1.34 3.33 -0.68 3.66 0 4 C0 2.68 0 1.36 0 0 Z " fill="#494949" transform="translate(204,73)"/>
<path d="M0 0 C0.66 0.33 1.32 0.66 2 1 C2.99 0.67 3.98 0.34 5 0 C4.4375 2.375 4.4375 2.375 3 5 C-0.625 6.3125 -0.625 6.3125 -4 7 C-4 5.68 -4 4.36 -4 3 C-2.68 2.67 -1.36 2.34 0 2 C0 1.34 0 0.68 0 0 Z " fill="#3B3B3B" transform="translate(92,91)"/>
<path d="M0 0 C1.65 0 3.3 0 5 0 C5.66 2.31 6.32 4.62 7 7 C5.33333333 7 3.66666667 7 2 7 C1.34 4.69 0.68 2.38 0 0 Z " fill="#3A3A3A" transform="translate(150,67)"/>
<path d="M0 0 C0 0.99 0 1.98 0 3 C-3.465 4.485 -3.465 4.485 -7 6 C-7.33 5.34 -7.66 4.68 -8 4 C-6.19791982 -0.57451121 -4.66400339 -1.39920102 0 0 Z " fill="#3E3E3E" transform="translate(223,68)"/>
<path d="M0 0 C4.875 4.625 4.875 4.625 6 8 C4.5625 11.1875 4.5625 11.1875 3 14 C2.20497132 10.93448401 1.55067798 7.85676844 0.9375 4.75 C0.76089844 3.85796875 0.58429688 2.9659375 0.40234375 2.046875 C0.26957031 1.37140625 0.13679687 0.6959375 0 0 Z " fill="#4B4B4B" transform="translate(156,78)"/>
<path d="M0 0 C0.33 0 0.66 0 1 0 C1.25470125 3.60284066 1.47435483 7.20698109 1.6875 10.8125 C1.76033203 11.83666016 1.83316406 12.86082031 1.90820312 13.91601562 C1.96298828 14.89892578 2.01777344 15.88183594 2.07421875 16.89453125 C2.13182373 17.80050049 2.18942871 18.70646973 2.2487793 19.63989258 C2 22 2 22 0.49536133 23.8190918 C0.00189209 24.2087915 -0.49157715 24.59849121 -1 25 C-1.33 24.34 -1.66 23.68 -2 23 C-1.67 22.34 -1.34 21.68 -1 21 C-0.92822611 19.57457046 -0.91607603 18.14582459 -0.9375 16.71875 C-0.94523437 15.87699219 -0.95296875 15.03523438 -0.9609375 14.16796875 C-0.97382812 13.28753906 -0.98671875 12.40710938 -1 11.5 C-1.02546884 9.76047836 -1.04651561 8.02088465 -1.0625 6.28125 C-1.07410156 5.50845703 -1.08570312 4.73566406 -1.09765625 3.93945312 C-1 2 -1 2 0 0 Z " fill="#4C4C4C" transform="translate(95,69)"/>
<path d="M0 0 C3.44216672 2.6598561 3.99504674 5.90288286 5 10 C3.8274869 9.04882866 2.66212985 8.08882991 1.5 7.125 C0.8503125 6.59132813 0.200625 6.05765625 -0.46875 5.5078125 C-0.9740625 5.01023437 -1.479375 4.51265625 -2 4 C-2 3.34 -2 2.68 -2 2 C-1.34 2 -0.68 2 0 2 C0 1.34 0 0.68 0 0 Z " fill="#D57834" transform="translate(209,47)"/>
<path d="M0 0 C0.66 0.99 1.32 1.98 2 3 C4.05925139 3.72382467 4.05925139 3.72382467 6 4 C6 5.32 6 6.64 6 8 C3.69 8 1.38 8 -1 8 C-1 7.01 -1 6.02 -1 5 C-0.34 5 0.32 5 1 5 C0.67 3.35 0.34 1.7 0 0 Z " fill="#393939" transform="translate(179,81)"/>
<path d="M0 0 C3.37503669 1.1858237 5.64722731 2.27573689 8 5 C6.35 4.67 4.7 4.34 3 4 C2.34 5.32 1.68 6.64 1 8 C0 2.25 0 2.25 0 0 Z " fill="#E17631" transform="translate(186,24)"/>
<path d="M0 0 C0.66 0.33 1.32 0.66 2 1 C1.67 2.32 1.34 3.64 1 5 C2.32 5 3.64 5 5 5 C5 6.65 5 8.3 5 10 C3.02 8.35 1.04 6.7 -1 5 C-0.67 3.35 -0.34 1.7 0 0 Z " fill="#E57328" transform="translate(106,112)"/>
<path d="M0 0 C2.31 0.66 4.62 1.32 7 2 C6.67 2.99 6.34 3.98 6 5 C4.35 5 2.7 5 1 5 C0.67 3.35 0.34 1.7 0 0 Z " fill="#3C3C3C" transform="translate(179,66)"/>
<path d="M0 0 C0.33 0.66 0.66 1.32 1 2 C0.06421005 4.35981813 -0.93347808 6.69631264 -2 9 C-3.32 8.01 -4.64 7.02 -6 6 C-4.02 4.02 -2.04 2.04 0 0 Z " fill="#C67738" transform="translate(213,99)"/>
<path d="M0 0 C1.32 0 2.64 0 4 0 C4.33 0.99 4.66 1.98 5 3 C4 4 4 4 1.49609375 4.09765625 C-0.01791016 4.08025391 -0.01791016 4.08025391 -1.5625 4.0625 C-2.57441406 4.05347656 -3.58632812 4.04445313 -4.62890625 4.03515625 C-5.41136719 4.02355469 -6.19382813 4.01195313 -7 4 C-7 3.67 -7 3.34 -7 3 C-3.535 2.505 -3.535 2.505 0 2 C0 1.34 0 0.68 0 0 Z " fill="#393939" transform="translate(201,85)"/>
<path d="M0 0 C1.32 0.33 2.64 0.66 4 1 C4 2.32 4 3.64 4 5 C2.02 5 0.04 5 -2 5 C-2 4.34 -2 3.68 -2 3 C-1.34 3 -0.68 3 0 3 C0 2.01 0 1.02 0 0 Z " fill="#F37522" transform="translate(202,40)"/>
<path d="M0 0 C1.65 0.33 3.3 0.66 5 1 C5.33 2.32 5.66 3.64 6 5 C1.545 4.01 1.545 4.01 -3 3 C-2.01 2.67 -1.02 2.34 0 2 C0 1.34 0 0.68 0 0 Z " fill="#464646" transform="translate(138,67)"/>
<path d="M0 0 C0.66 1.32 1.32 2.64 2 4 C0.35 5.98 -1.3 7.96 -3 10 C-3.33 9.34 -3.66 8.68 -4 8 C-3.22265625 6.0546875 -3.22265625 6.0546875 -2.0625 3.875 C-1.49208984 2.78832031 -1.49208984 2.78832031 -0.91015625 1.6796875 C-0.60980469 1.12539063 -0.30945313 0.57109375 0 0 Z " fill="#D07D45" transform="translate(100,47)"/>
<path d="M0 0 C1.32 0 2.64 0 4 0 C3.47731534 2.76276177 2.89130413 5.3260876 2 8 C1.34 8 0.68 8 0 8 C0.66 6.02 1.32 4.04 2 2 C1.01 2.33 0.02 2.66 -1 3 C-0.67 2.01 -0.34 1.02 0 0 Z " fill="#3B3B3B" transform="translate(166,67)"/>
<path d="M0 0 C1.98 0 3.96 0 6 0 C6.33 1.98 6.66 3.96 7 6 C3.63279613 4.60667426 2.0140476 3.0210714 0 0 Z " fill="#DB7430" transform="translate(111,122)"/>
<path d="M0 0 C3.3 0 6.6 0 10 0 C6.71299843 1.64350079 4.52069985 2.41321669 1 3 C0.67 2.01 0.34 1.02 0 0 Z " fill="#E3752D" transform="translate(121,37)"/>
<path d="M0 0 C1.98 1.65 3.96 3.3 6 5 C5.01 5.495 5.01 5.495 4 6 C3.67 6.66 3.34 7.32 3 8 C0 2.25 0 2.25 0 0 Z " fill="#C97C47" transform="translate(96,99)"/>
<path d="M0 0 C2.88437779 1.29299694 4.87219421 2.65941363 7 5 C6.67 5.66 6.34 6.32 6 7 C5.01 6.34 4.02 5.68 3 5 C3 4.34 3 3.68 3 3 C2.01 3 1.02 3 0 3 C0 2.01 0 1.02 0 0 Z " fill="#E07533" transform="translate(198,34)"/>
</svg>
