<?xml version="1.0" encoding="UTF-8"?>
<svg version="1.1" xmlns="http://www.w3.org/2000/svg" width="471" height="530">
<path d="M0 0 C0.90298828 -0.01611328 1.80597656 -0.03222656 2.73632812 -0.04882812 C24.79649499 -0.06480218 48.86082619 20.12988438 67.26025391 30.88452148 C83.31575162 40.26585334 99.43429417 49.53794938 115.58618164 58.75219727 C130.98457206 67.54226463 146.32524766 76.43323161 161.66381836 85.32714844 C166.4777085 88.11503217 171.30354392 90.88119163 176.13671875 93.63549805 C180.61553136 96.18830407 185.08983675 98.74893763 189.5625 101.3125 C190.59793945 101.90562988 191.63337891 102.49875977 192.70019531 103.10986328 C195.92862736 104.96307849 199.15233846 106.82427139 202.375 108.6875 C203.37104248 109.25831299 204.36708496 109.82912598 205.39331055 110.41723633 C220.07034845 118.93243487 230.06763009 127.82789027 235.5625 144.3125 C235.65563768 145.68177199 235.6951176 147.05509853 235.69951439 148.42752743 C235.7071262 149.68985916 235.7071262 149.68985916 235.71489179 150.97769254 C235.71538955 151.90237807 235.71588731 152.8270636 235.71640015 153.7797699 C235.7207824 154.76208605 235.72516465 155.74440221 235.7296797 156.75648552 C235.74308391 160.063489 235.7492503 163.37046582 235.75537109 166.67749023 C235.76327097 169.04266989 235.77153985 171.40784834 235.78015137 173.77302551 C235.80412485 180.88349342 235.81930444 187.99396664 235.83221143 195.10446152 C235.83592449 197.1140513 235.83989765 199.1236404 235.8439641 201.13322949 C235.86920812 213.6207439 235.89125466 226.10825943 235.90369225 238.59579372 C235.90662181 241.48826031 235.90958349 244.38072686 235.91259766 247.27319336 C235.91334371 247.9920779 235.91408976 248.71096245 235.91485842 249.45163137 C235.92749744 261.08315648 235.9607005 272.71452821 236.00239949 284.34598171 C236.04489195 296.29714678 236.06839593 308.24823353 236.07361281 320.19947392 C236.0770193 326.90577182 236.08925528 333.61179368 236.12171555 340.31802177 C236.15183993 346.63244732 236.15809199 352.94645653 236.14633179 359.26093864 C236.1461114 361.57316135 236.15438713 363.88540361 236.17198563 366.19755936 C236.28901841 382.46515452 235.36848996 394.96370591 223.5625 407.3125 C217.91620682 412.87769741 211.30958439 416.57264457 204.4375 420.4375 C203.27253586 421.10010385 202.10799092 421.76344522 200.94384766 422.42749023 C198.59504901 423.76577621 196.24401482 425.09998013 193.890625 426.43017578 C189.23191265 429.0650549 184.58454174 431.71961186 179.9375 434.375 C179.09582275 434.85493408 178.25414551 435.33486816 177.38696289 435.8293457 C169.84588022 440.13454543 162.34699739 444.51067928 154.85058594 448.89306641 C144.20684755 455.1123955 133.52678369 461.26817917 122.84472656 467.42138672 C117.41590058 470.54930148 111.98930719 473.68108448 106.5625 476.8125 C104.39584417 478.06251879 102.2291775 479.31251878 100.0625 480.5625 C98.99 481.18125 97.9175 481.8 96.8125 482.4375 C93.5625 484.3125 90.3125 486.1875 87.0625 488.0625 C85.9897583 488.68141113 84.9170166 489.30032227 83.81176758 489.93798828 C81.6476182 491.18649222 79.48339307 492.43486487 77.3190918 493.68310547 C71.86327827 496.82991658 66.40884816 499.97908171 60.95703125 503.1328125 C55.5573128 506.25579145 50.15274492 509.37023061 44.74511719 512.47949219 C42.60600594 513.7114995 40.46866004 514.94657657 38.33300781 516.18457031 C35.22634348 517.98486191 32.11386123 519.77469278 29 521.5625 C28.07872314 522.09955566 27.15744629 522.63661133 26.20825195 523.18994141 C17.58389426 528.11519424 10.17021068 530.84060216 0.1875 530.75 C-0.5859375 530.76998047 -1.359375 530.78996094 -2.15625 530.81054688 C-13.39320847 530.80127546 -22.74724654 525.3414593 -32.25 519.875 C-33.33458496 519.25955322 -34.41916992 518.64410645 -35.53662109 518.01000977 C-43.49640488 513.47556654 -51.38979061 508.83068783 -59.26025391 504.14331055 C-66.78802314 499.66728456 -74.39737652 495.34688753 -82.03027344 491.05322266 C-93.93133057 484.35608839 -105.73870071 477.50175195 -117.5 470.5625 C-133.56179429 461.08715544 -149.75404772 451.83317971 -165.95166016 442.5925293 C-173.22487486 438.44070674 -180.47617191 434.25187492 -187.71875 430.046875 C-190.98404839 428.15168925 -194.25555979 426.26778994 -197.53125 424.390625 C-198.79461182 423.6646814 -198.79461182 423.6646814 -200.08349609 422.92407227 C-201.67356295 422.01065292 -203.26492343 421.09947968 -204.85791016 420.19116211 C-219.58940641 411.71348026 -229.87172951 403.00981147 -235.4375 386.3125 C-235.53063768 384.94322801 -235.5701176 383.56990147 -235.57451439 382.19747257 C-235.5821262 380.93514084 -235.5821262 380.93514084 -235.58989179 379.64730746 C-235.59038955 378.72262193 -235.59088731 377.7979364 -235.59140015 376.8452301 C-235.5957824 375.86291395 -235.60016465 374.88059779 -235.6046797 373.86851448 C-235.61808391 370.561511 -235.6242503 367.25453418 -235.63037109 363.94750977 C-235.63827097 361.58233011 -235.64653985 359.21715166 -235.65515137 356.85197449 C-235.67912485 349.74150658 -235.69430444 342.63103336 -235.70721143 335.52053848 C-235.71092449 333.5109487 -235.71489765 331.5013596 -235.7189641 329.49177051 C-235.74420812 317.0042561 -235.76625466 304.51674057 -235.77869225 292.02920628 C-235.78162181 289.13673969 -235.78458349 286.24427314 -235.78759766 283.35180664 C-235.78834371 282.6329221 -235.78908976 281.91403755 -235.78985842 281.17336863 C-235.80249744 269.54184352 -235.8357005 257.91047179 -235.87739949 246.27901829 C-235.91989195 234.32785322 -235.94339593 222.37676647 -235.94861281 210.42552608 C-235.9520193 203.71922818 -235.96425528 197.01320632 -235.99671555 190.30697823 C-236.02683993 183.99255268 -236.03309199 177.67854347 -236.02133179 171.36406136 C-236.0211114 169.05183865 -236.02938713 166.73959639 -236.04698563 164.42744064 C-236.16928271 147.42810605 -234.77004038 134.94834392 -222.44140625 122.2578125 C-217.91396735 117.98055294 -213.27737604 114.89903083 -207.7578125 112.0546875 C-203.5798162 109.86246827 -199.51356801 107.50006418 -195.4375 105.125 C-193.77474616 104.15884285 -192.11198566 103.19269717 -190.44921875 102.2265625 C-189.1969751 101.49808105 -189.1969751 101.49808105 -187.91943359 100.75488281 C-184.79905219 98.94146423 -181.67447645 97.13535785 -178.54980469 95.3293457 C-172.59669608 91.88829726 -166.64867561 88.43905619 -160.71484375 84.96484375 C-149.76489145 78.55515921 -138.78105703 72.21694456 -127.72485352 65.9921875 C-120.2812341 61.79881465 -112.87921996 57.538164 -105.4921875 53.24609375 C-100.69153674 50.45678664 -95.88122927 47.68439533 -91.0703125 44.9128418 C-81.40537179 39.34484103 -71.75402238 33.75490034 -62.125 28.125 C-53.63108954 23.1591146 -45.11191729 18.24050889 -36.55688477 13.38061523 C-32.92110044 11.31365087 -29.29252702 9.24183827 -25.7109375 7.08203125 C-24.67195312 6.45683594 -23.63296875 5.83164063 -22.5625 5.1875 C-21.71945313 4.66929687 -20.87640625 4.15109375 -20.0078125 3.6171875 C-13.4391321 0.28293331 -7.20440224 -0.025602 0 0 Z M-98.93359375 144.31640625 C-101.4375 146.3125 -101.4375 146.3125 -104.4375 148.3125 C-104.4375 148.9725 -104.4375 149.6325 -104.4375 150.3125 C-105.0975 150.3125 -105.7575 150.3125 -106.4375 150.3125 C-106.4375 150.9725 -106.4375 151.6325 -106.4375 152.3125 C-107.4275 152.6425 -108.4175 152.9725 -109.4375 153.3125 C-109.4375 153.9725 -109.4375 154.6325 -109.4375 155.3125 C-110.0975 155.3125 -110.7575 155.3125 -111.4375 155.3125 C-111.4375 155.9725 -111.4375 156.6325 -111.4375 157.3125 C-112.0975 157.3125 -112.7575 157.3125 -113.4375 157.3125 C-113.4375 157.9725 -113.4375 158.6325 -113.4375 159.3125 C-114.0975 159.3125 -114.7575 159.3125 -115.4375 159.3125 C-117.35841885 161.50317752 -119.15820305 163.6988679 -120.9375 166 C-121.43636719 166.62583984 -121.93523437 167.25167969 -122.44921875 167.89648438 C-125.05727305 171.2352134 -127.12457874 174.22525109 -128.4375 178.3125 C-129.0975 178.3125 -129.7575 178.3125 -130.4375 178.3125 C-151.58409273 215.07438354 -161.43009897 253.08521709 -153.4375 295.3125 C-153.28764648 296.11526367 -153.13779297 296.91802734 -152.98339844 297.74511719 C-151.12328311 307.46431853 -148.66083907 316.32087488 -144.4375 325.3125 C-143.8879239 326.59259372 -143.34123301 327.87392859 -142.796875 329.15625 C-138.00858285 340.1605361 -131.72542539 349.76967346 -124.73095703 359.49755859 C-123.60241935 361.08108996 -122.51612717 362.69455924 -121.4375 364.3125 C-120.7775 364.3125 -120.1175 364.3125 -119.4375 364.3125 C-119.004375 365.2096875 -119.004375 365.2096875 -118.5625 366.125 C-117.39007974 368.50577792 -117.39007974 368.50577792 -115.4375 371.3125 C-114.7775 371.3125 -114.1175 371.3125 -113.4375 371.3125 C-113.4375 371.9725 -113.4375 372.6325 -113.4375 373.3125 C-112.7775 373.3125 -112.1175 373.3125 -111.4375 373.3125 C-111.4375 373.9725 -111.4375 374.6325 -111.4375 375.3125 C-110.7775 375.3125 -110.1175 375.3125 -109.4375 375.3125 C-109.4375 375.9725 -109.4375 376.6325 -109.4375 377.3125 C-107.74475716 378.87682787 -105.98180148 380.36578572 -104.1875 381.8125 C-103.21296875 382.6065625 -102.2384375 383.400625 -101.234375 384.21875 C-98.98855238 385.89998034 -96.9909197 387.19385899 -94.4375 388.3125 C-94.4375 388.9725 -94.4375 389.6325 -94.4375 390.3125 C-61.33746656 415.3064028 -19.37839085 425.43245752 21.54638672 420.53662109 C45.46340102 417.13350364 66.91619211 407.46400546 87.5625 395.3125 C87.5625 394.6525 87.5625 393.9925 87.5625 393.3125 C88.738125 392.8484375 88.738125 392.8484375 89.9375 392.375 C92.48580128 391.38374962 92.48580128 391.38374962 94.5625 390.3125 C94.5625 389.6525 94.5625 388.9925 94.5625 388.3125 C95.42681641 387.90837891 95.42681641 387.90837891 96.30859375 387.49609375 C98.60173181 386.2918982 100.56169642 384.93738595 102.625 383.375 C103.29660156 382.87097656 103.96820313 382.36695313 104.66015625 381.84765625 C106.43419473 380.41603998 108.06135042 379.02876759 109.5625 377.3125 C109.5625 376.6525 109.5625 375.9925 109.5625 375.3125 C110.2225 375.3125 110.8825 375.3125 111.5625 375.3125 C111.5625 374.6525 111.5625 373.9925 111.5625 373.3125 C112.2225 373.3125 112.8825 373.3125 113.5625 373.3125 C113.5625 372.6525 113.5625 371.9925 113.5625 371.3125 C114.2225 371.3125 114.8825 371.3125 115.5625 371.3125 C117.48341885 369.12182248 119.28320305 366.9261321 121.0625 364.625 C121.56136719 363.99916016 122.06023437 363.37332031 122.57421875 362.72851562 C125.18227305 359.3897866 127.24957874 356.39974891 128.5625 352.3125 C129.2225 352.3125 129.8825 352.3125 130.5625 352.3125 C130.5625 351.3225 130.5625 350.3325 130.5625 349.3125 C131.2225 349.3125 131.8825 349.3125 132.5625 349.3125 C133.2225 347.3325 133.8825 345.3525 134.5625 343.3125 C130.75822508 341.1111134 130.75822508 341.1111134 126.5625 340.3125 C126.5625 339.6525 126.5625 338.9925 126.5625 338.3125 C125.89605469 337.94898438 125.22960937 337.58546875 124.54296875 337.2109375 C122.59605552 336.14898483 120.64946577 335.086439 118.703125 334.0234375 C116.71595333 332.94087383 114.72663167 331.86223943 112.734375 330.7890625 C107.54974391 327.98936171 102.46780695 325.07642663 97.43359375 322.015625 C93.11406949 319.45329496 88.72229621 317.02210154 84.33447266 314.57910156 C80.73519026 312.56639593 77.2083435 310.50016065 73.75 308.25 C70.75693167 306.05279235 70.75693167 306.05279235 67.5625 306.3125 C65.72324708 308.46616905 65.72324708 308.46616905 63.9375 311.25 C57.74666729 320.05524287 50.80264848 326.79743756 41.5625 332.3125 C40.85480469 332.75335938 40.14710938 333.19421875 39.41796875 333.6484375 C33.45625273 337.19324162 27.20882272 339.38834336 20.5625 341.3125 C18.77199219 341.85197266 18.77199219 341.85197266 16.9453125 342.40234375 C-3.8390786 347.46972463 -25.52580257 342.10208287 -43.4375 331.3125 C-47.01124983 328.87004316 -50.24946691 326.23629972 -53.4375 323.3125 C-54.14261719 322.68730469 -54.84773438 322.06210937 -55.57421875 321.41796875 C-60.97145443 316.37026833 -64.69171076 310.64489562 -68.4375 304.3125 C-68.82808594 303.71824219 -69.21867187 303.12398437 -69.62109375 302.51171875 C-76.636149 291.51145702 -77.63470318 278.45733888 -77.6875 265.8125 C-77.708125 264.60851562 -77.72875 263.40453125 -77.75 262.1640625 C-77.79906331 250.75684183 -76.08333801 240.19833559 -70.6875 230.0625 C-70.33679443 229.38630615 -69.98608887 228.7101123 -69.62475586 228.01342773 C-64.94473765 219.21845783 -57.56502324 207.87626162 -48.4375 203.3125 C-48.4375 202.6525 -48.4375 201.9925 -48.4375 201.3125 C-47.75429687 201.06242187 -47.07109375 200.81234375 -46.3671875 200.5546875 C-43.59403406 199.37887044 -41.0399407 197.99299461 -38.43066406 196.49414062 C-20.91548123 186.58748729 0.63421027 183.45868984 20.34130859 188.7043457 C28.00900901 191.1474567 35.23503788 194.88708386 42.33203125 198.640625 C45.45544357 200.36303409 45.45544357 200.36303409 48.5625 201.3125 C48.5625 201.9725 48.5625 202.6325 48.5625 203.3125 C50.08279885 204.81075323 50.08279885 204.81075323 52.0625 206.375 C58.20225017 211.59869508 63.55748568 217.28832104 67.5625 224.3125 C71.57636101 223.62696433 74.83413221 221.62829686 78.3125 219.625 C78.99425293 219.23707275 79.67600586 218.84914551 80.37841797 218.44946289 C87.89052154 214.15883576 95.35576826 209.78587007 102.8215332 205.4152832 C108.35904556 202.17393089 113.91163355 198.96521491 119.5 195.8125 C124.68329212 192.86874536 129.67578345 189.72544489 134.5625 186.3125 C132.94480952 181.01824024 129.55004618 177.10085736 126.1875 172.8125 C125.32125 171.69294922 125.32125 171.69294922 124.4375 170.55078125 C123.32022669 169.1095497 122.19834785 167.67187343 121.07128906 166.23828125 C119.78753603 164.59973045 118.52784365 162.94237486 117.2734375 161.28125 C116.70882813 160.6315625 116.14421875 159.981875 115.5625 159.3125 C114.9025 159.3125 114.2425 159.3125 113.5625 159.3125 C113.5625 158.6525 113.5625 157.9925 113.5625 157.3125 C112.9025 157.3125 112.2425 157.3125 111.5625 157.3125 C111.5625 156.6525 111.5625 155.9925 111.5625 155.3125 C110.9025 155.3125 110.2425 155.3125 109.5625 155.3125 C109.2325 154.3225 108.9025 153.3325 108.5625 152.3125 C107.9025 152.3125 107.2425 152.3125 106.5625 152.3125 C106.5625 151.6525 106.5625 150.9925 106.5625 150.3125 C105.9025 150.3125 105.2425 150.3125 104.5625 150.3125 C104.5625 149.6525 104.5625 148.9925 104.5625 148.3125 C102.7873216 146.73490668 101.01848869 145.29999664 99.125 143.875 C98.54371338 143.43615479 97.96242676 142.99730957 97.36352539 142.54516602 C37.82754027 98.23585568 -40.48613067 97.66293955 -98.93359375 144.31640625 Z M122.5625 239.3125 C122.5625 245.2525 122.5625 251.1925 122.5625 257.3125 C116.9525 257.3125 111.3425 257.3125 105.5625 257.3125 C105.5625 262.5925 105.5625 267.8725 105.5625 273.3125 C111.1725 273.3125 116.7825 273.3125 122.5625 273.3125 C122.5625 279.2525 122.5625 285.1925 122.5625 291.3125 C127.8425 291.3125 133.1225 291.3125 138.5625 291.3125 C138.5625 285.3725 138.5625 279.4325 138.5625 273.3125 C144.5025 273.3125 150.4425 273.3125 156.5625 273.3125 C156.5625 268.0325 156.5625 262.7525 156.5625 257.3125 C150.6225 257.3125 144.6825 257.3125 138.5625 257.3125 C138.5625 251.3725 138.5625 245.4325 138.5625 239.3125 C133.2825 239.3125 128.0025 239.3125 122.5625 239.3125 Z M188.5625 239.3125 C188.5625 245.2525 188.5625 251.1925 188.5625 257.3125 C182.6225 257.3125 176.6825 257.3125 170.5625 257.3125 C170.5625 262.5925 170.5625 267.8725 170.5625 273.3125 C176.5025 273.3125 182.4425 273.3125 188.5625 273.3125 C188.5625 279.2525 188.5625 285.1925 188.5625 291.3125 C193.5125 291.3125 198.4625 291.3125 203.5625 291.3125 C203.8925 285.7025 204.2225 280.0925 204.5625 274.3125 C212.9775 273.8175 212.9775 273.8175 221.5625 273.3125 C221.5625 268.0325 221.5625 262.7525 221.5625 257.3125 C215.9525 256.9825 210.3425 256.6525 204.5625 256.3125 C204.2325 250.7025 203.9025 245.0925 203.5625 239.3125 C198.6125 239.3125 193.6625 239.3125 188.5625 239.3125 Z " fill="#02599D" transform="translate(235.4375,-0.3125)"/>
<path d="M0 0 C0.90298828 -0.01611328 1.80597656 -0.03222656 2.73632812 -0.04882812 C24.79649499 -0.06480218 48.86082619 20.12988438 67.26025391 30.88452148 C83.31575162 40.26585334 99.43429417 49.53794938 115.58618164 58.75219727 C130.98457206 67.54226463 146.32524766 76.43323161 161.66381836 85.32714844 C166.4777085 88.11503217 171.30354392 90.88119163 176.13671875 93.63549805 C180.61553136 96.18830407 185.08983675 98.74893763 189.5625 101.3125 C190.59793945 101.90562988 191.63337891 102.49875977 192.70019531 103.10986328 C195.92862736 104.96307849 199.15233846 106.82427139 202.375 108.6875 C203.37104248 109.25831299 204.36708496 109.82912598 205.39331055 110.41723633 C212.99390436 114.82688395 220.19538309 119.30775555 226 126 C226.65871094 126.74636719 227.31742187 127.49273437 227.99609375 128.26171875 C229.5625 130.3125 229.5625 130.3125 230.5625 133.3125 C229.38494141 133.87517578 229.38494141 133.87517578 228.18359375 134.44921875 C221.36461195 137.69558211 221.36461195 137.69558211 215.0625 141.8125 C212.18339352 144.00312449 209.19338159 145.54806518 205.9375 147.125 C201.60917316 149.23023818 197.51435386 151.50417125 193.4375 154.0625 C188.45534308 157.18740316 183.40570924 160.1091436 178.25 162.9375 C169.73709175 167.61185378 161.34714244 172.48408758 152.97338867 177.40283203 C150.17348192 179.045863 147.36851838 180.67993522 144.5625 182.3125 C143.68996582 182.8286084 142.81743164 183.3447168 141.91845703 183.87646484 C141.11134277 184.34391113 140.30422852 184.81135742 139.47265625 185.29296875 C138.76375244 185.70828857 138.05484863 186.1236084 137.32446289 186.55151367 C136.74301514 186.80263916 136.16156738 187.05376465 135.5625 187.3125 C133.5625 186.3125 133.5625 186.3125 132.83984375 184.2890625 C130.95800014 179.90384896 128.04904173 176.43282996 125.125 172.6875 C124.53912109 171.924375 123.95324219 171.16125 123.34960938 170.375 C120.30117105 166.36776201 120.30117105 166.36776201 116.87084961 162.69775391 C115.5625 161.3125 115.5625 161.3125 115.5625 159.3125 C114.9025 159.3125 114.2425 159.3125 113.5625 159.3125 C113.5625 158.6525 113.5625 157.9925 113.5625 157.3125 C112.9025 157.3125 112.2425 157.3125 111.5625 157.3125 C111.5625 156.6525 111.5625 155.9925 111.5625 155.3125 C110.9025 155.3125 110.2425 155.3125 109.5625 155.3125 C107.9375 153.9375 107.9375 153.9375 106.5625 152.3125 C106.5625 151.6525 106.5625 150.9925 106.5625 150.3125 C105.9025 150.3125 105.2425 150.3125 104.5625 150.3125 C104.5625 149.6525 104.5625 148.9925 104.5625 148.3125 C104.02496094 148.07789063 103.48742187 147.84328125 102.93359375 147.6015625 C99.8983048 145.95140541 97.31298036 143.83651266 94.625 141.6875 C61.41059934 115.82608367 20.50607089 106.64590276 -20.94921875 110.78125 C-49.89117435 114.45073418 -76.42601763 127.18953726 -98.93359375 145.4140625 C-101.4375 147.3125 -101.4375 147.3125 -104.4375 148.3125 C-104.4375 148.9725 -104.4375 149.6325 -104.4375 150.3125 C-105.0975 150.3125 -105.7575 150.3125 -106.4375 150.3125 C-106.4375 150.9725 -106.4375 151.6325 -106.4375 152.3125 C-107.8125 153.9375 -107.8125 153.9375 -109.4375 155.3125 C-110.0975 155.3125 -110.7575 155.3125 -111.4375 155.3125 C-111.4375 155.9725 -111.4375 156.6325 -111.4375 157.3125 C-112.0975 157.3125 -112.7575 157.3125 -113.4375 157.3125 C-113.4375 157.9725 -113.4375 158.6325 -113.4375 159.3125 C-114.0975 159.3125 -114.7575 159.3125 -115.4375 159.3125 C-115.6746875 159.8590625 -115.911875 160.405625 -116.15625 160.96875 C-118.33090047 164.94676915 -121.42494565 168.20675395 -124.34375 171.65625 C-126.07591562 173.85377355 -127.33147443 175.76383238 -128.4375 178.3125 C-129.0975 178.3125 -129.7575 178.3125 -130.4375 178.3125 C-130.66824219 178.95316406 -130.89898437 179.59382812 -131.13671875 180.25390625 C-132.54293946 183.56042521 -134.1976936 186.64496917 -135.91577148 189.79736328 C-140.63188209 198.46672232 -144.44847662 206.89031109 -147.4375 216.3125 C-147.71980469 217.09367188 -148.00210938 217.87484375 -148.29296875 218.6796875 C-157.1683917 243.27857548 -157.2412291 269.93296718 -152.4375 295.3125 C-152.28764648 296.11526367 -152.13779297 296.91802734 -151.98339844 297.74511719 C-150.12561252 307.45214721 -147.69365186 316.34576341 -143.4375 325.3125 C-142.74928568 326.79263682 -142.06184399 328.27313304 -141.375 329.75390625 C-137.97320363 337.06538845 -137.97320363 337.06538845 -134.4375 344.3125 C-135.33726562 344.73917969 -136.23703125 345.16585938 -137.1640625 345.60546875 C-148.47982068 351.07010812 -159.20500741 357.39295935 -169.97851562 363.84814453 C-173.06869624 365.68838513 -176.18388896 367.47584862 -179.3125 369.25 C-186.65384861 373.41742424 -193.93901004 377.6796046 -201.22802734 381.93774414 C-210.61664124 387.42122176 -220.02347424 392.87279172 -229.4375 398.3125 C-235.15373895 391.77965548 -235.8803898 384.5254636 -235.83190918 376.24395752 C-235.83800028 375.25736924 -235.84409139 374.27078096 -235.85036707 373.25429606 C-235.86695824 369.96270651 -235.86222668 366.67150544 -235.85742188 363.37988281 C-235.86476451 361.0139628 -235.87335131 358.64804638 -235.88308716 356.28213501 C-235.90529315 349.86462055 -235.90823421 343.44723453 -235.90633965 337.02968693 C-235.90554945 333.01734885 -235.91046499 329.00503106 -235.91682434 324.99269867 C-235.91892366 323.64241942 -235.92102126 322.29214017 -235.92311716 320.94186091 C-235.92416069 320.26966992 -235.92520422 319.59747894 -235.92627937 318.90491852 C-235.9451628 306.20484234 -235.94413761 293.50482397 -235.93731004 280.80473956 C-235.93173815 269.20584903 -235.95254816 257.60717962 -235.98567051 246.00834075 C-236.01946868 234.07959963 -236.03456809 222.15096426 -236.02995348 210.22217441 C-236.02771468 203.53274288 -236.03332841 196.84354597 -236.05784607 190.15415192 C-236.08015254 183.86014718 -236.07820225 177.56660152 -236.05791855 171.27259445 C-236.05451528 168.96844245 -236.05956791 166.66425931 -236.07390213 164.36014938 C-236.17212186 147.39547323 -234.74338558 134.92090669 -222.44140625 122.2578125 C-217.91396735 117.98055294 -213.27737604 114.89903083 -207.7578125 112.0546875 C-203.5798162 109.86246827 -199.51356801 107.50006418 -195.4375 105.125 C-193.77474616 104.15884285 -192.11198566 103.19269717 -190.44921875 102.2265625 C-189.1969751 101.49808105 -189.1969751 101.49808105 -187.91943359 100.75488281 C-184.79905219 98.94146423 -181.67447645 97.13535785 -178.54980469 95.3293457 C-172.59669608 91.88829726 -166.64867561 88.43905619 -160.71484375 84.96484375 C-149.76489145 78.55515921 -138.78105703 72.21694456 -127.72485352 65.9921875 C-120.2812341 61.79881465 -112.87921996 57.538164 -105.4921875 53.24609375 C-100.69153674 50.45678664 -95.88122927 47.68439533 -91.0703125 44.9128418 C-81.40537179 39.34484103 -71.75402238 33.75490034 -62.125 28.125 C-53.63108954 23.1591146 -45.11191729 18.24050889 -36.55688477 13.38061523 C-32.92110044 11.31365087 -29.29252702 9.24183827 -25.7109375 7.08203125 C-24.67195312 6.45683594 -23.63296875 5.83164063 -22.5625 5.1875 C-21.71945313 4.66929687 -20.87640625 4.15109375 -20.0078125 3.6171875 C-13.4391321 0.28293331 -7.20440224 -0.025602 0 0 Z " fill="#669AD2" transform="translate(235.4375,-0.3125)"/>
<path d="M0 0 C2.36521825 1.07715841 3.20473607 2.20048384 4.64819336 4.35131836 C5.12708008 5.05643555 5.6059668 5.76155273 6.09936523 6.48803711 C6.58598633 7.22924805 7.07260742 7.97045898 7.57397461 8.73413086 C8.07219727 9.46760742 8.57041992 10.20108398 9.08374023 10.95678711 C11.08318093 13.93560106 12.74559981 16.43650645 13.88647461 19.85913086 C14.54647461 19.85913086 15.20647461 19.85913086 15.88647461 19.85913086 C19.88647461 24.32971909 19.88647461 24.32971909 19.88647461 26.85913086 C20.54647461 26.85913086 21.20647461 26.85913086 21.88647461 26.85913086 C21.88647461 27.51913086 21.88647461 28.17913086 21.88647461 28.85913086 C22.54647461 28.85913086 23.20647461 28.85913086 23.88647461 28.85913086 C23.88647461 29.51913086 23.88647461 30.17913086 23.88647461 30.85913086 C24.54647461 30.85913086 25.20647461 30.85913086 25.88647461 30.85913086 C25.88647461 31.51913086 25.88647461 32.17913086 25.88647461 32.85913086 C27.37147461 33.35413086 27.37147461 33.35413086 28.88647461 33.85913086 C28.88647461 34.51913086 28.88647461 35.17913086 28.88647461 35.85913086 C29.45881836 36.12725586 30.03116211 36.39538086 30.62084961 36.67163086 C32.96532095 37.90045722 35.01052399 39.28435262 37.13647461 40.85913086 C37.84288086 41.37475586 38.54928711 41.89038086 39.27709961 42.42163086 C39.80819336 42.89600586 40.33928711 43.37038086 40.88647461 43.85913086 C40.88647461 44.51913086 40.88647461 45.17913086 40.88647461 45.85913086 C41.63413086 46.1362793 42.38178711 46.41342773 43.15209961 46.69897461 C45.63070171 47.75061007 47.47138612 48.85149437 49.63647461 50.42163086 C61.4704236 58.44830604 74.34587046 64.37267971 87.88647461 68.85913086 C89.01182617 69.23811523 90.13717773 69.61709961 91.29663086 70.00756836 C129.59823939 81.92362435 171.4194397 76.89797179 206.88647461 58.85913086 C210.73830092 56.77875179 214.51078237 54.58524193 218.26147461 52.32788086 C220.88647461 50.85913086 220.88647461 50.85913086 222.88647461 50.85913086 C222.88647461 50.19913086 222.88647461 49.53913086 222.88647461 48.85913086 C227.27108999 45.85913086 227.27108999 45.85913086 229.88647461 45.85913086 C229.88647461 45.19913086 229.88647461 44.53913086 229.88647461 43.85913086 C232.00366211 41.91381836 232.00366211 41.91381836 234.76147461 39.73413086 C235.66639648 39.00967773 236.57131836 38.28522461 237.50366211 37.53881836 C239.88647461 35.85913086 239.88647461 35.85913086 241.88647461 35.85913086 C242.21647461 34.86913086 242.54647461 33.87913086 242.88647461 32.85913086 C243.54647461 32.85913086 244.20647461 32.85913086 244.88647461 32.85913086 C244.88647461 32.19913086 244.88647461 31.53913086 244.88647461 30.85913086 C245.54647461 30.85913086 246.20647461 30.85913086 246.88647461 30.85913086 C246.88647461 30.19913086 246.88647461 29.53913086 246.88647461 28.85913086 C247.54647461 28.85913086 248.20647461 28.85913086 248.88647461 28.85913086 C248.88647461 28.19913086 248.88647461 27.53913086 248.88647461 26.85913086 C249.54647461 26.85913086 250.20647461 26.85913086 250.88647461 26.85913086 C251.2596582 26.02188477 251.2596582 26.02188477 251.64038086 25.16772461 C253.09871741 22.46591615 254.86724852 20.28646369 256.82397461 17.92163086 C258.95086006 15.34949088 260.84261236 12.93496942 262.51538086 10.04272461 C262.9678418 9.32213867 263.42030273 8.60155273 263.88647461 7.85913086 C264.54647461 7.85913086 265.20647461 7.85913086 265.88647461 7.85913086 C265.88647461 6.86913086 265.88647461 5.87913086 265.88647461 4.85913086 C266.54647461 4.85913086 267.20647461 4.85913086 267.88647461 4.85913086 C268.21647461 3.53913086 268.54647461 2.21913086 268.88647461 0.85913086 C270.66748047 0.24169922 270.66748047 0.24169922 272.88647461 -0.14086914 C275.54761816 1.28612088 277.95501924 2.74426222 280.44897461 4.42163086 C281.88753809 5.35629811 283.32764811 6.28858933 284.76928711 7.21850586 C285.47214844 7.67418945 286.17500977 8.12987305 286.89916992 8.59936523 C291.09561806 11.25952155 295.50005462 13.5332107 299.88647461 15.85913086 C301.45084534 16.73078187 303.01342452 17.60565794 304.57397461 18.48413086 C307.26825371 19.9910197 309.97745396 21.40141509 312.76147461 22.73413086 C316.05130689 24.34653878 319.0697347 26.23064462 322.13647461 28.23413086 C327.8281076 31.93010011 333.76563212 34.94291794 339.88647461 37.85913086 C339.88647461 38.51913086 339.88647461 39.17913086 339.88647461 39.85913086 C340.54647461 39.85913086 341.20647461 39.85913086 341.88647461 39.85913086 C341.88647461 40.51913086 341.88647461 41.17913086 341.88647461 41.85913086 C342.96928711 41.76631836 342.96928711 41.76631836 344.07397461 41.67163086 C347.43996902 41.89603049 349.1213514 42.99080436 351.88647461 44.85913086 C352.54647461 45.18913086 353.20647461 45.51913086 353.88647461 45.85913086 C353.88647461 46.51913086 353.88647461 47.17913086 353.88647461 47.85913086 C354.77334961 48.12725586 355.66022461 48.39538086 356.57397461 48.67163086 C359.65525009 49.77623905 362.14868866 51.0876223 364.88647461 52.85913086 C361.36653759 65.37446249 347.5587071 71.61684413 337.13647461 77.48413086 C335.27316691 78.54137591 333.40988641 79.5986689 331.54663086 80.65600586 C330.6044873 81.1890332 329.66234375 81.72206055 328.69165039 82.27124023 C324.31369253 84.74941586 319.94288504 87.24004654 315.57397461 89.73413086 C314.71280029 90.2256665 313.85162598 90.71720215 312.96435547 91.22363281 C305.34132107 95.58296557 297.75683415 100.00714364 290.17578125 104.43896484 C279.53166222 110.65858296 268.85116932 116.81457327 258.16870117 122.96801758 C252.73987519 126.09593234 247.3132818 129.22771534 241.88647461 132.35913086 C239.71981878 133.60914965 237.55315211 134.85914964 235.38647461 136.10913086 C234.31397461 136.72788086 233.24147461 137.34663086 232.13647461 137.98413086 C228.88647461 139.85913086 225.63647461 141.73413086 222.38647461 143.60913086 C221.31373291 144.22804199 220.24099121 144.84695313 219.13574219 145.48461914 C216.97159281 146.73312308 214.80736768 147.98149573 212.64306641 149.22973633 C207.18725288 152.37654744 201.73282277 155.52571256 196.28100586 158.67944336 C190.8812874 161.8024223 185.47671953 164.91686147 180.0690918 168.02612305 C177.92998055 169.25813036 175.79263465 170.49320743 173.65698242 171.73120117 C170.55031809 173.53149277 167.43783584 175.32132364 164.32397461 177.10913086 C163.40269775 177.64618652 162.4814209 178.18324219 161.53222656 178.73657227 C152.90786887 183.6618251 145.49418529 186.38723302 135.51147461 186.29663086 C134.73803711 186.31661133 133.96459961 186.3365918 133.16772461 186.35717773 C121.93076614 186.34790632 112.57672807 180.88809016 103.07397461 175.42163086 C101.98938965 174.80618408 100.90480469 174.1907373 99.78735352 173.55664062 C91.82756973 169.0221974 83.934184 164.37731869 76.0637207 159.68994141 C68.53595147 155.21391542 60.92659809 150.89351839 53.29370117 146.59985352 C41.39264404 139.90271925 29.5852739 133.04838281 17.82397461 126.10913086 C1.76218032 116.6337863 -14.43007311 107.37981057 -30.62768555 98.13916016 C-37.90090025 93.9873376 -45.1521973 89.79850578 -52.39477539 85.59350586 C-55.66007378 83.69832011 -58.93158518 81.8144208 -62.20727539 79.93725586 C-63.0495166 79.45329346 -63.89175781 78.96933105 -64.75952148 78.47070312 C-66.34958834 77.55728378 -67.94094883 76.64611054 -69.53393555 75.73779297 C-84.56821223 67.08586702 -84.56821223 67.08586702 -89.61352539 61.23413086 C-90.58805664 60.13198242 -90.58805664 60.13198242 -91.58227539 59.00756836 C-93.11608924 56.85553363 -93.5636058 55.39686367 -94.11352539 52.85913086 C-93.08134888 52.26394653 -93.08134888 52.26394653 -92.02832031 51.65673828 C-66.18788313 36.76946961 -66.18788313 36.76946961 -40.41381836 21.76782227 C-36.3584326 19.39639211 -32.29711572 17.03524912 -28.23461914 14.67602539 C-26.10974407 13.43906354 -23.98744118 12.19767496 -21.86743164 10.95239258 C-18.70613041 9.09707308 -15.5359509 7.25784728 -12.36352539 5.42163086 C-11.39318359 4.84751465 -10.4228418 4.27339844 -9.4230957 3.68188477 C-8.52171875 3.16416504 -7.6203418 2.64644531 -6.69165039 2.11303711 C-5.50684082 1.42189819 -5.50684082 1.42189819 -4.2980957 0.71679688 C-2.11352539 -0.14086914 -2.11352539 -0.14086914 0 0 Z " fill="#014481" transform="translate(100.113525390625,344.140869140625)"/>
<path d="M0 0 C0 0.66 0 1.32 0 2 C0.81984375 2.33257812 0.81984375 2.33257812 1.65625 2.671875 C4.73288316 4.41530046 7.04097787 6.75077587 9.5 9.25 C9.97308594 9.71535156 10.44617188 10.18070313 10.93359375 10.66015625 C19 18.77125173 19 18.77125173 19 23 C20.65 22.34 22.3 21.68 24 21 C22.84826645 23.46800047 21.95216435 25.04783565 20 27 C19.01 27 18.02 27 17 27 C11.46135667 29.23824507 6.30327575 32.50323415 1.1875 35.5625 C-0.31608512 36.45366704 -1.82000356 37.34427187 -3.32421875 38.234375 C-4.09556152 38.69134766 -4.8669043 39.14832031 -5.66162109 39.61914062 C-16.57495003 46.06367899 -27.58262613 52.34235381 -38.625 58.5625 C-45.89286535 62.65734935 -53.12430967 66.80207333 -60.30175781 71.05322266 C-67.90936991 75.55352552 -75.5704336 79.96070716 -83.23168945 84.36889648 C-88.43770311 87.36490743 -93.63891227 90.36782972 -98.8203125 93.40625 C-99.70090332 93.92131104 -100.58149414 94.43637207 -101.48876953 94.96704102 C-103.124636 95.92492783 -104.75853284 96.88618883 -106.39013672 97.85131836 C-111.77697949 101 -111.77697949 101 -114 101 C-114 103.31 -114 105.62 -114 108 C-122.43767158 100.12483986 -126.5415983 86.34013279 -127.16113281 75.06835938 C-127.20700926 71.54547502 -127.23528953 68.02315824 -127.25 64.5 C-127.270625 63.29601562 -127.29125 62.09203125 -127.3125 60.8515625 C-127.3615619 49.44467004 -125.64623308 38.88541871 -120.25 28.75 C-119.89856934 28.07308105 -119.54713867 27.39616211 -119.18505859 26.69873047 C-114.09268671 17.13590323 -107.1531339 9.1395816 -99 2 C-98.34 2 -97.68 2 -97 2 C-97 1.34 -97 0.68 -97 0 C-79.51485919 -10.26730979 -79.51485919 -10.26730979 -70 -13 C-68.2675 -13.52980469 -68.2675 -13.52980469 -66.5 -14.0703125 C-43.25642912 -19.73702108 -19.42915332 -12.95276888 0 0 Z " fill="#669AD2" transform="translate(284,201)"/>
<path d="M0 0 C2.3515625 1.375 2.3515625 1.375 4.625 3 C7.17796131 4.81234113 9.00688125 6.00229375 12 7 C12 7.66 12 8.32 12 9 C12.99 9 13.98 9 15 9 C15 9.66 15 10.32 15 11 C15.53625 11.103125 16.0725 11.20625 16.625 11.3125 C22.24540632 12.93945972 27.36233078 16.16279346 32.13671875 19.48828125 C32.91660156 20.02839844 33.69648438 20.56851562 34.5 21.125 C35.2321875 21.64320313 35.964375 22.16140625 36.71875 22.6953125 C39.1672765 24.09566841 41.25603391 24.46436278 44 25 C44.495 25.99 44.495 25.99 45 27 C46.88013106 28.12224855 46.88013106 28.12224855 49.0625 29.125 C49.79597656 29.47820312 50.52945313 29.83140625 51.28515625 30.1953125 C51.85105469 30.46085937 52.41695313 30.72640625 53 31 C53 31.66 53 32.32 53 33 C53.886875 33.2475 54.77375 33.495 55.6875 33.75 C59.10427135 35.03934768 61.2797748 36.59980129 64 39 C63.34 39 62.68 39 62 39 C62 39.99 62 40.98 62 42 C61.34 42 60.68 42 60 42 C59.9484375 43.02996094 59.896875 44.05992187 59.84375 45.12109375 C58.83953492 49.73769364 56.84968128 51.95977161 53.5 55.0625 C52.68631958 55.84282593 52.68631958 55.84282593 51.85620117 56.63891602 C47.56735117 60.66741443 43.10254419 64.05622451 38 67 C37.29617188 67.43699219 36.59234375 67.87398438 35.8671875 68.32421875 C29.9063436 71.88149656 23.65102984 74.07448061 17 76 C15.80632812 76.35964844 14.61265625 76.71929687 13.3828125 77.08984375 C-7.41236044 82.15985332 -29.07575274 76.77937418 -47 66 C-55.27700343 60.37474432 -67.39218297 51.54611219 -69.875 41.4375 C-70 38 -70 38 -68.85620117 36.49145508 C-66.50761526 34.60436954 -64.05237469 33.17777031 -61.42578125 31.69921875 C-60.29446777 31.05839355 -59.1631543 30.41756836 -57.99755859 29.75732422 C-57.09635284 29.25117584 -57.09635284 29.25117584 -56.17694092 28.73480225 C-53.00692604 26.95412705 -49.84604127 25.15734957 -46.68359375 23.36328125 C-46.0403717 22.99900024 -45.39714966 22.63471924 -44.73443604 22.25939941 C-38.41937027 18.67999545 -32.14240957 15.03726647 -25.875 11.375 C-24.92407471 10.82030029 -23.97314941 10.26560059 -22.9934082 9.6940918 C-22.08550537 9.16340088 -21.17760254 8.63270996 -20.2421875 8.0859375 C-18.93652832 7.32748535 -18.93652832 7.32748535 -17.60449219 6.55371094 C-15.80808382 5.48206275 -14.03346192 4.3733282 -12.27832031 3.23535156 C-10.96879395 2.39568848 -10.96879395 2.39568848 -9.6328125 1.5390625 C-8.8608252 1.02811035 -8.08883789 0.5171582 -7.29345703 -0.00927734 C-4.40509389 -1.25698627 -2.96176543 -0.93552036 0 0 Z " fill="#024581" transform="translate(239,266)"/>
<path d="M0 0 C-2.70879335 1.35439668 -5.00933268 1.06501451 -8 1 C-8 1.66 -8 2.32 -8 3 C-16.57999327 5.0338105 -24.99907795 5.31101621 -33.76416016 5.26074219 C-36.02402753 5.24988456 -38.28312331 5.26076638 -40.54296875 5.2734375 C-41.98698091 5.27211807 -43.4309926 5.26956019 -44.875 5.265625 C-46.17179688 5.26336914 -47.46859375 5.26111328 -48.8046875 5.25878906 C-52 5 -52 5 -55 3 C-53.70304199 2.97812622 -53.70304199 2.97812622 -52.37988281 2.95581055 C-30.46927036 2.62934077 -30.46927036 2.62934077 -8.75292969 -0.0715332 C-3.24370138 -1.08123379 -3.24370138 -1.08123379 0 0 Z " fill="#38658C" transform="translate(272,418)"/>
<path d="M0 0 C1.12329712 0.07069702 1.12329712 0.07069702 2.26928711 0.14282227 C3.07817383 0.19116211 3.88706055 0.23950195 4.72045898 0.28930664 C5.99566406 0.37341797 5.99566406 0.37341797 7.29663086 0.45922852 C8.57763672 0.53753906 8.57763672 0.53753906 9.88452148 0.61743164 C12.00135081 0.74751612 14.1177833 0.88402822 16.23413086 1.02172852 C16.23413086 1.35172852 16.23413086 1.68172852 16.23413086 2.02172852 C10.62413086 2.02172852 5.01413086 2.02172852 -0.76586914 2.02172852 C-0.76586914 7.30172852 -0.76586914 12.58172852 -0.76586914 18.02172852 C4.84413086 18.02172852 10.45413086 18.02172852 16.23413086 18.02172852 C12.07109521 20.10324634 10.20968902 20.26601878 5.67163086 20.20922852 C3.96813477 20.19956055 3.96813477 20.19956055 2.23022461 20.18969727 C-0.76586914 20.02172852 -0.76586914 20.02172852 -3.76586914 19.02172852 C-3.62569088 16.04219493 -3.47900572 13.06323548 -3.32836914 10.08422852 C-3.28905273 9.2340918 -3.24973633 8.38395508 -3.20922852 7.50805664 C-3.16733398 6.69916992 -3.12543945 5.8902832 -3.08227539 5.05688477 C-3.04561768 4.30802002 -3.00895996 3.55915527 -2.97119141 2.78759766 C-2.69310206 0.395897 -2.42796542 0.02987542 0 0 Z " fill="#3873A0" transform="translate(341.765869140625,254.978271484375)"/>
<path d="M0 0 C0.74572266 0.03544922 1.49144531 0.07089844 2.25976562 0.10742188 C4.15868283 0.22297814 6.05031248 0.4471605 7.9375 0.6875 C8.4325 1.6775 8.4325 1.6775 8.9375 2.6875 C3.6575 2.6875 -1.6225 2.6875 -7.0625 2.6875 C-7.0625 8.2975 -7.0625 13.9075 -7.0625 19.6875 C-12.6725 19.6875 -18.2825 19.6875 -24.0625 19.6875 C-24.0625 19.3575 -24.0625 19.0275 -24.0625 18.6875 C-19.1125 18.6875 -14.1625 18.6875 -9.0625 18.6875 C-9.3925 12.7475 -9.7225 6.8075 -10.0625 0.6875 C-6.86314319 -0.91217841 -3.48383602 -0.22095572 0 0 Z " fill="#0E578D" transform="translate(430.0625,236.3125)"/>
<path d="M0 0 C0.99 0 1.98 0 3 0 C3.66 0.99 4.32 1.98 5 3 C5.66 3 6.32 3 7 3 C7 3.99 7 4.98 7 6 C8.32 6.33 9.64 6.66 11 7 C11 8.32 11 9.64 11 11 C10.34 11 9.68 11 9 11 C9 13.31 9 15.62 9 18 C3.91301886 13.31462264 0.53193199 6.91511585 0 0 Z " fill="#749FCD" transform="translate(161,291)"/>
<path d="M0 0 C0.66 0 1.32 0 2 0 C2.86328125 2.10546875 2.86328125 2.10546875 3 5 C1.12004932 7.38206787 -0.61416752 9.27278452 -2.8125 11.3125 C-3.65264648 12.13717773 -3.65264648 12.13717773 -4.50976562 12.97851562 C-8.69111025 17 -8.69111025 17 -11 17 C-11 16.01 -11 15.02 -11 14 C-10.01 14 -9.02 14 -8 14 C-8 12.68 -8 11.36 -8 10 C-7.01 9.67 -6.02 9.34 -5 9 C-5.33 8.67 -5.66 8.34 -6 8 C-6.04063832 6.33382885 -6.042721 4.66611905 -6 3 C-5.38125 2.87625 -4.7625 2.7525 -4.125 2.625 C-1.80879168 2.12802644 -1.80879168 2.12802644 0 0 Z " fill="#1A578E" transform="translate(295,310)"/>
<path d="M0 0 C0 5.94 0 11.88 0 18 C5.28 18 10.56 18 16 18 C16 18.33 16 18.66 16 19 C10.39 19 4.78 19 -1 19 C-1.33 13.72 -1.66 8.44 -2 3 C-7.28 2.67 -12.56 2.34 -18 2 C-18 1.34 -18 0.68 -18 0 C-15.56288386 -0.19484938 -13.12562602 -0.38115178 -10.6875 -0.5625 C-9.99720703 -0.61857422 -9.30691406 -0.67464844 -8.59570312 -0.73242188 C-5.37487726 -0.96581505 -3.09672655 -1.03224218 0 0 Z " fill="#13578B" transform="translate(376,237)"/>
<path d="M0 0 C-3 2 -3 2 -6 2 C-6 2.66 -6 3.32 -6 4 C-6.804375 4.28875 -7.60875 4.5775 -8.4375 4.875 C-11.1326468 5.73262568 -11.1326468 5.73262568 -12 8 C-14 9 -16 10 -18 11 C-18.495 11.495 -18.99 11.99 -19.5 12.5 C-21.70323571 14.70323571 -24.15537456 15.78952109 -27 17 C-27.66 16.67 -28.32 16.34 -29 16 C-27.71034824 14.62437146 -26.37310707 13.29233607 -25 12 C-24.34 12 -23.68 12 -23 12 C-23 11.34 -23 10.68 -23 10 C-20.41732587 8.54048881 -17.83389259 7.08235119 -15.25 5.625 C-14.52039063 5.2125 -13.79078125 4.8 -13.0390625 4.375 C-12.33007812 3.97539062 -11.62109375 3.57578125 -10.890625 3.1640625 C-10.24125977 2.79748535 -9.59189453 2.4309082 -8.92285156 2.05322266 C-8.28831055 1.70565918 -7.65376953 1.3580957 -7 1 C-6.32163086 0.60474121 -5.64326172 0.20948242 -4.94433594 -0.19775391 C-3 -1 -3 -1 0 0 Z " fill="#95B6D9" transform="translate(210,191)"/>
<path d="M0 0 C1.485 0.99 1.485 0.99 3 2 C3 2.66 3 3.32 3 4 C3.66 4 4.32 4 5 4 C9 8.47058824 9 8.47058824 9 11 C9.66 11 10.32 11 11 11 C11 11.66 11 12.32 11 13 C11.66 13 12.32 13 13 13 C13 13.66 13 14.32 13 15 C13.66 15 14.32 15 15 15 C14.67 15.66 14.34 16.32 14 17 C13.34 17 12.68 17 12 17 C11.67 16.34 11.34 15.68 11 15 C10.360625 14.855625 9.72125 14.71125 9.0625 14.5625 C7 14 7 14 5 11 C5.33 10.01 5.66 9.02 6 8 C5.01 7.67 4.02 7.34 3 7 C3 6.34 3 5.68 3 5 C2.01 5 1.02 5 0 5 C0 3.35 0 1.7 0 0 Z " fill="#376896" transform="translate(111,360)"/>
<path d="M0 0 C4.95 0 9.9 0 15 0 C15 0.33 15 0.66 15 1 C9.06 1.495 9.06 1.495 3 2 C3 6.95 3 11.9 3 17 C2.01 17 1.02 17 0 17 C0 11.39 0 5.78 0 0 Z " fill="#407CA8" transform="translate(374,273)"/>
<path d="M0 0 C0.33 1.32 0.66 2.64 1 4 C0.01 4.33 -0.98 4.66 -2 5 C-2.12375 6.0725 -2.2475 7.145 -2.375 8.25 C-2.89643936 11.37863615 -3.40088254 13.33480424 -5 16 C-5.66 16 -6.32 16 -7 16 C-7 16.99 -7 17.98 -7 19 C-7.66 19 -8.32 19 -9 19 C-8.47467309 14.13342984 -7.03300572 10.85554015 -4.5 6.6875 C-3.8709375 5.63949219 -3.241875 4.59148437 -2.59375 3.51171875 C-1 1 -1 1 0 0 Z " fill="#8AAED1" transform="translate(171,218)"/>
<path d="M0 0 C0.66 0.33 1.32 0.66 2 1 C0.71034824 2.37562854 -0.62689293 3.70766393 -2 5 C-2.66 5 -3.32 5 -4 5 C-4 5.99 -4 6.98 -4 8 C-6.75924185 9.80411967 -7.88972103 10.0127245 -11.25 9.625 C-12.61125 9.315625 -12.61125 9.315625 -14 9 C-11.50175511 6.18841591 -8.721524 4.55162169 -5.4375 2.75 C-4.46683594 2.20859375 -3.49617188 1.6671875 -2.49609375 1.109375 C-1.67238281 0.74328125 -0.84867187 0.3771875 0 0 Z " fill="#2D5F8F" transform="translate(321,395)"/>
<path d="M0 0 C5.75 0.75 5.75 0.75 8 3 C11.58343976 3.16677282 11.58343976 3.16677282 15 3 C15 3.99 15 4.98 15 6 C15.66 6.33 16.32 6.66 17 7 C17 7.66 17 8.32 17 9 C15.35 9 13.7 9 12 9 C12 8.34 12 7.68 12 7 C11.05125 6.690625 10.1025 6.38125 9.125 6.0625 C6 5 6 5 4 4 C4 3.34 4 2.68 4 2 C2.68 1.67 1.36 1.34 0 1 C0 0.67 0 0.34 0 0 Z " fill="#3878AA" transform="translate(358,336)"/>
<path d="M0 0 C0.99 0 1.98 0 3 0 C1.55678165 4.32965506 -1.70820163 5.24454011 -5.5625 7.1875 C-6.27341797 7.55552734 -6.98433594 7.92355469 -7.71679688 8.30273438 C-9.47340227 9.21051032 -11.23614244 10.10639707 -13 11 C-13 9.68 -13 8.36 -13 7 C-12.34 7 -11.68 7 -11 7 C-10.67 6.01 -10.34 5.02 -10 4 C-10 4.66 -10 5.32 -10 6 C-9.34 5.34 -8.68 4.68 -8 4 C-6.0546875 3.1484375 -6.0546875 3.1484375 -3.875 2.375 C-3.15054687 2.11460937 -2.42609375 1.85421875 -1.6796875 1.5859375 C-0.84824219 1.29589844 -0.84824219 1.29589844 0 1 C0 0.67 0 0.34 0 0 Z " fill="#275989" transform="translate(279,509)"/>
<path d="M0 0 C1.65 0 3.3 0 5 0 C2.04732794 3.23387892 -0.87922748 5.22245249 -4.75 7.25 C-5.73484375 7.77078125 -6.7196875 8.2915625 -7.734375 8.828125 C-8.85585937 9.40820312 -8.85585937 9.40820312 -10 10 C-10 8.68 -10 7.36 -10 6 C-8.35 5.67 -6.7 5.34 -5 5 C-5 4.34 -5 3.68 -5 3 C-3.35 3 -1.7 3 0 3 C0 2.01 0 1.02 0 0 Z " fill="#91B3D8" transform="translate(156,127)"/>
<path d="M0 0 C0.66 0.33 1.32 0.66 2 1 C0.625 2.5 0.625 2.5 -1 4 C-1.66 4 -2.32 4 -3 4 C-3 4.99 -3 5.98 -3 7 C-6.96 7.99 -10.92 8.98 -15 10 C-12.08878292 7.08878292 -9.46724098 5.32581365 -5.9375 3.25 C-4.87402344 2.61578125 -3.81054688 1.9815625 -2.71484375 1.328125 C-1.81894531 0.88984375 -0.92304687 0.4515625 0 0 Z " fill="#83A9CD" transform="translate(58,94)"/>
<path d="M0 0 C-2.45267635 1.53068488 -4.91133894 3.04968623 -7.375 4.5625 C-8.07367188 5.00013672 -8.77234375 5.43777344 -9.4921875 5.88867188 C-11.29185903 6.98750978 -13.14322343 8.00067867 -15 9 C-15.66 8.67 -16.32 8.34 -17 8 C-16.67 7.01 -16.34 6.02 -16 5 C-14.35 5 -12.7 5 -11 5 C-11 4.34 -11 3.68 -11 3 C-10.01 3 -9.02 3 -8 3 C-8 2.01 -8 1.02 -8 0 C-4.90645403 -0.99435406 -3.09720845 -0.87840996 0 0 Z " fill="#285D8B" transform="translate(412,436)"/>
<path d="M0 0 C0.66 0 1.32 0 2 0 C1.44040477 3.82246588 -0.21317357 5.58971741 -2.9375 8.25 C-3.64777344 8.95640625 -4.35804688 9.6628125 -5.08984375 10.390625 C-7 12 -7 12 -9 12 C-9 11.01 -9 10.02 -9 9 C-8.01 9 -7.02 9 -6 9 C-6 7.68 -6 6.36 -6 5 C-4.68 5 -3.36 5 -2 5 C-2 4.01 -2 3.02 -2 2 C-1.34 2 -0.68 2 0 2 C0 1.34 0 0.68 0 0 Z " fill="#3C6993" transform="translate(293,315)"/>
<path d="M0 0 C0.33 0 0.66 0 1 0 C2.02575676 5.27823181 1.80488532 9.21948164 0.5625 14.4375 C0.27503906 15.67371094 -0.01242188 16.90992188 -0.30859375 18.18359375 C-0.53675781 19.11300781 -0.76492187 20.04242188 -1 21 C-1.33 21 -1.66 21 -2 21 C-2.92470553 16.28400182 -3.22923777 13.32734391 -1 9 C-1.99 8.67 -2.98 8.34 -4 8 C-3.67 7.34 -3.34 6.68 -3 6 C-2.34 6.33 -1.68 6.66 -1 7 C-0.67 4.69 -0.34 2.38 0 0 Z " fill="#8CB3DA" transform="translate(84,214)"/>
<path d="M0 0 C-1.26278132 3.78834395 -2.52112952 4.22011278 -6 6 C-6.680625 6.144375 -7.36125 6.28875 -8.0625 6.4375 C-10.79412711 7.23055303 -12.12661299 8.92589295 -14 11 C-14 10.34 -14 9.68 -14 9 C-14.66 8.67 -15.32 8.34 -16 8 C-13.71125827 6.66141476 -11.41930344 5.32898986 -9.125 4 C-8.47402344 3.6184375 -7.82304687 3.236875 -7.15234375 2.84375 C-2.2265625 0 -2.2265625 0 0 0 Z " fill="#83A5CD" transform="translate(161,36)"/>
<path d="M0 0 C0.66 0.33 1.32 0.66 2 1 C-0.35277269 3.72426311 -2.62496331 4.8141763 -6 6 C-6 6.66 -6 7.32 -6 8 C-5.34 8.33 -4.68 8.66 -4 9 C-4.99 10.32 -5.98 11.64 -7 13 C-10 8.25 -10 8.25 -10 6 C-7.8828125 4.45703125 -7.8828125 4.45703125 -5.125 2.8125 C-4.22007813 2.26207031 -3.31515625 1.71164062 -2.3828125 1.14453125 C-1.20332031 0.57798828 -1.20332031 0.57798828 0 0 Z " fill="#1A5289" transform="translate(16,391)"/>
<path d="M0 0 C8.30622213 0.34826927 8.30622213 0.34826927 11.0625 2.9375 C12 5 12 5 12 7 C7.69235185 5.43358249 3.93828536 3.31663844 0 1 C0 0.67 0 0.34 0 0 Z " fill="#46739A" transform="translate(189,329)"/>
<path d="M0 0 C0.66 0.33 1.32 0.66 2 1 C-1.08748791 4.35212973 -3.51708756 6.85053527 -8 8 C-10.15234375 7.5390625 -10.15234375 7.5390625 -12 7 C-10.04754815 5.80285445 -8.08785003 4.61751926 -6.125 3.4375 C-5.03445313 2.77621094 -3.94390625 2.11492187 -2.8203125 1.43359375 C-1.88960938 0.96050781 -0.95890625 0.48742187 0 0 Z " fill="#4B8BB4" transform="translate(321,214)"/>
<path d="M0 0 C1.33332095 2.6666419 0.67102033 4.16680303 0 7 C-0.66 7 -1.32 7 -2 7 C-2.103125 7.721875 -2.20625 8.44375 -2.3125 9.1875 C-3.05986932 12.24491993 -4.28045189 14.38329635 -6 17 C-6.33 16.34 -6.66 15.68 -7 15 C-6.07421875 12.28515625 -6.07421875 12.28515625 -4.6875 9.0625 C-4.23761719 8.00160156 -3.78773437 6.94070312 -3.32421875 5.84765625 C-2 3 -2 3 0 0 Z " fill="#85A8CE" transform="translate(7,129)"/>
<path d="M0 0 C0.66 0.66 1.32 1.32 2 2 C2.680625 2.144375 3.36125 2.28875 4.0625 2.4375 C4.701875 2.623125 5.34125 2.80875 6 3 C6.33 3.99 6.66 4.98 7 6 C7.66 6.33 8.32 6.66 9 7 C8.67 7.66 8.34 8.32 8 9 C4.04 6.69 0.08 4.38 -4 2 C-2.68 1.34 -1.36 0.68 0 0 Z " fill="#285883" transform="translate(158,489)"/>
<path d="M0 0 C0.556875 0.226875 1.11375 0.45375 1.6875 0.6875 C0.5 2.1875 0.5 2.1875 -1.3125 3.6875 C-4 3.875 -4 3.875 -6.3125 3.6875 C-6.6425 4.6775 -6.9725 5.6675 -7.3125 6.6875 C-8.9625 6.6875 -10.6125 6.6875 -12.3125 6.6875 C-3.64663462 -0.49278846 -3.64663462 -0.49278846 0 0 Z " fill="#80A7D2" transform="translate(112.3125,64.3125)"/>
<path d="M0 0 C3.53149946 0.32104541 5.55774608 0.65085217 8.375 2.875 C10 5 10 5 10 8 C6.05205855 6.32971708 3.18203882 3.8204435 0 1 C0 0.67 0 0.34 0 0 Z " fill="#89AED2" transform="translate(330,140)"/>
<path d="M0 0 C1.58409994 0.11487748 3.16728963 0.24234508 4.75 0.375 C6.07257813 0.47941406 6.07257813 0.47941406 7.421875 0.5859375 C9.99066382 0.99850055 11.75841015 1.71160957 14 3 C14 3.33 14 3.66 14 4 C11.36 4 8.72 4 6 4 C6 3.34 6 2.68 6 2 C4.02 2 2.04 2 0 2 C0 1.34 0 0.68 0 0 Z " fill="#7CA3D1" transform="translate(240,0)"/>
<path d="M0 0 C0.33 1.32 0.66 2.64 1 4 C2.65 4.33 4.3 4.66 6 5 C6.33 5.99 6.66 6.98 7 8 C2.69235185 6.43358249 -1.06171464 4.31663844 -5 2 C-5 1.67 -5 1.34 -5 1 C-3.35 0.67 -1.7 0.34 0 0 Z " fill="#295F88" transform="translate(135,475)"/>
<path d="M0 0 C0.66 0 1.32 0 2 0 C1.57316761 1.58624235 1.13303842 3.1689098 0.6875 4.75 C0.44386719 5.63171875 0.20023437 6.5134375 -0.05078125 7.421875 C-1.02125331 10.05772505 -2.21005644 11.85407326 -4 14 C-3.855625 13.319375 -3.71125 12.63875 -3.5625 11.9375 C-2.93054091 8.63726918 -2.45686059 5.32855574 -2 2 C-1.34 2 -0.68 2 0 2 C0 1.34 0 0.68 0 0 Z " fill="#36759F" transform="translate(469,384)"/>
<path d="M0 0 C0.66 0 1.32 0 2 0 C1.6875 2.375 1.6875 2.375 1 5 C0.01 5.66 -0.98 6.32 -2 7 C-3.20450304 9.55183404 -3.20450304 9.55183404 -4 12 C-4.99 11.67 -5.98 11.34 -7 11 C-6.21718695 9.66144944 -5.42348123 8.32926356 -4.625 7 C-4.18414062 6.2575 -3.74328125 5.515 -3.2890625 4.75 C-2.86367188 4.1725 -2.43828125 3.595 -2 3 C-1.34 3 -0.68 3 0 3 C0 2.01 0 1.02 0 0 Z " fill="#5A82A1" transform="translate(366,349)"/>
<path d="M0 0 C-2.68841859 2.25245881 -4.64641875 3.88213958 -8 5 C-8.33 3.68 -8.66 2.36 -9 1 C-5.64919071 -1.10976881 -3.77897651 -1.0497157 0 0 Z " fill="#245988" transform="translate(388,449)"/>
<path d="M0 0 C0.66 0.33 1.32 0.66 2 1 C1.01 2.485 1.01 2.485 0 4 C-0.99 4 -1.98 4 -3 4 C-3.66 5.32 -4.32 6.64 -5 8 C-6.65 7.67 -8.3 7.34 -10 7 C-6.76478258 4.51137122 -3.40739705 2.24578442 0 0 Z " fill="#508AB0" transform="translate(362,190)"/>
<path d="M0 0 C0.33 0.66 0.66 1.32 1 2 C2.98 2 4.96 2 7 2 C3.55549263 4.29633824 1.06187717 4.54016485 -3 5 C-3.33 4.01 -3.66 3.02 -4 2 C-2.68 1.34 -1.36 0.68 0 0 Z " fill="#80A7D2" transform="translate(206,107)"/>
<path d="M0 0 C0.556875 0.391875 1.11375 0.78375 1.6875 1.1875 C0.0375 1.1875 -1.6125 1.1875 -3.3125 1.1875 C-3.3125 1.8475 -3.3125 2.5075 -3.3125 3.1875 C-3.9725 3.1875 -4.6325 3.1875 -5.3125 3.1875 C-5.3125 3.8475 -5.3125 4.5075 -5.3125 5.1875 C-7.6225 5.5175 -9.9325 5.8475 -12.3125 6.1875 C-3.40215969 -1.1953534 -3.40215969 -1.1953534 0 0 Z " fill="#82A8CF" transform="translate(211.3125,7.8125)"/>
<path d="M0 0 C1.485 0.99 1.485 0.99 3 2 C3 2.66 3 3.32 3 4 C3.66 4 4.32 4 5 4 C6.625 6.5 6.625 6.5 8 9 C7.01 9.495 7.01 9.495 6 10 C6 9.34 6 8.68 6 8 C5.01 7.67 4.02 7.34 3 7 C3 6.34 3 5.68 3 5 C2.01 5 1.02 5 0 5 C0 3.35 0 1.7 0 0 Z " fill="#456F94" transform="translate(111,360)"/>
<path d="M0 0 C0.86625 0.3403125 0.86625 0.3403125 1.75 0.6875 C1.75 1.6775 1.75 2.6675 1.75 3.6875 C-1.36257569 3.6875 -3.35765685 3.51388376 -6.25 2.6875 C-2.80384615 -0.38942308 -2.80384615 -0.38942308 0 0 Z " fill="#265E92" transform="translate(100.25,344.3125)"/>
<path d="M0 0 C0.99 0 1.98 0 3 0 C2.67 2.64 2.34 5.28 2 8 C2.66 8.33 3.32 8.66 4 9 C3.01 9 2.02 9 1 9 C-1.09230769 4.56923077 -1.09230769 4.56923077 -0.625 1.6875 C-0.41875 1.130625 -0.2125 0.57375 0 0 Z " fill="#265A88" transform="translate(170,303)"/>
<path d="M0 0 C-1 1.5 -1 1.5 -3 3 C-5.71846235 3.27345479 -8.25677199 3.13491285 -11 3 C-7.18178484 -0.02823961 -4.81391924 -1.49397494 0 0 Z " fill="#286E9C" transform="translate(375,187)"/>
<path d="M0 0 C0 3.3408643 -0.32717969 5.11058309 -2 8 C-5.125 8.8125 -5.125 8.8125 -8 9 C-7.04270084 7.87411986 -6.08412105 6.7493285 -5.125 5.625 C-4.59132813 4.99851562 -4.05765625 4.37203125 -3.5078125 3.7265625 C-2.38567993 2.44163349 -1.20628025 1.20628025 0 0 Z " fill="#83A6D0" transform="translate(16,119)"/>
<path d="M0 0 C0.33 1.32 0.66 2.64 1 4 C0.01 4.33 -0.98 4.66 -2 5 C-2 6.65 -2 8.3 -2 10 C-3.32 10.33 -4.64 10.66 -6 11 C-4.54955729 6.89041233 -2.48889248 3.56741255 0 0 Z " fill="#9DBDDB" transform="translate(171,218)"/>
<path d="M0 0 C0.33 0.99 0.66 1.98 1 3 C-2.6208201 4.01382963 -6.27811418 4.49897691 -10 5 C-7.3401439 1.55783328 -4.09711714 1.00495326 0 0 Z " fill="#7CA5CD" transform="translate(225,0)"/>
<path d="M0 0 C5.75 0.75 5.75 0.75 8 3 C8.99 3.33 9.98 3.66 11 4 C10.67 4.66 10.34 5.32 10 6 C6.40992874 4.66654496 3.20429093 3.1056769 0 1 C0 0.67 0 0.34 0 0 Z " fill="#316390" transform="translate(54,432)"/>
<path d="M0 0 C4.8333472 -0.08333357 9.23692563 0.04738513 14 1 C14 1.33 14 1.66 14 2 C8.06 2.495 8.06 2.495 2 3 C2 2.34 2 1.68 2 1 C1.34 0.67 0.68 0.34 0 0 Z " fill="#6C92B1" transform="translate(208,419)"/>
<path d="M0 0 C0.33 0.66 0.66 1.32 1 2 C-2.42388092 5.82669043 -5.00724943 7.72278474 -10 9 C-9.67 8.34 -9.34 7.68 -9 7 C-8.34 7 -7.68 7 -7 7 C-7 6.34 -7 5.68 -7 5 C-5.46875 3.7109375 -5.46875 3.7109375 -3.5 2.375 C-2.8503125 1.92898438 -2.200625 1.48296875 -1.53125 1.0234375 C-0.77328125 0.51683594 -0.77328125 0.51683594 0 0 Z " fill="#688CAB" transform="translate(337,383)"/>
<path d="M0 0 C0 0.66 0 1.32 0 2 C-7.42857143 6.28571429 -7.42857143 6.28571429 -11 8 C-11.33 7.34 -11.66 6.68 -12 6 C-10.37829621 4.99466333 -8.75252763 3.99588093 -7.125 3 C-5.76761719 2.1646875 -5.76761719 2.1646875 -4.3828125 1.3125 C-2 0 -2 0 0 0 Z " fill="#135F9E" transform="translate(399,171)"/>
<path d="M0 0 C1.32 0.66 2.64 1.32 4 2 C2.68 3.32 1.36 4.64 0 6 C-1.32 5.34 -2.64 4.68 -4 4 C-4 3.34 -4 2.68 -4 2 C-2.68 2 -1.36 2 0 2 C0 1.34 0 0.68 0 0 Z " fill="#104B86" transform="translate(219,521)"/>
<path d="M0 0 C0.66 0.33 1.32 0.66 2 1 C-0.36292656 3.52588702 -1.66462511 4.88820837 -5 6 C-5.66 5.34 -6.32 4.68 -7 4 C-1.7265625 0.77734375 -1.7265625 0.77734375 0 0 Z " fill="#4E7BA1" transform="translate(321,395)"/>
<path d="M0 0 C0.99 0 1.98 0 3 0 C3 1.32 3 2.64 3 4 C-1.455 4.495 -1.455 4.495 -6 5 C-2.25 2 -2.25 2 0 2 C0 1.34 0 0.68 0 0 Z " fill="#085694" transform="translate(331,209)"/>
<path d="M0 0 C0.66 0.33 1.32 0.66 2 1 C0.625 2.5 0.625 2.5 -1 4 C-1.66 4 -2.32 4 -3 4 C-3 4.66 -3 5.32 -3 6 C-4.65 6 -6.3 6 -8 6 C-5.63404067 3.38499232 -3.13950774 1.61000397 0 0 Z " fill="#86A6CF" transform="translate(98,71)"/>
<path d="M0 0 C4.50802601 1.25805377 7.4912812 2.90407165 11 6 C6.64477147 5.49357808 3.55760365 4.61588503 0 2 C0 1.34 0 0.68 0 0 Z " fill="#8AA9D0" transform="translate(296,28)"/>
<path d="M0 0 C2.64 0.33 5.28 0.66 8 1 C5.61426621 2.89213369 3.92824652 4.02391783 1 5 C0.67 3.35 0.34 1.7 0 0 Z " fill="#205484" transform="translate(349,466)"/>
<path d="M0 0 C1.125 3.75 1.125 3.75 0 6 C-1.97888961 6.72693904 -3.97954558 7.39816251 -6 8 C-6 7.34 -6 6.68 -6 6 C-5.34 6 -4.68 6 -4 6 C-3.71125 5.38125 -3.4225 4.7625 -3.125 4.125 C-2 2 -2 2 0 0 Z " fill="#46779E" transform="translate(355,365)"/>
<path d="M0 0 C1.37562854 1.28965176 2.70766393 2.62689293 4 4 C4 4.66 4 5.32 4 6 C2.35 6 0.7 6 -1 6 C-0.67 4.02 -0.34 2.04 0 0 Z " fill="#406F97" transform="translate(103,348)"/>
<path d="M0 0 C4 1 4 1 7 3 C6.67 4.32 6.34 5.64 6 7 C4.02 4.69 2.04 2.38 0 0 Z " fill="#537B9E" transform="translate(173,314)"/>
<path d="M0 0 C0.99 0.66 1.98 1.32 3 2 C1.71349294 2.69710731 0.42059335 3.38242876 -0.875 4.0625 C-1.95394531 4.63677734 -1.95394531 4.63677734 -3.0546875 5.22265625 C-3.69664062 5.47917969 -4.33859375 5.73570312 -5 6 C-5.66 5.67 -6.32 5.34 -7 5 C-4.63707344 2.47411298 -3.33537489 1.11179163 0 0 Z " fill="#85AAD0" transform="translate(188,202)"/>
<path d="M0 0 C3.37503669 1.1858237 5.64722731 2.27573689 8 5 C7.01 5.495 7.01 5.495 6 6 C5.01 5.67 4.02 5.34 3 5 C3 4.34 3 3.68 3 3 C2.01 2.67 1.02 2.34 0 2 C0 1.34 0 0.68 0 0 Z " fill="#88AACF" transform="translate(288,23)"/>
<path d="M0 0 C3.37462715 0.54723683 5.08235 1.0549 8 3 C8 3.66 8 4.32 8 5 C4.62496331 3.8141763 2.35277269 2.72426311 0 0 Z " fill="#3A658E" transform="translate(120,470)"/>
<path d="M0 0 C4.455 0.99 4.455 0.99 9 2 C8.01 2.66 7.02 3.32 6 4 C2.8125 3.125 2.8125 3.125 0 2 C0 1.34 0 0.68 0 0 Z " fill="#5D82A3" transform="translate(185,413)"/>
<path d="M0 0 C3.73487777 0.4979837 5.81237635 0.87491756 9 3 C6.36 3 3.72 3 1 3 C0.67 2.01 0.34 1.02 0 0 Z " fill="#5881A6" transform="translate(176,410)"/>
<path d="M0 0 C-0.99 1.32 -1.98 2.64 -3 4 C-3.99 3.34 -4.98 2.68 -6 2 C-6 1.34 -6 0.68 -6 0 C-3.50907189 -1.24546405 -2.58919267 -0.7767578 0 0 Z " fill="#336793" transform="translate(329,393)"/>
<path d="M0 0 C2.875 0.25 2.875 0.25 6 1 C7.375 3.0625 7.375 3.0625 8 5 C4.62496331 3.8141763 2.35277269 2.72426311 0 0 Z " fill="#6A9ABC" transform="translate(313,310)"/>
<path d="M0 0 C0.33 0 0.66 0 1 0 C1.33 2.97 1.66 5.94 2 9 C1.01 9.33 0.02 9.66 -1 10 C-0.67 6.7 -0.34 3.4 0 0 Z " fill="#96B7D9" transform="translate(82,295)"/>
<path d="M0 0 C2.3125 0.8125 2.3125 0.8125 4 2 C0.17882889 3.97221735 -0.87286989 4.06506583 -5 3 C-2.75 1.375 -2.75 1.375 0 0 Z " fill="#3F7DAC" transform="translate(345,200)"/>
<path d="M0 0 C0 0.99 0 1.98 0 3 C-2.97 3 -5.94 3 -9 3 C-7.14340032 -0.71319936 -3.69365381 -0.09982848 0 0 Z " fill="#88AAD2" transform="translate(219,188)"/>
<path d="M0 0 C-1 3 -1 3 -3.4375 4.75 C-4.7059375 5.36875 -4.7059375 5.36875 -6 6 C-6.66 5.67 -7.32 5.34 -8 5 C-3.16129032 0 -3.16129032 0 0 0 Z " fill="#7D9EC9" transform="translate(161,36)"/>
<path d="M0 0 C0.66 0.99 1.32 1.98 2 3 C-1.3171411 4.4216319 -4.44219804 5.39009109 -8 6 C-5.38485683 3.87961365 -2.80362384 1.86908256 0 0 Z " fill="#84A5C9" transform="translate(169,30)"/>
<path d="M0 0 C1.32 0 2.64 0 4 0 C4 0.66 4 1.32 4 2 C5.32 2.33 6.64 2.66 8 3 C8 3.66 8 4.32 8 5 C4.62496331 3.8141763 2.35277269 2.72426311 0 0 Z " fill="#2E5D86" transform="translate(200,516)"/>
<path d="M0 0 C1.98 0 3.96 0 6 0 C4.71034824 1.37562854 3.37310707 2.70766393 2 4 C1.34 4 0.68 4 0 4 C0 2.68 0 1.36 0 0 Z " fill="#23608C" transform="translate(336,475)"/>
<path d="M0 0 C1.65 0 3.3 0 5 0 C4.6875 1.9375 4.6875 1.9375 4 4 C3.01 4.33 2.02 4.66 1 5 C1 4.34 1 3.68 1 3 C0.34 2.67 -0.32 2.34 -1 2 C-0.67 1.34 -0.34 0.68 0 0 Z " fill="#154E86" transform="translate(391,442)"/>
<path d="M0 0 C0.33 0.99 0.66 1.98 1 3 C-0.32 4.32 -1.64 5.64 -3 7 C-3.66 6.34 -4.32 5.68 -5 5 C-4.360625 4.731875 -3.72125 4.46375 -3.0625 4.1875 C-0.66868314 3.11332248 -0.66868314 3.11332248 0 0 Z " fill="#4F7C9F" transform="translate(343,377)"/>
</svg>
