<?xml version="1.0" encoding="UTF-8"?>
<svg version="1.1" xmlns="http://www.w3.org/2000/svg" width="225" height="225">
<path d="M0 0 C1.03124496 -0.00315216 2.06248993 -0.00630432 3.12498474 -0.009552 C4.80153893 -0.00651566 4.80153893 -0.00651566 6.51196289 -0.00341797 C7.65621231 -0.00437469 8.80046173 -0.00533142 9.97938538 -0.00631714 C12.40292414 -0.00699863 14.82646473 -0.0051465 17.25 -0.00097656 C20.96561783 0.0043672 24.6811145 -0.00092011 28.39672852 -0.00732422 C30.74764024 -0.00666334 33.09855189 -0.00538196 35.44946289 -0.00341797 C37.12298073 -0.00645432 37.12298073 -0.00645432 38.83030701 -0.009552 C40.38190269 -0.00482376 40.38190269 -0.00482376 41.96484375 0 C42.87592392 0.00079559 43.78700409 0.00159119 44.72569275 0.00241089 C47.04711914 0.12939453 47.04711914 0.12939453 50.04711914 1.12939453 C51.26426444 4.13567692 51.02895618 6.71107023 50.60961914 9.87939453 C50.5077832 10.67861328 50.40594727 11.47783203 50.30102539 12.30126953 C50.21723633 12.90455078 50.13344727 13.50783203 50.04711914 14.12939453 C51.43737305 14.11199219 51.43737305 14.11199219 52.85571289 14.09423828 C54.05325195 14.08521484 55.25079102 14.07619141 56.48461914 14.06689453 C57.67958008 14.05529297 58.87454102 14.04369141 60.10571289 14.03173828 C63.04711914 14.12939453 63.04711914 14.12939453 64.04711914 15.12939453 C65.17247982 25.1211532 65.20687174 35.20742076 65.17749023 45.25024414 C65.17201248 47.48541704 65.17753823 49.72039864 65.18383789 51.95556641 C65.1831789 53.38460331 65.18190148 54.81364009 65.17993164 56.24267578 C65.17880371 57.51925049 65.17767578 58.7958252 65.17651367 60.11108398 C65.04711914 63.12939453 65.04711914 63.12939453 64.04711914 65.12939453 C56.76290366 65.15252369 49.47869604 65.17031254 42.19445133 65.1812067 C38.81240101 65.18643428 35.43037574 65.19352964 32.04833984 65.20483398 C28.16382137 65.2177372 24.27931317 65.22262377 20.39477539 65.22705078 C19.17500504 65.23221207 17.95523468 65.23737335 16.69850159 65.24269104 C15.01687172 65.24280434 15.01687172 65.24280434 13.30126953 65.24291992 C12.30865616 65.24514053 11.31604279 65.24736115 10.29335022 65.24964905 C8.04711914 65.12939453 8.04711914 65.12939453 7.04711914 64.12939453 C6.97452968 61.943 6.96338131 59.75439064 6.98461914 57.56689453 C6.99364258 56.36935547 7.00266602 55.17181641 7.01196289 53.93798828 C7.02356445 53.01115234 7.03516602 52.08431641 7.04711914 51.12939453 C5.65686523 51.14679688 5.65686523 51.14679688 4.23852539 51.16455078 C3.04098633 51.17357422 1.84344727 51.18259766 0.60961914 51.19189453 C-0.5853418 51.20349609 -1.78030273 51.21509766 -3.01147461 51.22705078 C-5.95288086 51.12939453 -5.95288086 51.12939453 -6.95288086 50.12939453 C-7.04607535 48.59456483 -7.07033886 47.05547371 -7.06640625 45.51782227 C-7.06633072 44.53688095 -7.06625519 43.55593964 -7.06617737 42.54527283 C-7.06101608 41.47861893 -7.0558548 40.41196503 -7.05053711 39.31298828 C-7.04912216 38.22679703 -7.04770721 37.14060577 -7.04624939 36.02149963 C-7.04063134 32.53660378 -7.02807578 29.05177111 -7.01538086 25.56689453 C-7.01036818 23.21077566 -7.00580488 20.8546558 -7.00170898 18.49853516 C-6.99065605 12.70879989 -6.97390037 6.91910172 -6.95288086 1.12939453 C-4.4619102 -0.1160908 -2.78660078 0.0024355 0 0 Z " fill="#EDEDED" transform="translate(146.952880859375,12.87060546875)"/>
<path d="M0 0 C9.56110846 5.54797752 15.71190738 13.85503352 18.65234375 24.5390625 C19.97287232 36.79912779 17.82730547 46.72204364 10.08984375 56.4140625 C3.16340491 63.68417961 -6.36778076 67.64796161 -16.28515625 67.9140625 C-26.92990473 67.95523146 -35.62061977 64.31377544 -43.37109375 56.9296875 C-50.83909154 47.89724748 -53.22740353 37.93946995 -52.56542969 26.49169922 C-51.55766628 17.45572196 -46.24804357 9.24428469 -39.34765625 3.5390625 C-26.68365184 -4.07862543 -13.64626078 -6.55753202 0 0 Z M-19.34765625 8.5390625 C-19.67765625 11.1790625 -20.00765625 13.8190625 -20.34765625 16.5390625 C-27.73227163 17.89290865 -27.73227163 17.89290865 -30.84765625 16.1015625 C-31.34265625 15.5859375 -31.83765625 15.0703125 -32.34765625 14.5390625 C-33.33765625 16.0240625 -33.33765625 16.0240625 -34.34765625 17.5390625 C-33.84621094 17.93738281 -33.34476563 18.33570313 -32.828125 18.74609375 C-31.34765625 20.5390625 -31.34765625 20.5390625 -31.2734375 22.80078125 C-31.46486328 24.00154297 -31.46486328 24.00154297 -31.66015625 25.2265625 C-31.83998047 26.43892578 -31.83998047 26.43892578 -32.0234375 27.67578125 C-32.13042969 28.29066406 -32.23742187 28.90554687 -32.34765625 29.5390625 C-34.98765625 29.5390625 -37.62765625 29.5390625 -40.34765625 29.5390625 C-40.34765625 31.1890625 -40.34765625 32.8390625 -40.34765625 34.5390625 C-37.70765625 34.5390625 -35.06765625 34.5390625 -32.34765625 34.5390625 C-32.34765625 36.1890625 -32.34765625 37.8390625 -32.34765625 39.5390625 C-31.68765625 39.5390625 -31.02765625 39.5390625 -30.34765625 39.5390625 C-31.47217352 42.511001 -32.57059416 44.87346937 -34.34765625 47.5390625 C-33.02765625 48.1990625 -31.70765625 48.8590625 -30.34765625 49.5390625 C-29.68765625 48.5490625 -29.02765625 47.5590625 -28.34765625 46.5390625 C-26.22265625 45.8515625 -26.22265625 45.8515625 -24.34765625 45.5390625 C-24.01765625 46.1990625 -23.68765625 46.8590625 -23.34765625 47.5390625 C-21.86265625 48.0340625 -21.86265625 48.0340625 -20.34765625 48.5390625 C-20.34765625 50.8490625 -20.34765625 53.1590625 -20.34765625 55.5390625 C-18.36765625 55.5390625 -16.38765625 55.5390625 -14.34765625 55.5390625 C-14.26515625 54.4253125 -14.18265625 53.3115625 -14.09765625 52.1640625 C-13.34765625 48.5390625 -13.34765625 48.5390625 -11.59765625 47.0390625 C-8.83042572 46.42412238 -7.03504795 46.667476 -4.34765625 47.5390625 C-4.01765625 48.1990625 -3.68765625 48.8590625 -3.34765625 49.5390625 C-2.35765625 49.5390625 -1.36765625 49.5390625 -0.34765625 49.5390625 C-0.01765625 48.5490625 0.31234375 47.5590625 0.65234375 46.5390625 C0.13671875 45.9821875 -0.37890625 45.4253125 -0.91015625 44.8515625 C-2.34765625 42.5390625 -2.34765625 42.5390625 -2.10546875 40.50390625 C-1.58858725 38.49656507 -0.97342358 36.51516987 -0.34765625 34.5390625 C1.63234375 34.5390625 3.61234375 34.5390625 5.65234375 34.5390625 C5.98234375 32.8890625 6.31234375 31.2390625 6.65234375 29.5390625 C5.51796875 29.2709375 4.38359375 29.0028125 3.21484375 28.7265625 C2.03921875 28.3346875 0.86359375 27.9428125 -0.34765625 27.5390625 C-1.23896038 24.8651501 -1.82497159 22.30182427 -2.34765625 19.5390625 C-1.35765625 19.2090625 -0.36765625 18.8790625 0.65234375 18.5390625 C-0.00765625 17.2190625 -0.66765625 15.8990625 -1.34765625 14.5390625 C-2.33765625 14.8690625 -3.32765625 15.1990625 -4.34765625 15.5390625 C-4.34765625 16.1990625 -4.34765625 16.8590625 -4.34765625 17.5390625 C-7.64765625 17.2090625 -10.94765625 16.8790625 -14.34765625 16.5390625 C-14.34765625 13.8990625 -14.34765625 11.2590625 -14.34765625 8.5390625 C-15.99765625 8.5390625 -17.64765625 8.5390625 -19.34765625 8.5390625 Z " fill="#F6B108" transform="translate(129.34765625,80.4609375)"/>
<path d="M0 0 C0.96357422 -0.00773437 1.92714844 -0.01546875 2.91992188 -0.0234375 C9.34930465 -0.00609594 15.17076173 0.81042111 21.4375 2.25 C21.4375 7.53 21.4375 12.81 21.4375 18.25 C20.01953125 17.92773438 18.6015625 17.60546875 17.140625 17.2734375 C-2.08956453 13.45040545 -20.69919565 16.24715802 -37.5625 26.25 C-40.74943224 28.39650745 -43.67637056 30.71583757 -46.5625 33.25 C-47.57763672 34.12398437 -47.57763672 34.12398437 -48.61328125 35.015625 C-62.77797113 48.10764904 -67.94591906 65.67138319 -69.5625 84.25 C-65.2725 84.25 -60.9825 84.25 -56.5625 84.25 C-58.22821907 88.41429768 -59.52432104 90.79214919 -62.1875 94.2265625 C-63.24710938 95.60328125 -63.24710938 95.60328125 -64.328125 97.0078125 C-65.06546875 97.95398438 -65.8028125 98.90015625 -66.5625 99.875 C-68.0214943 101.76251011 -69.47985613 103.65050931 -70.9375 105.5390625 C-71.58460937 106.37131348 -72.23171875 107.20356445 -72.8984375 108.06103516 C-74.17986428 109.74666787 -75.38797394 111.48821091 -76.5625 113.25 C-77.2225 113.25 -77.8825 113.25 -78.5625 113.25 C-79.97949219 111.6328125 -79.97949219 111.6328125 -81.609375 109.375 C-82.2075 108.55386719 -82.805625 107.73273438 -83.421875 106.88671875 C-84.04578125 106.01660156 -84.6696875 105.14648438 -85.3125 104.25 C-86.53615945 102.56228326 -87.76011512 100.87478124 -88.984375 99.1875 C-89.57927734 98.36121094 -90.17417969 97.53492187 -90.78710938 96.68359375 C-92.96935833 93.69230421 -95.2254195 90.76146304 -97.50488281 87.84375 C-98.5625 86.25 -98.5625 86.25 -98.5625 84.25 C-93.9425 84.25 -89.3225 84.25 -84.5625 84.25 C-84.624375 82.72375 -84.68625 81.1975 -84.75 79.625 C-84.69679856 58.90304053 -74.52402738 39.13034379 -60.5625 24.25 C-43.89515889 8.38124865 -22.94283989 -0.18489864 0 0 Z " fill="#3FC4B2" transform="translate(112.5625,27.75)"/>
<path d="M0 0 C0.66 0 1.32 0 2 0 C3.58317113 2.03072143 5.05070049 4.06378497 6.5 6.1875 C10.4774288 11.90827755 14.60342069 17.46579454 18.95117188 22.91088867 C22 26.78758901 22 26.78758901 22 29 C17.38 29 12.76 29 8 29 C8.061875 30.52625 8.12375 32.0525 8.1875 33.625 C8.13081605 55.70339694 -2.81471906 74.79311837 -18 90 C-18.73089844 90.7425 -19.46179688 91.485 -20.21484375 92.25 C-35.57447819 106.89456766 -56.11965294 113.44544967 -77 113.1875 C-78.02222656 113.18685547 -79.04445313 113.18621094 -80.09765625 113.18554688 C-87.57638016 113.14120661 -87.57638016 113.14120661 -91 112 C-91 107.05 -91 102.1 -91 97 C-89.30875 97.05800781 -87.6175 97.11601562 -85.875 97.17578125 C-72.58758246 97.49443611 -61.30390107 97.32338032 -49 92 C-48.05253906 91.60425781 -47.10507813 91.20851563 -46.12890625 90.80078125 C-40.09817066 88.0378415 -35.0012823 84.32960373 -30 80 C-29.32066406 79.41605469 -28.64132813 78.83210938 -27.94140625 78.23046875 C-13.77337269 65.11191915 -8.94237591 47.54086096 -7 29 C-11.62 29 -16.24 29 -21 29 C-16.62091067 22.31576892 -12.03139966 15.83931507 -7.25 9.4375 C-6.57839844 8.52419922 -5.90679687 7.61089844 -5.21484375 6.66992188 C-4.57160156 5.80818359 -3.92835938 4.94644531 -3.265625 4.05859375 C-2.68586914 3.27798584 -2.10611328 2.49737793 -1.50878906 1.69311523 C-1.01088867 1.13438721 -0.51298828 0.57565918 0 0 Z " fill="#F66451" transform="translate(189,84)"/>
<path d="M0 0 C25.74 0 51.48 0 78 0 C78 9.57 78 19.14 78 29 C75.03385145 30.48307427 72.04323772 30.08148095 68.79638672 30.02172852 C68.0548233 30.01212097 67.31325989 30.00251343 66.54922485 29.99261475 C64.09261732 29.95957468 61.63618487 29.91926154 59.1796875 29.87890625 C57.4786135 29.85461002 55.77753298 29.83076621 54.07644653 29.80735779 C49.59487495 29.74446737 45.11341847 29.6754148 40.63195801 29.60510254 C36.06068167 29.53446382 31.48932359 29.46962017 26.91796875 29.40429688 C17.94522268 29.27522065 8.97258748 29.139638 0 29 C-0.19616609 24.5420032 -0.38047068 20.08359465 -0.5625 15.625 C-0.61857422 14.35398438 -0.67464844 13.08296875 -0.73242188 11.7734375 C-0.80493164 9.95585937 -0.80493164 9.95585937 -0.87890625 8.1015625 C-0.9260376 6.98088379 -0.97316895 5.86020508 -1.02172852 4.70556641 C-1 2 -1 2 0 0 Z " fill="#62C8F0" transform="translate(14,147)"/>
<path d="M0 0 C10.02227763 -0.0231241 20.04454897 -0.04091543 30.0668478 -0.05181217 C34.72011186 -0.05704085 39.37335774 -0.06413823 44.02661133 -0.07543945 C48.51344546 -0.08626886 53.00026204 -0.09227695 57.48710823 -0.09487724 C59.20280293 -0.0967314 60.91849662 -0.10035182 62.63418388 -0.10573006 C65.02884913 -0.11294121 67.42344096 -0.11399091 69.81811523 -0.11352539 C70.53452682 -0.11712067 71.25093842 -0.12071594 71.98905945 -0.12442017 C76.88594784 -0.11405216 76.88594784 -0.11405216 78 1 C78 10.24 78 19.48 78 29 C52.26 29 26.52 29 0 29 C-1 2 -1 2 0 0 Z " fill="#64C7EF" transform="translate(14,182)"/>
<path d="M0 0 C1.03124496 -0.00315216 2.06248993 -0.00630432 3.12498474 -0.009552 C4.80153893 -0.00651566 4.80153893 -0.00651566 6.51196289 -0.00341797 C7.65621231 -0.00437469 8.80046173 -0.00533142 9.97938538 -0.00631714 C12.40292414 -0.00699863 14.82646473 -0.0051465 17.25 -0.00097656 C20.96561783 0.0043672 24.6811145 -0.00092011 28.39672852 -0.00732422 C30.74764024 -0.00666334 33.09855189 -0.00538196 35.44946289 -0.00341797 C37.12298073 -0.00645432 37.12298073 -0.00645432 38.83030701 -0.009552 C40.38190269 -0.00482376 40.38190269 -0.00482376 41.96484375 0 C42.87592392 0.00079559 43.78700409 0.00159119 44.72569275 0.00241089 C47.04711914 0.12939453 47.04711914 0.12939453 50.04711914 1.12939453 C51.04711914 5.12939453 51.04711914 5.12939453 50.04711914 15.12939453 C36.18711914 15.12939453 22.32711914 15.12939453 8.04711914 15.12939453 C8.04711914 27.00939453 8.04711914 38.88939453 8.04711914 51.12939453 C3.42711914 51.12939453 -1.19288086 51.12939453 -5.95288086 51.12939453 C-6.95288086 50.12939453 -6.95288086 50.12939453 -7.07313538 48.14891052 C-7.07091476 47.2806514 -7.06869415 46.41239227 -7.06640625 45.51782227 C-7.06633072 44.53688095 -7.06625519 43.55593964 -7.06617737 42.54527283 C-7.06101608 41.47861893 -7.0558548 40.41196503 -7.05053711 39.31298828 C-7.04912216 38.22679703 -7.04770721 37.14060577 -7.04624939 36.02149963 C-7.04063134 32.53660378 -7.02807578 29.05177111 -7.01538086 25.56689453 C-7.01036818 23.21077566 -7.00580488 20.8546558 -7.00170898 18.49853516 C-6.99065605 12.70879989 -6.97390037 6.91910172 -6.95288086 1.12939453 C-4.4619102 -0.1160908 -2.78660078 0.0024355 0 0 Z " fill="#D2D2D2" transform="translate(146.952880859375,12.87060546875)"/>
<path d="M0 0 C9.34395869 -0.51569811 16.41705813 2.23290973 23.578125 8.25390625 C30.86542702 15.75996406 34.4426098 24.3488209 34.84765625 34.7734375 C34.52130431 44.12246074 31.58666969 52.32522752 25.22265625 59.2734375 C22.47265625 59.5859375 22.47265625 59.5859375 20.22265625 59.2734375 C20.22265625 57.2934375 20.22265625 55.3134375 20.22265625 53.2734375 C18.24265625 53.7684375 18.24265625 53.7684375 16.22265625 54.2734375 C16.55265625 52.6234375 16.88265625 50.9734375 17.22265625 49.2734375 C16.58328125 49.0465625 15.94390625 48.8196875 15.28515625 48.5859375 C13.22265625 47.2734375 13.22265625 47.2734375 12.28515625 44.9609375 C12.20271654 41.41602998 12.91447014 39.9539117 15.22265625 37.2734375 C18.41015625 36.4609375 18.41015625 36.4609375 21.22265625 36.2734375 C21.55265625 34.9534375 21.88265625 33.6334375 22.22265625 32.2734375 C21.29453125 32.3559375 20.36640625 32.4384375 19.41015625 32.5234375 C16.22265625 32.2734375 16.22265625 32.2734375 14.34765625 30.6484375 C12.95437242 27.70706053 13.00333804 25.49010454 13.22265625 22.2734375 C13.88265625 21.9434375 14.54265625 21.6134375 15.22265625 21.2734375 C14.72765625 19.7884375 14.72765625 19.7884375 14.22265625 18.2734375 C13.56265625 18.2734375 12.90265625 18.2734375 12.22265625 18.2734375 C11.89265625 18.9334375 11.56265625 19.5934375 11.22265625 20.2734375 C7.23085882 21.60403664 4.95947734 21.08846489 1.22265625 19.2734375 C1.22265625 16.3034375 1.22265625 13.3334375 1.22265625 10.2734375 C-1.15109236 9.93918015 -1.15109236 9.93918015 -3.77734375 10.2734375 C-5.69889068 11.94660062 -5.69889068 11.94660062 -6.77734375 14.2734375 C-6.77734375 15.5934375 -6.77734375 16.9134375 -6.77734375 18.2734375 C-8.42734375 18.6034375 -10.07734375 18.9334375 -11.77734375 19.2734375 C-11.77734375 17.2934375 -11.77734375 15.3134375 -11.77734375 13.2734375 C-13.75734375 14.2634375 -13.75734375 14.2634375 -15.77734375 15.2734375 C-17.90234375 10.6484375 -17.90234375 10.6484375 -16.77734375 7.2734375 C-15.15181092 5.56662803 -13.4861838 3.89683555 -11.77734375 2.2734375 C-11.44734375 1.9434375 -11.11734375 1.6134375 -10.77734375 1.2734375 C-7.18697848 0.66375283 -3.62158479 0.35655546 0 0 Z " fill="#F8B205" transform="translate(113.77734375,77.7265625)"/>
<path d="M0 0 C0 5.28 0 10.56 0 16 C-1.41796875 15.67773438 -2.8359375 15.35546875 -4.296875 15.0234375 C-23.52706453 11.20040545 -42.13669565 13.99715802 -59 24 C-65.88015125 28.63401629 -72.72380941 34.36843107 -77.5390625 41.17578125 C-79 43 -79 43 -82 44 C-82.96552958 45.80232188 -83.93073493 47.60482455 -84.890625 49.41015625 C-86 51 -86 51 -88.625 51.9375 C-90.08297738 51.97586783 -91.54151786 52 -93 52 C-91.71080917 46.62379996 -89.81457632 42.57939798 -86.75 38 C-86.15046509 37.08806885 -86.15046509 37.08806885 -85.53881836 36.15771484 C-82.64313476 31.81448047 -79.65513513 27.74428477 -76 24 C-75.34 24 -74.68 24 -74 24 C-74 23.34 -74 22.68 -74 22 C-73.34 22 -72.68 22 -72 22 C-71.79375 21.43152344 -71.5875 20.86304687 -71.375 20.27734375 C-69.51265438 17.19283382 -66.9402329 15.52181544 -64 13.5625 C-63.41911621 13.16853027 -62.83823242 12.77456055 -62.23974609 12.36865234 C-57.36921016 9.12385665 -52.35288703 6.37328648 -47 4 C-45.92878906 3.49597656 -44.85757813 2.99195313 -43.75390625 2.47265625 C-39.70721499 0.75264938 -35.64103883 -0.01162905 -31.3125 -0.6875 C-30.52230469 -0.81342529 -29.73210937 -0.93935059 -28.91796875 -1.0690918 C-18.85880949 -2.58144707 -9.91298699 -2.33246753 0 0 Z " fill="#3EC5B3" transform="translate(134,30)"/>
<path d="M0 0 C8.1969097 -0.02255425 16.39379545 -0.04091696 24.59072781 -0.05181217 C28.39651577 -0.0570402 32.20228148 -0.06413638 36.00805664 -0.07543945 C39.67792544 -0.0862712 43.34777278 -0.09227744 47.01765633 -0.09487724 C48.42074992 -0.09673097 49.82384229 -0.1003506 51.2269268 -0.10573006 C53.1856968 -0.11294419 55.1444882 -0.11340809 57.10327148 -0.11352539 C58.22023911 -0.115746 59.33720673 -0.11796661 60.48802185 -0.12025452 C63 0 63 0 64 1 C64.08767112 3.07262076 64.10695873 5.14820294 64.09765625 7.22265625 C64.09282227 9.11274414 64.09282227 9.11274414 64.08789062 11.04101562 C64.07953403 12.38151109 64.07106907 13.72200588 64.0625 15.0625 C64.0574866 16.40689942 64.05292342 17.7513006 64.04882812 19.09570312 C64.03699488 22.39717941 64.02050971 25.69856803 64 29 C62.68 28.67 61.36 28.34 60 28 C60.66 28 61.32 28 62 28 C62 19.42 62 10.84 62 2 C50.12 2 38.24 2 26 2 C26.33 2.99 26.66 3.98 27 5 C26.67 5.33 26.34 5.66 26 6 C26.69150146 6.02505615 27.38300293 6.0501123 28.09545898 6.07592773 C31.20967866 6.19152161 34.32356789 6.31441242 37.4375 6.4375 C38.52611328 6.47681641 39.61472656 6.51613281 40.73632812 6.55664062 C42.28803711 6.61948242 42.28803711 6.61948242 43.87109375 6.68359375 C44.82943115 6.72025146 45.78776855 6.75690918 46.77514648 6.79467773 C49 7 49 7 50 8 C50.09909302 10.33160055 50.12970504 12.66629942 50.125 15 C50.12886719 16.918125 50.12886719 16.918125 50.1328125 18.875 C50 22 50 22 49 23 C47.03589389 23.09988258 45.06820566 23.13080835 43.1015625 23.1328125 C41.90015625 23.13410156 40.69875 23.13539063 39.4609375 23.13671875 C38.19507813 23.13285156 36.92921875 23.12898438 35.625 23.125 C34.366875 23.12886719 33.10875 23.13273437 31.8125 23.13671875 C30.60851562 23.13542969 29.40453125 23.13414062 28.1640625 23.1328125 C26.50044678 23.13112061 26.50044678 23.13112061 24.80322266 23.12939453 C22 23 22 23 19 22 C18.67 18.04 18.34 14.08 18 10 C17.34 10 16.68 10 16 10 C15.67 13.96 15.34 17.92 15 22 C10.05 22 5.1 22 0 22 C0 14.74 0 7.48 0 0 Z " fill="#77C4D3" transform="translate(28,182)"/>
<path d="M0 0 C4.62 0 9.24 0 14 0 C14 2.31 14 4.62 14 7 C18.95 7 23.9 7 29 7 C29.125 20.75 29.125 20.75 28 23 C23.38 23 18.76 23 14 23 C14 24.98 14 26.96 14 29 C9.38 29 4.76 29 0 29 C-0.1939619 24.54186025 -0.38046929 20.08362883 -0.5625 15.625 C-0.61857422 14.35398438 -0.67464844 13.08296875 -0.73242188 11.7734375 C-0.80493164 9.95585937 -0.80493164 9.95585937 -0.87890625 8.1015625 C-0.9260376 6.98088379 -0.97316895 5.86020508 -1.02172852 4.70556641 C-1 2 -1 2 0 0 Z " fill="#4EA9CE" transform="translate(14,147)"/>
<path d="M0 0 C0 0.33 0 0.66 0 1 C-1.19496094 1.17015625 -2.38992187 1.3403125 -3.62109375 1.515625 C-15.75689171 3.30435353 -15.75689171 3.30435353 -27 8 C-27.85464844 8.43183594 -28.70929688 8.86367188 -29.58984375 9.30859375 C-41.35326054 14.96427146 -41.35326054 14.96427146 -50 24 C-50.66 24 -51.32 24 -52 24 C-52 24.66 -52 25.32 -52 26 C-52.73089844 26.56203125 -53.46179688 27.1240625 -54.21484375 27.703125 C-57.40711706 30.3357431 -59.41970568 33.27004999 -61.5625 36.75 C-61.95598633 37.3805127 -62.34947266 38.01102539 -62.75488281 38.66064453 C-63.85027862 40.4325546 -64.92879067 42.21339319 -66 44 C-66.42667969 44.70382813 -66.85335937 45.40765625 -67.29296875 46.1328125 C-73.66047347 57.72427008 -75.84284294 71.01220736 -77 84 C-79.31 84 -81.62 84 -84 84 C-85.18123488 62.56277441 -76.15709572 42.70092938 -62.43359375 26.59375 C-46.2655957 9.3617264 -23.62007761 -0.82236247 0 0 Z " fill="#21A794" transform="translate(112,28)"/>
<path d="M0 0 C0.70189453 0.00451172 1.40378906 0.00902344 2.12695312 0.01367188 C3.85550538 0.02543073 5.58401365 0.04336546 7.3125 0.0625 C7.3125 0.3925 7.3125 0.7225 7.3125 1.0625 C6.13171875 1.14886719 4.9509375 1.23523438 3.734375 1.32421875 C2.1769746 1.4649477 0.61968812 1.60694125 -0.9375 1.75 C-1.71480469 1.80349609 -2.49210937 1.85699219 -3.29296875 1.91210938 C-8.22725942 2.39210476 -8.22725942 2.39210476 -12.03515625 5.4765625 C-12.58042969 6.32992187 -13.12570313 7.18328125 -13.6875 8.0625 C-15.35546875 9.57421875 -15.35546875 9.57421875 -16.875 10.75 C-19.70397233 12.75640251 -19.70397233 12.75640251 -20.6875 15.0625 C-21.3475 15.0625 -22.0075 15.0625 -22.6875 15.0625 C-22.80996094 15.60519531 -22.93242188 16.14789063 -23.05859375 16.70703125 C-23.79303615 19.45776892 -24.7745434 22.07536095 -25.75 24.75 C-29.07717982 34.82903925 -27.98175419 42.33415873 -23.6875 52.0625 C-19.7851497 58.70526483 -14.64908002 63.71062814 -7.6875 67.0625 C-7.1925 68.0525 -7.1925 68.0525 -6.6875 69.0625 C-3.41194392 69.53251033 -3.41194392 69.53251033 0.375 69.6875 C1.66535156 69.76226562 2.95570312 69.83703125 4.28515625 69.9140625 C5.78369141 69.98753906 5.78369141 69.98753906 7.3125 70.0625 C7.3125 70.3925 7.3125 70.7225 7.3125 71.0625 C-5.08028007 71.82435123 -14.52239678 70.51534907 -24.5625 62.5 C-31.83261711 55.57356116 -35.79639911 46.04237549 -36.0625 36.125 C-36.10366896 25.48025152 -32.46221294 16.78953648 -25.078125 9.0390625 C-17.68694334 2.92805283 -9.46244721 -0.11485697 0 0 Z " fill="#D89609" transform="translate(112.6875,76.9375)"/>
<path d="M0 0 C4.62 0 9.24 0 14 0 C14 2.31 14 4.62 14 7 C18.62 7 23.24 7 28 7 C28 7.33 28 7.66 28 8 C23.38 8 18.76 8 14 8 C14 12.62 14 17.24 14 22 C18.62 22 23.24 22 28 22 C28 22.33 28 22.66 28 23 C23.38 23 18.76 23 14 23 C14 24.98 14 26.96 14 29 C9.38 29 4.76 29 0 29 C-0.1939619 24.54186025 -0.38046929 20.08362883 -0.5625 15.625 C-0.61857422 14.35398438 -0.67464844 13.08296875 -0.73242188 11.7734375 C-0.80493164 9.95585937 -0.80493164 9.95585937 -0.87890625 8.1015625 C-0.9260376 6.98088379 -0.97316895 5.86020508 -1.02172852 4.70556641 C-1 2 -1 2 0 0 Z " fill="#4CAAD0" transform="translate(14,182)"/>
<path d="M0 0 C1.19109375 -0.00386719 1.19109375 -0.00386719 2.40625 -0.0078125 C4.5 0.125 4.5 0.125 6.5 1.125 C6.5 1.785 6.5 2.445 6.5 3.125 C7.16 3.125 7.82 3.125 8.5 3.125 C8.5 3.785 8.5 4.445 8.5 5.125 C9.16 5.125 9.82 5.125 10.5 5.125 C11.94203141 14.07254427 11.94203141 14.07254427 10.1875 18.25 C9.630625 18.86875 9.07375 19.4875 8.5 20.125 C7.84 20.125 7.18 20.125 6.5 20.125 C6.5 20.785 6.5 21.445 6.5 22.125 C3.01556578 23.86721711 -0.69887045 23.71175154 -4.5 23.125 C-7.57469523 21.42248281 -9.90613254 19.31273492 -11.5 16.125 C-11.59499503 14.62743129 -11.62987198 13.12557068 -11.625 11.625 C-11.62757812 10.8309375 -11.63015625 10.036875 -11.6328125 9.21875 C-11.5 7.125 -11.5 7.125 -10.5 5.125 C-9.84 5.125 -9.18 5.125 -8.5 5.125 C-8.5 4.465 -8.5 3.805 -8.5 3.125 C-7.84 3.125 -7.18 3.125 -6.5 3.125 C-6.5 2.465 -6.5 1.805 -6.5 1.125 C-4.13386544 -0.05806728 -2.63219264 -0.00854608 0 0 Z " fill="#F5B20B" transform="translate(112.5,100.875)"/>
<path d="M0 0 C8.91 0 17.82 0 27 0 C27 4.29 27 8.58 27 13 C25.25454395 14.74545605 22.83875783 14.1302316 20.46875 14.1328125 C19.34855469 14.13410156 18.22835937 14.13539063 17.07421875 14.13671875 C15.89472656 14.13285156 14.71523437 14.12898437 13.5 14.125 C11.73076172 14.13080078 11.73076172 14.13080078 9.92578125 14.13671875 C8.24548828 14.13478516 8.24548828 14.13478516 6.53125 14.1328125 C5.49548828 14.13168457 4.45972656 14.13055664 3.39257812 14.12939453 C1 14 1 14 0 13 C0 8.71 0 4.42 0 0 Z " fill="#F2B40F" transform="translate(50,190)"/>
<path d="M0 0 C4.31254083 -0.02682299 8.62491707 -0.04675244 12.9375 -0.0625 C14.16919922 -0.07087891 15.40089844 -0.07925781 16.66992188 -0.08789062 C17.83974609 -0.09111328 19.00957031 -0.09433594 20.21484375 -0.09765625 C21.84087524 -0.10551147 21.84087524 -0.10551147 23.49975586 -0.11352539 C26 0 26 0 27 1 C27 4.96 27 8.92 27 13 C18.09 13 9.18 13 0 13 C0 8.71 0 4.42 0 0 Z " fill="#F2B410" transform="translate(50,155)"/>
<path d="M0 0 C21.12 0 42.24 0 64 0 C64 9.57 64 19.14 64 29 C62.68 28.67 61.36 28.34 60 28 C60.99 28 61.98 28 63 28 C62.505 15.625 62.505 15.625 62 3 C42.2 2.505 42.2 2.505 22 2 C22 2.99 22 3.98 22 5 C35.86 5.495 35.86 5.495 50 6 C50 11.28 50 16.56 50 22 C41.09 22 32.18 22 23 22 C23 21.67 23 21.34 23 21 C31.58 21 40.16 21 49 21 C48.505 15.06 48.505 15.06 48 9 C35.13 8.505 35.13 8.505 22 8 C22 12.29 22 16.58 22 21 C21.01 21 20.02 21 19 21 C19 17.04 19 13.08 19 9 C18.01 9.33 17.02 9.66 16 10 C16 7.36 16 4.72 16 2 C10.72 2 5.44 2 0 2 C0 1.34 0 0.68 0 0 Z " fill="#82C1C5" transform="translate(28,147)"/>
<path d="M0 0 C5.28 0 10.56 0 16 0 C16.33 2.31 16.66 4.62 17 7 C17.66 7 18.32 7 19 7 C19 10.96 19 14.92 19 19 C29.23 19.33 39.46 19.66 50 20 C50 15.05 50 10.1 50 5 C50.33 5 50.66 5 51 5 C51 10.28 51 15.56 51 21 C48.11734851 21.96088383 46.32337729 22.11670941 43.33203125 22.09765625 C42.43935547 22.09443359 41.54667969 22.09121094 40.62695312 22.08789062 C39.69818359 22.07951172 38.76941406 22.07113281 37.8125 22.0625 C36.87212891 22.05798828 35.93175781 22.05347656 34.96289062 22.04882812 C32.64186288 22.03704626 30.32096356 22.02059558 28 22 C28 23.32 28 24.64 28 26 C22.72 26 17.44 26 12 26 C12 25.01 12 24.02 12 23 C8.04 22.67 4.08 22.34 0 22 C0 21.67 0 21.34 0 21 C4.62 21 9.24 21 14 21 C14.33 15.72 14.66 10.44 15 5 C10.05 5 5.1 5 0 5 C0 3.35 0 1.7 0 0 Z " fill="#70C4DD" transform="translate(28,149)"/>
<path d="M0 0 C3.078125 -0.515625 3.078125 -0.515625 7 0 C9.73660437 2.39414661 11.69065921 5.27001273 13.75 8.25 C14.31332031 9.02730469 14.87664063 9.80460937 15.45703125 10.60546875 C16.50735695 12.05804684 17.54851057 13.51733544 18.57714844 14.98535156 C19.57310227 16.39554562 20.61181618 17.77605737 21.68066406 19.13183594 C23 21 23 21 23 23 C23.99 23.33 24.98 23.66 26 24 C24.71937515 25.7074998 23.38232443 27.37373596 22 29 C21.34 29 20.68 29 20 29 C18.58300781 27.3828125 18.58300781 27.3828125 16.953125 25.125 C16.355 24.30386719 15.756875 23.48273438 15.140625 22.63671875 C14.51671875 21.76660156 13.8928125 20.89648438 13.25 20 C12.02634055 18.31228326 10.80238488 16.62478124 9.578125 14.9375 C8.68577148 13.69806641 8.68577148 13.69806641 7.77539062 12.43359375 C5.59314167 9.44230421 3.3370805 6.51146304 1.05761719 3.59375 C0 2 0 2 0 0 Z " fill="#22A794" transform="translate(14,112)"/>
<path d="M0 0 C4.62 0 9.24 0 14 0 C14 4.62 14 9.24 14 14 C9.38 14 4.76 14 0 14 C0 9.38 0 4.76 0 0 Z " fill="#EE6858" transform="translate(28,190)"/>
<path d="M0 0 C4.62 0 9.24 0 14 0 C14 4.29 14 8.58 14 13 C9.38 13 4.76 13 0 13 C0 8.71 0 4.42 0 0 Z " fill="#EC6858" transform="translate(28,155)"/>
<path d="M0 0 C0 0.33 0 0.66 0 1 C-1.18078125 1.08636719 -2.3615625 1.17273438 -3.578125 1.26171875 C-5.1355254 1.4024477 -6.69281188 1.54444125 -8.25 1.6875 C-9.02730469 1.74099609 -9.80460937 1.79449219 -10.60546875 1.84960938 C-15.53975942 2.32960476 -15.53975942 2.32960476 -19.34765625 5.4140625 C-19.89292969 6.26742187 -20.43820313 7.12078125 -21 8 C-22.66796875 9.51171875 -22.66796875 9.51171875 -24.1875 10.6875 C-27.01647233 12.69390251 -27.01647233 12.69390251 -28 15 C-29.98 15 -31.96 15 -34 15 C-34.99 16.98 -35.98 18.96 -37 21 C-37.66 21 -38.32 21 -39 21 C-39 21.99 -39 22.98 -39 24 C-39.66 24 -40.32 24 -41 24 C-38.76148912 15.04595648 -32.7362709 8.69454141 -25 4 C-16.90344222 -0.61432143 -9.07070569 -0.43539387 0 0 Z " fill="#D89813" transform="translate(120,77)"/>
<path d="M0 0 C5.28 0 10.56 0 16 0 C16.33 2.31 16.66 4.62 17 7 C17.66 7 18.32 7 19 7 C19.05389087 8.95803507 19.09274217 10.91648909 19.125 12.875 C19.14820312 13.96554688 19.17140625 15.05609375 19.1953125 16.1796875 C19 19 19 19 17 21 C16.01 21 15.02 21 14 21 C14.33 15.72 14.66 10.44 15 5 C10.05 5 5.1 5 0 5 C0 3.35 0 1.7 0 0 Z " fill="#67C6F1" transform="translate(28,149)"/>
<path d="M0 0 C8.19690561 -0.0231271 16.39379768 -0.04091696 24.59072781 -0.05181217 C28.39651577 -0.0570402 32.20228148 -0.06413638 36.00805664 -0.07543945 C39.67792544 -0.0862712 43.34777278 -0.09227744 47.01765633 -0.09487724 C48.42074992 -0.09673097 49.82384229 -0.1003506 51.2269268 -0.10573006 C53.1856968 -0.11294419 55.1444882 -0.11340809 57.10327148 -0.11352539 C58.22023911 -0.115746 59.33720673 -0.11796661 60.48802185 -0.12025452 C63 0 63 0 64 1 C64.08767112 3.07262076 64.10695873 5.14820294 64.09765625 7.22265625 C64.09282227 9.11274414 64.09282227 9.11274414 64.08789062 11.04101562 C64.07953403 12.38151109 64.07106907 13.72200588 64.0625 15.0625 C64.0574866 16.40689942 64.05292342 17.7513006 64.04882812 19.09570312 C64.03699488 22.39717941 64.02050971 25.69856803 64 29 C62.68 28.67 61.36 28.34 60 28 C60.66 28 61.32 28 62 28 C62 19.42 62 10.84 62 2 C41.54 1.67 21.08 1.34 0 1 C0 0.67 0 0.34 0 0 Z " fill="#6FC0DE" transform="translate(28,182)"/>
<path d="M0 0 C0.96679688 0.00902344 1.93359375 0.01804687 2.9296875 0.02734375 C3.65414062 0.03894531 4.37859375 0.05054687 5.125 0.0625 C5.125 0.3925 5.125 0.7225 5.125 1.0625 C3.93003906 1.23265625 2.73507813 1.4028125 1.50390625 1.578125 C-9.5570713 3.1438401 -9.5570713 3.1438401 -19.93359375 7.08984375 C-22.07847854 8.16444398 -24.21548741 8.89654941 -26.5 9.625 C-36.27435203 12.81559159 -43.73103924 17.92176637 -51.875 24.0625 C-47.82205446 14.5987693 -34.91675335 9.01011782 -25.875 5.0625 C-17.54312198 1.96362607 -8.90846905 -0.10863987 0 0 Z " fill="#2A9C8A" transform="translate(106.875,27.9375)"/>
<path d="M0 0 C3.96 0 7.92 0 12 0 C12.33 0.66 12.66 1.32 13 2 C12.67 2.66 12.34 3.32 12 4 C14.95867918 3.85953745 17.91682264 3.71287776 20.875 3.5625 C21.71675781 3.52318359 22.55851562 3.48386719 23.42578125 3.44335938 C24.23144531 3.40146484 25.03710938 3.35957031 25.8671875 3.31640625 C26.61081543 3.27974854 27.35444336 3.24309082 28.12060547 3.20532227 C30.08864312 3.10044135 30.08864312 3.10044135 32 2 C32 2.66 32 3.32 32 4 C39.92 4 47.84 4 56 4 C56.495 4.99 56.495 4.99 57 6 C38.19 5.67 19.38 5.34 0 5 C0 3.35 0 1.7 0 0 Z " fill="#7CC9EA" transform="translate(28,171)"/>
<path d="M0 0 C8.91 0 17.82 0 27 0 C27.66 1.32 28.32 2.64 29 4 C28.01 5.485 28.01 5.485 27 7 C27 5.68 27 4.36 27 3 C17.76 3 8.52 3 -1 3 C-0.67 2.01 -0.34 1.02 0 0 Z " fill="#F4F4F4" transform="translate(170,51)"/>
<path d="M0 0 C9.24 0 18.48 0 28 0 C28 0.99 28 1.98 28 3 C18.76 3 9.52 3 0 3 C0 2.01 0 1.02 0 0 Z " fill="#464646" transform="translate(169,62)"/>
<path d="M0 0 C9.24 0 18.48 0 28 0 C28 0.99 28 1.98 28 3 C18.76 3 9.52 3 0 3 C0 2.01 0 1.02 0 0 Z " fill="#464646" transform="translate(169,55)"/>
<path d="M0 0 C9.24 0 18.48 0 28 0 C28 0.99 28 1.98 28 3 C18.76 3 9.52 3 0 3 C0 2.01 0 1.02 0 0 Z " fill="#4A4A4A" transform="translate(169,48)"/>
<path d="M0 0 C0.99 0.33 1.98 0.66 3 1 C2.67 1.66 2.34 2.32 2 3 C2.99 2.34 3.98 1.68 5 1 C7.6875 0.875 7.6875 0.875 10 1 C10 2.32 10 3.64 10 5 C14.95 5 19.9 5 25 5 C25 9.62 25 14.24 25 19 C24.67 19 24.34 19 24 19 C24 14.71 24 10.42 24 6 C19.38 6 14.76 6 10 6 C10 10.29 10 14.58 10 19 C9.67 19 9.34 19 9 19 C8.67 14.71 8.34 10.42 8 6 C5.36 6 2.72 6 0 6 C0 4.02 0 2.04 0 0 Z " fill="#6EA6C7" transform="translate(18,149)"/>
<path d="M0 0 C6.99497449 2.35594627 10.93086065 7.51827513 14.625 13.734375 C18.51213445 21.90619175 18.54518346 29.13168236 18 38 C17.67 38 17.34 38 17 38 C16.97421875 37.09378906 16.9484375 36.18757813 16.921875 35.25390625 C16.52348512 24.52128167 16.52348512 24.52128167 12 15 C9.3912295 13.7886547 9.3912295 13.7886547 7 14 C7.2475 13.0925 7.495 12.185 7.75 11.25 C8.36490073 7.95129032 8.36490073 7.95129032 6.25 5.6875 C4.02305827 3.832004 4.02305827 3.832004 1 3 C0.67 2.01 0.34 1.02 0 0 Z " fill="#EDB41B" transform="translate(130,82)"/>
<path d="M0 0 C6.78505979 0.17276773 11.69430883 1.65528861 17 6 C17.33 6.66 17.66 7.32 18 8 C21.27555608 8.47001033 21.27555608 8.47001033 25.0625 8.625 C26.99802734 8.73714844 26.99802734 8.73714844 28.97265625 8.8515625 C30.47119141 8.92503906 30.47119141 8.92503906 32 9 C32 9.33 32 9.66 32 10 C21.41114996 10.6509539 11.93113599 10.41038041 3.1484375 3.5546875 C1.75 2.1875 1.75 2.1875 0 0 Z " fill="#D29616" transform="translate(88,138)"/>
<path d="M0 0 C8.91 0 17.82 0 27 0 C22.87445092 3.09416181 22.34329024 3.37238817 17.578125 3.29296875 C16.04091797 3.2784668 16.04091797 3.2784668 14.47265625 3.26367188 C13.40917969 3.23853516 12.34570312 3.21339844 11.25 3.1875 C9.63158203 3.16719727 9.63158203 3.16719727 7.98046875 3.14648438 C5.3198058 3.11116584 2.66015704 3.06184199 0 3 C0 2.01 0 1.02 0 0 Z " fill="#F5F5F5" transform="translate(170,58)"/>
<path d="M0 0 C1.98 0 3.96 0 6 0 C5.67 5.28 5.34 10.56 5 16 C4.34 16 3.68 16 3 16 C2.67 12.04 2.34 8.08 2 4 C1.34 4 0.68 4 0 4 C-0.33 7.96 -0.66 11.92 -1 16 C-1.33 16 -1.66 16 -2 16 C-2 11.38 -2 6.76 -2 2 C-1.34 2 -0.68 2 0 2 C0 1.34 0 0.68 0 0 Z " fill="#7FBED4" transform="translate(44,188)"/>
<path d="M0 0 C0.99 0.33 1.98 0.66 3 1 C2.47731534 3.76276177 1.89130413 6.3260876 1 9 C1.99 9 2.98 9 4 9 C4 9.99 4 10.98 4 12 C5.32 12.33 6.64 12.66 8 13 C8 13.66 8 14.32 8 15 C5.1875 15.25 5.1875 15.25 2 15 C0.125 13.375 0.125 13.375 -1 11 C-1.1875 7.75 -1.1875 7.75 -1 5 C-0.34 4.67 0.32 4.34 1 4 C0.67 2.68 0.34 1.36 0 0 Z " fill="#EFB31B" transform="translate(128,95)"/>
<path d="M0 0 C3.96 0 7.92 0 12 0 C12.33 0.66 12.66 1.32 13 2 C12.67 2.66 12.34 3.32 12 4 C8.04 4 4.08 4 0 4 C0 2.68 0 1.36 0 0 Z " fill="#65C8EF" transform="translate(28,171)"/>
<path d="M0 0 C0.9075 0.103125 1.815 0.20625 2.75 0.3125 C2.42 0.9725 2.09 1.6325 1.75 2.3125 C0.1 2.3125 -1.55 2.3125 -3.25 2.3125 C-3.25 4.9525 -3.25 7.5925 -3.25 10.3125 C-9.875 12.4375 -9.875 12.4375 -13.25 11.3125 C-10.60261084 9.8518715 -9.35551666 9.3125 -6.25 9.3125 C-6.4975 8.755625 -6.745 8.19875 -7 7.625 C-7.25 5.3125 -7.25 5.3125 -5.6875 2.5625 C-3.25 0.3125 -3.25 0.3125 0 0 Z " fill="#EBB028" transform="translate(113.25,86.6875)"/>
<path d="M0 0 C3.3 0.33 6.6 0.66 10 1 C10 6.28 10 11.56 10 17 C6.7 16.34 3.4 15.68 0 15 C0 14.67 0 14.34 0 14 C6.75 13.875 6.75 13.875 9 15 C8.67 11.37 8.34 7.74 8 4 C5.36 3.01 2.72 2.02 0 1 C0 0.67 0 0.34 0 0 Z " fill="#59BAAB" transform="translate(124,29)"/>
<path d="M0 0 C4.62 0 9.24 0 14 0 C14 0.99 14 1.98 14 3 C9.38 3 4.76 3 0 3 C0 2.01 0 1.02 0 0 Z " fill="#4D4D4D" transform="translate(169,41)"/>
<path d="M0 0 C4.62 0 9.24 0 14 0 C14 0.99 14 1.98 14 3 C11.36 3.66 8.72 4.32 6 5 C6 4.34 6 3.68 6 3 C3.03 2.505 3.03 2.505 0 2 C0 1.34 0 0.68 0 0 Z " fill="#4BA3C4" transform="translate(14,147)"/>
<path d="M0 0 C0.66 0.33 1.32 0.66 2 1 C-1.75 5.875 -1.75 5.875 -4 7 C-5.05352843 9.30965848 -6.05719096 11.6429774 -7 14 C-7.66 14 -8.32 14 -9 14 C-9 14.99 -9 15.98 -9 17 C-9.66 17 -10.32 17 -11 17 C-9.27482021 10.09928082 -5.04663688 4.86586183 0 0 Z " fill="#CD931D" transform="translate(90,84)"/>
<path d="M0 0 C0.33 0 0.66 0 1 0 C1 1.98 1 3.96 1 6 C4.3 6.33 7.6 6.66 11 7 C9.02 7.99 9.02 7.99 7 9 C7 9.66 7 10.32 7 11 C1.125 10.125 1.125 10.125 0 9 C-0.07179964 7.48071962 -0.08392007 5.95832518 -0.0625 4.4375 C-0.05347656 3.61121094 -0.04445313 2.78492187 -0.03515625 1.93359375 C-0.02355469 1.29550781 -0.01195313 0.65742187 0 0 Z " fill="#F8AB01" transform="translate(84,108)"/>
<path d="M0 0 C0 0.99 0 1.98 0 3 C-1 4 -1 4 -3 5 C-5.625 4.0625 -5.625 4.0625 -8 3 C-8.66 3.66 -9.32 4.32 -10 5 C-9.75 3.125 -9.75 3.125 -9 1 C-5.84213022 -1.36840234 -3.69270227 -1.02575063 0 0 Z " fill="#F0AE21" transform="translate(125,127)"/>
<path d="M0 0 C2.38672669 2.96283313 4.7353371 5.94270509 7 9 C4.6875 9.625 4.6875 9.625 2 10 C1.01 9.34 0.02 8.68 -1 8 C-0.67 5.36 -0.34 2.72 0 0 Z " fill="#DE9702" transform="translate(89,130)"/>
<path d="M0 0 C2.13961641 4.27923283 2.41859656 6.31171848 2 11 C0.625 13.4375 0.625 13.4375 -1 15 C-1.66 15 -2.32 15 -3 15 C-3.33 15.66 -3.66 16.32 -4 17 C-4 15.35 -4 13.7 -4 12 C-2.68 12 -1.36 12 0 12 C0 8.04 0 4.08 0 0 Z " fill="#E6AF22" transform="translate(122,106)"/>
<path d="M0 0 C4.59688024 5.43267665 5.29960608 10.94448182 5.125 17.875 C5.11597656 18.56335938 5.10695312 19.25171875 5.09765625 19.9609375 C5.07432513 21.64077838 5.03846326 23.32043746 5 25 C4.67 25 4.34 25 4 25 C3.96261719 24.05898437 3.92523438 23.11796875 3.88671875 22.1484375 C3.82097656 20.90320313 3.75523437 19.65796875 3.6875 18.375 C3.62949219 17.14523438 3.57148438 15.91546875 3.51171875 14.6484375 C2.97762888 10.84049903 1.8125575 8.35515963 0 5 C-0.1875 2.125 -0.1875 2.125 0 0 Z " fill="#ECB12B" transform="translate(143,95)"/>
<path d="M0 0 C0.33 0.66 0.66 1.32 1 2 C3.35599235 2.46751788 3.35599235 2.46751788 6.0625 2.625 C7.44115234 2.73714844 7.44115234 2.73714844 8.84765625 2.8515625 C9.55792969 2.90054688 10.26820313 2.94953125 11 3 C11 3.66 11 4.32 11 5 C6.38 5 1.76 5 -3 5 C-2.01 3.35 -1.02 1.7 0 0 Z " fill="#DC6B5E" transform="translate(171,108)"/>
<path d="M0 0 C1.65 0 3.3 0 5 0 C5.33 0.66 5.66 1.32 6 2 C7.89533342 2.46523063 7.89533342 2.46523063 10.0625 2.625 C11.361875 2.74875 12.66125 2.8725 14 3 C14 3.33 14 3.66 14 4 C9.38 4 4.76 4 0 4 C0 2.68 0 1.36 0 0 Z " fill="#73C2E9" transform="translate(28,150)"/>
<path d="M0 0 C0 3 0 3 -2 6 C-5.04907647 7.99767079 -7.39697197 8.20016822 -11 8 C-7.45960866 5.0843836 -3.8373228 2.49872182 0 0 Z " fill="#E66653" transform="translate(156,167)"/>
<path d="M0 0 C4.455 0.99 4.455 0.99 9 2 C7.625 4.5 7.625 4.5 6 7 C5.34 7 4.68 7 4 7 C2.02 3.535 2.02 3.535 0 0 Z " fill="#239683" transform="translate(30,134)"/>
<path d="M0 0 C0.99 0.66 1.98 1.32 3 2 C3 2.66 3 3.32 3 4 C-1.29 4 -5.58 4 -10 4 C-10 3.34 -10 2.68 -10 2 C-6.7 2 -3.4 2 0 2 C0 1.34 0 0.68 0 0 Z " fill="#D96D63" transform="translate(208,109)"/>
<path d="M0 0 C1.98 0 3.96 0 6 0 C4.02 2.31 2.04 4.62 0 7 C-0.66 6.67 -1.32 6.34 -2 6 C-1.49396008 3.83125748 -1.00016187 2.00032373 0 0 Z " fill="#46BDAB" transform="translate(61,59)"/>
<path d="M0 0 C1.32 0.33 2.64 0.66 4 1 C0.37 3.31 -3.26 5.62 -7 8 C-7.33 6.68 -7.66 5.36 -8 4 C-6.68 4.33 -5.36 4.66 -4 5 C-4 4.01 -4 3.02 -4 2 C-2.68 2 -1.36 2 0 2 C0 1.34 0 0.68 0 0 Z " fill="#E36953" transform="translate(159,180)"/>
<path d="M0 0 C2.31 0 4.62 0 7 0 C7 0.66 7 1.32 7 2 C5.68 2 4.36 2 3 2 C3.7734375 2.8971875 3.7734375 2.8971875 4.5625 3.8125 C5.036875 4.534375 5.51125 5.25625 6 6 C5.67 6.99 5.34 7.98 5 9 C4.16094435 7.87926138 3.32892169 6.75325453 2.5 5.625 C2.0359375 4.99851562 1.571875 4.37203125 1.09375 3.7265625 C0 2 0 2 0 0 Z " fill="#289886" transform="translate(14,112)"/>
<path d="M0 0 C0.33 0 0.66 0 1 0 C1.38922918 1.28745036 1.76098036 2.58019597 2.125 3.875 C2.33382812 4.59429687 2.54265625 5.31359375 2.7578125 6.0546875 C2.83773437 6.69664063 2.91765625 7.33859375 3 8 C2.34 8.66 1.68 9.32 1 10 C-0.5625 8.3125 -0.5625 8.3125 -2 6 C-1.58974359 1.58974359 -1.58974359 1.58974359 0 0 Z " fill="#EAAD26" transform="translate(128,117)"/>
<path d="M0 0 C0.66 0 1.32 0 2 0 C3.625 2 3.625 2 5 4 C4.67 4.66 4.34 5.32 4 6 C2.68 5.34 1.36 4.68 0 4 C-1.32 4.99 -2.64 5.98 -4 7 C-2.79618552 4.50638429 -1.54571278 2.31856917 0 0 Z " fill="#D86E5E" transform="translate(189,84)"/>
<path d="M0 0 C0.33 0 0.66 0 1 0 C2.125 7.75 2.125 7.75 1 10 C0.01 10 -0.98 10 -2 10 C-1.34 6.7 -0.68 3.4 0 0 Z " fill="#E26852" transform="translate(180,128)"/>
<path d="M0 0 C1.485 0.99 1.485 0.99 3 2 C2.5020163 5.73487777 2.12508244 7.81237635 0 11 C-0.85297271 7.58810914 -1.0420556 5.3577347 0 2 C0 1.34 0 0.68 0 0 Z " fill="#E9B238" transform="translate(96,99)"/>
<path d="M0 0 C1.32 0 2.64 0 4 0 C3.25 1.9375 3.25 1.9375 2 4 C-0.125 4.75 -0.125 4.75 -2 5 C-1.34 3.35 -0.68 1.7 0 0 Z " fill="#48BEAD" transform="translate(39,130)"/>
<path d="M0 0 C0.66 0 1.32 0 2 0 C2.33 2.64 2.66 5.28 3 8 C2.01 8 1.02 8 0 8 C0 5.36 0 2.72 0 0 Z " fill="#EBB533" transform="translate(115,89)"/>
<path d="" fill="#FF8080" transform="translate(0,0)"/>
</svg>
