<?xml version="1.0" encoding="UTF-8"?>
<svg version="1.1" xmlns="http://www.w3.org/2000/svg" width="225" height="225">
<path d="M0 0 C1.38812446 -0.01152712 2.77620435 -0.03199107 4.1640625 -0.06152344 C14.69192664 -0.28401313 25.19206219 0.28160591 34.21240234 6.29516602 C34.47363281 8.57006836 34.47363281 8.57006836 34.32958984 11.38110352 C34.29736328 12.39430664 34.26513672 13.40750977 34.23193359 14.45141602 C34.13591311 16.58981819 34.03180161 18.72787303 33.91943359 20.86547852 C33.53296607 27.03364516 33.53296607 27.03364516 36.72021484 32.02172852 C37.54263672 32.44196289 38.36505859 32.86219727 39.21240234 33.29516602 C38.55240234 34.94516602 37.89240234 36.59516602 37.21240234 38.29516602 C38.03740234 38.66641602 38.86240234 39.03766602 39.71240234 39.42016602 C42.21240234 41.29516602 42.21240234 41.29516602 42.71240234 44.35766602 C42.54740234 45.32704102 42.38240234 46.29641602 42.21240234 47.29516602 C41.22240234 47.95516602 40.23240234 48.61516602 39.21240234 49.29516602 C39.25365234 50.26454102 39.29490234 51.23391602 39.33740234 52.23266602 C39.29615234 53.24329102 39.25490234 54.25391602 39.21240234 55.29516602 C36.96240234 57.23266602 36.96240234 57.23266602 34.21240234 58.29516602 C32.02490234 57.98266602 32.02490234 57.98266602 30.21240234 57.29516602 C29.55240234 57.29516602 28.89240234 57.29516602 28.21240234 57.29516602 C28.21240234 58.61516602 28.21240234 59.93516602 28.21240234 61.29516602 C25.32725089 61.36226256 22.71436981 61.41726621 19.89990234 60.73266602 C17.35909832 60.31904676 15.73834825 60.41542608 13.22412109 60.76000977 C7.91865339 61.39119314 2.67528385 61.4469756 -2.66259766 61.42016602 C-3.63422852 61.41678223 -4.60585937 61.41339844 -5.60693359 61.40991211 C-32.86974455 61.21301912 -32.86974455 61.21301912 -38.78759766 55.29516602 C-40.30023527 45.44875137 -39.89344792 35.23332986 -39.78759766 25.29516602 C-39.78759766 24.30516602 -39.78759766 23.31516602 -39.78759766 22.29516602 C-39.72262586 20.88462138 -39.64883477 19.47447014 -39.56884766 18.06469727 C-39.52373047 17.26225586 -39.47861328 16.45981445 -39.43212891 15.63305664 C-39.38443359 14.79967773 -39.33673828 13.96629883 -39.28759766 13.10766602 C-39.23990234 12.26268555 -39.19220703 11.41770508 -39.14306641 10.54711914 C-39.02532478 8.46309237 -38.90655955 6.37912348 -38.78759766 4.29516602 C-36.68544906 3.80722203 -34.58072816 3.33035858 -32.47509766 2.85766602 C-31.30333984 2.59083008 -30.13158203 2.32399414 -28.92431641 2.04907227 C-19.40068771 0.16526466 -9.67722118 0.05564232 0 0 Z M-33.78759766 25.29516602 C-33.78759766 25.95516602 -33.78759766 26.61516602 -33.78759766 27.29516602 C-32.46759766 26.96516602 -31.14759766 26.63516602 -29.78759766 26.29516602 C-31.10759766 25.96516602 -32.42759766 25.63516602 -33.78759766 25.29516602 Z M24.21240234 26.29516602 C26.19240234 27.28516602 26.19240234 27.28516602 28.21240234 28.29516602 C28.54240234 27.63516602 28.87240234 26.97516602 29.21240234 26.29516602 C27.56240234 26.29516602 25.91240234 26.29516602 24.21240234 26.29516602 Z M-28.78759766 27.29516602 C-24.78759766 28.29516602 -24.78759766 28.29516602 -24.78759766 28.29516602 Z M-23.78759766 27.29516602 C-23.78759766 27.95516602 -23.78759766 28.61516602 -23.78759766 29.29516602 C-22.46759766 28.96516602 -21.14759766 28.63516602 -19.78759766 28.29516602 C-21.10759766 27.96516602 -22.42759766 27.63516602 -23.78759766 27.29516602 Z M-17.78759766 28.29516602 C-17.78759766 28.62516602 -17.78759766 28.95516602 -17.78759766 29.29516602 C-10.83545485 30.60708598 -3.90314863 30.40574659 3.14990234 30.35766602 C4.40609375 30.3531543 5.66228516 30.34864258 6.95654297 30.34399414 C10.04187897 30.33226283 13.12711551 30.31584701 16.21240234 30.29516602 C16.54240234 29.63516602 16.87240234 28.97516602 17.21240234 28.29516602 C5.66240234 28.29516602 -5.88759766 28.29516602 -17.78759766 28.29516602 Z M28.21240234 29.29516602 C28.21240234 29.95516602 28.21240234 30.61516602 28.21240234 31.29516602 C28.87240234 30.96516602 29.53240234 30.63516602 30.21240234 30.29516602 C29.55240234 29.96516602 28.89240234 29.63516602 28.21240234 29.29516602 Z M12.21240234 36.29516602 C13.21240234 38.29516602 13.21240234 38.29516602 13.21240234 38.29516602 Z M20.46240234 38.98266602 C17.98026088 41.07957551 17.98026088 41.07957551 17.83740234 43.92016602 C18.09131105 46.30485332 18.09131105 46.30485332 19.21240234 48.29516602 C19.87240234 48.29516602 20.53240234 48.29516602 21.21240234 48.29516602 C21.21240234 48.95516602 21.21240234 49.61516602 21.21240234 50.29516602 C22.95911823 51.08873403 22.95911823 51.08873403 25.21240234 51.29516602 C27.45596528 50.1472966 29.42197904 49.08558932 31.21240234 47.29516602 C31.61718417 43.65212954 31.67065398 41.91707895 29.46240234 38.92016602 C26.02478956 36.43744567 23.983842 36.82178259 20.46240234 38.98266602 Z M-32.78759766 42.29516602 C-28.78759766 43.29516602 -28.78759766 43.29516602 -28.78759766 43.29516602 Z M-25.78759766 43.29516602 C-21.78759766 44.29516602 -21.78759766 44.29516602 -21.78759766 44.29516602 Z M7.21240234 42.29516602 C7.21240234 42.95516602 7.21240234 43.61516602 7.21240234 44.29516602 C-6.64759766 43.80016602 -6.64759766 43.80016602 -20.78759766 43.29516602 C-20.78759766 43.95516602 -20.78759766 44.61516602 -20.78759766 45.29516602 C-11.21759766 45.62516602 -1.64759766 45.95516602 8.21240234 46.29516602 C7.88240234 44.97516602 7.55240234 43.65516602 7.21240234 42.29516602 Z M12.21240234 49.29516602 C13.21240234 51.29516602 13.21240234 51.29516602 13.21240234 51.29516602 Z M10.21240234 52.29516602 C11.21240234 54.29516602 11.21240234 54.29516602 11.21240234 54.29516602 Z " fill="#020202" transform="translate(119.78759765625,109.704833984375)"/>
<path d="M0 0 C0.928125 0.515625 1.85625 1.03125 2.8125 1.5625 C2.8125 2.2225 2.8125 2.8825 2.8125 3.5625 C6.1296411 4.9841319 9.25469804 5.95259109 12.8125 6.5625 C12.85375 7.18125 12.895 7.8 12.9375 8.4375 C13.22625 9.13875 13.515 9.84 13.8125 10.5625 C16.72916667 11.8125 16.72916667 11.8125 19.8125 12.5625 C21.8125 13.5625 21.8125 13.5625 23.8125 15.5625 C24.1425 14.2425 24.4725 12.9225 24.8125 11.5625 C33.3925 11.2325 41.9725 10.9025 50.8125 10.5625 C52.04668428 13.03086856 51.92273404 14.67234079 51.91796875 17.4296875 C51.93279297 18.39777344 51.94761719 19.36585937 51.96289062 20.36328125 C51.98753419 22.40480583 51.99289325 24.44665856 51.97851562 26.48828125 C52.01041992 27.94427734 52.01041992 27.94427734 52.04296875 29.4296875 C52.04707764 30.31769043 52.05118652 31.20569336 52.05541992 32.12060547 C52.62470916 34.90465286 52.62470916 34.90465286 55.83764648 36.42138672 C58.8125 38.5625 58.8125 38.5625 59.40185547 41.95410156 C59.35919203 43.28848305 59.28322443 44.62208247 59.1796875 45.953125 C59.14900177 46.65773865 59.11831604 47.36235229 59.08670044 48.08831787 C58.98236699 50.33224944 58.8355823 52.57107249 58.6875 54.8125 C58.60916649 56.33579547 58.53361344 57.85923663 58.4609375 59.3828125 C58.27698958 63.11160412 58.05491696 66.8370007 57.8125 70.5625 C58.4725 70.5625 59.1325 70.5625 59.8125 70.5625 C59.4825 71.2225 59.1525 71.8825 58.8125 72.5625 C58.727585 74.4488912 58.705307 76.33828515 58.71484375 78.2265625 C58.71806641 79.34804687 58.72128906 80.46953125 58.72460938 81.625 C58.73298828 82.800625 58.74136719 83.97625 58.75 85.1875 C58.75451172 86.37085938 58.75902344 87.55421875 58.76367188 88.7734375 C58.77548533 91.70317507 58.79195742 94.63281272 58.8125 97.5625 C55.875 97.1875 55.875 97.1875 52.8125 96.5625 C51.57161896 94.08073793 51.72419121 92.50657784 51.77832031 89.7331543 C51.7945343 88.72838547 51.81074829 87.72361664 51.82745361 86.68840027 C51.85872345 85.05406792 51.85872345 85.05406792 51.890625 83.38671875 C51.91788783 81.09181106 51.94389001 78.7968881 51.96875 76.50195312 C52.01198944 72.87401708 52.06256234 69.24686781 52.13476562 65.61938477 C52.20137445 62.12503841 52.2361533 58.63154999 52.265625 55.13671875 C52.29456848 54.05323654 52.32351196 52.96975433 52.35333252 51.85343933 C52.52723301 45.54345836 52.52723301 45.54345836 49.34667969 40.40161133 C48.51040039 39.79470459 47.67412109 39.18779785 46.8125 38.5625 C45.8125 37.5625 45.8125 37.5625 45.69897461 35.61303711 C45.70682983 34.3640564 45.70682983 34.3640564 45.71484375 33.08984375 C45.71967773 31.74116211 45.71967773 31.74116211 45.72460938 30.36523438 C45.73717773 28.94694336 45.73717773 28.94694336 45.75 27.5 C45.75451172 26.55060547 45.75902344 25.60121094 45.76367188 24.62304688 C45.77549872 22.26950469 45.79343479 19.91599468 45.8125 17.5625 C40.5325 17.5625 35.2525 17.5625 29.8125 17.5625 C30.3075 21.5225 30.3075 21.5225 30.8125 25.5625 C29.4925 25.8925 28.1725 26.2225 26.8125 26.5625 C26.8125 25.9025 26.8125 25.2425 26.8125 24.5625 C26.131875 24.315 25.45125 24.0675 24.75 23.8125 C16.55519963 20.32535091 9.10269449 15.09008403 2.0625 9.6875 C-1.16430792 7.57766405 -2.44861868 6.99600283 -6.1875 7.5625 C-6.5175 8.2225 -6.8475 8.8825 -7.1875 9.5625 C-8.83306566 10.59685556 -10.5045608 11.59013513 -12.1875 12.5625 C-13.239375 13.284375 -14.29125 14.00625 -15.375 14.75 C-18.1875 16.5625 -18.1875 16.5625 -20.1875 16.5625 C-20.1875 17.2225 -20.1875 17.8825 -20.1875 18.5625 C-21.8890625 19.366875 -21.8890625 19.366875 -23.625 20.1875 C-28.42991339 22.59832762 -32.75772503 25.53025172 -37.1875 28.5625 C-39.76654166 30.29810815 -42.35190281 32.02417892 -44.9375 33.75 C-45.5756665 34.17812988 -46.21383301 34.60625977 -46.87133789 35.04736328 C-47.48614014 35.45841309 -48.10094238 35.86946289 -48.734375 36.29296875 C-49.27932617 36.65801514 -49.82427734 37.02306152 -50.38574219 37.39916992 C-52.1875 38.5625 -52.1875 38.5625 -54.75889587 39.80410767 C-57.396121 41.3232494 -57.396121 41.3232494 -57.82673645 43.97331238 C-57.83339828 44.92595474 -57.84006012 45.87859711 -57.84692383 46.86010742 C-57.87638847 48.48144844 -57.87638847 48.48144844 -57.90644836 50.13554382 C-57.90054939 51.88409416 -57.90054939 51.88409416 -57.89453125 53.66796875 C-57.90965256 54.86231033 -57.92477386 56.05665192 -57.94035339 57.28718567 C-57.98340004 61.1083133 -57.99208533 64.92865355 -58 68.75 C-58.02313091 71.33791181 -58.04849328 73.92580471 -58.07617188 76.51367188 C-58.13919208 82.86328857 -58.17399149 89.21259546 -58.1875 95.5625 C-59.84364657 95.94468767 -61.51207024 96.27645102 -63.1875 96.5625 C-67.38421949 92.36578051 -65.3323368 74.92769976 -65.3828125 68.98828125 C-65.37807658 66.22050433 -65.35919316 63.45341733 -65.33007812 60.68579102 C-65.31823638 58.79226325 -65.32479399 56.89854168 -65.34863281 55.00512695 C-65.53888977 39.11459447 -65.53888977 39.11459447 -62.17871094 35.25537109 C-59.84671857 33.97534562 -57.74316687 33.25413359 -55.1875 32.5625 C-54.5275 31.9025 -53.8675 31.2425 -53.1875 30.5625 C-51.87331387 29.65899704 -50.53765624 28.78631146 -49.1875 27.9375 C-48.48625 27.49148437 -47.785 27.04546875 -47.0625 26.5859375 C-45.1875 25.5625 -45.1875 25.5625 -43.1875 25.5625 C-43.1875 24.9025 -43.1875 24.2425 -43.1875 23.5625 C-42.67960937 23.32015625 -42.17171875 23.0778125 -41.6484375 22.828125 C-38.22616909 21.16185199 -34.94488369 19.48345899 -31.8125 17.3125 C-29.1875 15.5625 -29.1875 15.5625 -27.1875 15.5625 C-27.1875 14.9025 -27.1875 14.2425 -27.1875 13.5625 C-25.5078125 12.2734375 -25.5078125 12.2734375 -23.3125 10.9375 C-22.59320313 10.49148437 -21.87390625 10.04546875 -21.1328125 9.5859375 C-19.1875 8.5625 -19.1875 8.5625 -17.1875 8.5625 C-16.8575 7.9025 -16.5275 7.2425 -16.1875 6.5625 C-14.62890625 5.4921875 -14.62890625 5.4921875 -12.75 4.4375 C-12.13253906 4.08429688 -11.51507813 3.73109375 -10.87890625 3.3671875 C-9.1875 2.5625 -9.1875 2.5625 -7.1875 2.5625 C-6.8575 1.5725 -6.5275 0.5825 -6.1875 -0.4375 C-3.1875 -1.4375 -3.1875 -1.4375 0 0 Z " fill="#020202" transform="translate(119.1875,74.4375)"/>
<path d="M0 0 C0.9075 0.165 1.815 0.33 2.75 0.5 C6.11087503 1.10137146 6.11087503 1.10137146 10 1 C10.66 1.33 11.32 1.66 12 2 C12 1.34 12 0.68 12 0 C12.5775 0.185625 13.155 0.37125 13.75 0.5625 C16.20692525 1.04023546 17.64397534 0.75729364 20 0 C20.33 1.32 20.66 2.64 21 4 C23.05270463 2.15811388 23.05270463 2.15811388 24 0 C31 0 38 0 45 0 C45 1.65 45 3.3 45 5 C45.99 5 46.98 5 48 5 C47.505 3.02 47.505 3.02 47 1 C51.26958716 -0.42319572 54.72888855 0.21409086 59.0625 0.87890625 C61.2190765 1.13519071 61.2190765 1.13519071 64 0 C64.99 0.99 64.99 0.99 66 2 C65.625 4.625 65.625 4.625 65 7 C65.66 6.67 66.32 6.34 67 6 C67.65772428 2.97065509 67.65772428 2.97065509 68 0 C68.639375 0.185625 69.27875 0.37125 69.9375 0.5625 C70.618125 0.706875 71.29875 0.85125 72 1 C72.33 0.67 72.66 0.34 73 0 C74.66608987 -0.04384447 76.33380554 -0.0396713 78 0 C80.18839268 0 82.37713206 -0.07248063 84.5625 -0.1875 C85.696875 -0.125625 86.83125 -0.06375 88 0 C88.99 1.485 88.99 1.485 90 3 C89.375 5.625 89.375 5.625 88 8 C85.875 8.8125 85.875 8.8125 84 9 C85.65 9.66 87.3 10.32 89 11 C89 11.66 89 12.32 89 13 C82.14097108 13.6704314 75.79056476 14.27323089 69 13 C68.0925 13.020625 67.185 13.04125 66.25 13.0625 C64 13 64 13 61 11 C60.34 11.66 59.68 12.32 59 13 C56 13.125 56 13.125 53 13 C52.34 13 51.68 13 51 13 C50.01 13 49.02 13 48 13 C48 11.35 48 9.7 48 8 C47.34 8.66 46.68 9.32 46 10 C46 10.99 46 11.98 46 13 C43.75215576 13.24942657 41.50152494 13.47383488 39.25 13.6875 C37.99703125 13.81511719 36.7440625 13.94273437 35.453125 14.07421875 C31.76068358 13.99485632 30.58403608 13.53835868 28 11 C27.01 11.99 26.02 12.98 25 14 C24.236875 13.67 23.47375 13.34 22.6875 13 C20.00930865 11.82563314 20.00930865 11.82563314 17 12 C16.38125 12.37125 15.7625 12.7425 15.125 13.125 C13 14 13 14 10.25 13.125 C9.5075 12.75375 8.765 12.3825 8 12 C7.34 12.66 6.68 13.32 6 14 C4.68 13.01 3.36 12.02 2 11 C2.33 10.01 2.66 9.02 3 8 C2.34 8 1.68 8 1 8 C1.020625 7.05125 1.04125 6.1025 1.0625 5.125 C1.22551826 2.09333717 1.22551826 2.09333717 0 0 Z M41 2 C42 4 42 4 42 4 Z M51 2 C52 4 52 4 52 4 Z M61 2 C62 4 62 4 62 4 Z M5 3 C6 5 6 5 6 5 Z M27 3 C27.66 3.66 28.32 4.32 29 5 C29 4.34 29 3.68 29 3 C28.34 3 27.68 3 27 3 Z M32 3 C33 5 33 5 33 5 Z M36 3 C36 3.66 36 4.32 36 5 C37.65 5 39.3 5 41 5 C40.34 4.34 39.68 3.68 39 3 C38.01 3 37.02 3 36 3 Z M56 3 C55.34 3.66 54.68 4.32 54 5 C54.32041397 7.60280568 54.32041397 7.60280568 55 10 C55.99 10 56.98 10 58 10 C58.33 8.35 58.66 6.7 59 5 C58.01 4.34 57.02 3.68 56 3 Z M83 3 C83.33 3.66 83.66 4.32 84 5 C85.32 4.67 86.64 4.34 88 4 C86.35 3.67 84.7 3.34 83 3 Z M23 4 C22.67 5.65 22.34 7.3 22 9 C22.66 8.67 23.32 8.34 24 8 C23.67 6.68 23.34 5.36 23 4 Z M71 4 C72 6 72 6 72 6 Z M79 4 C79 7 79 7 79 7 Z M41 5 C42 7 42 7 42 7 Z M32 6 C32 9 32 9 32 9 Z M8 8 C8 11 8 11 8 11 Z M13 8 C14 11 14 11 14 11 Z M36 8 C36 8.66 36 9.32 36 10 C38.97 10.495 38.97 10.495 42 11 C42 10.34 42 9.68 42 9 C39.03 8.505 39.03 8.505 36 8 Z M67 7 C66.01 7.495 66.01 7.495 65 8 C65 8.66 65 9.32 65 10 C65.99 10 66.98 10 68 10 C67.67 9.01 67.34 8.02 67 7 Z M74 8 C74 8.66 74 9.32 74 10 C74.66 10 75.32 10 76 10 C76 9.34 76 8.68 76 8 C75.34 8 74.68 8 74 8 Z M70 9 C71 11 71 11 71 11 Z M80 9 C81 11 81 11 81 11 Z M79 11 C78.67 11.66 78.34 12.32 78 13 C78.66 13 79.32 13 80 13 C79.67 12.34 79.34 11.68 79 11 Z " fill="#030303" transform="translate(90,174)"/>
<path d="M0 0 C2.3125 1.375 2.3125 1.375 4 3 C4 3.66 4 4.32 4 5 C4.66 5.33 5.32 5.66 6 6 C7 8 7 8 6.25 11.5625 C5.8375 12.696875 5.425 13.83125 5 15 C4.01 15.33 3.02 15.66 2 16 C2 16.66 2 17.32 2 18 C1.34 18.33 0.68 18.66 0 19 C-0.33 46.39 -0.66 73.78 -1 102 C-10.405 102.495 -10.405 102.495 -20 103 C-22.1519437 99.77208445 -22.20086443 98.71599191 -22 95 C-21.34 95.99 -20.68 96.98 -20 98 C-15.38 97.67 -10.76 97.34 -6 97 C-5.14258799 92.71293993 -4.84545257 89.1477586 -4.79125977 84.81054688 C-4.78147598 84.10583755 -4.7716922 83.40112823 -4.76161194 82.67506409 C-4.7318344 80.35631158 -4.71032951 78.03761557 -4.69140625 75.71875 C-4.68483442 74.92419907 -4.6782626 74.12964813 -4.67149162 73.3110199 C-4.63898546 69.11019672 -4.61450597 64.9093981 -4.5949707 60.70849609 C-4.57712016 57.23579204 -4.54222933 53.76389429 -4.49243164 50.29150391 C-4.43226958 46.09054927 -4.40150295 41.89034499 -4.39179802 37.6889801 C-4.38324159 36.09093982 -4.36441842 34.49291973 -4.3350544 32.89512634 C-4.29615019 30.65900966 -4.29510053 28.42582768 -4.30297852 26.18945312 C-4.29267105 24.91880005 -4.28236359 23.64814697 -4.27174377 22.33898926 C-5.28348015 17.70026901 -7.23258073 16.76214636 -11 14 C-11.65625 11.6484375 -11.65625 11.6484375 -11.5 9.375 C-11.45359375 8.24191406 -11.45359375 8.24191406 -11.40625 7.0859375 C-11 5 -11 5 -9 2 C-5.97331879 0.01700197 -3.58815359 -0.4485192 0 0 Z M-6.1875 5.1875 C-8.22546263 6.87829008 -8.22546263 6.87829008 -8.4375 9.5 C-8.16256259 12.00700701 -8.16256259 12.00700701 -6.8125 13.875 C-4.98927263 15.26082041 -4.98927263 15.26082041 -2.4375 14.75 C-0.02397485 14.080487 -0.02397485 14.080487 2 13 C3.01453953 10.67975596 3.01453953 10.67975596 3 8 C1.35380651 5.60371845 1.35380651 5.60371845 -1 4 C-3.97541303 3.76145407 -3.97541303 3.76145407 -6.1875 5.1875 Z " fill="#020202" transform="translate(200,44)"/>
<path d="M0 0 C3.4375 2 3.4375 2 6 5 C6.43227694 7.91066476 6.0154102 10.25208199 5 13 C3.0625 15.5 3.0625 15.5 1 17 C0.34 17 -0.32 17 -1 17 C-1 39.44 -1 61.88 -1 85 C6.26 85.33 13.52 85.66 21 86 C21.33 86.99 21.66 87.98 22 89 C21.34 89.66 20.68 90.32 20 91 C19.01 90.67 18.02 90.34 17 90 C15.39522598 89.95270287 13.78840935 89.96194761 12.18359375 90.0078125 C11.25482422 90.02457031 10.32605469 90.04132813 9.36914062 90.05859375 C7.4106172 90.10295737 5.45225443 90.15507385 3.49414062 90.21484375 C2.10291992 90.23611328 2.10291992 90.23611328 0.68359375 90.2578125 C-0.16662354 90.2798877 -1.01684082 90.30196289 -1.89282227 90.32470703 C-2.58819092 90.21755371 -3.28355957 90.11040039 -4 90 C-6.37870378 86.43194433 -6.24814889 84.89790743 -6.24291992 80.66430664 C-6.24599655 79.35607437 -6.24907318 78.0478421 -6.25224304 76.69996643 C-6.24534416 75.27002793 -6.2380771 73.84009116 -6.23046875 72.41015625 C-6.22927638 70.94429057 -6.22882391 69.47842412 -6.2290802 68.01255798 C-6.227516 64.94004534 -6.21923237 61.86764932 -6.20581055 58.79516602 C-6.18883582 54.8597731 -6.18499587 50.92450852 -6.18575573 46.98908329 C-6.18548355 43.96161172 -6.17999431 40.93416811 -6.17275429 37.90670586 C-6.16957529 36.45585784 -6.16760201 35.00500666 -6.16686058 33.55415535 C-6.16468805 31.52445459 -6.155138 29.49476579 -6.14526367 27.46508789 C-6.14145187 26.31053604 -6.13764008 25.15598419 -6.13371277 23.96644592 C-6.0206284 21.45764547 -5.73435373 19.38730584 -5 17 C-5.804375 16.731875 -6.60875 16.46375 -7.4375 16.1875 C-8.283125 15.795625 -9.12875 15.40375 -10 15 C-10.33 14.01 -10.66 13.02 -11 12 C-11.66 11.67 -12.32 11.34 -13 11 C-13.39600661 7.53494217 -13.14386351 6.21827567 -11.1875 3.25 C-7.81680957 -0.21699587 -4.68321202 -0.55096612 0 0 Z M-4 3 C-6.43629587 4.36145946 -7.71594207 5.44963776 -9 7.9375 C-9.19245099 10.18032074 -9.19245099 10.18032074 -7.4375 12.3125 C-5.04598071 14.34712911 -5.04598071 14.34712911 -1.75 13.75 C-0.8425 13.5025 0.065 13.255 1 13 C1.76716851 10.14921909 1.76716851 10.14921909 2 7 C0.21220342 4.40769496 -0.96002815 4.01332395 -4 3 Z " fill="#030303" transform="translate(31,72)"/>
<path d="M0 0 C2.24247406 3.57394304 3.02019566 5.97002146 2.9375 10.1875 C1.86029569 13.41911294 0.6606482 14.90373172 -2 17 C-2.66 17 -3.32 17 -4 17 C-4 29.87 -4 42.74 -4 56 C-1.03 55.505 -1.03 55.505 2 55 C5.375 55.4375 5.375 55.4375 8 56 C7.67 56.99 7.34 57.98 7 59 C4.4375 60.1875 4.4375 60.1875 2 61 C2 60.34 2 59.68 2 59 C0.515 59.495 0.515 59.495 -1 60 C-3.3406065 59.72230092 -5.67624308 59.39460023 -8 59 C-9.01916554 54.79834584 -9.14554413 50.73241788 -9.1328125 46.43359375 C-9.13376923 45.7176857 -9.13472595 45.00177765 -9.13571167 44.26417542 C-9.13638953 42.75725211 -9.1345628 41.25032583 -9.13037109 39.7434082 C-9.12500932 37.44150223 -9.13033345 35.13979065 -9.13671875 32.83789062 C-9.13605805 31.36979124 -9.13477706 29.90169197 -9.1328125 28.43359375 C-9.13483673 27.74808945 -9.13686096 27.06258514 -9.13894653 26.35630798 C-9.12297245 23.09149699 -9.00005525 20.12281405 -8 17 C-9.1446875 16.690625 -9.1446875 16.690625 -10.3125 16.375 C-13.91373041 14.53251002 -14.67009547 12.76806282 -16 9 C-15.6875 6.125 -15.6875 6.125 -15 4 C-14.34 4 -13.68 4 -13 4 C-13 3.34 -13 2.68 -13 2 C-8.32505404 -0.85057681 -5.28861747 -1.79613423 0 0 Z M-6 3 C-8.475 4.485 -8.475 4.485 -11 6 C-10.67 8.31 -10.34 10.62 -10 13 C-5.92920792 14.1508314 -5.92920792 14.1508314 -2.125 12.875 C-0.58921438 10.3153573 -0.41391572 8.9304214 -1 6 C-3.40858714 4.1375562 -3.40858714 4.1375562 -6 3 Z " fill="#010101" transform="translate(66,42)"/>
<path d="M0 0 C2.76881851 2.62682782 4.7648082 5.11933523 5 9 C4.4375 12.125 4.4375 12.125 3 15 C1.02 15.66 -0.96 16.32 -3 17 C-3 25.58 -3 34.16 -3 43 C-3.99 43 -4.98 43 -6 43 C-6 34.42 -6 25.84 -6 17 C-7.98 16.34 -9.96 15.68 -12 15 C-13.72447216 12.55699778 -14.09478231 10.97057084 -13.8046875 8 C-13.15683309 4.79606545 -12.40977773 2.52010251 -10.375 -0.0625 C-6.79214027 -1.47678674 -3.57851818 -1.21243429 0 0 Z M-9 5 C-10.08805146 7.3566226 -10.08805146 7.3566226 -10 10 C-8.43695474 12.47981752 -8.43695474 12.47981752 -6 14 C-3.44812019 13.92267031 -2.27324609 13.18844558 -0.1875 11.75 C1.25726665 9.99823764 1.25726665 9.99823764 0.875 7.4375 C0.15610832 4.6738389 0.15610832 4.6738389 -3 3 C-6.18490007 2.7226499 -6.18490007 2.7226499 -9 5 Z " fill="#030303" transform="translate(138,38)"/>
<path d="M0 0 C1.98 0.495 1.98 0.495 4 1 C4.95569868 7.64578161 4.92170608 13.76194816 4.15625 20.43359375 C3.83245931 23.11953635 3.83245931 23.11953635 5 26 C4.88714673 27.8790069 4.71264883 29.75465692 4.5 31.625 C4.04850053 36.28673199 4.07486474 40.44918845 4.84375 45.0625 C5.0203299 47.25209079 4.63462756 48.90946216 4 51 C3.01 51 2.02 51 1 51 C0.34 50.01 -0.32 49.02 -1 48 C-0.68770276 46.66158328 -0.35169068 45.32860925 0 44 C-0.38567131 41.31850007 -0.38567131 41.31850007 -1 39 C-0.01 38.505 -0.01 38.505 1 38 C0.34 37.01 -0.32 36.02 -1 35 C-1.24291992 31.87719727 -1.24291992 31.87719727 -1.23046875 28.06640625 C-1.23001053 27.39206039 -1.22955231 26.71771454 -1.2290802 26.02293396 C-1.22606254 24.59819782 -1.21819073 23.17346484 -1.20581055 21.7487793 C-1.18759578 19.5739363 -1.18530071 17.39952058 -1.18554688 15.22460938 C-1.14446079 3.64343802 -1.14446079 3.64343802 0 0 Z " fill="#676768" transform="translate(3,171)"/>
<path d="M0 0 C1.9375 0.9375 1.9375 0.9375 3.1875 3.5 C3.435 4.304375 3.6825 5.10875 3.9375 5.9375 C4.5975 5.9375 5.2575 5.9375 5.9375 5.9375 C6.5975 4.2875 7.2575 2.6375 7.9375 0.9375 C8.9275 1.2675 9.9175 1.5975 10.9375 1.9375 C11.88671875 3.8984375 11.88671875 3.8984375 12.625 6.3125 C12.87636719 7.10398438 13.12773438 7.89546875 13.38671875 8.7109375 C13.9375 10.9375 13.9375 10.9375 13.9375 13.9375 C12.9475 13.9375 11.9575 13.9375 10.9375 13.9375 C10.9375 13.2775 10.9375 12.6175 10.9375 11.9375 C9.6175 11.9375 8.2975 11.9375 6.9375 11.9375 C6.9375 12.5975 6.9375 13.2575 6.9375 13.9375 C6.36 13.73125 5.7825 13.525 5.1875 13.3125 C2.90992945 12.70621373 2.90992945 12.70621373 0.9375 13.9375 C-1.55342811 15.18296405 -2.47330733 14.7142578 -5.0625 13.9375 C-5.14332094 11.97983719 -5.20160778 10.02123272 -5.25 8.0625 C-5.28480469 6.97195312 -5.31960937 5.88140625 -5.35546875 4.7578125 C-5.25878906 3.82710937 -5.16210938 2.89640625 -5.0625 1.9375 C-2.0625 -0.0625 -2.0625 -0.0625 0 0 Z M-1.0625 3.9375 C-2.06467064 7.52077753 -2.06467064 7.52077753 -1.0625 10.9375 C-0.4025 10.9375 0.2575 10.9375 0.9375 10.9375 C0.9375 8.9575 0.9375 6.9775 0.9375 4.9375 C0.2775 4.6075 -0.3825 4.2775 -1.0625 3.9375 Z M3.9375 8.9375 C4.9375 10.9375 4.9375 10.9375 4.9375 10.9375 Z " fill="#020202" transform="translate(59.0625,173.0625)"/>
<path d="M0 0 C0.33 1.32 0.66 2.64 1 4 C1.66 4 2.32 4 3 4 C2.67 3.01 2.34 2.02 2 1 C3.65 1.33 5.3 1.66 7 2 C7.50559908 3.43554025 8.0042749 4.8735202 8.5 6.3125 C8.7784375 7.11300781 9.056875 7.91351563 9.34375 8.73828125 C10 11 10 11 10 14 C8.68 13.67 7.36 13.34 6 13 C6 12.34 6 11.68 6 11 C5.67 11.495 5.34 11.99 5 12.5 C1.82427253 14.88179561 -1.10246066 14.19168226 -5 14 C-5.06058594 13.39671875 -5.12117188 12.7934375 -5.18359375 12.171875 C-5.30927734 10.97304687 -5.30927734 10.97304687 -5.4375 9.75 C-5.51871094 8.96109375 -5.59992188 8.1721875 -5.68359375 7.359375 C-5.97634993 5.17635361 -6.42064419 3.1226818 -7 1 C-3.535 0.505 -3.535 0.505 0 0 Z M-1 4 C-2.00217064 7.58327753 -2.00217064 7.58327753 -1 11 C0.62831762 9.19038423 0.62831762 9.19038423 2 7 C1.67 6.01 1.34 5.02 1 4 C0.34 4 -0.32 4 -1 4 Z " fill="#020202" transform="translate(79,173)"/>
<path d="M0 0 C1.98 0.495 1.98 0.495 4 1 C5.0773541 8.49175465 4.8388516 15.48905184 4 23 C3.34 23 2.68 23 2 23 C2.33 23.99 2.66 24.98 3 26 C1.68 26.33 0.36 26.66 -1 27 C-1.02905924 23.2500163 -1.04681874 19.50006163 -1.0625 15.75 C-1.07087891 14.68652344 -1.07925781 13.62304688 -1.08789062 12.52734375 C-1.09111328 11.50253906 -1.09433594 10.47773438 -1.09765625 9.421875 C-1.10289307 8.47924805 -1.10812988 7.53662109 -1.11352539 6.56542969 C-1.00968082 4.21876563 -0.66706529 2.24355522 0 0 Z " fill="#555557" transform="translate(3,171)"/>
<path d="M0 0 C1.98 0.495 1.98 0.495 4 1 C4.33 2.98 4.66 4.96 5 7 C4.01 6.67 3.02 6.34 2 6 C2.01160156 6.58007812 2.02320313 7.16015625 2.03515625 7.7578125 C2.08762174 12.2998246 1.91751063 16.52713569 1 21 C0.34 20.67 -0.32 20.34 -1 20 C-1.02703562 17.41659616 -1.04685611 14.83347692 -1.0625 12.25 C-1.07087891 11.52039063 -1.07925781 10.79078125 -1.08789062 10.0390625 C-1.10391684 6.51329442 -0.95292713 3.38965084 0 0 Z " fill="#414143" transform="translate(3,171)"/>
<path d="M0 0 C2.12508244 3.18762365 2.5020163 5.26512223 3 9 C2.01 9.66 1.02 10.32 0 11 C-1.625 9.375 -1.625 9.375 -3 7 C-1.76923077 1.76923077 -1.76923077 1.76923077 0 0 Z " fill="#707070" transform="translate(5,212)"/>
<path d="M0 0 C0.66 0.33 1.32 0.66 2 1 C2 3.97 2 6.94 2 10 C1.01 9.67 0.02 9.34 -1 9 C-1.125 2.25 -1.125 2.25 0 0 Z " fill="#57575A" transform="translate(3,198)"/>
<path d="M0 0 C2.1385485 2.1385485 2.42655063 3.13275314 3 6 C2.01 6.33 1.02 6.66 0 7 C-0.33 6.01 -0.66 5.02 -1 4 C-1.66 3.67 -2.32 3.34 -3 3 C-2.01 2.01 -1.02 1.02 0 0 Z " fill="#0D0D0D" transform="translate(84,158)"/>
<path d="M0 0 C-0.9590625 0.433125 -0.9590625 0.433125 -1.9375 0.875 C-4.15206079 1.82823451 -4.15206079 1.82823451 -5 4 C-5 3.34 -5 2.68 -5 2 C-5.66 2 -6.32 2 -7 2 C-7 1.34 -7 0.68 -7 0 C-4.3333581 -1.33332095 -2.83319697 -0.67102033 0 0 Z " fill="#0F0F0F" transform="translate(92,156)"/>
<path d="M0 0 C0.33 0.66 0.66 1.32 1 2 C0.34 1.67 -0.32 1.34 -1 1 C-0.67 0.67 -0.34 0.34 0 0 Z " fill="#000000" transform="translate(146,178)"/>
<path d="M0 0 C2 1 2 1 2 1 Z " fill="#000000" transform="translate(146,188)"/>
<path d="M0 0 C2 1 2 1 2 1 Z " fill="#000000" transform="translate(78,179)"/>
<path d="M0 0 C2 1 2 1 2 1 Z " fill="#000000" transform="translate(150,167)"/>
<path d="M0 0 C2 1 2 1 2 1 Z " fill="#000000" transform="translate(53,42)"/>
<path d="" fill="#6D6D6D" transform="translate(0,0)"/>
<path d="" fill="#808080" transform="translate(0,0)"/>
<path d="" fill="#000000" transform="translate(0,0)"/>
<path d="" fill="#606060" transform="translate(0,0)"/>
<path d="" fill="#333333" transform="translate(0,0)"/>
<path d="" fill="#000000" transform="translate(0,0)"/>
<path d="" fill="#000000" transform="translate(0,0)"/>
<path d="" fill="#000000" transform="translate(0,0)"/>
<path d="" fill="#000000" transform="translate(0,0)"/>
<path d="" fill="#000000" transform="translate(0,0)"/>
<path d="" fill="#000000" transform="translate(0,0)"/>
<path d="" fill="#000000" transform="translate(0,0)"/>
<path d="" fill="#000000" transform="translate(0,0)"/>
<path d="" fill="#000000" transform="translate(0,0)"/>
<path d="" fill="#000000" transform="translate(0,0)"/>
<path d="" fill="#000000" transform="translate(0,0)"/>
<path d="" fill="#000000" transform="translate(0,0)"/>
<path d="" fill="#000000" transform="translate(0,0)"/>
<path d="" fill="#000000" transform="translate(0,0)"/>
<path d="" fill="#000000" transform="translate(0,0)"/>
<path d="" fill="#000000" transform="translate(0,0)"/>
<path d="" fill="#000000" transform="translate(0,0)"/>
<path d="" fill="#000000" transform="translate(0,0)"/>
<path d="" fill="#000000" transform="translate(0,0)"/>
<path d="" fill="#000000" transform="translate(0,0)"/>
<path d="" fill="#000000" transform="translate(0,0)"/>
<path d="" fill="#000000" transform="translate(0,0)"/>
<path d="" fill="#000000" transform="translate(0,0)"/>
<path d="" fill="#000000" transform="translate(0,0)"/>
<path d="" fill="#000000" transform="translate(0,0)"/>
<path d="" fill="#000000" transform="translate(0,0)"/>
<path d="" fill="#000000" transform="translate(0,0)"/>
<path d="" fill="#000000" transform="translate(0,0)"/>
<path d="" fill="#000000" transform="translate(0,0)"/>
<path d="" fill="#000000" transform="translate(0,0)"/>
<path d="" fill="#000000" transform="translate(0,0)"/>
<path d="" fill="#000000" transform="translate(0,0)"/>
<path d="" fill="#000000" transform="translate(0,0)"/>
<path d="" fill="#000000" transform="translate(0,0)"/>
<path d="" fill="#000000" transform="translate(0,0)"/>
<path d="" fill="#000000" transform="translate(0,0)"/>
<path d="" fill="#000000" transform="translate(0,0)"/>
<path d="" fill="#000000" transform="translate(0,0)"/>
<path d="" fill="#000000" transform="translate(0,0)"/>
<path d="" fill="#000000" transform="translate(0,0)"/>
<path d="" fill="#000000" transform="translate(0,0)"/>
<path d="" fill="#000000" transform="translate(0,0)"/>
<path d="" fill="#000000" transform="translate(0,0)"/>
<path d="" fill="#000000" transform="translate(0,0)"/>
<path d="" fill="#000000" transform="translate(0,0)"/>
<path d="" fill="#000000" transform="translate(0,0)"/>
<path d="" fill="#000000" transform="translate(0,0)"/>
<path d="" fill="#000000" transform="translate(0,0)"/>
<path d="" fill="#000000" transform="translate(0,0)"/>
<path d="" fill="#000000" transform="translate(0,0)"/>
<path d="" fill="#000000" transform="translate(0,0)"/>
<path d="" fill="#000000" transform="translate(0,0)"/>
<path d="" fill="#000000" transform="translate(0,0)"/>
<path d="" fill="#000000" transform="translate(0,0)"/>
<path d="" fill="#000000" transform="translate(0,0)"/>
<path d="" fill="#000000" transform="translate(0,0)"/>
<path d="" fill="#000000" transform="translate(0,0)"/>
<path d="" fill="#000000" transform="translate(0,0)"/>
<path d="" fill="#000000" transform="translate(0,0)"/>
<path d="" fill="#000000" transform="translate(0,0)"/>
<path d="" fill="#000000" transform="translate(0,0)"/>
<path d="" fill="#000000" transform="translate(0,0)"/>
<path d="" fill="#000000" transform="translate(0,0)"/>
<path d="" fill="#000000" transform="translate(0,0)"/>
<path d="" fill="#000000" transform="translate(0,0)"/>
<path d="" fill="#000000" transform="translate(0,0)"/>
<path d="" fill="#000000" transform="translate(0,0)"/>
<path d="" fill="#000000" transform="translate(0,0)"/>
<path d="" fill="#000000" transform="translate(0,0)"/>
<path d="" fill="#000000" transform="translate(0,0)"/>
<path d="" fill="#000000" transform="translate(0,0)"/>
<path d="" fill="#000000" transform="translate(0,0)"/>
<path d="" fill="#000000" transform="translate(0,0)"/>
<path d="" fill="#000000" transform="translate(0,0)"/>
<path d="" fill="#000000" transform="translate(0,0)"/>
<path d="" fill="#000000" transform="translate(0,0)"/>
<path d="" fill="#000000" transform="translate(0,0)"/>
<path d="" fill="#000000" transform="translate(0,0)"/>
<path d="" fill="#000000" transform="translate(0,0)"/>
<path d="" fill="#000000" transform="translate(0,0)"/>
<path d="" fill="#000000" transform="translate(0,0)"/>
<path d="" fill="#000000" transform="translate(0,0)"/>
<path d="" fill="#000000" transform="translate(0,0)"/>
<path d="" fill="#000000" transform="translate(0,0)"/>
<path d="" fill="#000000" transform="translate(0,0)"/>
<path d="" fill="#000000" transform="translate(0,0)"/>
<path d="" fill="#000000" transform="translate(0,0)"/>
<path d="" fill="#000000" transform="translate(0,0)"/>
<path d="" fill="#000000" transform="translate(0,0)"/>
<path d="" fill="#000000" transform="translate(0,0)"/>
<path d="" fill="#000000" transform="translate(0,0)"/>
<path d="" fill="#000000" transform="translate(0,0)"/>
<path d="" fill="#000000" transform="translate(0,0)"/>
<path d="" fill="#000000" transform="translate(0,0)"/>
<path d="" fill="#000000" transform="translate(0,0)"/>
<path d="" fill="#000000" transform="translate(0,0)"/>
</svg>
