<?xml version="1.0" encoding="UTF-8"?>
<svg version="1.1" xmlns="http://www.w3.org/2000/svg" width="291" height="173">
<path d="M0 0 C1.05445313 0.350625 2.10890625 0.70125 3.1953125 1.0625 C22.97764485 8.50024376 37.98050402 24.31677397 46.69433594 43.2956543 C49.32155722 49.34858117 50.89108483 55.49732145 52 62 C52.13019531 62.74894531 52.26039063 63.49789062 52.39453125 64.26953125 C55.31049556 83.98144997 49.3170902 104.82382886 38 121 C24.78009911 137.98835564 6.87217737 148.90242764 -14.42578125 152.59375 C-35.52155234 154.9915207 -56.77935708 150.9215888 -74 138 C-91.45920363 123.7764789 -102.86987573 105.73200286 -105.75 83.125 C-105.85448191 81.75144513 -105.9387781 80.37616181 -106 79 C-106.03996094 78.32324219 -106.07992187 77.64648438 -106.12109375 76.94921875 C-106.77676826 55.85192716 -98.96373647 36.5259445 -85 21 C-84.38511719 20.29101562 -83.77023438 19.58203125 -83.13671875 18.8515625 C-62.36031561 -3.65991499 -28.26580273 -9.40131732 0 0 Z " fill="#092B1D" transform="translate(172,12)"/>
<path d="M0 0 C5.61 0 11.22 0 17 0 C17 26.07 17 52.14 17 79 C-15.20385675 83.60055096 -15.20385675 83.60055096 -27.21484375 75.41015625 C-32.34806638 71.35524735 -35.64301273 66.39871691 -37 60 C-38.0348119 50.14404762 -36.46385929 42.56691671 -31.25 34.1875 C-23.76150708 26.90702077 -15.72761637 24.76028201 -5.453125 24.83203125 C-3 25 -3 25 0 26 C0 17.42 0 8.84 0 0 Z " fill="#FAFBFB" transform="translate(135,39)"/>
<path d="M0 0 C5.61 0 11.22 0 17 0 C17.07448479 7.50730247 17.12876082 15.01438697 17.16479492 22.52197266 C17.17982636 25.07279206 17.20025705 27.62358585 17.22631836 30.17431641 C17.26294972 33.85325463 17.27978346 37.53184935 17.29296875 41.2109375 C17.30845261 42.34050873 17.32393646 43.47007996 17.33988953 44.63388062 C17.34203835 54.87920748 15.74699729 64.04274671 8.3984375 71.66015625 C4.69987206 75.10617647 2.22150561 76.75802779 -3 77 C-6.4296875 75.78515625 -6.4296875 75.78515625 -9.875 74.0625 C-11.02742187 73.49660156 -12.17984375 72.93070312 -13.3671875 72.34765625 C-14.23601562 71.90292969 -15.10484375 71.45820313 -16 71 C-16 70.34 -16 69.68 -16 69 C-13.8299737 67.40773752 -11.55367772 66.04268098 -9.26171875 64.6328125 C-4.48213712 61.18226825 -2.48848608 56.72379482 -1.46508789 51.01733398 C-0.79360045 46.04168892 -0.76806381 41.04871782 -0.68359375 36.03515625 C-0.66281265 35.00184677 -0.64203156 33.96853729 -0.62062073 32.90391541 C-0.55556522 29.62350716 -0.49644596 26.34302315 -0.4375 23.0625 C-0.39427289 20.83007049 -0.35065729 18.59764846 -0.30664062 16.36523438 C-0.19992925 10.91023266 -0.09853942 5.4551552 0 0 Z " fill="#FAFCFB" transform="translate(162,65)"/>
<path d="M0 0 C0.88042969 0.00644531 1.76085937 0.01289062 2.66796875 0.01953125 C4.8125 0.1875 4.8125 0.1875 5.8125 1.1875 C5.90008003 3.18714982 5.91946576 5.1898611 5.91015625 7.19140625 C5.90693359 8.40634766 5.90371094 9.62128906 5.90039062 10.87304688 C5.89201172 12.15244141 5.88363281 13.43183594 5.875 14.75 C5.87048828 16.03326172 5.86597656 17.31652344 5.86132812 18.63867188 C5.84949545 21.82166022 5.83301068 25.00455762 5.8125 28.1875 C4.21756778 28.21802322 2.6224659 28.23976262 1.02734375 28.2578125 C0.13909912 28.27086426 -0.74914551 28.28391602 -1.66430664 28.29736328 C-5.20625765 28.1431419 -7.33384283 27.27554183 -10.1875 25.1875 C-13.99356809 20.11274254 -14.01171821 14.28309179 -13.1875 8.1875 C-10.11082825 1.92427537 -6.86643974 -0.11156697 0 0 Z " fill="#0E2D20" transform="translate(129.1875,77.8125)"/>
<path d="M0 0 C5.61 0 11.22 0 17 0 C17 5.94 17 11.88 17 18 C11.39 18 5.78 18 0 18 C0 12.06 0 6.12 0 0 Z " fill="#F6F9F7" transform="translate(162,39)"/>
<path d="M0 0 C0.66 0 1.32 0 2 0 C2 0.66 2 1.32 2 2 C2.9590625 2.3403125 2.9590625 2.3403125 3.9375 2.6875 C6 4 6 4 6.75 6.625 C6.8325 7.40875 6.915 8.1925 7 9 C7.9590625 9.1546875 7.9590625 9.1546875 8.9375 9.3125 C9.9584375 9.6528125 9.9584375 9.6528125 11 10 C11.33 10.99 11.66 11.98 12 13 C12.99 13.66 13.98 14.32 15 15 C16.05104383 16.63495707 17.05988318 18.29883624 18 20 C9.89086116 16.4139586 4.32223614 8.48205272 0 1 C0 0.67 0 0.34 0 0 Z " fill="#071810" transform="translate(78,127)"/>
<path d="M0 0 C0.66 0.33 1.32 0.66 2 1 C1.071875 1.763125 0.14375 2.52625 -0.8125 3.3125 C-2.53756073 4.73527205 -4.07073677 6.07922518 -5.5625 7.75 C-7.54953506 9.47785657 -9.43597759 9.65351048 -12 10 C-8.29909479 6.0747975 -4.45040344 3.05419844 0 0 Z " fill="#05170F" transform="translate(105,18)"/>
<path d="M0 0 C2.46254526 2.1413437 3.69050349 3.69870394 4 7 C3.01 8.485 3.01 8.485 2 10 C1.01 9.67 0.02 9.34 -1 9 C-0.7525 7.329375 -0.7525 7.329375 -0.5 5.625 C0.0455458 2.27967967 0.0455458 2.27967967 0 0 Z " fill="#051B11" transform="translate(211,43)"/>
<path d="M0 0 C0.33 0.66 0.66 1.32 1 2 C0.06421005 4.35981813 -0.93347808 6.69631264 -2 9 C-2.66 9 -3.32 9 -4 9 C-3.46930939 5.17902761 -2.50298434 2.93828597 0 0 Z " fill="#24362D" transform="translate(120,80)"/>
<path d="M0 0 C3.37503669 1.1858237 5.64722731 2.27573689 8 5 C5.125 4.75 5.125 4.75 2 4 C0.625 1.9375 0.625 1.9375 0 0 Z " fill="#06190F" transform="translate(182,17)"/>
</svg>
