<?xml version="1.0" encoding="UTF-8"?>
<svg version="1.1" xmlns="http://www.w3.org/2000/svg" width="232" height="217">
<path d="M0 0 C-1.11440652 3.34321955 -1.97472343 4.06019619 -4.625 6.25 C-9.65293971 10.52239958 -14.32308664 14.94578114 -18.5 20.0625 C-20.92802653 22.91543117 -23.44636658 25.12763684 -26.31640625 27.50390625 C-28.23584341 29.13371097 -28.23584341 29.13371097 -30.4375 31.9375 C-32.44073624 34.3316116 -34.21137703 36.11629071 -36.5625 38.1015625 C-41.45079061 42.32985887 -46.0049345 46.85811056 -50.5625 51.4375 C-51.37396484 52.24509766 -52.18542969 53.05269531 -53.02148438 53.88476562 C-53.82005859 54.68462891 -54.61863281 55.48449219 -55.44140625 56.30859375 C-56.50403687 57.37291626 -56.50403687 57.37291626 -57.58813477 58.45874023 C-59.53040287 60.50520938 -61.37973308 62.58111087 -63.22064209 64.7166748 C-66.64557371 68.63933637 -70.21342396 72.38003466 -73.8815918 76.07446289 C-74.85372116 77.05885849 -74.85372116 77.05885849 -75.8454895 78.06314087 C-77.96042962 80.2026112 -80.07924899 82.33817014 -82.19921875 84.47265625 C-82.92698832 85.20574949 -83.65475788 85.93884274 -84.40458107 86.69415092 C-88.24446823 90.56060555 -92.08791051 94.42348962 -95.93383789 98.28393555 C-99.11534846 101.47887021 -102.28939888 104.68095144 -105.45727539 107.8894043 C-109.29280781 111.77404373 -113.14027386 115.64646196 -116.99686623 119.51019096 C-118.46317875 120.9832365 -119.92521697 122.46054938 -121.38290977 123.94212532 C-123.4126614 126.00327061 -125.45737565 128.04831982 -127.5065918 130.09008789 C-128.10771286 130.70761429 -128.70883392 131.32514069 -129.32817078 131.96138 C-131.02250671 133.63050842 -131.02250671 133.63050842 -134 136 C-137.29850943 135.56774717 -138.89432182 134.47566562 -141.20800781 132.13256836 C-141.80832825 131.53202133 -142.40864868 130.9314743 -143.02716064 130.31272888 C-143.66272888 129.66167679 -144.29829712 129.01062469 -144.953125 128.33984375 C-145.61334656 127.67537735 -146.27356812 127.01091095 -146.95379639 126.3263092 C-149.0596764 124.20364437 -151.15488328 122.07078395 -153.25 119.9375 C-154.67639232 118.49606066 -156.1034677 117.05529691 -157.53125 115.61523438 C-161.02880594 112.08461168 -164.51682565 108.54480947 -168 105 C-166.54566093 101.74315618 -164.72735571 99.34599667 -162.36253357 96.68463135 C-161.60389008 95.82930313 -160.84524658 94.97397491 -160.06361389 94.09272766 C-158.81093971 92.69766243 -158.81093971 92.69766243 -157.53295898 91.27441406 C-157.09846436 90.78819517 -156.66396973 90.30197628 -156.21630859 89.80102348 C-147.5438535 80.09958725 -138.65726987 70.60091849 -129.69723415 61.16518021 C-124.01298575 55.17120729 -118.40389329 49.13315782 -112.94555664 42.93212891 C-78.32849843 3.70187505 -52.58737522 -8.46215574 0 0 Z " fill="#55C2EE" transform="translate(200,4)"/>
<path d="M0 0 C0.87914062 -0.00095673 1.75828125 -0.00191345 2.6640625 -0.00289917 C4.53352937 -0.00357992 6.4029986 -0.00173293 8.27246094 0.00244141 C11.059303 0.0076888 13.84597615 0.00254706 16.6328125 -0.00390625 C28.82512957 -0.00796819 40.95482635 0.40847597 53.125 1.1328125 C47.81485746 7.57971889 41.95373116 13.43230687 36.0390625 19.31640625 C34.97124655 20.38235359 33.90365378 21.44852455 32.83627319 22.51490784 C30.04707682 25.30031389 27.254889 28.08270179 24.46203613 30.86444092 C21.60436425 33.71182314 18.74957498 36.56209236 15.89453125 39.41210938 C10.30748158 44.98848331 4.71726366 50.56166744 -0.875 56.1328125 C0.89727854 59.94169812 3.11067807 62.32044678 6.1328125 65.265625 C6.61829559 65.74353485 7.10377869 66.2214447 7.60397339 66.71383667 C9.14790756 68.23342219 10.69811581 69.74634948 12.25 71.2578125 C14.29994816 73.25472844 16.34330242 75.25805593 18.3828125 77.265625 C19.2917627 78.15137207 20.20071289 79.03711914 21.13720703 79.94970703 C23.125 82.1328125 23.125 82.1328125 23.125 84.1328125 C23.785 84.1328125 24.445 84.1328125 25.125 84.1328125 C25.125 84.7928125 25.125 85.4528125 25.125 86.1328125 C25.785 86.1328125 26.445 86.1328125 27.125 86.1328125 C28.50219727 87.53344727 28.50219727 87.53344727 30.12890625 89.51171875 C34.49755185 94.65056891 39.25958176 99.34044244 44.0625 104.0703125 C45.78218872 105.76465577 47.49976647 107.46114527 49.21484375 109.16015625 C49.96628662 109.89999756 50.71772949 110.63983887 51.49194336 111.40209961 C53.125 113.1328125 53.125 113.1328125 53.125 114.1328125 C44.8231202 114.36554589 36.52262454 114.54270014 28.21827888 114.65093422 C24.36113605 114.70291025 20.50624016 114.77327137 16.65039062 114.88720703 C12.92190745 114.99667696 9.19557012 115.05581563 5.46560287 115.08158493 C4.05007023 115.09992173 2.63464213 115.13573329 1.22003555 115.19011307 C-4.94763293 115.41755993 -9.87142329 115.53946899 -15.04058838 111.91033936 C-17.58232839 109.4330135 -19.83250525 107.03415414 -21.875 104.1328125 C-21.875 103.4728125 -21.875 102.8128125 -21.875 102.1328125 C-22.431875 101.9059375 -22.98875 101.6790625 -23.5625 101.4453125 C-26.53659588 99.75731214 -28.59508865 97.66604733 -30.875 95.1328125 C-30.875 94.4728125 -30.875 93.8128125 -30.875 93.1328125 C-31.75723236 92.73855576 -31.75723236 92.73855576 -32.6572876 92.33633423 C-34.98212462 91.07467746 -36.49989754 89.7492619 -38.35839844 87.87646484 C-39.34897247 86.88566422 -39.34897247 86.88566422 -40.35955811 85.87484741 C-41.06074768 85.16333527 -41.76193726 84.45182312 -42.484375 83.71875 C-43.57458954 82.62429062 -43.57458954 82.62429062 -44.68682861 81.50772095 C-47.00429198 79.1790737 -49.3146995 76.84356424 -51.625 74.5078125 C-53.19615444 72.92662597 -54.76776371 71.34589125 -56.33984375 69.765625 C-60.19018653 65.8932456 -64.03476117 62.01521079 -67.875 58.1328125 C-66.28054686 54.25298125 -63.78450668 51.7822961 -60.84619141 48.8293457 C-60.33538528 48.31342865 -59.82457916 47.7975116 -59.29829407 47.26596069 C-57.61284953 45.56664601 -55.92010768 43.87483278 -54.2265625 42.18359375 C-53.05050958 41.00365327 -51.87468063 39.82348952 -50.69906616 38.64311218 C-48.23604426 36.17263418 -45.76918942 33.70606069 -43.29980469 31.24194336 C-40.1348302 28.08277093 -36.98138253 24.91236385 -33.8309269 21.73872089 C-31.40664865 19.2997192 -28.97548782 16.86767076 -26.54227829 14.43758202 C-25.37652861 13.2713187 -24.21314298 12.10268743 -23.05217361 10.93166542 C-21.42938072 9.29654894 -19.79734956 7.67124386 -18.16259766 6.0480957 C-17.23597321 5.12084183 -16.30934875 4.19358795 -15.35464478 3.23823547 C-10.71323268 -0.70270629 -5.86144352 -0.01420416 0 0 Z " fill="#54C2EE" transform="translate(146.875,98.8671875)"/>
<path d="M0 0 C3.8826895 1.58411906 6.51864365 4.22865638 9.421875 7.15625 C9.92672424 7.65918579 10.43157349 8.16212158 10.95172119 8.68029785 C12.01307997 9.74029986 13.07193419 10.80281488 14.12841797 11.86767578 C15.75139124 13.50140046 17.38481068 15.12413294 19.01953125 16.74609375 C20.05012146 17.77800476 21.08009152 18.81053559 22.109375 19.84375 C22.59992371 20.33025024 23.09047241 20.81675049 23.59588623 21.31799316 C27 24.77005651 27 24.77005651 27 27 C27.66 27 28.32 27 29 27 C29 27.66 29 28.32 29 29 C29.66 29 30.32 29 31 29 C32.37719727 30.40063477 32.37719727 30.40063477 34.00390625 32.37890625 C38.37255185 37.51775641 43.13458176 42.20762994 47.9375 46.9375 C49.65718872 48.63184327 51.37476647 50.32833277 53.08984375 52.02734375 C53.84128662 52.76718506 54.59272949 53.50702637 55.36694336 54.26928711 C57 56 57 56 57 57 C48.6981202 57.23273339 40.39762454 57.40988764 32.09327888 57.51812172 C28.23613605 57.57009775 24.38124016 57.64045887 20.52539062 57.75439453 C16.79690745 57.86386446 13.07057012 57.92300313 9.34060287 57.94877243 C7.92507023 57.96710923 6.50964213 58.00292079 5.09503555 58.05730057 C-1.07263293 58.28474743 -5.99642329 58.40665649 -11.16558838 54.77752686 C-13.70732839 52.300201 -15.95750525 49.90134164 -18 47 C-18 46.34 -18 45.68 -18 45 C-18.556875 44.773125 -19.11375 44.54625 -19.6875 44.3125 C-22.66159588 42.62449964 -24.72008865 40.53323483 -27 38 C-27 37.34 -27 36.68 -27 36 C-28.32 35.34 -29.64 34.68 -31 34 C-31 33.01 -31 32.02 -31 31 C-29.3524116 29.64316249 -27.68083079 28.31543279 -26 27 C-24.48286418 25.33591647 -23.04924896 23.62280199 -21.625 21.87890625 C-17.21090597 16.77511003 -12.12462693 12.337612 -7.109375 7.84179688 C-4.15625262 5.24113923 -4.15625262 5.24113923 -2 2 C-1.34 2 -0.68 2 0 2 C0 1.34 0 0.68 0 0 Z " fill="#03569D" transform="translate(143,156)"/>
<path d="M0 0 C2.79240086 1.27331544 4.82619844 2.58156846 6.97680664 4.765625 C7.80270042 5.59658691 7.80270042 5.59658691 8.64527893 6.44433594 C9.22768845 7.04020508 9.81009796 7.63607422 10.41015625 8.25 C11.0188707 8.86391602 11.62758514 9.47783203 12.25474548 10.11035156 C14.19548244 12.0688709 16.12939423 14.0339504 18.0625 16 C20.00002935 17.96517057 21.93900537 19.92885662 23.88096619 21.88964844 C25.08798756 23.10890033 26.29232559 24.33081584 27.4936676 25.55566406 C29.8992061 27.98990024 32.14258002 30.09505335 35 32 C34.34 32 33.68 32 33 32 C33 32.66 33 33.32 33 34 C32.34 34 31.68 34 31 34 C30.78988281 34.54785156 30.57976562 35.09570312 30.36328125 35.66015625 C28.50890669 38.84287936 25.92338549 41.032435 23.1875 43.4375 C18.15744739 47.92040226 13.22050725 52.39949255 8.9375 57.625 C6.82297178 60.13292882 4.76716181 62.1907019 2 64 C-0.85779017 62.70280076 -2.91008536 61.3363174 -5.11621094 59.11083984 C-5.69651062 58.5303891 -6.2768103 57.94993835 -6.87469482 57.35189819 C-7.48838928 56.72788116 -8.10208374 56.10386414 -8.734375 55.4609375 C-9.37240051 54.82008209 -10.01042603 54.17922668 -10.66778564 53.51895142 C-12.69994069 51.47562179 -14.72502218 49.42544018 -16.75 47.375 C-18.1284453 45.9865214 -19.50734636 44.5984951 -20.88671875 43.2109375 C-24.26311894 39.81251303 -27.63319288 36.40792746 -31 33 C-29.70280076 30.14220983 -28.3363174 28.08991464 -26.11083984 25.88378906 C-25.5303891 25.30348938 -24.94993835 24.7231897 -24.35189819 24.12530518 C-23.72788116 23.51161072 -23.10386414 22.89791626 -22.4609375 22.265625 C-21.82008209 21.62759949 -21.17922668 20.98957397 -20.51895142 20.33221436 C-18.47562179 18.30005931 -16.42544018 16.27497782 -14.375 14.25 C-12.9865214 12.8715547 -11.5984951 11.49265364 -10.2109375 10.11328125 C-6.81251303 6.73688106 -3.40792746 3.36680712 0 0 Z " fill="#37B1E4" transform="translate(110,124)"/>
<path d="M0 0 C1 3 1 3 0.125 4.875 C-0.24625 5.57625 -0.6175 6.2775 -1 7 C-1.13148438 8.23169922 -1.13148438 8.23169922 -1.265625 9.48828125 C-2 12 -2 12 -4.1796875 13.36328125 C-5.06914063 13.67652344 -5.95859375 13.98976562 -6.875 14.3125 C-7.75929688 14.63863281 -8.64359375 14.96476563 -9.5546875 15.30078125 C-12 16 -12 16 -15 16 C-12.79988561 11.23482334 -5.68046103 0 0 0 Z " fill="#034680" transform="translate(130,171)"/>
<path d="M0 0 C3.91841827 1.30613942 6.32640809 2.83129848 9 6 C9 6.66 9 7.32 9 8 C9.66 8 10.32 8 11 8 C11 8.66 11 9.32 11 10 C30.8 9.67 50.6 9.34 71 9 C71.33 8.34 71.66 7.68 72 7 C72.99 8.32 73.98 9.64 75 11 C66.6981202 11.23273339 58.39762454 11.40988764 50.09327888 11.51812172 C46.23613605 11.57009775 42.38124016 11.64045887 38.52539062 11.75439453 C34.79690745 11.86386446 31.07057012 11.92300313 27.34060287 11.94877243 C25.92507023 11.96710923 24.50964213 12.00292079 23.09503555 12.05730057 C16.91035181 12.2853749 11.99410432 12.42215222 6.83441162 8.74237061 C4.3276966 6.27456284 2.08137672 3.83363064 0 1 C0 0.67 0 0.34 0 0 Z " fill="#194774" transform="translate(125,202)"/>
<path d="M0 0 C2.97 0.33 5.94 0.66 9 1 C9 2.32 9 3.64 9 5 C6.5 7.25 6.5 7.25 4 9 C0.83884224 7.63016497 0.0072908 7.0109362 -2 4 C-1.34 3.34 -0.68 2.68 0 2 C0 1.34 0 0.68 0 0 Z " fill="#3BABDC" transform="translate(108,179)"/>
<path d="M0 0 C0.33 0.66 0.66 1.32 1 2 C2.65 1.67 4.3 1.34 6 1 C5.34 2.65 4.68 4.3 4 6 C4.66 6.33 5.32 6.66 6 7 C6 8.32 6 9.64 6 11 C6.99 11.33 7.98 11.66 9 12 C10.1875 14.0625 10.1875 14.0625 11 16 C7.18063472 14.44396229 4.73955562 12.04395069 2 9 C2 8.34 2 7.68 2 7 C0.68 6.34 -0.64 5.68 -2 5 C-2 2 -2 2 0 0 Z " fill="#0E528C" transform="translate(114,185)"/>
<path d="M0 0 C1 3 1 3 -0.4375 6.1875 C-1.2109375 7.5796875 -1.2109375 7.5796875 -2 9 C-2.99 8.67 -3.98 8.34 -5 8 C-5 8.66 -5 9.32 -5 10 C-7.31 10.33 -9.62 10.66 -12 11 C-3.04651163 0 -3.04651163 0 0 0 Z " fill="#064B80" transform="translate(130,171)"/>
<path d="M0 0 C4.39333304 1.19818174 7.18461404 2.3504256 10 6 C10.75 8.75 10.75 8.75 11 11 C6.86378916 7.6189962 3.18683431 4.33409466 0 0 Z " fill="#46A7CF" transform="translate(93,170)"/>
<path d="M0 0 C7.48291572 6.15034169 7.48291572 6.15034169 10 10 C9.29875 9.690625 8.5975 9.38125 7.875 9.0625 C4.91063343 7.96697322 2.12301892 7.43577008 -1 7 C-0.67 4.69 -0.34 2.38 0 0 Z " fill="#0D4C87" transform="translate(186,199)"/>
<path d="M0 0 C1.65 0.33 3.3 0.66 5 1 C1.6189962 5.13621084 -1.66590534 8.81316569 -6 12 C-6 9 -6 9 -4.625 7.3125 C-3 6 -3 6 -1 6 C-0.67 4.02 -0.34 2.04 0 0 Z " fill="#60B9DB" transform="translate(192,102)"/>
<path d="M0 0 C0.33 0.99 0.66 1.98 1 3 C0.48050781 3.44730469 -0.03898437 3.89460938 -0.57421875 4.35546875 C-4.52679654 7.78201031 -8.35827082 11.24446679 -12 15 C-12.66 14.67 -13.32 14.34 -14 14 C-9.38 9.38 -4.76 4.76 0 0 Z " fill="#64B5D9" transform="translate(74,65)"/>
<path d="M0 0 C0.33 0.99 0.66 1.98 1 3 C1.66 3 2.32 3 3 3 C3.0825 3.5775 3.165 4.155 3.25 4.75 C4.20531013 7.6159304 5.78469173 8.9990764 8 11 C7.67 11.66 7.34 12.32 7 13 C4.03 10.03 1.06 7.06 -2 4 C-1.34 2.68 -0.68 1.36 0 0 Z " fill="#48A4CA" transform="translate(81,153)"/>
<path d="M0 0 C0 0.99 0 1.98 0 3 C-0.495 3.45375 -0.99 3.9075 -1.5 4.375 C-3.27889899 5.96224523 -3.27889899 5.96224523 -3.1875 8.6875 C-3.125625 9.450625 -3.06375 10.21375 -3 11 C-3.66 11 -4.32 11 -5 11 C-5 10.34 -5 9.68 -5 9 C-6.32 9.33 -7.64 9.66 -9 10 C-8.06409496 8.8944811 -7.12620142 7.79064547 -6.1875 6.6875 C-5.66542969 6.07261719 -5.14335938 5.45773438 -4.60546875 4.82421875 C-3.12827531 3.14575321 -1.59960869 1.56117966 0 0 Z " fill="#65B7DF" transform="translate(43,96)"/>
<path d="M0 0 C0 0.66 0 1.32 0 2 C-0.66 2 -1.32 2 -2 2 C-2.33 3.32 -2.66 4.64 -3 6 C-4.65 6.33 -6.3 6.66 -8 7 C-6.47663111 3.31852519 -4.31953005 0 0 0 Z " fill="#023765" transform="translate(123,180)"/>
<path d="M0 0 C1.1055189 0.93590504 2.20935453 1.87379858 3.3125 2.8125 C3.92738281 3.33457031 4.54226562 3.85664063 5.17578125 4.39453125 C6.85424679 5.87172469 8.43882034 7.40039131 10 9 C9.67 9.66 9.34 10.32 9 11 C8.38125 10.525625 7.7625 10.05125 7.125 9.5625 C5.09294454 7.97582559 5.09294454 7.97582559 3 7 C0 2.5 0 2.5 0 0 Z " fill="#094F80" transform="translate(160,172)"/>
<path d="M0 0 C3.91841827 1.30613942 6.32640809 2.83129848 9 6 C9 6.66 9 7.32 9 8 C9.66 8.33 10.32 8.66 11 9 C7.40303663 8.42703238 5.74677205 7.10347171 3.25 4.5 C2.63640625 3.8709375 2.0228125 3.241875 1.390625 2.59375 C0 1 0 1 0 0 Z " fill="#195083" transform="translate(125,202)"/>
<path d="M0 0 C0.66 0.33 1.32 0.66 2 1 C-0.97 3.97 -3.94 6.94 -7 10 C-7 7 -7 7 -6 4 C-3.5 2.375 -3.5 2.375 -1 1 C-0.67 0.67 -0.34 0.34 0 0 Z " fill="#63B6D5" transform="translate(162,136)"/>
<path d="M0 0 C0.99 0.33 1.98 0.66 3 1 C2.02433888 2.16959987 1.044375 3.33561177 0.0625 4.5 C-0.48277344 5.1496875 -1.02804688 5.799375 -1.58984375 6.46875 C-2.05519531 6.9740625 -2.52054688 7.479375 -3 8 C-3.33 8 -3.66 8 -4 8 C-4 6.35 -4 4.7 -4 3 C-2.68 3 -1.36 3 0 3 C0 2.01 0 1.02 0 0 Z " fill="#5BBAE4" transform="translate(168,128)"/>
<path d="M0 0 C0.99 0 1.98 0 3 0 C1.60667426 3.36720387 0.0210714 4.9859524 -3 7 C-2.25 2.25 -2.25 2.25 0 0 Z " fill="#42CEE9" transform="translate(78,123)"/>
<path d="M0 0 C1.32 0.33 2.64 0.66 4 1 C2.35 2.98 0.7 4.96 -1 7 C-2 4 -2 4 -1.0625 1.8125 C-0.5365625 0.9153125 -0.5365625 0.9153125 0 0 Z " fill="#52C0E2" transform="translate(148,51)"/>
<path d="M0 0 C1.32 0.33 2.64 0.66 4 1 C2.35 2.65 0.7 4.3 -1 6 C-1 3 -1 3 0 0 Z " fill="#5ABCE3" transform="translate(140,59)"/>
<path d="M0 0 C0.99 0.33 1.98 0.66 3 1 C-0.465 3.97 -0.465 3.97 -4 7 C-3.04065919 3.16263678 -2.76390737 2.40339772 0 0 Z " fill="#5CBCE2" transform="translate(157,44)"/>
<path d="M0 0 C2.31 1.98 4.62 3.96 7 6 C5.68 6.33 4.36 6.66 3 7 C0 2.25 0 2.25 0 0 Z " fill="#0F4C7D" transform="translate(153,165)"/>
<path d="M0 0 C0.99 0 1.98 0 3 0 C3 2 3 2 1.125 4.125 C-1 6 -1 6 -3 6 C-2.42655063 3.13275314 -2.1385485 2.1385485 0 0 Z " fill="#4CC8E5" transform="translate(168,33)"/>
</svg>
