<?xml version="1.0" encoding="UTF-8"?>
<svg version="1.1" xmlns="http://www.w3.org/2000/svg" width="305" height="165">
<path d="M0 0 C0.99 0.763125 1.98 1.52625 3 2.3125 C3.56460938 2.74433594 4.12921875 3.17617188 4.7109375 3.62109375 C6.19029141 4.79138076 7.60125443 6.04696829 9 7.3125 C9 7.9725 9 8.6325 9 9.3125 C9.66 9.3125 10.32 9.3125 11 9.3125 C11.33 8.3225 11.66 7.3325 12 6.3125 C14.4375 6.6875 14.4375 6.6875 17 7.3125 C17.495 8.3025 17.495 8.3025 18 9.3125 C21.04581269 9.78204261 21.04581269 9.78204261 24.5625 9.9375 C25.76003906 10.01226562 26.95757812 10.08703125 28.19140625 10.1640625 C29.11824219 10.21304688 30.04507813 10.26203125 31 10.3125 C30.67 12.9525 30.34 15.5925 30 18.3125 C36.05061546 18.33722278 42.10120149 18.35537086 48.15185547 18.36743164 C50.21012891 18.37245973 52.26839878 18.37928306 54.32666016 18.38793945 C57.28549074 18.40007166 60.24427408 18.40574357 63.203125 18.41015625 C64.12305237 18.41531754 65.04297974 18.42047882 65.99078369 18.42579651 C66.8513739 18.42587204 67.71196411 18.42594757 68.59863281 18.42602539 C69.73114471 18.42935631 69.73114471 18.42935631 70.88653564 18.43275452 C73.04423062 18.30998331 74.91518506 17.86012814 77 17.3125 C78.91561254 17.24561409 80.83335592 17.22718281 82.75 17.25 C83.73484375 17.25902344 84.7196875 17.26804687 85.734375 17.27734375 C86.85585938 17.29474609 86.85585938 17.29474609 88 17.3125 C88.66 15.0025 89.32 12.6925 90 10.3125 C94.95 10.3125 99.9 10.3125 105 10.3125 C104.34 12.9525 103.68 15.5925 103 18.3125 C103.98305618 18.30583817 104.96611237 18.29917633 105.97895813 18.29231262 C115.23444296 18.23154942 124.48988743 18.18655046 133.74552631 18.15706348 C138.50418205 18.1413944 143.26267703 18.12013351 148.02124023 18.08618164 C152.61183952 18.05363242 157.20228398 18.03565635 161.79298973 18.02786827 C163.5461286 18.02231677 165.29925881 18.01147625 167.05233192 17.99530983 C169.50423246 17.97359425 171.95548978 17.97053057 174.4074707 17.97192383 C175.13539322 17.961138 175.86331573 17.95035217 176.61329651 17.9392395 C181.5203893 17.96949599 181.5203893 17.96949599 183.96330261 19.71659851 C186.44873735 23.5426996 184.26727458 29.03475505 183.39453125 33.20703125 C182.13654669 38.39882389 181.29309201 41.84500261 177 45.3125 C171.96105155 46.30376855 167.1214021 46.41919588 162 46.3125 C161.01 48.6225 160.02 50.9325 159 53.3125 C154.38 53.3125 149.76 53.3125 145 53.3125 C145.33 51.0025 145.66 48.6925 146 46.3125 C107.06 45.9825 68.12 45.6525 28 45.3125 C29.125 36.3125 29.125 36.3125 30.0625 32.3125 C30.23910156 31.549375 30.41570312 30.78625 30.59765625 30 C30.73042969 29.443125 30.86320312 28.88625 31 28.3125 C29.68 28.3125 28.36 28.3125 27 28.3125 C26.81824219 29.52486328 26.81824219 29.52486328 26.6328125 30.76171875 C26.46523437 31.83035156 26.29765625 32.89898437 26.125 34 C25.96257812 35.05574219 25.80015625 36.11148438 25.6328125 37.19921875 C25 40.3125 25 40.3125 23 45.3125 C18.38 45.3125 13.76 45.3125 9 45.3125 C10.485 37.3925 10.485 37.3925 12 29.3125 C9.69 29.3125 7.38 29.3125 5 29.3125 C4.773125 29.951875 4.54625 30.59125 4.3125 31.25 C3 33.3125 3 33.3125 0.4375 34.0625 C-2 34.3125 -2 34.3125 -3 34.3125 C-2.7215625 35.983125 -2.7215625 35.983125 -2.4375 37.6875 C-2 41.3125 -2 41.3125 -3 43.3125 C-5.25946584 43.66807331 -7.4899777 43.75580506 -9.7734375 43.87109375 C-12.44313426 44.40034942 -13.21125511 45.33357247 -15 47.3125 C-17.375 47.9375 -17.375 47.9375 -20 47.3125 C-21.96732885 45.15755123 -23.50229079 42.81080643 -25 40.3125 C-25.66 42.2925 -26.32 44.2725 -27 46.3125 C-31.25648179 47.56440641 -33.9875739 47.22752155 -38 45.3125 C-38.5625 43.4375 -38.5625 43.4375 -39 41.3125 C-40.2684375 40.3534375 -40.2684375 40.3534375 -41.5625 39.375 C-44 37.3125 -44 37.3125 -44.3125 34.5625 C-44.209375 33.82 -44.10625 33.0775 -44 32.3125 C-43.34 32.3125 -42.68 32.3125 -42 32.3125 C-41.505 27.8575 -41.505 27.8575 -41 23.3125 C-41.99 22.9825 -42.98 22.6525 -44 22.3125 C-44.6875 19.5 -44.6875 19.5 -45 16.3125 C-43.6875 14.4375 -43.6875 14.4375 -42 13.3125 C-41.34 13.3125 -40.68 13.3125 -40 13.3125 C-39.34 13.9725 -38.68 14.6325 -38 15.3125 C-37.38125 14.549375 -36.7625 13.78625 -36.125 13 C-33.66692129 10.50014092 -31.56851533 9.76582271 -28.1875 8.9375 C-23.18592647 7.65180576 -20.4939514 5.40990555 -16.8046875 1.8984375 C-11.94793227 -2.36962013 -5.56315367 -3.12927394 0 0 Z M82 28.3125 C81.67 30.6225 81.34 32.9325 81 35.3125 C82.32 35.3125 83.64 35.3125 85 35.3125 C85.33 33.0025 85.66 30.6925 86 28.3125 C84.68 28.3125 83.36 28.3125 82 28.3125 Z M109 28.3125 C108.34 30.6225 107.68 32.9325 107 35.3125 C108.98 35.3125 110.96 35.3125 113 35.3125 C113.33 33.0025 113.66 30.6925 114 28.3125 C112.35 28.3125 110.7 28.3125 109 28.3125 Z M137 28.3125 C136.67 30.6225 136.34 32.9325 136 35.3125 C137.65 35.3125 139.3 35.3125 141 35.3125 C141.33 33.0025 141.66 30.6925 142 28.3125 C140.35 28.3125 138.7 28.3125 137 28.3125 Z M165 28.3125 C164.67 30.6225 164.34 32.9325 164 35.3125 C165.32 35.3125 166.64 35.3125 168 35.3125 C168.33 33.0025 168.66 30.6925 169 28.3125 C167.68 28.3125 166.36 28.3125 165 28.3125 Z " fill="#03070B" transform="translate(84,56.6875)"/>
<path d="M0 0 C4.95 0 9.9 0 15 0 C14.34 2.64 13.68 5.28 13 8 C14.47458427 7.99000725 14.47458427 7.99000725 15.97895813 7.97981262 C25.23444296 7.91904942 34.48988743 7.87405046 43.74552631 7.84456348 C48.50418205 7.8288944 53.26267703 7.80763351 58.02124023 7.77368164 C62.61183952 7.74113242 67.20228398 7.72315635 71.79298973 7.71536827 C73.5461286 7.70981677 75.29925881 7.69897625 77.05233192 7.68280983 C79.50423246 7.66109425 81.95548978 7.65803057 84.4074707 7.65942383 C85.13539322 7.648638 85.86331573 7.63785217 86.61329651 7.6267395 C91.5203893 7.65699599 91.5203893 7.65699599 93.96330261 9.40409851 C96.44873735 13.2301996 94.26727458 18.72225505 93.39453125 22.89453125 C92.13654669 28.08632389 91.29309201 31.53250261 87 35 C81.96105155 35.99126855 77.1214021 36.10669588 72 36 C71.01 38.31 70.02 40.62 69 43 C64.38 43 59.76 43 55 43 C55.33 40.69 55.66 38.38 56 36 C49.4 36 42.8 36 36 36 C36 35.34 36 34.68 36 34 C34.35 33.67 32.7 33.34 31 33 C31.45375 32.195625 31.9075 31.39125 32.375 30.5625 C35.34809488 24.04456123 36.11285438 18.14455012 36 11 C32.39610336 10.88398996 28.79268533 10.81281592 25.1875 10.75 C24.16333984 10.71648437 23.13917969 10.68296875 22.08398438 10.6484375 C20.60961914 10.62910156 20.60961914 10.62910156 19.10546875 10.609375 C18.19949951 10.58842773 17.29353027 10.56748047 16.36010742 10.54589844 C13.85105266 10.79008117 13.85105266 10.79008117 12.22387695 12.88378906 C11.02762071 14.95224091 10.41816561 16.65827257 10 19 C9.34 19 8.68 19 8 19 C7.92652344 19.88751953 7.92652344 19.88751953 7.8515625 20.79296875 C7.77679688 21.58316406 7.70203125 22.37335938 7.625 23.1875 C7.55539063 23.96480469 7.48578125 24.74210937 7.4140625 25.54296875 C7 28 7 28 5 33 C-2.59 33 -10.18 33 -18 33 C-18.66 31.68 -19.32 30.36 -20 29 C-20.33 30.32 -20.66 31.64 -21 33 C-29.25 33 -37.5 33 -46 33 C-46.33 32.01 -46.66 31.02 -47 30 C-47.66 29.67 -48.32 29.34 -49 29 C-48.77183594 28.11957031 -48.54367188 27.23914063 -48.30859375 26.33203125 C-48.02113281 25.17058594 -47.73367187 24.00914063 -47.4375 22.8125 C-47.00244141 21.08966797 -47.00244141 21.08966797 -46.55859375 19.33203125 C-45.74906042 15.71401292 -45.74906042 15.71401292 -47 11 C-52.28 10.67 -57.56 10.34 -63 10 C-62.67 9.01 -62.34 8.02 -62 7 C-62 7.66 -62 8.32 -62 9 C-61.42568237 8.83701416 -60.85136475 8.67402832 -60.25964355 8.50610352 C-58.0278923 8.00624718 -56.12708842 7.88545519 -53.84570312 7.90234375 C-52.63424622 7.90729858 -52.63424622 7.90729858 -51.39831543 7.91235352 C-50.53468384 7.92065186 -49.67105225 7.9289502 -48.78125 7.9375 C-47.43891296 7.94317993 -47.43891296 7.94317993 -46.06945801 7.94897461 C-42.24595556 7.9653108 -38.42256046 7.99347794 -34.59912109 8.02050781 C-31.80566908 8.0385761 -29.01223431 8.05067972 -26.21875 8.0625 C-24.92330261 8.07494751 -24.92330261 8.07494751 -23.60168457 8.08764648 C-22.39022766 8.09260132 -22.39022766 8.09260132 -21.15429688 8.09765625 C-20.44688354 8.10289307 -19.73947021 8.10812988 -19.01062012 8.11352539 C-16.89431097 7.99403249 -15.04633851 7.53424709 -13 7 C-11.08438746 6.93311409 -9.16664408 6.91468281 -7.25 6.9375 C-6.26515625 6.94652344 -5.2803125 6.95554687 -4.265625 6.96484375 C-3.14414063 6.98224609 -3.14414063 6.98224609 -2 7 C-1.34 4.69 -0.68 2.38 0 0 Z M-8 18 C-8.33 20.31 -8.66 22.62 -9 25 C-7.68 25 -6.36 25 -5 25 C-4.67 22.69 -4.34 20.38 -4 18 C-5.32 18 -6.64 18 -8 18 Z M47 18 C46.67 20.31 46.34 22.62 46 25 C47.65 25 49.3 25 51 25 C51.33 22.69 51.66 20.38 52 18 C50.35 18 48.7 18 47 18 Z M75 18 C74.67 20.31 74.34 22.62 74 25 C75.32 25 76.64 25 78 25 C78.33 22.69 78.66 20.38 79 18 C77.68 18 76.36 18 75 18 Z " fill="#041019" transform="translate(174,67)"/>
<path d="M0 0 C3.74216147 2.23785509 7.0951644 4.73801248 10 8 C10 12 10 12 9 14 C10.11375 12.7625 10.11375 12.7625 11.25 11.5 C14 9 14 9 18 9 C19.72814239 12.45628479 19.35633298 16.21396205 19 20 C17.80640355 23.28239023 16.97344927 25.26152124 14.1875 27.375 C11.3986387 28.17181751 8.88447209 28.13111237 6 28 C5.34 29.32 4.68 30.64 4 32 C0.65626525 31.44271087 -2.03312999 30.64826111 -5 29 C-4.690625 29.495 -4.38125 29.99 -4.0625 30.5 C-2.56845789 34.01539321 -2.3122533 37.19050969 -2 41 C-3 42 -3 42 -5.4375 42.0625 C-6.283125 42.041875 -7.12875 42.02125 -8 42 C-10.27770623 41.78468592 -10.27770623 41.78468592 -12.4375 44.0625 C-13.283125 44.701875 -14.12875 45.34125 -15 46 C-16.485 45.505 -16.485 45.505 -18 45 C-19.1875 42.4375 -19.1875 42.4375 -20 40 C-18.68 39.34 -17.36 38.68 -16 38 C-17.18424326 36.58422523 -17.18424326 36.58422523 -20.5625 36.9375 C-22.2640625 36.9684375 -22.2640625 36.9684375 -24 37 C-24.99 39.64 -25.98 42.28 -27 45 C-29.31 44.67 -31.62 44.34 -34 44 C-33.938125 42.96875 -33.87625 41.9375 -33.8125 40.875 C-33.70966614 37.05223808 -33.70966614 37.05223808 -35.5 34.3125 C-37.77840375 29.28102504 -37.81101318 24.43155616 -37 19 C-35.14989767 15.29979534 -32.42423369 13.28282246 -29 11 C-26.3125 10.875 -26.3125 10.875 -24 11 C-24.680625 12.051875 -25.36125 13.10375 -26.0625 14.1875 C-27.43648038 16.61876316 -28.00839109 17.6643565 -27.9375 20.5 C-27.628125 21.325 -27.31875 22.15 -27 23 C-26.443125 24.85625 -26.443125 24.85625 -25.875 26.75 C-24.30450307 30.29194052 -24.30450307 30.29194052 -20.75 31.125 C-16.32105679 30.97736856 -13.91134125 29.99558227 -10 28 C-10.33 25.36 -10.66 22.72 -11 20 C-10.6875 22.3125 -10.6875 22.3125 -11 25 C-13.3125 26.6875 -13.3125 26.6875 -16 28 C-16.99 28.66 -17.98 29.32 -19 30 C-21.6875 29.625 -21.6875 29.625 -24 29 C-25.125 25.25 -25.125 25.25 -24 23 C-24.99 22.67 -25.98 22.34 -27 22 C-26.73672346 15.54972485 -24.49335977 12.52084209 -20 8 C-17.525 8.495 -17.525 8.495 -15 9 C-15.33 8.01 -15.66 7.02 -16 6 C-14.02 5.34 -12.04 4.68 -10 4 C-10 3.01 -10 2.02 -10 1 C-6.62993117 -0.68503441 -3.59827744 -0.83446895 0 0 Z " fill="#E7E73D" transform="translate(82,57)"/>
<path d="M0 0 C2.31 0 4.62 0 7 0 C6.33325817 6.44011997 5.03214411 12.58883161 3.5 18.875 C3.27441406 19.82375 3.04882812 20.7725 2.81640625 21.75 C1.13699777 28.72600446 1.13699777 28.72600446 0 31 C-7.59 31 -15.18 31 -23 31 C-23.66 29.68 -24.32 28.36 -25 27 C-25.33 28.32 -25.66 29.64 -26 31 C-30.14581887 31.02886751 -34.29161216 31.04675327 -38.4375 31.0625 C-40.21350586 31.07506836 -40.21350586 31.07506836 -42.02539062 31.08789062 C-43.15009766 31.09111328 -44.27480469 31.09433594 -45.43359375 31.09765625 C-46.99678345 31.10551147 -46.99678345 31.10551147 -48.59155273 31.11352539 C-51 31 -51 31 -52 30 C-52.25983398 25.49621098 -52.13115848 22.02552157 -50 18 C-47.703463 16.8517315 -46.41686833 16.88438825 -43.8671875 16.90234375 C-43.06152344 16.90556641 -42.25585938 16.90878906 -41.42578125 16.91210938 C-40.58402344 16.92048828 -39.74226562 16.92886719 -38.875 16.9375 C-38.02550781 16.94201172 -37.17601562 16.94652344 -36.30078125 16.95117188 C-34.20049091 16.96297126 -32.1002367 16.98090694 -30 17 C-30.33 16.01 -30.66 15.02 -31 14 C-36.94 13.67 -42.88 13.34 -49 13 C-48.67 11.35 -48.34 9.7 -48 8 C-44.06263877 7.91303823 -40.12552372 7.85962165 -36.1875 7.8125 C-34.50817383 7.77479492 -34.50817383 7.77479492 -32.79492188 7.73632812 C-31.72177734 7.72666016 -30.64863281 7.71699219 -29.54296875 7.70703125 C-28.0583313 7.68346558 -28.0583313 7.68346558 -26.54370117 7.65942383 C-23.6300787 8.04952877 -22.77502198 8.72008288 -21 11 C-20.5877417 10.51104248 -20.1754834 10.02208496 -19.75073242 9.51831055 C-17.62846375 7.67778776 -16.75064629 7.64472226 -13.98828125 7.70703125 C-13.23095703 7.71669922 -12.47363281 7.72636719 -11.69335938 7.73632812 C-10.90767578 7.76146484 -10.12199219 7.78660156 -9.3125 7.8125 C-8.51521484 7.82603516 -7.71792969 7.83957031 -6.89648438 7.85351562 C-4.93070033 7.88882911 -2.96526418 7.94263553 -1 8 C-0.67 5.36 -0.34 2.72 0 0 Z M-13 16 C-13.33 18.31 -13.66 20.62 -14 23 C-12.68 23 -11.36 23 -10 23 C-9.67 20.69 -9.34 18.38 -9 16 C-10.32 16 -11.64 16 -13 16 Z " fill="#6CB8DD" transform="translate(179,69)"/>
<path d="M0 0 C1.02996094 -0.00128906 2.05992187 -0.00257812 3.12109375 -0.00390625 C4.74724609 0.00189453 4.74724609 0.00189453 6.40625 0.0078125 C7.49035156 0.00394531 8.57445312 0.00007813 9.69140625 -0.00390625 C10.72136719 -0.00261719 11.75132812 -0.00132813 12.8125 0 C14.24045898 0.00169189 14.24045898 0.00169189 15.69726562 0.00341797 C17.90625 0.1328125 17.90625 0.1328125 18.90625 1.1328125 C19.39928909 7.78884026 18.93227286 16.3570586 14.59765625 21.765625 C12.51851979 23.44622029 11.5358056 23.48535887 8.89453125 23.42578125 C8.13720703 23.41611328 7.37988281 23.40644531 6.59960938 23.39648438 C5.81392578 23.37134766 5.02824219 23.34621094 4.21875 23.3203125 C3.02282227 23.30000977 3.02282227 23.30000977 1.80273438 23.27929688 C-0.16304967 23.24398339 -2.12848582 23.19017697 -4.09375 23.1328125 C-4.3103125 24.2775 -4.3103125 24.2775 -4.53125 25.4453125 C-5.09375 28.1328125 -5.09375 28.1328125 -6.09375 31.1328125 C-8.07375 31.1328125 -10.05375 31.1328125 -12.09375 31.1328125 C-11.00744185 23.84311305 -9.61441015 16.64110463 -8.03125 9.4453125 C-7.8569043 8.64303223 -7.68255859 7.84075195 -7.50292969 7.01416016 C-5.93707469 0.00703445 -5.93707469 0.00703445 0 0 Z M1.90625 8.1328125 C1.57625 10.4428125 1.24625 12.7528125 0.90625 15.1328125 C2.22625 15.1328125 3.54625 15.1328125 4.90625 15.1328125 C5.23625 12.8228125 5.56625 10.5128125 5.90625 8.1328125 C4.58625 8.1328125 3.26625 8.1328125 1.90625 8.1328125 Z " fill="#75C3E8" transform="translate(247.09375,76.8671875)"/>
<path d="M0 0 C0.97388672 0.00064453 1.94777344 0.00128906 2.95117188 0.00195312 C3.96630859 0.01806641 4.98144531 0.03417969 6.02734375 0.05078125 C7.55584961 0.04594727 7.55584961 0.04594727 9.11523438 0.04101562 C16.69785234 0.09628984 16.69785234 0.09628984 18.96484375 2.36328125 C18.59164164 9.29417761 16.81895854 16.06044442 13.96484375 22.36328125 C11.4748871 23.60825958 9.77489464 23.49262497 6.9921875 23.49609375 C5.51975586 23.49802734 5.51975586 23.49802734 4.01757812 23.5 C2.98955078 23.49613281 1.96152344 23.49226563 0.90234375 23.48828125 C-0.12955078 23.49214844 -1.16144531 23.49601562 -2.22460938 23.5 C-3.20494141 23.49871094 -4.18527344 23.49742188 -5.1953125 23.49609375 C-6.09902588 23.49496582 -7.00273926 23.49383789 -7.93383789 23.49267578 C-10.03515625 23.36328125 -10.03515625 23.36328125 -11.03515625 22.36328125 C-11.61314767 15.8608778 -10.81296401 7.03306062 -6.79052734 1.71899414 C-4.43823361 -0.09773564 -2.95116939 -0.00984877 0 0 Z M-0.03515625 8.36328125 C-0.36515625 10.67328125 -0.69515625 12.98328125 -1.03515625 15.36328125 C0.61484375 15.36328125 2.26484375 15.36328125 3.96484375 15.36328125 C4.29484375 13.05328125 4.62484375 10.74328125 4.96484375 8.36328125 C3.31484375 8.36328125 1.66484375 8.36328125 -0.03515625 8.36328125 Z " fill="#7CBDDC" transform="translate(221.03515625,76.63671875)"/>
<path d="M0 0 C0.97839844 0.00515625 1.95679688 0.0103125 2.96484375 0.015625 C3.98449219 0.03625 5.00414062 0.056875 6.0546875 0.078125 C7.08207031 0.08328125 8.10945313 0.0884375 9.16796875 0.09375 C16.77571137 0.17414887 16.77571137 0.17414887 17.9296875 1.328125 C18.50805911 7.83480562 17.703741 16.65191812 13.68725586 21.97460938 C11.32081523 23.79702177 9.82410066 23.68704959 6.859375 23.65625 C5.88097656 23.65109375 4.90257812 23.6459375 3.89453125 23.640625 C2.87488281 23.62 1.85523438 23.599375 0.8046875 23.578125 C-0.22269531 23.57296875 -1.25007812 23.5678125 -2.30859375 23.5625 C-9.91633637 23.48210113 -9.91633637 23.48210113 -11.0703125 22.328125 C-11.56674937 15.62622731 -11.04318372 7.22983592 -6.82788086 1.69750977 C-4.4624106 -0.14551325 -2.97568012 -0.03091339 0 0 Z M-0.0703125 8.328125 C-0.7303125 10.638125 -1.3903125 12.948125 -2.0703125 15.328125 C-0.0903125 15.328125 1.8896875 15.328125 3.9296875 15.328125 C4.2596875 13.018125 4.5896875 10.708125 4.9296875 8.328125 C3.2796875 8.328125 1.6296875 8.328125 -0.0703125 8.328125 Z " fill="#74C1E7" transform="translate(193.0703125,76.671875)"/>
<path d="M0 0 C3.95827235 -0.05785647 7.9164367 -0.09354717 11.875 -0.125 C13.00292969 -0.14175781 14.13085938 -0.15851563 15.29296875 -0.17578125 C16.36933594 -0.18222656 17.44570312 -0.18867187 18.5546875 -0.1953125 C19.54968262 -0.20578613 20.54467773 -0.21625977 21.56982422 -0.22705078 C24 0 24 0 26 2 C25.69903201 6.13830989 25.32101984 8.51847024 23 12 C22.54227937 14.73872955 22.54227937 14.73872955 22.375 17.6875 C22.30023438 18.68136719 22.22546875 19.67523438 22.1484375 20.69921875 C22.09945312 21.45847656 22.05046875 22.21773437 22 23 C17.85418113 23.02886751 13.70838784 23.04675327 9.5625 23.0625 C7.78649414 23.07506836 7.78649414 23.07506836 5.97460938 23.08789062 C4.84990234 23.09111328 3.72519531 23.09433594 2.56640625 23.09765625 C1.00321655 23.10551147 1.00321655 23.10551147 -0.59155273 23.11352539 C-3 23 -3 23 -4 22 C-4.25983398 17.49621098 -4.13115848 14.02552157 -2 10 C0.296537 8.8517315 1.58313167 8.88438825 4.1328125 8.90234375 C4.93847656 8.90556641 5.74414062 8.90878906 6.57421875 8.91210938 C7.41597656 8.92048828 8.25773438 8.92886719 9.125 8.9375 C9.97449219 8.94201172 10.82398438 8.94652344 11.69921875 8.95117188 C13.79950909 8.96297126 15.8997633 8.98090694 18 9 C17.67 8.01 17.34 7.02 17 6 C11.06 5.67 5.12 5.34 -1 5 C-0.67 3.35 -0.34 1.7 0 0 Z " fill="#74C2E8" transform="translate(131,77)"/>
<path d="M0 0 C1.4540625 0.0309375 1.4540625 0.0309375 2.9375 0.0625 C2.6075 2.7025 2.2775 5.3425 1.9375 8.0625 C3.06929687 8.03929688 4.20109375 8.01609375 5.3671875 7.9921875 C6.84895175 7.97343099 8.33072312 7.95523066 9.8125 7.9375 C10.55886719 7.92074219 11.30523437 7.90398437 12.07421875 7.88671875 C14.02944461 7.8691041 15.98492021 7.95929811 17.9375 8.0625 C18.5975 8.7225 19.2575 9.3825 19.9375 10.0625 C19.486105 16.83342504 17.51102906 23.4813879 15.9375 30.0625 C13.6275 30.0625 11.3175 30.0625 8.9375 30.0625 C9.24795732 28.1455014 9.56094671 26.22891277 9.875 24.3125 C10.13603516 22.71148437 10.13603516 22.71148437 10.40234375 21.078125 C10.82062803 18.72107781 11.35690025 16.384899 11.9375 14.0625 C7.9775 14.0625 4.0175 14.0625 -0.0625 14.0625 C-0.18625 15.3825 -0.31 16.7025 -0.4375 18.0625 C-0.92716253 22.54042832 -1.87816356 26.71993306 -3.0625 31.0625 C-5.3725 31.0625 -7.6825 31.0625 -10.0625 31.0625 C-8.97619185 23.77280055 -7.58316015 16.57079213 -6 9.375 C-5.8256543 8.57271973 -5.65130859 7.77043945 -5.47167969 6.94384766 C-3.93792422 0.0803658 -3.93792422 0.0803658 0 0 Z " fill="#72C2EA" transform="translate(109.0625,68.9375)"/>
<path d="M0 0 C0.99 0.763125 1.98 1.52625 3 2.3125 C3.56460938 2.74433594 4.12921875 3.17617188 4.7109375 3.62109375 C6.19029141 4.79138076 7.60125443 6.04696829 9 7.3125 C9 7.9725 9 8.6325 9 9.3125 C9.66 9.3125 10.32 9.3125 11 9.3125 C11.33 8.3225 11.66 7.3325 12 6.3125 C14.475 6.8075 14.475 6.8075 17 7.3125 C17 7.9725 17 8.6325 17 9.3125 C16.21625 9.456875 15.4325 9.60125 14.625 9.75 C12.03578982 10.19048925 12.03578982 10.19048925 10 11.3125 C9.53476937 13.20783342 9.53476937 13.20783342 9.375 15.375 C9.189375 17.3240625 9.189375 17.3240625 9 19.3125 C7.49440461 17.34867993 6.10868317 15.52986634 5 13.3125 C5.66 12.9825 6.32 12.6525 7 12.3125 C6.34 11.6525 5.68 10.9925 5 10.3125 C5.99 10.3125 6.98 10.3125 8 10.3125 C6.35697047 8.62252677 4.68528688 6.96033606 3 5.3125 C2.278125 4.549375 1.55625 3.78625 0.8125 3 C-3.35006809 0.50245915 -7.26206454 0.98130451 -12 1.3125 C-12 2.3025 -12 3.2925 -12 4.3125 C-15 6.3125 -15 6.3125 -18 6.3125 C-18 6.9725 -18 7.6325 -18 8.3125 C-17.34 8.6425 -16.68 8.9725 -16 9.3125 C-16.99 9.3125 -17.98 9.3125 -19 9.3125 C-21.47532931 9.67708339 -22.68005458 9.99929027 -24.484375 11.765625 C-27.85434527 16.54385784 -27.85434527 16.54385784 -28 22.3125 C-27.01 22.3125 -26.02 22.3125 -25 22.3125 C-25.33 24.2925 -25.66 26.2725 -26 28.3125 C-23.39517051 29.25971072 -21.69325299 29.61472393 -19.109375 28.48828125 C-17.37417127 27.48313275 -15.68359577 26.4018855 -14 25.3125 C-14 21.6825 -14 18.0525 -14 14.3125 C-13.67 14.3125 -13.34 14.3125 -13 14.3125 C-12.63355422 15.87216592 -12.28239138 17.43542651 -11.9375 19 C-11.64166016 20.30517578 -11.64166016 20.30517578 -11.33984375 21.63671875 C-10.97967721 24.47251276 -11.29090031 26.56039982 -12 29.3125 C-16.19686643 31.04720479 -19.73124299 32.40825525 -24.3125 32.0625 C-28.37297348 29.41847076 -29.72573862 25.89984098 -31 21.3125 C-30.91269413 17.38373603 -29.51871009 15.26924663 -27 12.3125 C-31.8434046 12.72764897 -33.81587829 14.77458699 -37 18.3125 C-37.33 18.6425 -37.66 18.9725 -38 19.3125 C-38.55927156 26.22810794 -38.29476235 31.15272691 -35 37.3125 C-35.3125 41.1875 -35.3125 41.1875 -36 44.3125 C-33.69 44.3125 -31.38 44.3125 -29 44.3125 C-28.34 41.3425 -27.68 38.3725 -27 35.3125 C-26.67 35.9725 -26.34 36.6325 -26 37.3125 C-23.69 37.3125 -21.38 37.3125 -19 37.3125 C-18.67 36.6525 -18.34 35.9925 -18 35.3125 C-18 36.3025 -18 37.2925 -18 38.3125 C-21 39.3125 -21 39.3125 -25 38.3125 C-25.66 40.9525 -26.32 43.5925 -27 46.3125 C-31.25648179 47.56440641 -33.9875739 47.22752155 -38 45.3125 C-38.5625 43.4375 -38.5625 43.4375 -39 41.3125 C-40.2684375 40.3534375 -40.2684375 40.3534375 -41.5625 39.375 C-44 37.3125 -44 37.3125 -44.3125 34.5625 C-44.209375 33.82 -44.10625 33.0775 -44 32.3125 C-43.34 32.3125 -42.68 32.3125 -42 32.3125 C-41.505 27.8575 -41.505 27.8575 -41 23.3125 C-41.99 22.9825 -42.98 22.6525 -44 22.3125 C-44.6875 19.5 -44.6875 19.5 -45 16.3125 C-43.6875 14.4375 -43.6875 14.4375 -42 13.3125 C-41.34 13.3125 -40.68 13.3125 -40 13.3125 C-39.34 13.9725 -38.68 14.6325 -38 15.3125 C-37.38125 14.549375 -36.7625 13.78625 -36.125 13 C-33.66692129 10.50014092 -31.56851533 9.76582271 -28.1875 8.9375 C-23.18592647 7.65180576 -20.4939514 5.40990555 -16.8046875 1.8984375 C-11.94793227 -2.36962013 -5.56315367 -3.12927394 0 0 Z " fill="#1B1A06" transform="translate(84,56.6875)"/>
<path d="M0 0 C3.63 0 7.26 0 11 0 C10.40984815 5.50808397 9.43336231 10.64878069 8 16 C10.31 16 12.62 16 15 16 C15 15.34 15 14.68 15 14 C15.66 14 16.32 14 17 14 C17.33 14.66 17.66 15.32 18 16 C26.25 16.33 34.5 16.66 43 17 C43.33 14.36 43.66 11.72 44 9 C44.33 9 44.66 9 45 9 C45.495 12.465 45.495 12.465 46 16 C53.59 16.33 61.18 16.66 69 17 C69.99 12.38 70.98 7.76 72 3 C72.33 3 72.66 3 73 3 C73 7.29 73 11.58 73 16 C86.365 16.495 86.365 16.495 100 17 C100 17.99 100 18.98 100 20 C67.66 19.67 35.32 19.34 2 19 C3.125 10 3.125 10 4.0625 6 C4.23910156 5.236875 4.41570312 4.47375 4.59765625 3.6875 C4.73042969 3.130625 4.86320312 2.57375 5 2 C3.68 2 2.36 2 1 2 C0.67 2.99 0.34 3.98 0 5 C0 3.35 0 1.7 0 0 Z " fill="#010205" transform="translate(110,83)"/>
<path d="M0 0 C1.32 1.65 2.64 3.3 4 5 C3.505 5.598125 3.01 6.19625 2.5 6.8125 C0.867289 10.28201088 0.93614884 11.87282566 1.125 15.625 C1.21484375 18.53515625 1.21484375 18.53515625 1 21 C-1.3125 23.0625 -1.3125 23.0625 -4 24 C-4.99 24.66 -5.98 25.32 -7 26 C-9.6875 25.625 -9.6875 25.625 -12 25 C-13.125 21.25 -13.125 21.25 -12 19 C-12.99 18.67 -13.98 18.34 -15 18 C-14.73672346 11.54972485 -12.49335977 8.52084209 -8 4 C-6.35 4.33 -4.7 4.66 -3 5 C-3.33 4.01 -3.66 3.02 -4 2 C-2.68 1.34 -1.36 0.68 0 0 Z " fill="#F1EC46" transform="translate(70,61)"/>
<path d="M0 0 C1.98 0 3.96 0 6 0 C7.26026798 2.52053595 6.91874445 3.8542098 6.5625 6.625 C6.46066406 7.44226563 6.35882813 8.25953125 6.25390625 9.1015625 C6.17011719 9.72804688 6.08632812 10.35453125 6 11 C5.34 11 4.68 11 4 11 C3.67 11.99 3.34 12.98 3 14 C-0.68890899 15.22963633 -4.13699206 15.55670401 -8 16 C-8.66 15.01 -9.32 14.02 -10 13 C-10.66 13 -11.32 13 -12 13 C-12.33 13.99 -12.66 14.98 -13 16 C-14.32 15.34 -15.64 14.68 -17 14 C-16.34 12.68 -15.68 11.36 -15 10 C-14.34 10.33 -13.68 10.66 -13 11 C-13.66 9.02 -14.32 7.04 -15 5 C-12.09399739 3.74335022 -10.20395416 3 -7 3 C-7 2.34 -7 1.68 -7 1 C-5.02 1.66 -3.04 2.32 -1 3 C-0.67 2.01 -0.34 1.02 0 0 Z " fill="#E1E23D" transform="translate(93,68)"/>
<path d="M0 0 C2.31 0 4.62 0 7 0 C6.48594831 4.96916636 5.76615118 9.29026351 4 14 C3.34 14 2.68 14 2 14 C1.67 14.66 1.34 15.32 1 16 C0.67 15.34 0.34 14.68 0 14 C-2.10353495 13.9189794 -4.20795952 13.86080093 -6.3125 13.8125 C-7.48425781 13.77769531 -8.65601563 13.74289063 -9.86328125 13.70703125 C-12.97730399 13.70272215 -12.97730399 13.70272215 -14.78515625 15.46484375 C-15.38650391 16.22474609 -15.38650391 16.22474609 -16 17 C-18.125 17.75 -18.125 17.75 -20 18 C-21 17 -21 17 -21.25 14.125 C-21 11 -21 11 -19.73510742 9.32299805 C-17.62574407 7.71463446 -16.61225872 7.64784379 -13.98828125 7.70703125 C-13.23095703 7.71669922 -12.47363281 7.72636719 -11.69335938 7.73632812 C-10.51483398 7.7740332 -10.51483398 7.7740332 -9.3125 7.8125 C-8.11657227 7.83280273 -8.11657227 7.83280273 -6.89648438 7.85351562 C-4.93070033 7.88882911 -2.96526418 7.94263553 -1 8 C-0.67 5.36 -0.34 2.72 0 0 Z " fill="#74C3EA" transform="translate(179,69)"/>
<path d="M0 0 C-0.680625 1.051875 -1.36125 2.10375 -2.0625 3.1875 C-3.59648815 5.8503738 -4.0185094 6.71618926 -3.8125 9.875 C-3.18393726 11.95204276 -3.18393726 11.95204276 -2 13 C-1.95936168 14.66617115 -1.957279 16.33388095 -2 18 C-3.74627478 15.38058783 -4.38722388 13.96175123 -5 11 C-5.66 11 -6.32 11 -7 11 C-7.77772405 13.33317216 -8.42415568 15.61435923 -9 18 C-7.68 18 -6.36 18 -5 18 C-5.33 19.32 -5.66 20.64 -6 22 C-6.99 22 -7.98 22 -9 22 C-9 22.99 -9 23.98 -9 25 C-8.34 25 -7.68 25 -7 25 C-6.67 26.32 -6.34 27.64 -6 29 C-5.67 28.34 -5.34 27.68 -5 27 C-4.34 27 -3.68 27 -3 27 C-3 26.34 -3 25.68 -3 25 C-2.34 25 -1.68 25 -1 25 C-1.33 27.64 -1.66 30.28 -2 33 C-5.28696233 33.79953138 -6.71023192 34.09658936 -10 33 C-9.938125 31.96875 -9.87625 30.9375 -9.8125 29.875 C-9.70966614 26.05223808 -9.70966614 26.05223808 -11.5 23.3125 C-13.77840375 18.28102504 -13.81101318 13.43155616 -13 8 C-10.27669805 2.5533961 -6.04701824 -0.32686585 0 0 Z " fill="#E5E452" transform="translate(58,68)"/>
<path d="M0 0 C1.32 0 2.64 0 4 0 C4 1.98 4 3.96 4 6 C5.13179688 5.97679688 6.26359375 5.95359375 7.4296875 5.9296875 C8.91145175 5.91093099 10.39322312 5.89273066 11.875 5.875 C12.62136719 5.85824219 13.36773437 5.84148437 14.13671875 5.82421875 C16.09194461 5.8066041 18.04742021 5.89679811 20 6 C20.66 6.66 21.32 7.32 22 8 C21.548605 14.77092504 19.57352906 21.4188879 18 28 C15.69 28 13.38 28 11 28 C11.15597656 26.86820313 11.31195313 25.73640625 11.47265625 24.5703125 C11.66959476 23.08858468 11.86619165 21.60681143 12.0625 20.125 C12.2181543 19.00544922 12.2181543 19.00544922 12.37695312 17.86328125 C13.06427502 13.82400166 13.06427502 13.82400166 12 10 C13.32 10 14.64 10 16 10 C16 9.01 16 8.02 16 7 C15.360625 7.185625 14.72125 7.37125 14.0625 7.5625 C10.00818418 8.14168797 5.97031492 8.09203161 2 7 C0 4 0 4 0 0 Z " fill="#74BFE5" transform="translate(107,71)"/>
<path d="M0 0 C3.3 0 6.6 0 10 0 C10.41478058 6.22170868 9.4584425 12.23917206 7 18 C5.28125 19.84765625 5.28125 19.84765625 3 21 C-0.015625 21.07421875 -0.015625 21.07421875 -3.25 20.6875 C-4.32765625 20.56761719 -5.4053125 20.44773437 -6.515625 20.32421875 C-7.33546875 20.21722656 -8.1553125 20.11023438 -9 20 C-9 19.01 -9 18.02 -9 17 C-7.906875 16.938125 -6.81375 16.87625 -5.6875 16.8125 C-1.95511513 16.37025836 -1.95511513 16.37025836 -0.125 13.875 C1.16538055 10.57736083 1.65530435 7.51589559 2 4 C-0.64 3.67 -3.28 3.34 -6 3 C-6 2.67 -6 2.34 -6 2 C-4.02 2 -2.04 2 0 2 C0 1.34 0 0.68 0 0 Z " fill="#75C5EC" transform="translate(256,79)"/>
<path d="M0 0 C0.33 1.32 0.66 2.64 1 4 C1.99 3.67 2.98 3.34 4 3 C4.03738281 3.79664062 4.07476562 4.59328125 4.11328125 5.4140625 C4.48930665 11.47470721 5.22092316 15.56816798 8 21 C7.6875 24.875 7.6875 24.875 7 28 C9.31 28 11.62 28 14 28 C14.66 25.03 15.32 22.06 16 19 C16.33 19.66 16.66 20.32 17 21 C19.31 21 21.62 21 24 21 C24.33 20.34 24.66 19.68 25 19 C25 19.99 25 20.98 25 22 C22 23 22 23 18 22 C17.34 24.64 16.68 27.28 16 30 C11.74351821 31.25190641 9.0124261 30.91502155 5 29 C4.4375 27.125 4.4375 27.125 4 25 C3.154375 24.360625 2.30875 23.72125 1.4375 23.0625 C-1 21 -1 21 -1.3125 18.25 C-1.209375 17.5075 -1.10625 16.765 -1 16 C-0.34 16 0.32 16 1 16 C1.38958535 8.25661364 1.38958535 8.25661364 -1 1 C-0.67 0.67 -0.34 0.34 0 0 Z " fill="#1C1A01" transform="translate(41,73)"/>
<path d="M0 0 C3.12482562 -0.08687496 6.24934246 -0.14034568 9.375 -0.1875 C10.70917969 -0.22520508 10.70917969 -0.22520508 12.0703125 -0.26367188 C12.92109375 -0.27333984 13.771875 -0.28300781 14.6484375 -0.29296875 C15.82672119 -0.31653442 15.82672119 -0.31653442 17.02880859 -0.34057617 C17.67930176 -0.22818604 18.32979492 -0.1157959 19 0 C19.66 0.99 20.32 1.98 21 3 C17.98968256 3.93423645 17.13349732 4.04449911 14 3 C11.93854893 2.931009 9.87498599 2.91532273 7.8125 2.9375 C6.72582031 2.94652344 5.63914063 2.95554687 4.51953125 2.96484375 C3.68808594 2.97644531 2.85664063 2.98804687 2 3 C1.67 5.31 1.34 7.62 1 10 C0.01 10 -0.98 10 -2 10 C-1.01 10.33 -0.02 10.66 1 11 C2.25 14.4375 2.25 14.4375 3 18 C2.67 18.66 2.34 19.32 2 20 C0.68 20 -0.64 20 -2 20 C-4.67711416 14.34831456 -3.71622367 9.77795302 -2 4 C-1.34837089 2.6592533 -0.68379345 1.32463155 0 0 Z " fill="#6FC4EC" transform="translate(216,79)"/>
<path d="M0 0 C0.33 0 0.66 0 1 0 C1.33 2.31 1.66 4.62 2 7 C6.62 7 11.24 7 16 7 C16 6.01 16 5.02 16 4 C16.99 3.67 17.98 3.34 19 3 C19 7 19 7 17.109375 9.6953125 C12.83978264 12.8599601 9.43947362 12.81275744 4.25 12.875 C2.93708984 12.92527344 2.93708984 12.92527344 1.59765625 12.9765625 C-2.93793955 13.11720113 -2.93793955 13.11720113 -5 13 C-6 12 -6 12 -6.0625 8.9375 C-6.041875 7.968125 -6.02125 6.99875 -6 6 C-5.34 6 -4.68 6 -4 6 C-4 5.34 -4 4.68 -4 4 C-2.68 3.67 -1.36 3.34 0 3 C0 2.01 0 1.02 0 0 Z " fill="#6CC4EE" transform="translate(188,87)"/>
<path d="M0 0 C0.33 0 0.66 0 1 0 C1.125 7.625 1.125 7.625 0 11 C-0.66 11 -1.32 11 -2 11 C-2.66 10.34 -3.32 9.68 -4 9 C-7.58343976 8.83322718 -7.58343976 8.83322718 -11 9 C-11.3403125 9.9590625 -11.3403125 9.9590625 -11.6875 10.9375 C-13 13 -13 13 -15.5625 13.75 C-18 14 -18 14 -19 14 C-18.814375 15.11375 -18.62875 16.2275 -18.4375 17.375 C-18 21 -18 21 -19 23 C-21.25946584 23.35557331 -23.4899777 23.44330506 -25.7734375 23.55859375 C-28.44266875 24.08775714 -29.20455724 25.02964304 -31 27 C-33.4375 27.5 -33.4375 27.5 -36 27 C-38.3125 24.75 -38.3125 24.75 -40 22 C-40 20.68 -40 19.36 -40 18 C-39.01 18 -38.02 18 -37 18 C-36.855625 18.78375 -36.71125 19.5675 -36.5625 20.375 C-36.12201075 22.96421018 -36.12201075 22.96421018 -35 25 C-31.88801935 23.50163895 -28.9465385 21.80066242 -26 20 C-26 20.66 -26 21.32 -26 22 C-24.35 21.67 -22.7 21.34 -21 21 C-21.33 18.69 -21.66 16.38 -22 14 C-22.33 14 -22.66 14 -23 14 C-23.33 12.02 -23.66 10.04 -24 8 C-23.278125 8.309375 -22.55625 8.61875 -21.8125 8.9375 C-19.19692691 9.92560539 -16.74881018 10.5287754 -14 11 C-13.34 10.01 -12.68 9.02 -12 8 C-9.94140625 7.48046875 -9.94140625 7.48046875 -7.5625 7.1875 C-5.1520742 6.80460022 -5.1520742 6.80460022 -3 6 C-0.85334283 3.04765553 -0.85334283 3.04765553 0 0 Z " fill="#0F0F05" transform="translate(100,77)"/>
<path d="M0 0 C1.98 0 3.96 0 6 0 C5.88490339 1.41750563 5.75746342 2.83401169 5.625 4.25 C5.55539063 5.03890625 5.48578125 5.8278125 5.4140625 6.640625 C4.9787895 9.12085981 4.31630309 10.85982375 3 13 C0.23547967 14.38226016 -2.0461363 14.09525387 -5.125 14.0625 C-6.22070312 14.05347656 -7.31640625 14.04445313 -8.4453125 14.03515625 C-9.70988281 14.01775391 -9.70988281 14.01775391 -11 14 C-10.34 13.01 -9.68 12.02 -9 11 C-8.67 10.34 -8.34 9.68 -8 9 C-7.21625 8.95875 -6.4325 8.9175 -5.625 8.875 C-2.88875903 8.29527648 -2.88875903 8.29527648 -2.00390625 6.16015625 C-1.25531421 4.12212336 -0.58567368 2.09033127 0 0 Z " fill="#6EC2EA" transform="translate(232,86)"/>
<path d="M0 0 C3.96 0 7.92 0 12 0 C11.25 8.625 11.25 8.625 9 12 C6.3984375 12.29296875 6.3984375 12.29296875 3.375 12.1875 C1.87066406 12.14689453 1.87066406 12.14689453 0.3359375 12.10546875 C-0.43492187 12.07066406 -1.20578125 12.03585938 -2 12 C-3.35112806 6.81918446 -2.29477545 4.68134191 0 0 Z M1 2 C0.67 4.31 0.34 6.62 0 9 C1.65 9 3.3 9 5 9 C5.33 6.69 5.66 4.38 6 2 C4.35 2 2.7 2 1 2 Z " fill="#0A1926" transform="translate(220,83)"/>
<path d="M0 0 C1.65322266 0.01740234 1.65322266 0.01740234 3.33984375 0.03515625 C4.99693359 0.04869141 4.99693359 0.04869141 6.6875 0.0625 C7.54214844 0.07410156 8.39679688 0.08570312 9.27734375 0.09765625 C8.96964668 1.91097779 8.65605311 3.7232997 8.33984375 5.53515625 C8.16582031 6.54449219 7.99179688 7.55382812 7.8125 8.59375 C7.27734375 11.09765625 7.27734375 11.09765625 6.27734375 12.09765625 C4.42446873 12.16992127 2.56900497 12.18146845 0.71484375 12.16015625 C-0.29707031 12.15113281 -1.30898437 12.14210938 -2.3515625 12.1328125 C-3.13402344 12.12121094 -3.91648438 12.10960938 -4.72265625 12.09765625 C-5.77931538 7.7221945 -5.44157508 5.29945784 -3.72265625 1.09765625 C-2.72265625 0.09765625 -2.72265625 0.09765625 0 0 Z M-1.72265625 2.09765625 C-2.38265625 4.40765625 -3.04265625 6.71765625 -3.72265625 9.09765625 C-1.74265625 9.09765625 0.23734375 9.09765625 2.27734375 9.09765625 C2.60734375 6.78765625 2.93734375 4.47765625 3.27734375 2.09765625 C1.62734375 2.09765625 -0.02265625 2.09765625 -1.72265625 2.09765625 Z " fill="#060D15" transform="translate(194.72265625,82.90234375)"/>
<path d="M0 0 C1.35729871 2.2269753 2.05949425 3.48086468 1.7578125 6.11328125 C1.54898438 6.83902344 1.34015625 7.56476563 1.125 8.3125 C-0.00010048 12.27883525 -0.09031703 15.88053977 0 20 C3.62498334 20.02893932 7.24993713 20.04677792 10.875 20.0625 C11.90753906 20.07087891 12.94007813 20.07925781 14.00390625 20.08789062 C14.99003906 20.09111328 15.97617188 20.09433594 16.9921875 20.09765625 C17.90339355 20.10289307 18.81459961 20.10812988 19.75341797 20.11352539 C22.03687509 20.14885565 22.03687509 20.14885565 24 19 C24.80045663 16.30941402 25.4954659 13.66781273 26.125 10.9375 C26.30675781 10.17888672 26.48851562 9.42027344 26.67578125 8.63867188 C27.12456584 6.76086265 27.56323336 4.88064085 28 3 C28.66 3.33 29.32 3.66 30 4 C28.35 11.26 26.7 18.52 25 26 C24.34 25.01 23.68 24.02 23 23 C20.27533256 22.59589241 20.27533256 22.59589241 17.1875 22.75 C16.14980469 22.76546875 15.11210937 22.7809375 14.04296875 22.796875 C11.26546958 22.98227931 8.71898154 23.43542742 6 24 C3.66698014 24.03824623 1.33288492 24.04574284 -1 24 C-1 23.34 -1 22.68 -1 22 C-2.65 21.67 -4.3 21.34 -6 21 C-5.53980469 20.17242187 -5.07960937 19.34484375 -4.60546875 18.4921875 C-2.88595091 14.75192243 -2.025466 11.14566075 -1.3125 7.125 C-1.18294922 6.43664062 -1.05339844 5.74828125 -0.91992188 5.0390625 C-0.60525879 3.36085938 -0.30148535 1.68062047 0 0 Z " fill="#102738" transform="translate(211,79)"/>
<path d="M0 0 C0.33 1.32 0.66 2.64 1 4 C0.01 4 -0.98 4 -2 4 C-2 4.66 -2 5.32 -2 6 C-1.15179688 5.83628906 -0.30359375 5.67257813 0.5703125 5.50390625 C4.0645531 4.99051555 7.34627574 4.90149261 10.875 4.9375 C12.02742188 4.94652344 13.17984375 4.95554687 14.3671875 4.96484375 C15.23601562 4.97644531 16.10484375 4.98804687 17 5 C16.67 6.32 16.34 7.64 16 9 C12.04 9 8.08 9 4 9 C3.34 10.32 2.68 11.64 2 13 C-0.5625 13.8125 -0.5625 13.8125 -3 14 C-4 13 -4 13 -4.1875 9.75 C-4.01229153 6.24583053 -3.62581968 4.07099273 -2 1 C-1.34 0.67 -0.68 0.34 0 0 Z " fill="#6DC0EB" transform="translate(131,86)"/>
<path d="M0 0 C3.96 0 7.92 0 12 0 C10.25 9.75 10.25 9.75 8 12 C5.6171875 12.1953125 5.6171875 12.1953125 2.875 12.125 C1.50988281 12.09792969 1.50988281 12.09792969 0.1171875 12.0703125 C-0.58148438 12.04710938 -1.28015625 12.02390625 -2 12 C-1.85831863 10.56208484 -1.71148957 9.1246763 -1.5625 7.6875 C-1.48128906 6.88699219 -1.40007812 6.08648437 -1.31640625 5.26171875 C-1 3 -1 3 0 0 Z M2 2 C1.67 4.31 1.34 6.62 1 9 C2.32 9 3.64 9 5 9 C5.33 6.69 5.66 4.38 6 2 C4.68 2 3.36 2 2 2 Z " fill="#040C15" transform="translate(247,83)"/>
<path d="M0 0 C1.97909398 -0.02686553 3.95828971 -0.04633375 5.9375 -0.0625 C7.03964844 -0.07410156 8.14179688 -0.08570312 9.27734375 -0.09765625 C12 0 12 0 13 1 C13.04080783 2.99958364 13.04254356 5.00045254 13 7 C14.98 7 16.96 7 19 7 C19.144375 6.21625 19.28875 5.4325 19.4375 4.625 C20 2 20 2 21 0 C25.62 0 30.24 0 35 0 C35 0.66 35 1.32 35 2 C31.37 2 27.74 2 24 2 C23.01 4.31 22.02 6.62 21 9 C16.38 9 11.76 9 7 9 C7.33 6.69 7.66 4.38 8 2 C5.36 1.67 2.72 1.34 0 1 C0 0.67 0 0.34 0 0 Z " fill="#010204" transform="translate(222,101)"/>
<path d="M0 0 C3 1 3 1 4 3 C4.58850894 8.65873983 4.29416707 13.17639822 1 18 C-2.16424601 20.40046249 -5.12693318 20.17604849 -9 20 C-9.66 21.32 -10.32 22.64 -11 24 C-14.37462715 23.45276317 -16.08235 22.9451 -19 21 C-19 20.34 -19 19.68 -19 19 C-17.37373596 17.61767557 -15.7074998 16.28062485 -14 15 C-13.34 15.66 -12.68 16.32 -12 17 C-8.21326759 18.26224414 -6.6717132 17.32806648 -3 16 C-2.34 16 -1.68 16 -1 16 C-0.67 15.34 -0.34 14.68 0 14 C0.66 14 1.32 14 2 14 C2 10.37 2 6.74 2 3 C0.35 3.33 -1.3 3.66 -3 4 C-3 3.34 -3 2.68 -3 2 C-2.01 1.34 -1.02 0.68 0 0 Z " fill="#C5C848" transform="translate(97,65)"/>
<path d="M0 0 C1.37478516 0.01740234 1.37478516 0.01740234 2.77734375 0.03515625 C3.69644531 0.04417969 4.61554688 0.05320312 5.5625 0.0625 C6.27277344 0.07410156 6.98304688 0.08570312 7.71484375 0.09765625 C7.23259646 4.23120447 6.72598894 8.05307549 5.71484375 12.09765625 C2.08484375 12.09765625 -1.54515625 12.09765625 -5.28515625 12.09765625 C-6.28515625 10.09765625 -6.28515625 10.09765625 -5.76171875 7.96875 C-5.34019531 6.76412109 -5.34019531 6.76412109 -4.91015625 5.53515625 C-4.63429687 4.72949219 -4.3584375 3.92382812 -4.07421875 3.09375 C-2.90024378 0.12394204 -2.90024378 0.12394204 0 0 Z M-2.28515625 3.09765625 C-2.61515625 5.40765625 -2.94515625 7.71765625 -3.28515625 10.09765625 C-1.96515625 10.09765625 -0.64515625 10.09765625 0.71484375 10.09765625 C1.04484375 7.78765625 1.37484375 5.47765625 1.71484375 3.09765625 C0.39484375 3.09765625 -0.92515625 3.09765625 -2.28515625 3.09765625 Z " fill="#020404" transform="translate(168.28515625,81.90234375)"/>
<path d="M0 0 C3.74216147 2.23785509 7.0951644 4.73801248 10 8 C10 9.32 10 10.64 10 12 C6.25 13.125 6.25 13.125 4 12 C4 12.66 4 13.32 4 14 C3.195625 14.12375 2.39125 14.2475 1.5625 14.375 C0.716875 14.58125 -0.12875 14.7875 -1 15 C-1.33 15.66 -1.66 16.32 -2 17 C-2 16.34 -2 15.68 -2 15 C-2.66 15 -3.32 15 -4 15 C-4 14.34 -4 13.68 -4 13 C-3.34 13 -2.68 13 -2 13 C-2 12.01 -2 11.02 -2 10 C2.75 9 2.75 9 5 9 C5.33 8.34 5.66 7.68 6 7 C4.68 7 3.36 7 2 7 C2 6.01 2 5.02 2 4 C0.37512529 3.83211627 -1.24990442 3.66573213 -2.875 3.5 C-3.77992187 3.4071875 -4.68484375 3.314375 -5.6171875 3.21875 C-7.93313211 2.96952705 -7.93313211 2.96952705 -10 3 C-10 2.34 -10 1.68 -10 1 C-6.62993117 -0.68503441 -3.59827744 -0.83446895 0 0 Z " fill="#D0D25B" transform="translate(82,57)"/>
<path d="M0 0 C0.80566406 0.00322266 1.61132812 0.00644531 2.44140625 0.00976562 C3.70404297 0.02233398 3.70404297 0.02233398 4.9921875 0.03515625 C5.84167969 0.03966797 6.69117188 0.04417969 7.56640625 0.04882812 C9.66669659 0.06062751 11.7669508 0.07856319 13.8671875 0.09765625 C14.1971875 1.41765625 14.5271875 2.73765625 14.8671875 4.09765625 C8.2671875 4.42765625 1.6671875 4.75765625 -5.1328125 5.09765625 C-5.7928125 8.39765625 -6.4528125 11.69765625 -7.1328125 15.09765625 C-7.7928125 14.76765625 -8.4528125 14.43765625 -9.1328125 14.09765625 C-8.68469232 11.94966685 -8.22402902 9.80429064 -7.7578125 7.66015625 C-7.50257812 6.46519531 -7.24734375 5.27023438 -6.984375 4.0390625 C-6.56285156 2.58306641 -6.56285156 2.58306641 -6.1328125 1.09765625 C-3.8362755 -0.05061225 -2.54968083 -0.0179555 0 0 Z " fill="#132937" transform="translate(134.1328125,81.90234375)"/>
<path d="M0 0 C0 1.65 0 3.3 0 5 C4.29 5 8.58 5 13 5 C13 5.33 13 5.66 13 6 C9.37 6.33 5.74 6.66 2 7 C1.34 8.98 0.68 10.96 0 13 C-1.98 13.33 -3.96 13.66 -6 14 C-6 14.66 -6 15.32 -6 16 C-6.66 16 -7.32 16 -8 16 C-5.8704028 0 -5.8704028 0 0 0 Z " fill="#71BDE0" transform="translate(190,77)"/>
<path d="M0 0 C1.32 0.33 2.64 0.66 4 1 C3.01 2.3303125 3.01 2.3303125 2 3.6875 C0.01139933 6.98111986 -0.43735074 8.28251873 0 12 C0.99 12 1.98 12 3 12 C2.67 13.98 2.34 15.96 2 18 C4.60482949 18.94721072 6.30674701 19.30222393 8.890625 18.17578125 C10.62582873 17.17063275 12.31640423 16.0893855 14 15 C14 11.37 14 7.74 14 4 C14.33 4 14.66 4 15 4 C15.36644578 5.55966592 15.71760862 7.12292651 16.0625 8.6875 C16.35833984 9.99267578 16.35833984 9.99267578 16.66015625 11.32421875 C17.02032279 14.16001276 16.70909969 16.24789982 16 19 C11.80313357 20.73470479 8.26875701 22.09575525 3.6875 21.75 C-0.37297348 19.10597076 -1.72573862 15.58734098 -3 11 C-2.91269413 7.07123603 -1.51871009 4.95674663 1 2 C0.67 1.34 0.34 0.68 0 0 Z " fill="#615E1F" transform="translate(56,67)"/>
<path d="M0 0 C7.26 0 14.52 0 22 0 C22.92538169 3.70152678 23.08174162 4.63458162 22 8 C19.69 8 17.38 8 15 8 C15 7.01 15 6.02 15 5 C9.06 5.495 9.06 5.495 3 6 C2.7525 6.969375 2.505 7.93875 2.25 8.9375 C1.8375 9.948125 1.425 10.95875 1 12 C-1.125 12.875 -1.125 12.875 -3 13 C-3 12.34 -3 11.68 -3 11 C-2.01 11 -1.02 11 0 11 C0.33 8.69 0.66 6.38 1 4 C3.24932227 3.8045375 5.49950142 3.61891774 7.75 3.4375 C9.00296875 3.33308594 10.2559375 3.22867188 11.546875 3.12109375 C14.39452364 3.02123277 16.34286067 3.09415705 19 4 C18.67 3.34 18.34 2.68 18 2 C12.06 1.67 6.12 1.34 0 1 C0 0.67 0 0.34 0 0 Z " fill="#6EB1D3" transform="translate(217,78)"/>
<path d="M0 0 C0.66 0 1.32 0 2 0 C5 6.625 5 6.625 5 10 C5.66 10 6.32 10 7 10 C6.67 11.32 6.34 12.64 6 14 C5.34 14 4.68 14 4 14 C4 14.66 4 15.32 4 16 C3.34 16 2.68 16 2 16 C1.67 16.99 1.34 17.98 1 19 C0.67 17.35 0.34 15.7 0 14 C-0.66 14 -1.32 14 -2 14 C-2.33 12.68 -2.66 11.36 -3 10 C-1.68 10.33 -0.36 10.66 1 11 C1.33 9.68 1.66 8.36 2 7 C0.68 7 -0.64 7 -2 7 C-2.125 4.625 -2.125 4.625 -2 2 C-1.34 1.34 -0.68 0.68 0 0 Z " fill="#ECEB43" transform="translate(51,79)"/>
<path d="M0 0 C0.33 0 0.66 0 1 0 C1 4.29 1 8.58 1 13 C14.365 13.495 14.365 13.495 28 14 C28 14.99 28 15.98 28 17 C14.14 16.505 14.14 16.505 0 16 C0 15.34 0 14.68 0 14 C-0.99 14 -1.98 14 -3 14 C-2.01 9.38 -1.02 4.76 0 0 Z " fill="#0A1821" transform="translate(182,86)"/>
<path d="M0 0 C0.66 0.33 1.32 0.66 2 1 C2.625 3.5625 2.625 3.5625 3 6 C3.33 6 3.66 6 4 6 C4.87890625 12.15234375 4.87890625 12.15234375 5 14 C4 15 4 15 1.5625 15.0625 C0.2940625 15.0315625 0.2940625 15.0315625 -1 15 C-3.27770623 14.78468592 -3.27770623 14.78468592 -5.4375 17.0625 C-6.283125 17.701875 -7.12875 18.34125 -8 19 C-8.99 18.67 -9.98 18.34 -11 18 C-9.68 17.34 -8.36 16.68 -7 16 C-7 15.34 -7 14.68 -7 14 C-5.80310547 13.69449219 -5.80310547 13.69449219 -4.58203125 13.3828125 C-1.71612757 12.2302512 -1.71612757 12.2302512 -1.07421875 9.1796875 C-0.94660156 8.08914062 -0.81898437 6.99859375 -0.6875 5.875 C-0.54699219 4.77929688 -0.40648438 3.68359375 -0.26171875 2.5546875 C-0.17535156 1.71164063 -0.08898437 0.86859375 0 0 Z " fill="#C0C345" transform="translate(75,84)"/>
<path d="M0 0 C3.96 0 7.92 0 12 0 C12 0.66 12 1.32 12 2 C12.66 2.66 13.32 3.32 14 4 C10.37 4 6.74 4 3 4 C2.67 6.64 2.34 9.28 2 12 C0.0625 11.1875 0.0625 11.1875 -2 10 C-3.39195915 5.82412255 -1.82323219 3.86525224 0 0 Z " fill="#6AB6DC" transform="translate(244,79)"/>
<path d="M0 0 C-0.185625 0.763125 -0.37125 1.52625 -0.5625 2.3125 C-1.22819173 5.08967375 -1.22819173 5.08967375 0 8 C-0.5625 10.0625 -0.5625 10.0625 -2 12 C-5.125 13.25 -5.125 13.25 -8 14 C-8.33 13.67 -8.66 13.34 -9 13 C-8.77201852 7.1864722 -6.91041715 0 0 0 Z " fill="#E1E25F" transform="translate(64,66)"/>
<path d="M0 0 C2.76276177 0.52268466 5.3260876 1.10869587 8 2 C8 2.99 8 3.98 8 5 C9.32 5 10.64 5 12 5 C11.34 6.32 10.68 7.64 10 9 C9.34 8.67 8.68 8.34 8 8 C6.68 8 5.36 8 4 8 C3.67 8.99 3.34 9.98 3 11 C1 9.25 1 9.25 -1 7 C-1 3 -1 3 0 0 Z " fill="#E2DF41" transform="translate(76,59)"/>
<path d="M0 0 C0 0.99 0 1.98 0 3 C-2.28404719 5.28404719 -3.72213464 5.9586158 -6.9375 6.4375 C-11.57622071 7.28950993 -13.97604515 9.9467893 -17.1875 13.25 C-19 15 -19 15 -21 15 C-20.67 15.99 -20.34 16.98 -20 18 C-20.99 17.67 -21.98 17.34 -23 17 C-23.6875 14.1875 -23.6875 14.1875 -24 11 C-22.6875 9.125 -22.6875 9.125 -21 8 C-20.34 8 -19.68 8 -19 8 C-18.34 8.66 -17.68 9.32 -17 10 C-16.38125 9.236875 -15.7625 8.47375 -15.125 7.6875 C-11.99818048 4.49760343 -8.45531582 3.71396773 -4.20703125 2.67578125 C-1.82127305 2.13400431 -1.82127305 2.13400431 0 0 Z " fill="#080803" transform="translate(63,62)"/>
<path d="M0 0 C0.9583374 0.00523682 1.9166748 0.01047363 2.90405273 0.01586914 C4.45576172 0.02070312 4.45576172 0.02070312 6.03881836 0.02563477 C7.12743164 0.03401367 8.21604492 0.04239258 9.33764648 0.05102539 C10.97636719 0.05779297 10.97636719 0.05779297 12.64819336 0.06469727 C15.35723144 0.07652713 18.06616248 0.09300996 20.77514648 0.11352539 C21.10514648 0.77352539 21.43514648 1.43352539 21.77514648 2.11352539 C14.51514648 2.11352539 7.25514648 2.11352539 -0.22485352 2.11352539 C-0.55485352 3.43352539 -0.88485352 4.75352539 -1.22485352 6.11352539 C-1.88637908 8.44832149 -2.55226685 10.78189161 -3.22485352 13.11352539 C-3.88485352 13.11352539 -4.54485352 13.11352539 -5.22485352 13.11352539 C-4.91726174 11.13358998 -4.60364671 9.1545894 -4.28735352 7.17602539 C-4.11333008 6.07387695 -3.93930664 4.97172852 -3.76000977 3.83618164 C-3.03643662 0.15493724 -3.03643662 0.15493724 0 0 Z " fill="#7ABBDA" transform="translate(244.224853515625,76.886474609375)"/>
<path d="M0 0 C-1.65 3.3 -3.3 6.6 -5 10 C-7.475 9.01 -7.475 9.01 -10 8 C-10.66 11.63 -11.32 15.26 -12 19 C-12.33 19 -12.66 19 -13 19 C-13.86096102 8.2475535 -13.86096102 8.2475535 -10.6875 4.4375 C-6.63743624 0.76418635 -5.680427 0 0 0 Z " fill="#E0E28E" transform="translate(58,68)"/>
<path d="M0 0 C0.33 1.32 0.66 2.64 1 4 C1.99 3.67 2.98 3.34 4 3 C4.06058594 4.02480469 4.12117188 5.04960938 4.18359375 6.10546875 C4.26805026 7.46615695 4.35269567 8.82683343 4.4375 10.1875 C4.47681641 10.86103516 4.51613281 11.53457031 4.55664062 12.22851562 C4.78927565 15.89699102 5.17207011 19.41694206 6 23 C3.03824877 22.38722388 1.61941217 21.74627478 -1 20 C-1 18.68 -1 17.36 -1 16 C-0.34 16 0.32 16 1 16 C1.38958535 8.25661364 1.38958535 8.25661364 -1 1 C-0.67 0.67 -0.34 0.34 0 0 Z " fill="#373719" transform="translate(41,73)"/>
<path d="M0 0 C1.32 0 2.64 0 4 0 C3.40984815 5.50808397 2.43336231 10.64878069 1 16 C3.31 16 5.62 16 8 16 C8 16.33 8 16.66 8 17 C4.37 17.33 0.74 17.66 -3 18 C-2.68853528 16.10399631 -2.37578283 14.20820413 -2.0625 12.3125 C-1.88847656 11.25675781 -1.71445313 10.20101562 -1.53515625 9.11328125 C-1.06834138 6.39757722 -0.54033099 3.70165493 0 1 C0 0.67 0 0.34 0 0 Z " fill="#071119" transform="translate(117,83)"/>
<path d="M0 0 C0.66 1.32 1.32 2.64 2 4 C3.65 3.34 5.3 2.68 7 2 C6.34 5.3 5.68 8.6 5 12 C2.69 12 0.38 12 -2 12 C-1.34 8.04 -0.68 4.08 0 0 Z " fill="#6DB3D2" transform="translate(120,87)"/>
<path d="M0 0 C1.26026798 2.52053595 0.91874445 3.8542098 0.5625 6.625 C0.46066406 7.44226563 0.35882813 8.25953125 0.25390625 9.1015625 C0.17011719 9.72804688 0.08632812 10.35453125 0 11 C-0.66 11 -1.32 11 -2 11 C-2.33 11.99 -2.66 12.98 -3 14 C-3.66 14 -4.32 14 -5 14 C-5 9.71 -5 5.42 -5 1 C-3 0 -3 0 0 0 Z " fill="#E6E63E" transform="translate(99,68)"/>
<path d="M0 0 C0.33 0.66 0.66 1.32 1 2 C0.071875 2.1546875 0.071875 2.1546875 -0.875 2.3125 C-3.36526484 2.87525373 -3.36526484 2.87525373 -5 6 C-5.66 6 -6.32 6 -7 6 C-7 6.99 -7 7.98 -7 9 C-9.31 9 -11.62 9 -14 9 C-14.33 8.01 -14.66 7.02 -15 6 C-14.67 5.34 -14.34 4.68 -14 4 C-14.66 4 -15.32 4 -16 4 C-15.67 3.01 -15.34 2.02 -15 1 C-14.195625 1.391875 -13.39125 1.78375 -12.5625 2.1875 C-7.70501154 3.29534825 -4.50035027 1.86014478 0 0 Z " fill="#DEE141" transform="translate(72,85)"/>
<path d="M0 0 C2 3 2 3 1.6796875 5.55859375 C1.41414063 6.50863281 1.14859375 7.45867187 0.875 8.4375 C0.62492187 9.38496094 0.37484375 10.33242187 0.1171875 11.30859375 C-1.22704495 14.54697192 -2.0582486 16.04350184 -5 18 C-8.12433759 18.33353082 -11.1310552 18.05702113 -14.25 17.75 C-15.09046875 17.68425781 -15.9309375 17.61851563 -16.796875 17.55078125 C-18.86618164 17.38617731 -20.93339331 17.19560475 -23 17 C-23 16.67 -23 16.34 -23 16 C-21.80761719 15.98582031 -20.61523438 15.97164062 -19.38671875 15.95703125 C-17.82027373 15.9101317 -16.25386865 15.8618843 -14.6875 15.8125 C-13.90181641 15.80669922 -13.11613281 15.80089844 -12.30664062 15.79492188 C-10.10173075 15.71047852 -8.13385876 15.5647698 -6 15 C-3.34186917 11.95601147 -2.39265496 8.54519629 -1.3125 4.6875 C-1.06113281 3.80449219 -0.80976563 2.92148438 -0.55078125 2.01171875 C-0.36902344 1.34785156 -0.18726563 0.68398437 0 0 Z " fill="#0A1A23" transform="translate(266,84)"/>
<path d="M0 0 C2.31 0 4.62 0 7 0 C6.64766839 5.4611399 6.64766839 5.4611399 6 8 C3.9375 9.5 3.9375 9.5 2 10 C2 9.34 2 8.68 2 8 C1.01 8 0.02 8 -1 8 C-0.67 5.36 -0.34 2.72 0 0 Z " fill="#6EBDE5" transform="translate(179,69)"/>
<path d="M0 0 C1.32 1.65 2.64 3.3 4 5 C2.515 7.475 2.515 7.475 1 10 C0.67 9.01 0.34 8.02 0 7 C-0.33 7.66 -0.66 8.32 -1 9 C-3.3140622 9.73075648 -5.64828869 10.40138258 -8 11 C-7.34 9.02 -6.68 7.04 -6 5 C-6.66 4.67 -7.32 4.34 -8 4 C-5.525 4.495 -5.525 4.495 -3 5 C-3.33 4.01 -3.66 3.02 -4 2 C-2.68 1.34 -1.36 0.68 0 0 Z " fill="#D6D74C" transform="translate(70,61)"/>
<path d="M0 0 C0.66 0.33 1.32 0.66 2 1 C2 1.66 2 2.32 2 3 C2.99 3.66 3.98 4.32 5 5 C3.68 5 2.36 5 1 5 C2.15173355 7.46800047 3.04783565 9.04783565 5 11 C4.34 11.66 3.68 12.32 3 13 C2.67 12.01 2.34 11.02 2 10 C1.01 10 0.02 10 -1 10 C-1 11.98 -1 13.96 -1 16 C-1.66 16.33 -2.32 16.66 -3 17 C-3 14.03 -3 11.06 -3 8 C-2.34 7.67 -1.68 7.34 -1 7 C-1.66 6.34 -2.32 5.68 -3 5 C-2.75 2.9375 -2.75 2.9375 -2 1 C-1.34 0.67 -0.68 0.34 0 0 Z " fill="#EBE957" transform="translate(74,59)"/>
<path d="M0 0 C0.33 0 0.66 0 1 0 C1.33 1.65 1.66 3.3 2 5 C3.32 4.34 4.64 3.68 6 3 C5.67 5.97 5.34 8.94 5 12 C2.69 12 0.38 12 -2 12 C-1.34 8.04 -0.68 4.08 0 0 Z " fill="#6AADCF" transform="translate(101,88)"/>
<path d="M0 0 C0.33 0.66 0.66 1.32 1 2 C2.65 2 4.3 2 6 2 C5.47731534 4.76276177 4.89130413 7.3260876 4 10 C2.02 10 0.04 10 -2 10 C-1.34 6.7 -0.68 3.4 0 0 Z " fill="#77C3E8" transform="translate(237,98)"/>
<path d="M0 0 C0.33 0 0.66 0 1 0 C0.67 2.64 0.34 5.28 0 8 C0.99 8 1.98 8 3 8 C3 7.01 3 6.02 3 5 C3.99 5 4.98 5 6 5 C4.25 8.875 4.25 8.875 2 10 C-0.04498425 9.91219597 -2.08744948 9.75758462 -4.125 9.5625 C-5.76855469 9.40974609 -5.76855469 9.40974609 -7.4453125 9.25390625 C-8.28835937 9.17011719 -9.13140625 9.08632812 -10 9 C-10 8.01 -10 7.02 -10 6 C-8.906875 5.938125 -7.81375 5.87625 -6.6875 5.8125 C-2.85481593 5.39401189 -2.85481593 5.39401189 -1.125 2.4375 C-0.75375 1.633125 -0.3825 0.82875 0 0 Z " fill="#6EBCE0" transform="translate(257,90)"/>
<path d="M0 0 C4.29 0 8.58 0 13 0 C12.67 1.32 12.34 2.64 12 4 C8.04 4 4.08 4 0 4 C0 2.68 0 1.36 0 0 Z " fill="#173343" transform="translate(135,91)"/>
<path d="M0 0 C1.37478516 0.01740234 1.37478516 0.01740234 2.77734375 0.03515625 C3.69644531 0.04417969 4.61554688 0.05320312 5.5625 0.0625 C6.27277344 0.07410156 6.98304688 0.08570312 7.71484375 0.09765625 C7.38484375 0.84015625 7.05484375 1.58265625 6.71484375 2.34765625 C5.48701504 5.23648937 5.48701504 5.23648937 5.71484375 9.09765625 C5.05484375 9.09765625 4.39484375 9.09765625 3.71484375 9.09765625 C3.71484375 9.75765625 3.71484375 10.41765625 3.71484375 11.09765625 C1.40484375 11.09765625 -0.90515625 11.09765625 -3.28515625 11.09765625 C-3.28515625 10.43765625 -3.28515625 9.77765625 -3.28515625 9.09765625 C-1.30515625 9.09765625 0.67484375 9.09765625 2.71484375 9.09765625 C3.04484375 6.78765625 3.37484375 4.47765625 3.71484375 2.09765625 C2.06484375 2.09765625 0.41484375 2.09765625 -1.28515625 2.09765625 C-1.61515625 3.08765625 -1.94515625 4.07765625 -2.28515625 5.09765625 C-2.84765625 3.16015625 -2.84765625 3.16015625 -3.28515625 1.09765625 C-2.28515625 0.09765625 -2.28515625 0.09765625 0 0 Z " fill="#000509" transform="translate(194.28515625,82.90234375)"/>
<path d="M0 0 C2.04136395 -0.05451714 4.08315856 -0.09302485 6.125 -0.125 C7.83042969 -0.15980469 7.83042969 -0.15980469 9.5703125 -0.1953125 C13.05757767 0.00327891 15.7553862 0.7475199 19 2 C17 4 17 4 15.12060547 4.13525391 C14.37697754 4.08288574 13.63334961 4.03051758 12.8671875 3.9765625 C12.06152344 3.925 11.25585938 3.8734375 10.42578125 3.8203125 C9.58402344 3.75585938 8.74226562 3.69140625 7.875 3.625 C7.02550781 3.56828125 6.17601562 3.5115625 5.30078125 3.453125 C3.1998655 3.31149023 1.09982666 3.15695674 -1 3 C-0.67 2.01 -0.34 1.02 0 0 Z " fill="#6CC4EF" transform="translate(134,78)"/>
<path d="M0 0 C0.33 0 0.66 0 1 0 C1.33 2.31 1.66 4.62 2 7 C5.63 7.33 9.26 7.66 13 8 C12.67 8.66 12.34 9.32 12 10 C6.26157749 10.20413361 1.39460953 10.27141454 -4 8 C-4.66 9.32 -5.32 10.64 -6 12 C-6 10.02 -6 8.04 -6 6 C-5.34 6 -4.68 6 -4 6 C-4 5.34 -4 4.68 -4 4 C-2.68 3.67 -1.36 3.34 0 3 C0 2.01 0 1.02 0 0 Z " fill="#78C2EA" transform="translate(188,87)"/>
<path d="M0 0 C0.66 0.66 1.32 1.32 2 2 C2.99 2.66 3.98 3.32 5 4 C4.67 5.32 4.34 6.64 4 8 C1.75 8.6875 1.75 8.6875 -1 9 C-3.3125 7.6875 -3.3125 7.6875 -5 6 C-5 5.34 -5 4.68 -5 4 C-3.37373596 2.61767557 -1.7074998 1.28062485 0 0 Z " fill="#818032" transform="translate(83,80)"/>
<path d="M0 0 C2.97 0 5.94 0 9 0 C9.33 0.99 9.66 1.98 10 3 C9.34 3.66 8.68 4.32 8 5 C7.5978125 6.2684375 7.5978125 6.2684375 7.1875 7.5625 C6.795625 8.366875 6.40375 9.17125 6 10 C3.375 10.8125 3.375 10.8125 1 11 C1 10.34 1 9.68 1 9 C2.32 9 3.64 9 5 9 C5.33 6.69 5.66 4.38 6 2 C4.68 2 3.36 2 2 2 C1.67 3.98 1.34 5.96 1 8 C0.67 8 0.34 8 0 8 C0 5.36 0 2.72 0 0 Z " fill="#020203" transform="translate(247,83)"/>
<path d="M0 0 C7.59 0 15.18 0 23 0 C23 0.33 23 0.66 23 1 C16.4 1.33 9.8 1.66 3 2 C2.67 2.66 2.34 3.32 2 4 C7.28 4 12.56 4 18 4 C18 4.33 18 4.66 18 5 C11.73 5 5.46 5 -1 5 C-0.67 3.35 -0.34 1.7 0 0 Z " fill="#83C4E2" transform="translate(131,77)"/>
<path d="M0 0 C0.99 0 1.98 0 3 0 C3.144375 0.78375 3.28875 1.5675 3.4375 2.375 C3.87798925 4.96421018 3.87798925 4.96421018 5 7 C8.11198065 5.50163895 11.0534615 3.80066242 14 2 C14 2.66 14 3.32 14 4 C17.93075644 3.42547254 17.93075644 3.42547254 21 1 C21.33 1.66 21.66 2.32 22 3 C21.67 3.66 21.34 4.32 21 5 C18.74053416 5.35557331 16.5100223 5.44330506 14.2265625 5.55859375 C11.55733125 6.08775714 10.79544276 7.02964304 9 9 C6.5625 9.5 6.5625 9.5 4 9 C1.6875 6.75 1.6875 6.75 0 4 C0 2.68 0 1.36 0 0 Z " fill="#0E0C01" transform="translate(60,95)"/>
<path d="M0 0 C0.66 0 1.32 0 2 0 C2.66 0.99 3.32 1.98 4 3 C5.32 2.67 6.64 2.34 8 2 C7.67 4.31 7.34 6.62 7 9 C6.67 8.34 6.34 7.68 6 7 C4.68 7.33 3.36 7.66 2 8 C1.67 7.01 1.34 6.02 1 5 C0.67 6.32 0.34 7.64 0 9 C-0.66 9 -1.32 9 -2 9 C-2.33 10.32 -2.66 11.64 -3 13 C-3 10.03 -3 7.06 -3 4 C-2.34 3.67 -1.68 3.34 -1 3 C-0.67 2.01 -0.34 1.02 0 0 Z " fill="#6CB4D5" transform="translate(156,83)"/>
<path d="M0 0 C0.66 0 1.32 0 2 0 C2 0.66 2 1.32 2 2 C8.93 2.33 15.86 2.66 23 3 C23 3.33 23 3.66 23 4 C22.11477661 4.01401855 22.11477661 4.01401855 21.21166992 4.02832031 C18.53609795 4.08202657 15.86227447 4.16566852 13.1875 4.25 C12.25873047 4.26417969 11.32996094 4.27835937 10.37304688 4.29296875 C9.0340332 4.34130859 9.0340332 4.34130859 7.66796875 4.390625 C6.84578857 4.41157227 6.0236084 4.43251953 5.17651367 4.45410156 C2.25051003 5.187982 1.5405875 6.47429287 0 9 C-0.69580267 10.31836295 -1.37224433 11.64791086 -2 13 C-1.85769192 11.58297487 -1.71099254 10.1663904 -1.5625 8.75 C-1.48128906 7.96109375 -1.40007812 7.1721875 -1.31640625 6.359375 C-1.02365007 4.17635361 -0.57935581 2.1226818 0 0 Z " fill="#051825" transform="translate(185,73)"/>
<path d="M0 0 C0.66 0 1.32 0 2 0 C1.67 3.63 1.34 7.26 1 11 C-1.97 10.505 -1.97 10.505 -5 10 C-4.67 7.69 -4.34 5.38 -4 3 C-3.34 3 -2.68 3 -2 3 C-1.67 2.34 -1.34 1.68 -1 1 C-0.67 0.67 -0.34 0.34 0 0 Z " fill="#EDEC45" transform="translate(68,68)"/>
<path d="M0 0 C4.95 0 9.9 0 15 0 C14.67 1.98 14.34 3.96 14 6 C13.34 6 12.68 6 12 6 C12 4.68 12 3.36 12 2 C8.7 2.33 5.4 2.66 2 3 C1.67 4.65 1.34 6.3 1 8 C0.34 7.67 -0.32 7.34 -1 7 C-0.67 4.69 -0.34 2.38 0 0 Z " fill="#020307" transform="translate(174,67)"/>
<path d="M0 0 C0.66 0.33 1.32 0.66 2 1 C2 3.97 2 6.94 2 10 C1.01 10 0.02 10 -1 10 C-1 10.99 -1 11.98 -1 13 C-1.99 13 -2.98 13 -4 13 C-3.67 9.7 -3.34 6.4 -3 3 C-2.34 3 -1.68 3 -1 3 C-0.67 2.01 -0.34 1.02 0 0 Z " fill="#6FC3EE" transform="translate(261,85)"/>
<path d="M0 0 C2.64 0 5.28 0 8 0 C8.02689216 1.47906892 8.04634621 2.95827483 8.0625 4.4375 C8.07410156 5.26121094 8.08570313 6.08492188 8.09765625 6.93359375 C8 9 8 9 7 10 C4.66702567 10.04092937 2.33294775 10.04241723 0 10 C0 9.67 0 9.34 0 9 C1.65 9 3.3 9 5 9 C5.33 6.69 5.66 4.38 6 2 C4.35 2 2.7 2 1 2 C1 2.99 1 3.98 1 5 C0.34 5 -0.32 5 -1 5 C-0.67 3.35 -0.34 1.7 0 0 Z " fill="#000408" transform="translate(220,83)"/>
<path d="M0 0 C0.66 0.99 1.32 1.98 2 3 C2.99 3 3.98 3 5 3 C4.67 4.98 4.34 6.96 4 9 C3.01 9 2.02 9 1 9 C0.67 9.99 0.34 10.98 0 12 C-0.66 12 -1.32 12 -2 12 C-2.17835515 7.45194365 -1.99785435 4.1205746 0 0 Z " fill="#73BEE4" transform="translate(157,87)"/>
<path d="M0 0 C0.99 0.33 1.98 0.66 3 1 C2.814375 1.598125 2.62875 2.19625 2.4375 2.8125 C1.77906313 5.16408762 1.77906313 5.16408762 3 8 C1.75 11.625 1.75 11.625 0 15 C-0.99 15.33 -1.98 15.66 -3 16 C-3 13.69 -3 11.38 -3 9 C-2.34 9 -1.68 9 -1 9 C-0.67 6.03 -0.34 3.06 0 0 Z " fill="#6DC5EE" transform="translate(105,78)"/>
<path d="M0 0 C0.66 0 1.32 0 2 0 C1.67 2.64 1.34 5.28 1 8 C-1.375 8.625 -1.375 8.625 -4 9 C-4.66 8.34 -5.32 7.68 -6 7 C-5.34 5.68 -4.68 4.36 -4 3 C-3.67 3.33 -3.34 3.66 -3 4 C-2.67 3.34 -2.34 2.68 -2 2 C-1.34 2 -0.68 2 0 2 C0 1.34 0 0.68 0 0 Z " fill="#D4D446" transform="translate(55,93)"/>
<path d="M0 0 C2.14201526 3.21302289 2.65325876 4.26709281 2 8 C-0.3125 9.6875 -0.3125 9.6875 -3 11 C-3.99 11.66 -4.98 12.32 -6 13 C-8.1875 12.625 -8.1875 12.625 -10 12 C-9.01 11.34 -8.02 10.68 -7 10 C-6.67 9.34 -6.34 8.68 -6 8 C-4.68 8.33 -3.36 8.66 -2 9 C-2.061875 7.88625 -2.061875 7.88625 -2.125 6.75 C-1.99601866 3.91241048 -1.42948778 2.41226062 0 0 Z " fill="#E0E152" transform="translate(69,74)"/>
<path d="M0 0 C0.33 0 0.66 0 1 0 C1.33 2.31 1.66 4.62 2 7 C9.59 7.33 17.18 7.66 25 8 C25 8.33 25 8.66 25 9 C16.42 9 7.84 9 -1 9 C-0.67 6.03 -0.34 3.06 0 0 Z " fill="#010C1B" transform="translate(154,92)"/>
<path d="M0 0 C3.3 0 6.6 0 10 0 C9.67 2.64 9.34 5.28 9 8 C7.68 8.33 6.36 8.66 5 9 C5.33 6.36 5.66 3.72 6 1 C4.02 1 2.04 1 0 1 C0 0.67 0 0.34 0 0 Z " fill="#0F1C28" transform="translate(166,82)"/>
<path d="M0 0 C0.87890625 6.15234375 0.87890625 6.15234375 1 8 C0 9 0 9 -2.5625 9.0625 C-3.366875 9.041875 -4.17125 9.02125 -5 9 C-4.38709677 3.48387097 -4.38709677 3.48387097 -2.5 1.125 C-1 0 -1 0 0 0 Z " fill="#98983F" transform="translate(79,90)"/>
<path d="M0 0 C2.97 0.495 2.97 0.495 6 1 C5.34 4.63 4.68 8.26 4 12 C3.67 12 3.34 12 3 12 C2.67 9.36 2.34 6.72 2 4 C1.01 4.99 0.02 5.98 -1 7 C-1.33 6.01 -1.66 5.02 -2 4 C-1.34 4 -0.68 4 0 4 C0 2.68 0 1.36 0 0 Z " fill="#72B8DB" transform="translate(260,82)"/>
<path d="M0 0 C0.33 0.99 0.66 1.98 1 3 C-0.69636171 5.10407096 -1.54981464 5.93240678 -4.26831055 6.34057617 C-5.13238525 6.32486572 -5.99645996 6.30915527 -6.88671875 6.29296875 C-7.82451172 6.28330078 -8.76230469 6.27363281 -9.72851562 6.26367188 C-10.70498047 6.23853516 -11.68144531 6.21339844 -12.6875 6.1875 C-13.67556641 6.17396484 -14.66363281 6.16042969 -15.68164062 6.14648438 C-18.12164231 6.11112203 -20.56054719 6.06177033 -23 6 C-23 5.67 -23 5.34 -23 5 C-21.13794922 4.96132812 -21.13794922 4.96132812 -19.23828125 4.921875 C-17.59631972 4.86557918 -15.954394 4.80823217 -14.3125 4.75 C-13.08756836 4.72873047 -13.08756836 4.72873047 -11.83789062 4.70703125 C-6.64953215 4.49697625 -3.80141335 3.87109303 0 0 Z " fill="#7CC1E2" transform="translate(207,94)"/>
<path d="M0 0 C1.65 0.33 3.3 0.66 5 1 C5 1.66 5 2.32 5 3 C4.21625 3.144375 3.4325 3.28875 2.625 3.4375 C0.03578982 3.87798925 0.03578982 3.87798925 -2 5 C-2.46523063 6.89533342 -2.46523063 6.89533342 -2.625 9.0625 C-2.810625 11.0115625 -2.810625 11.0115625 -3 13 C-4.50559539 11.03617993 -5.89131683 9.21736634 -7 7 C-6.34 6.67 -5.68 6.34 -5 6 C-5.66 5.34 -6.32 4.68 -7 4 C-5.02 3.67 -3.04 3.34 -1 3 C-0.67 2.01 -0.34 1.02 0 0 Z " fill="#2C2A03" transform="translate(96,63)"/>
<path d="M0 0 C1.75 1.4375 1.75 1.4375 3 3 C2.67 3.66 2.34 4.32 2 5 C0.33333333 5.33333333 -1.33333333 5.66666667 -3 6 C-3.33 6.66 -3.66 7.32 -4 8 C-4 7.34 -4 6.68 -4 6 C-4.66 6 -5.32 6 -6 6 C-6 5.34 -6 4.68 -6 4 C-5.34 4 -4.68 4 -4 4 C-4 3.01 -4 2.02 -4 1 C-2.1875 0.3125 -2.1875 0.3125 0 0 Z " fill="#A0A235" transform="translate(84,66)"/>
<path d="M0 0 C0.33 0 0.66 0 1 0 C0.67 2.97 0.34 5.94 0 9 C2.97 9 5.94 9 9 9 C9 9.66 9 10.32 9 11 C5.37 11 1.74 11 -2 11 C-3 9 -3 9 -2.44140625 6.8359375 C-2.15136719 6.02382812 -1.86132812 5.21171875 -1.5625 4.375 C-1.27503906 3.55773437 -0.98757812 2.74046875 -0.69140625 1.8984375 C-0.46324219 1.27195312 -0.23507813 0.64546875 0 0 Z " fill="#020A17" transform="translate(165,83)"/>
<path d="M0 0 C7.92 0.33 15.84 0.66 24 1 C24 1.33 24 1.66 24 2 C13.605 2.495 13.605 2.495 3 3 C2.34 4.32 1.68 5.64 1 7 C-0.0625 4.625 -0.0625 4.625 -1 2 C-0.67 1.34 -0.34 0.68 0 0 Z " fill="#001120" transform="translate(239,75)"/>
<path d="M0 0 C3.45925163 1.2491742 6.14693203 2.67527795 9 5 C6 6 6 6 5 6 C5 7.65 5 9.3 5 11 C4.34 11 3.68 11 3 11 C2.67 9.35 2.34 7.7 2 6 C1.67 6 1.34 6 1 6 C0.67 4.02 0.34 2.04 0 0 Z " fill="#2A2703" transform="translate(76,85)"/>
<path d="M0 0 C0.66 0.33 1.32 0.66 2 1 C2 3.31 2 5.62 2 8 C0.68 8.33 -0.64 8.66 -2 9 C-2.66 7.68 -3.32 6.36 -4 5 C-2.68 4.34 -1.36 3.68 0 3 C0 2.01 0 1.02 0 0 Z " fill="#DADB49" transform="translate(66,92)"/>
<path d="M0 0 C0.33 1.32 0.66 2.64 1 4 C0.01 4 -0.98 4 -2 4 C-2 4.66 -2 5.32 -2 6 C-0.35 6 1.3 6 3 6 C3 6.66 3 7.32 3 8 C1.35 7.67 -0.3 7.34 -2 7 C-2.33 8.98 -2.66 10.96 -3 13 C-3.33 13 -3.66 13 -4 13 C-4.17673419 8.4932782 -4.13551182 5.03374456 -2 1 C-1.34 0.67 -0.68 0.34 0 0 Z " fill="#78BADB" transform="translate(131,86)"/>
<path d="M0 0 C0.33 0.66 0.66 1.32 1 2 C0.071875 2.1546875 0.071875 2.1546875 -0.875 2.3125 C-3.36526484 2.87525373 -3.36526484 2.87525373 -5 6 C-5.66 6 -6.32 6 -7 6 C-7 6.99 -7 7.98 -7 9 C-9.31 9 -11.62 9 -14 9 C-14 8.67 -14 8.34 -14 8 C-12.8553125 7.9071875 -12.8553125 7.9071875 -11.6875 7.8125 C-8.78625199 7.26658068 -8.78625199 7.26658068 -7.5625 4.5625 C-5.53037249 1.22981088 -3.6981722 0.90399765 0 0 Z " fill="#D6D945" transform="translate(72,85)"/>
<path d="M0 0 C0.66 0 1.32 0 2 0 C2 1.65 2 3.3 2 5 C6.29 5 10.58 5 15 5 C15 5.33 15 5.66 15 6 C14.22914063 6.06058594 13.45828125 6.12117188 12.6640625 6.18359375 C11.66117188 6.26738281 10.65828125 6.35117188 9.625 6.4375 C8.12839844 6.55931641 8.12839844 6.55931641 6.6015625 6.68359375 C4.02072387 6.84965626 4.02072387 6.84965626 2 8 C0.4375 6.8125 0.4375 6.8125 -1 5 C-0.6875 2.3125 -0.6875 2.3125 0 0 Z " fill="#609DB7" transform="translate(188,77)"/>
<path d="M0 0 C-0.33 1.65 -0.66 3.3 -1 5 C-1.99 5 -2.98 5 -4 5 C-3.67 3.68 -3.34 2.36 -3 1 C-5.31 0.67 -7.62 0.34 -10 0 C-10 -0.33 -10 -0.66 -10 -1 C-3.375 -2.25 -3.375 -2.25 0 0 Z " fill="#72B8DC" transform="translate(157,79)"/>
<path d="M0 0 C2.31 0 4.62 0 7 0 C6.67 2.64 6.34 5.28 6 8 C3 4.25 3 4.25 3 2 C2.01 2 1.02 2 0 2 C0 1.34 0 0.68 0 0 Z " fill="#649FBC" transform="translate(179,69)"/>
<path d="M0 0 C0.66 0.33 1.32 0.66 2 1 C2 2.65 2 4.3 2 6 C3.32 6.33 4.64 6.66 6 7 C5.34 8.32 4.68 9.64 4 11 C1.4375 8.875 1.4375 8.875 -1 6 C-0.8125 2.6875 -0.8125 2.6875 0 0 Z " fill="#75B7D9" transform="translate(231,88)"/>
<path d="M0 0 C0.33 0 0.66 0 1 0 C1.027193 1.58323688 1.04648306 3.16661062 1.0625 4.75 C1.07410156 5.63171875 1.08570312 6.5134375 1.09765625 7.421875 C1.00640071 9.83102137 0.88409929 11.7569138 0 14 C-0.99 14.33 -1.98 14.66 -3 15 C-2.01 10.05 -1.02 5.1 0 0 Z " fill="#0B1B28" transform="translate(109,83)"/>
<path d="M0 0 C1.9451 2.91765 2.45276317 4.62537285 3 8 C1.125 7.75 1.125 7.75 -1 7 C-2.25 4.9375 -2.25 4.9375 -3 3 C-2.01 2.01 -1.02 1.02 0 0 Z " fill="#C0C451" transform="translate(44,88)"/>
<path d="M0 0 C2 3 2 3 1.625 6.1875 C1.41875 7.115625 1.2125 8.04375 1 9 C4.3 9 7.6 9 11 9 C11 9.33 11 9.66 11 10 C7.37 10 3.74 10 0 10 C-0.86988854 5.65055731 -1.03595522 4.02871475 0 0 Z " fill="#163042" transform="translate(190,85)"/>
<path d="M0 0 C0.33 0 0.66 0 1 0 C1 4.29 1 8.58 1 13 C0.01 13 -0.98 13 -2 13 C-1.48041715 8.62065881 -0.94324258 4.31196609 0 0 Z " fill="#67ABC5" transform="translate(104,74)"/>
<path d="M0 0 C0.66 0 1.32 0 2 0 C2 0.99 2 1.98 2 3 C2.66 3 3.32 3 4 3 C3.67 3.99 3.34 4.98 3 6 C0.9375 6.6875 0.9375 6.6875 -1 7 C-1.33 5.35 -1.66 3.7 -2 2 C-1.34 2 -0.68 2 0 2 C0 1.34 0 0.68 0 0 Z " fill="#72C3EF" transform="translate(160,80)"/>
<path d="M0 0 C0.33 0 0.66 0 1 0 C1 2.31 1 4.62 1 7 C-1.97 7 -4.94 7 -8 7 C-7.67 6.34 -7.34 5.68 -7 5 C-5.02 5 -3.04 5 -1 5 C-0.67 3.35 -0.34 1.7 0 0 Z " fill="#0A1A24" transform="translate(242,103)"/>
<path d="M0 0 C1.32 0.33 2.64 0.66 4 1 C3.67 1.66 3.34 2.32 3 3 C4.65 3.33 6.3 3.66 8 4 C8 4.33 8 4.66 8 5 C4.37 5 0.74 5 -3 5 C-2.34 4.01 -1.68 3.02 -1 2 C-0.67 1.34 -0.34 0.68 0 0 Z " fill="#7DC5E8" transform="translate(224,95)"/>
<path d="M0 0 C1.32 0 2.64 0 4 0 C4 0.99 4 1.98 4 3 C0.68629 5.20914 -0.3446021 5.22481553 -4.1875 5.125 C-5.08855469 5.10695313 -5.98960938 5.08890625 -6.91796875 5.0703125 C-7.60503906 5.04710938 -8.29210937 5.02390625 -9 5 C-9 4.67 -9 4.34 -9 4 C-6.36 4 -3.72 4 -1 4 C-0.67 2.68 -0.34 1.36 0 0 Z " fill="#5EA1C1" transform="translate(119,78)"/>
<path d="M0 0 C1.4540625 0.0309375 1.4540625 0.0309375 2.9375 0.0625 C2.9375 1.7125 2.9375 3.3625 2.9375 5.0625 C2.6075 4.0725 2.2775 3.0825 1.9375 2.0625 C0.6175 2.0625 -0.7025 2.0625 -2.0625 2.0625 C-1.7325 3.7125 -1.4025 5.3625 -1.0625 7.0625 C-1.7225 7.0625 -2.3825 7.0625 -3.0625 7.0625 C-3.44383299 5.0710944 -3.77575582 3.06970923 -4.0625 1.0625 C-3.0625 0.0625 -3.0625 0.0625 0 0 Z " fill="#6EABC9" transform="translate(109.0625,68.9375)"/>
<path d="M0 0 C3 1 3 1 4 3 C4.06950541 4.54023996 4.08452357 6.08334988 4.0625 7.625 C4.05347656 8.44226563 4.04445313 9.25953125 4.03515625 10.1015625 C4.02355469 10.72804688 4.01195313 11.35453125 4 12 C3.67 12 3.34 12 3 12 C2.67 9.03 2.34 6.06 2 3 C0.35 3.33 -1.3 3.66 -3 4 C-3 3.34 -3 2.68 -3 2 C-2.01 1.34 -1.02 0.68 0 0 Z " fill="#A1A446" transform="translate(97,65)"/>
<path d="M0 0 C1.5 1.3125 1.5 1.3125 3 3 C3 3.99 3 4.98 3 6 C3.66 6 4.32 6 5 6 C5 6.66 5 7.32 5 8 C3.02 8 1.04 8 -1 8 C-0.67 5.36 -0.34 2.72 0 0 Z " fill="#5A9EBF" transform="translate(236,100)"/>
<path d="M0 0 C1.98 0 3.96 0 6 0 C6.33 0.99 6.66 1.98 7 3 C4.35261084 4.4606285 3.10551666 5 0 5 C0 3.35 0 1.7 0 0 Z " fill="#6AB8DC" transform="translate(218,95)"/>
<path d="M0 0 C1.98 0.99 1.98 0.99 4 2 C4 3.65 4 5.3 4 7 C2.68 6.67 1.36 6.34 0 6 C0 4.02 0 2.04 0 0 Z " fill="#72C2EA" transform="translate(121,92)"/>
<path d="M0 0 C0.33 0 0.66 0 1 0 C1.33 2.64 1.66 5.28 2 8 C4.31 8 6.62 8 9 8 C9 8.33 9 8.66 9 9 C5.7 9 2.4 9 -1 9 C-0.67 6.03 -0.34 3.06 0 0 Z " fill="#153245" transform="translate(246,86)"/>
<path d="M0 0 C0.98484375 0.00902344 1.9696875 0.01804687 2.984375 0.02734375 C4.10585937 0.04474609 4.10585937 0.04474609 5.25 0.0625 C5.25 0.3925 5.25 0.7225 5.25 1.0625 C3.19921875 1.29036458 1.1484375 1.51822917 -0.90234375 1.74609375 C-2.76140229 1.88136614 -2.76140229 1.88136614 -3.75 3.0625 C-5.74958364 3.10330783 -7.75045254 3.10504356 -9.75 3.0625 C-9.75 2.4025 -9.75 1.7425 -9.75 1.0625 C-6.43929162 0.06140485 -3.44915231 -0.04106134 0 0 Z " fill="#000305" transform="translate(166.75,73.9375)"/>
<path d="M0 0 C0.66 0 1.32 0 2 0 C1.91253716 1.43861294 1.80434652 2.87597508 1.6875 4.3125 C1.62949219 5.11300781 1.57148438 5.91351563 1.51171875 6.73828125 C0.91793306 9.36272334 0.04219706 10.30820672 -2 12 C-1 3.42857143 -1 3.42857143 0 0 Z " fill="#71B1D3" transform="translate(176,82)"/>
<path d="M0 0 C0.33 0 0.66 0 1 0 C0.67 2.97 0.34 5.94 0 9 C-0.66 9 -1.32 9 -2 9 C-2.33 10.32 -2.66 11.64 -3 13 C-3 10.03 -3 7.06 -3 4 C-2.34 3.67 -1.68 3.34 -1 3 C-0.67 2.01 -0.34 1.02 0 0 Z " fill="#3B708E" transform="translate(156,83)"/>
<path d="M0 0 C0.99 1.32 1.98 2.64 3 4 C2.34 4.66 1.68 5.32 1 6 C-1.125 5.625 -1.125 5.625 -3 5 C-2.625 3.0625 -2.625 3.0625 -2 1 C-1.34 0.67 -0.68 0.34 0 0 Z " fill="#E6E954" transform="translate(60,80)"/>
<path d="M0 0 C1.32 0.66 2.64 1.32 4 2 C3.67 3.65 3.34 5.3 3 7 C1.35 7 -0.3 7 -2 7 C-1.34 4.69 -0.68 2.38 0 0 Z " fill="#70C4EE" transform="translate(177,87)"/>
<path d="M0 0 C1 3 1 3 -0.4375 6.1875 C-1.2109375 7.5796875 -1.2109375 7.5796875 -2 9 C-2.66 9 -3.32 9 -4 9 C-3.38461538 3.46153846 -3.38461538 3.46153846 -1.4375 1.125 C-0.963125 0.75375 -0.48875 0.3825 0 0 Z " fill="#FAFAAC" transform="translate(59,69)"/>
<path d="M0 0 C0.99 0.33 1.98 0.66 3 1 C3 2.98 3 4.96 3 7 C1.68 6.67 0.36 6.34 -1 6 C-0.67 4.02 -0.34 2.04 0 0 Z " fill="#08080B" transform="translate(232,101)"/>
<path d="M0 0 C0.66 0 1.32 0 2 0 C1.34 2.97 0.68 5.94 0 9 C-0.66 9 -1.32 9 -2 9 C-1.125 1.125 -1.125 1.125 0 0 Z " fill="#70B0CC" transform="translate(204,85)"/>
<path d="M0 0 C0.33 0.66 0.66 1.32 1 2 C2.32 2 3.64 2 5 2 C4.34 3.32 3.68 4.64 3 6 C2.34 5.67 1.68 5.34 1 5 C-0.32860925 4.64830932 -1.66158328 4.31229724 -3 4 C-2.34 3.67 -1.68 3.34 -1 3 C-0.67 2.01 -0.34 1.02 0 0 Z " fill="#EDEB43" transform="translate(83,62)"/>
<path d="M0 0 C1.98 0 3.96 0 6 0 C6 0.99 6 1.98 6 3 C4.35 3.33 2.7 3.66 1 4 C0.67 2.68 0.34 1.36 0 0 Z " fill="#6CC8EE" transform="translate(232,86)"/>
<path d="M0 0 C2.31 0 4.62 0 7 0 C7 0.99 7 1.98 7 3 C4.69 2.67 2.38 2.34 0 2 C0 1.34 0 0.68 0 0 Z " fill="#6BC5F0" transform="translate(144,87)"/>
<path d="M0 0 C1.98 0 3.96 0 6 0 C5.360625 0.20625 4.72125 0.4125 4.0625 0.625 C1.65074923 1.89538209 1.65074923 1.89538209 1.25 5.125 C1.1675 6.07375 1.085 7.0225 1 8 C0.67 8 0.34 8 0 8 C0 5.36 0 2.72 0 0 Z " fill="#000511" transform="translate(247,83)"/>
<path d="M0 0 C1.65 0 3.3 0 5 0 C3.75 2 3.75 2 2 4 C0.68 4 -0.64 4 -2 4 C-1.34 2.68 -0.68 1.36 0 0 Z " fill="#E6E9C5" transform="translate(53,68)"/>
<path d="M0 0 C0.66 0 1.32 0 2 0 C2.33 1.32 2.66 2.64 3 4 C-0.69541586 4.95024979 -3.30458414 4.95024979 -7 4 C-7 3.67 -7 3.34 -7 3 C-4.69 3 -2.38 3 0 3 C0 2.01 0 1.02 0 0 Z " fill="#000A15" transform="translate(125,97)"/>
<path d="M0 0 C2.31 0.33 4.62 0.66 7 1 C6.01 2.98 5.02 4.96 4 7 C3.71125 6.401875 3.4225 5.80375 3.125 5.1875 C1.95257974 2.80672208 1.95257974 2.80672208 0 0 Z " fill="#081B28" transform="translate(154,76)"/>
<path d="M0 0 C1.32 0.33 2.64 0.66 4 1 C4 2.65 4 4.3 4 6 C2.68 6.33 1.36 6.66 0 7 C0.66 5.02 1.32 3.04 2 1 C1.34 0.67 0.68 0.34 0 0 Z " fill="#A2A32C" transform="translate(62,65)"/>
<path d="M0 0 C2.1519437 3.22791555 2.20086443 4.28400809 2 8 C1.01 8.495 1.01 8.495 0 9 C0 8.01 0 7.02 0 6 C-0.66 6 -1.32 6 -2 6 C-1.34 4.02 -0.68 2.04 0 0 Z " fill="#D1D049" transform="translate(69,74)"/>
<path d="M0 0 C1.98 0.495 1.98 0.495 4 1 C1.525 2.485 1.525 2.485 -1 4 C-0.67 2.68 -0.34 1.36 0 0 Z " fill="#000000" transform="translate(66,55)"/>
<path d="M0 0 C0.66 0.33 1.32 0.66 2 1 C1.34 2.32 0.68 3.64 0 5 C-0.5625 3.0625 -0.5625 3.0625 -1 1 C-0.67 0.67 -0.34 0.34 0 0 Z " fill="#020004" transform="translate(37,71)"/>
<path d="" fill="#000000" transform="translate(0,0)"/>
<path d="" fill="#000000" transform="translate(0,0)"/>
</svg>
