<?xml version="1.0" encoding="UTF-8"?>
<svg version="1.1" xmlns="http://www.w3.org/2000/svg" width="217" height="232">
<path d="M0 0 C3.40925951 1.71161594 5.4584727 4.06463467 7.375 7.375 C8 10 8 10 7.5234375 13.26953125 C7.6233324 16.9115435 7.6233324 16.9115435 9.52685547 18.66015625 C11.70419155 20.33526937 13.93265439 21.8373117 16.25 23.3125 C17.02730469 23.83650391 17.80460937 24.36050781 18.60546875 24.90039062 C23.61606429 28.28423031 23.61606429 28.28423031 29 31 C31.02592221 30.18249961 31.02592221 30.18249961 33 29 C36.93543314 28.24346572 40.46336719 28.25021442 44.10546875 30.02734375 C47.65063895 32.66611992 49.4283729 35.04809185 50.1875 39.4375 C50.35538936 44.41541943 49.04840404 47.0917897 46 51 C43.03760946 52.86759404 40.61817848 53.87619235 37.19140625 54.5625 C32.54147908 56.65695924 30.60452946 60.0319511 27.8125 64.1875 C26.68255142 65.82659862 25.55101306 67.46460231 24.41796875 69.1015625 C23.85255371 69.92430664 23.28713867 70.74705078 22.70458984 71.59472656 C21.09588789 73.86469672 19.41807574 76.0425412 17.67578125 78.2109375 C17.16104248 78.86296143 16.64630371 79.51498535 16.1159668 80.18676758 C15.1500777 81.40191838 14.16671101 82.60346013 13.16333008 83.7878418 C11.28014208 86.20658 10.00785643 88.18698876 9.9777832 91.29907227 C10.24435584 93.67319366 10.24435584 93.67319366 10.72241211 95.90283203 C11.20989585 99.58575672 9.87616058 101.91341323 8 105 C4.81110649 107.89225225 2.2553217 109.24777252 -2 109.5 C-6.20644782 109.27436678 -8.78995069 107.75147083 -12 105 C-14.80476313 101.43030146 -14.14466817 97.34004512 -14 93 C-15.85625 92.4121875 -15.85625 92.4121875 -17.75 91.8125 C-22.77382243 90.17239315 -27.51530062 88.02619304 -32.30078125 85.79296875 C-34.92669983 84.73852696 -34.92669983 84.73852696 -37.1875 85.75390625 C-37.785625 86.16511719 -38.38375 86.57632813 -39 87 C-42.8094393 89.48056513 -45.20058879 90.28462465 -49.625 89.5 C-53.80190454 88.37490787 -55.73578884 86.77368527 -58 83 C-59.60632723 79.78734554 -59.47931944 76.48478188 -59 73 C-56.98497111 69.24787724 -55.54533858 67.36355905 -52 65 C-49.30078125 64.8046875 -49.30078125 64.8046875 -46.3125 64.875 C-45.31863281 64.89304687 -44.32476562 64.91109375 -43.30078125 64.9296875 C-42.54152344 64.95289062 -41.78226563 64.97609375 -41 65 C-40.73703125 64.26652344 -40.4740625 63.53304687 -40.203125 62.77734375 C-38.99876466 59.99714828 -37.58072652 57.96212051 -35.75 55.5625 C-33.18177888 51.95943996 -33.18177888 51.95943996 -33.5625 47.5625 C-34.036875 46.716875 -34.51125 45.87125 -35 45 C-35.33 44.34 -35.66 43.68 -36 43 C-37.92806341 42.68344336 -37.92806341 42.68344336 -40.1875 42.625 C-44.80065627 42.17028507 -47.54880493 41.28685245 -51 38 C-53.55933616 33.4530007 -54.35108428 30.259773 -52.9375 25.1875 C-48.87940762 18.5112835 -48.87940762 18.5112835 -44.91796875 17.43359375 C-41.03816231 16.8223473 -38.72255976 16.65442794 -35.125 18.375 C-34.42375 18.91125 -33.7225 19.4475 -33 20 C-29.04340583 21.31886472 -27.69280551 20.3803534 -23.9375 18.6875 C-19.51042449 16.52938261 -19.51042449 16.52938261 -16.98046875 12.546875 C-16.74499666 10.81835461 -16.54523824 9.08456377 -16.3828125 7.34765625 C-15.95241585 4.70818293 -15.41243053 3.70905223 -13.5 1.875 C-8.85423749 -0.61380134 -5.16346886 -1.04778183 0 0 Z M-22.5625 22.5 C-23.17802734 22.83386719 -23.79355469 23.16773438 -24.42773438 23.51171875 C-25.95283109 24.33929061 -27.47654502 25.1694098 -29 26 C-29 28.31 -29 30.62 -29 33 C-27.02 33.99 -25.04 34.98 -23 36 C-21.8745809 34.39612733 -20.74968028 32.79189084 -19.625 31.1875 C-18.99851562 30.29417969 -18.37203125 29.40085937 -17.7265625 28.48046875 C-14.83005076 24.98754355 -14.83005076 24.98754355 -14.375 20.8125 C-14.58125 20.214375 -14.7875 19.61625 -15 19 C-17.51023167 19 -20.34315585 21.28859824 -22.5625 22.5 Z M-4 24 C-5.47919922 23.90332031 -5.47919922 23.90332031 -6.98828125 23.8046875 C-10.11857759 23.67836909 -10.11857759 23.67836909 -12.046875 26.01171875 C-12.60890625 26.89472656 -13.1709375 27.77773437 -13.75 28.6875 C-14.32234375 29.55761719 -14.8946875 30.42773438 -15.484375 31.32421875 C-16.90608638 33.83419889 -18.00608465 36.2959656 -19 39 C-16.36 40.65 -13.72 42.3 -11 44 C-10.360625 43.505 -9.72125 43.01 -9.0625 42.5 C-4.95702949 40.4891573 -1.49730506 40.25590044 3 41 C6.72743347 43.26887255 8.3371334 45.4495112 11 49 C15.62 47.68 20.24 46.36 25 45 C26.14416281 39.99888709 26.14416281 39.99888709 26 35 C23.64804324 31.87134003 20.66129041 30.00711037 17.375 27.9375 C16.55386719 27.37095703 15.73273438 26.80441406 14.88671875 26.22070312 C7.51330462 21.26353662 4.3169491 20.35221531 -4 24 Z M-31 37 C-31.99 38.485 -31.99 38.485 -33 40 C-31.6446674 42.53673288 -31.6446674 42.53673288 -30 45 C-29.34 45 -28.68 45 -28 45 C-27.34 43.02 -26.68 41.04 -26 39 C-28.475 38.01 -28.475 38.01 -31 37 Z M-22 42 C-25.18511508 45.91582505 -25.18511508 45.91582505 -25.9140625 50.73046875 C-24.73759286 54.93861016 -22.71521968 58.07254253 -20.3125 61.6875 C-19.39710609 63.10116279 -18.48434831 64.516536 -17.57421875 65.93359375 C-17.13126465 66.62308105 -16.68831055 67.31256836 -16.23193359 68.02294922 C-14.06782838 71.49598212 -12.19857781 75.1169199 -10.3515625 78.765625 C-8.85394622 81.24145308 -7.11485088 83.03813833 -5 85 C-3.79504091 84.01592689 -3.79504091 84.01592689 -3.88647461 82.14233398 C-3.89432983 80.95619507 -3.89432983 80.95619507 -3.90234375 79.74609375 C-3.90717773 78.46508789 -3.90717773 78.46508789 -3.91210938 77.15820312 C-3.92048828 76.26037109 -3.92886719 75.36253906 -3.9375 74.4375 C-3.94201172 73.53580078 -3.94652344 72.63410156 -3.95117188 71.70507812 C-3.96299775 69.46998686 -3.9794778 67.23502563 -4 65 C-5.11503906 64.43152344 -6.23007813 63.86304687 -7.37890625 63.27734375 C-9.79376729 61.894381 -10.86135438 61.22595597 -12.33984375 58.81640625 C-12.53707031 58.07261719 -12.73429687 57.32882813 -12.9375 56.5625 C-13.15921875 55.77488281 -13.3809375 54.98726562 -13.609375 54.17578125 C-14 52 -14 52 -13.6875 49.25 C-13.7557967 46.86242088 -13.7557967 46.86242088 -15.76953125 45.58984375 C-17.81020165 44.30683031 -19.86583781 43.1194824 -22 42 Z M11 53 C9.34968253 55.01338732 8.6888132 56.49076882 8.06640625 59 C7 61 7 61 0 65 C0 71.27 0 77.54 0 84 C1.98 84.99 3.96 85.98 6 87 C14.34881717 75.67798349 22.68768856 64.3488497 31 53 C29.70532323 50.94009522 29.70532323 50.94009522 28 49 C22.10598961 49 16.38403059 50.67037138 11 53 Z M-30 54 C-31.46436591 56.03698964 -32.83729839 58.07681383 -34.1875 60.1875 C-34.58130859 60.76564453 -34.97511719 61.34378906 -35.38085938 61.93945312 C-36.66640806 63.87229375 -36.66640806 63.87229375 -38 67 C-37.50062736 69.49219303 -37.50062736 69.49219303 -36 72 C-35.76156372 73.06371826 -35.76156372 73.06371826 -35.51831055 74.14892578 C-34.691832 77.72580451 -34.04289843 80.22118204 -31.02734375 82.47314453 C-28.55633582 83.67760824 -26.09189848 84.64782557 -23.5 85.5625 C-22.63246094 85.90345703 -21.76492187 86.24441406 -20.87109375 86.59570312 C-16.07192975 88.46142419 -16.07192975 88.46142419 -11 89 C-9.61298339 85.99564666 -9.61298339 85.99564666 -11.30761719 83.26025391 C-12.2922998 81.63482666 -12.2922998 81.63482666 -13.296875 79.9765625 C-13.64631165 79.3933725 -13.99574829 78.8101825 -14.35577393 78.20932007 C-15.47767407 76.34195131 -16.61353528 74.48353325 -17.75 72.625 C-18.50093776 71.38077382 -19.25094892 70.13598791 -20 68.890625 C-21.38593168 66.58968655 -22.77815568 64.29302995 -24.17480469 61.99853516 C-25.36267637 60.04703168 -26.53115594 58.08354719 -27.67675781 56.10693359 C-28.11342773 55.41164551 -28.55009766 54.71635742 -29 54 C-29.33 54 -29.66 54 -30 54 Z " fill="#D74E36" transform="translate(120,37)"/>
<path d="M0 0 C3.4155414 1.71476976 5.45638641 4.1018558 7.4375 7.375 C8.53345534 12.48945825 7.68365159 15.90201412 4.9375 20.3125 C0.81432261 24.08476867 -3.05116711 24.76152518 -8.51171875 25.203125 C-12.06974158 26.342586 -12.92687222 28.27835454 -14.8125 31.4375 C-15.41707031 32.42621094 -16.02164063 33.41492188 -16.64453125 34.43359375 C-18.15567392 36.81102071 -18.15567392 36.81102071 -18 39 C-16.44144019 40.35712166 -16.44144019 40.35712166 -14.5 41.625 C-13.52546875 42.29402344 -13.52546875 42.29402344 -12.53125 42.9765625 C-12.0259375 43.31429687 -11.520625 43.65203125 -11 44 C-11.33 44.99 -11.66 45.98 -12 47 C-15.82097239 46.46930939 -18.06171403 45.50298434 -21 43 C-23.18911155 45.13034253 -23.18911155 45.13034253 -25 48 C-24.82349696 53.54380014 -22.28008588 57.22053061 -19.3125 61.6875 C-18.40001438 63.10266743 -17.48986092 64.51934129 -16.58203125 65.9375 C-16.13939941 66.62714844 -15.69676758 67.31679687 -15.24072266 68.02734375 C-11.62999811 73.76812579 -8.42969462 79.66704597 -6 86 C-7.98 86.495 -7.98 86.495 -10 87 C-15.21819431 79.63313745 -19.55618385 71.81809461 -23.92285156 63.93261719 C-25.59038784 60.94072754 -27.29481624 57.97056899 -29 55 C-30.15330947 56.57789598 -31.29737927 58.1625482 -32.4375 59.75 C-33.07558594 60.63171875 -33.71367188 61.5134375 -34.37109375 62.421875 C-35.84599086 64.75624453 -36.72469417 66.27561935 -37 69 C-36.01712992 71.00847365 -35.01622658 73.00819591 -34 75 C-33.8125 77.875 -33.8125 77.875 -34 80 C-34.66 80 -35.32 80 -36 80 C-36.061875 80.7425 -36.12375 81.485 -36.1875 82.25 C-37.27747922 85.93916043 -38.76380565 86.98636796 -42 89 C-45.8430228 90.25315961 -47.71991757 90.08209313 -51.625 88.9375 C-55.56463482 86.67585779 -57.0655767 85.10097741 -59 81 C-59.87379714 76.48688283 -59.37150487 73.69176768 -57.1875 69.625 C-55 67 -55 67 -52 65 C-49.30078125 64.8046875 -49.30078125 64.8046875 -46.3125 64.875 C-45.31863281 64.89304687 -44.32476562 64.91109375 -43.30078125 64.9296875 C-42.54152344 64.95289062 -41.78226563 64.97609375 -41 65 C-40.73703125 64.26652344 -40.4740625 63.53304687 -40.203125 62.77734375 C-38.99876466 59.99714828 -37.58072652 57.96212051 -35.75 55.5625 C-33.18177888 51.95943996 -33.18177888 51.95943996 -33.5625 47.5625 C-34.036875 46.716875 -34.51125 45.87125 -35 45 C-35.33 44.34 -35.66 43.68 -36 43 C-37.92806341 42.68344336 -37.92806341 42.68344336 -40.1875 42.625 C-44.80065627 42.17028507 -47.54880493 41.28685245 -51 38 C-53.55933616 33.4530007 -54.35108428 30.259773 -52.9375 25.1875 C-48.87940762 18.5112835 -48.87940762 18.5112835 -44.91796875 17.43359375 C-41.03816231 16.8223473 -38.72255976 16.65442794 -35.125 18.375 C-34.42375 18.91125 -33.7225 19.4475 -33 20 C-29.04340583 21.31886472 -27.69280551 20.3803534 -23.9375 18.6875 C-19.51042449 16.52938261 -19.51042449 16.52938261 -16.98046875 12.546875 C-16.74499666 10.81835461 -16.54523824 9.08456377 -16.3828125 7.34765625 C-15.95241585 4.70818293 -15.41243053 3.70905223 -13.5 1.875 C-8.85423749 -0.61380134 -5.16346886 -1.04778183 0 0 Z M-22.5625 22.5 C-23.17802734 22.83386719 -23.79355469 23.16773438 -24.42773438 23.51171875 C-25.95283109 24.33929061 -27.47654502 25.1694098 -29 26 C-29 28.31 -29 30.62 -29 33 C-27.02 33.99 -25.04 34.98 -23 36 C-21.8745809 34.39612733 -20.74968028 32.79189084 -19.625 31.1875 C-18.99851562 30.29417969 -18.37203125 29.40085937 -17.7265625 28.48046875 C-14.83005076 24.98754355 -14.83005076 24.98754355 -14.375 20.8125 C-14.58125 20.214375 -14.7875 19.61625 -15 19 C-17.51023167 19 -20.34315585 21.28859824 -22.5625 22.5 Z M-31 37 C-31.99 38.485 -31.99 38.485 -33 40 C-31.6446674 42.53673288 -31.6446674 42.53673288 -30 45 C-29.34 45 -28.68 45 -28 45 C-27.34 43.02 -26.68 41.04 -26 39 C-28.475 38.01 -28.475 38.01 -31 37 Z " fill="#758189" transform="translate(120,37)"/>
<path d="M0 0 C1.32 0.66 2.64 1.32 4 2 C2.68464431 5.60765033 1.08036562 8.54991462 -1.125 11.6875 C-3.36326188 14.58167089 -3.36326188 14.58167089 -4 18 C-2.44144019 19.35712166 -2.44144019 19.35712166 -0.5 20.625 C0.1496875 21.07101563 0.799375 21.51703125 1.46875 21.9765625 C1.9740625 22.31429687 2.479375 22.65203125 3 23 C2.505 24.485 2.505 24.485 2 26 C-1.82097239 25.46930939 -4.06171403 24.50298434 -7 22 C-9.18911155 24.13034253 -9.18911155 24.13034253 -11 27 C-10.82349696 32.54380014 -8.28008588 36.22053061 -5.3125 40.6875 C-4.40001438 42.10266743 -3.48986092 43.51934129 -2.58203125 44.9375 C-2.13939941 45.62714844 -1.69676758 46.31679687 -1.24072266 47.02734375 C2.37000189 52.76812579 5.57030538 58.66704597 8 65 C6.02 65.495 6.02 65.495 4 66 C-1.21819431 58.63313745 -5.55618385 50.81809461 -9.92285156 42.93261719 C-11.59038784 39.94072754 -13.29481624 36.97056899 -15 34 C-16.15330947 35.57789598 -17.29737927 37.1625482 -18.4375 38.75 C-19.07558594 39.63171875 -19.71367188 40.5134375 -20.37109375 41.421875 C-21.84599086 43.75624453 -22.72469417 45.27561935 -23 48 C-22.01712992 50.00847365 -21.01622658 52.00819591 -20 54 C-19.8125 56.875 -19.8125 56.875 -20 59 C-20.66 59 -21.32 59 -22 59 C-22.0928125 60.11375 -22.0928125 60.11375 -22.1875 61.25 C-23.27747922 64.93916043 -24.76380565 65.98636796 -28 68 C-31.8430228 69.25315961 -33.71991757 69.08209313 -37.625 67.9375 C-41.56463482 65.67585779 -43.0655767 64.10097741 -45 60 C-45.87379714 55.48688283 -45.37150487 52.69176768 -43.1875 48.625 C-41 46 -41 46 -38 44 C-35.30078125 43.8046875 -35.30078125 43.8046875 -32.3125 43.875 C-31.31863281 43.89304688 -30.32476562 43.91109375 -29.30078125 43.9296875 C-28.16189453 43.96449219 -28.16189453 43.96449219 -27 44 C-26.73703125 43.26652344 -26.4740625 42.53304687 -26.203125 41.77734375 C-24.99876466 38.99714828 -23.58072652 36.96212051 -21.75 34.5625 C-19.23588531 31.00266075 -19.23588531 31.00266075 -19.4375 26.6875 C-20.82679005 24.29792112 -22.21497522 22.10957474 -24 20 C-22.02 19.67 -20.04 19.34 -18 19 C-17.34 20.65 -16.68 22.3 -16 24 C-15.34 24 -14.68 24 -14 24 C-13.34 22.02 -12.68 20.04 -12 18 C-13.98 17.67 -15.96 17.34 -18 17 C-17.34 15.35 -16.68 13.7 -16 12 C-13.61435923 12.57584432 -11.33317216 13.22227595 -9 14 C-6.03 9.38 -3.06 4.76 0 0 Z " fill="#505B64" transform="translate(106,58)"/>
<path d="M0 0 C1.98 0 3.96 0 6 0 C5.97381592 0.59014893 5.94763184 1.18029785 5.9206543 1.78833008 C5.81670776 4.46278245 5.7516872 7.13681065 5.6875 9.8125 C5.6246582 11.2056543 5.6246582 11.2056543 5.56054688 12.62695312 C5.51454643 15.17537801 5.52196437 17.49537074 6 20 C8.2451605 22.14834136 8.2451605 22.14834136 11 23 C14.00116125 25.33423653 14.89059311 26.613429 15.9375 30.3125 C16.01295485 34.76433601 15.24550847 37.16090487 13 41 C9.81110649 43.89225225 7.2553217 45.24777252 3 45.5 C-1.20644782 45.27436678 -3.78995069 43.75147083 -7 41 C-9.80476313 37.43030146 -9.14466817 33.34004512 -9 29 C-10.2375 28.608125 -11.475 28.21625 -12.75 27.8125 C-16.68940983 26.47636259 -20.61029796 25.0999229 -24.5 23.625 C-25.5209375 23.24601562 -26.541875 22.86703125 -27.59375 22.4765625 C-30 21 -30 21 -30.84375 18.3359375 C-30.8953125 17.56507812 -30.946875 16.79421875 -31 16 C-25.2306386 16.59585208 -20.38338464 18.76987597 -15.125 21.0625 C-14.24585937 21.43955078 -13.36671875 21.81660156 -12.4609375 22.20507812 C-10.30468436 23.13086072 -8.15123021 24.06261911 -6 25 C-6 24.34 -6 23.68 -6 23 C-4.02 22.01 -2.04 21.02 0 20 C0 13.4 0 6.8 0 0 Z " fill="#CA57A2" transform="translate(115,101)"/>
<path d="M0 0 C3.07061968 1.71368609 5.40450726 3.80901452 7 7 C7.51124099 12.20460087 7.86132441 16.56445931 5.125 21.125 C0.99500787 24.7691107 -3.61546179 25.09098298 -9 25 C-12.60599292 23.55760283 -14.2979899 22.38595376 -16.0625 18.90234375 C-17.63138121 14.7069873 -18.55093727 11.37082323 -17 7 C-16.34 7 -15.68 7 -15 7 C-14.7525 6.21625 -14.505 5.4325 -14.25 4.625 C-11.59214955 -0.95648595 -5.52724634 -0.9658337 0 0 Z " fill="#FCBD33" transform="translate(123,77)"/>
<path d="M0 0 C1.49080078 0.02707031 1.49080078 0.02707031 3.01171875 0.0546875 C3.77097656 0.07789062 4.53023437 0.10109375 5.3125 0.125 C5.3125 0.785 5.3125 1.445 5.3125 2.125 C6.3025 2.125 7.2925 2.125 8.3125 2.125 C12.90475513 10.386959 12.90475513 10.386959 12.3125 15.125 C11.6525 15.125 10.9925 15.125 10.3125 15.125 C10.2196875 16.23875 10.2196875 16.23875 10.125 17.375 C9.03502078 21.06416043 7.54869435 22.11136796 4.3125 24.125 C0.4694772 25.37815961 -1.40741757 25.20709313 -5.3125 24.0625 C-9.25213482 21.80085779 -10.7530767 20.22597741 -12.6875 16.125 C-13.56129714 11.61188283 -13.05900487 8.81676768 -10.875 4.75 C-7.38823734 0.56588481 -5.27620585 -0.12414602 0 0 Z " fill="#04B0CA" transform="translate(73.6875,101.875)"/>
<path d="M0 0 C3.4155414 1.71476976 5.45638641 4.1018558 7.4375 7.375 C8.53345534 12.48945825 7.68365159 15.90201412 4.9375 20.3125 C1.43580743 23.51617618 -1.28370893 24.72200723 -6 25 C-10.82750358 23.79312411 -14.0036372 21.39490792 -16.875 17.375 C-18.42015595 12.73953216 -17.91062335 9.46085451 -16 5 C-11.55830373 -0.44107793 -6.8591665 -1.39187632 0 0 Z " fill="#F89482" transform="translate(120,37)"/>
<path d="M0 0 C4.09583661 1.10736657 6.87485747 3.09406411 9.25390625 6.609375 C10.07588543 9.63642409 10.3025815 12.48025194 10.25390625 15.609375 C8.79984375 16.228125 8.79984375 16.228125 7.31640625 16.859375 C4.12346895 18.24135548 4.12346895 18.24135548 3.50390625 20.734375 C3.38015625 21.6625 3.38015625 21.6625 3.25390625 22.609375 C0.63075593 23.92095016 -0.97642811 23.50587488 -3.87109375 23.171875 C-4.78117188 23.07003906 -5.69125 22.96820313 -6.62890625 22.86328125 C-7.32757813 22.77949219 -8.02625 22.69570312 -8.74609375 22.609375 C-8.41609375 20.629375 -8.08609375 18.649375 -7.74609375 16.609375 C-9.39609375 16.609375 -11.04609375 16.609375 -12.74609375 16.609375 C-13.35960944 11.59899685 -13.41016159 7.71647584 -10.30859375 3.546875 C-7.13597603 0.34432692 -4.45324309 -0.39182511 0 0 Z " fill="#FB492A" transform="translate(159.74609375,65.390625)"/>
<path d="M0 0 C0.83265381 0.00523682 1.66530762 0.01047363 2.52319336 0.01586914 C3.42231445 0.0190918 4.32143555 0.02231445 5.24780273 0.02563477 C6.66609375 0.03820312 6.66609375 0.03820312 8.11303711 0.05102539 C9.06243164 0.05553711 10.01182617 0.06004883 10.98999023 0.06469727 C13.34356776 0.07652429 15.69702188 0.09300514 18.05053711 0.11352539 C18.38053711 0.77352539 18.71053711 1.43352539 19.05053711 2.11352539 C19.71053711 1.45352539 20.37053711 0.79352539 21.05053711 0.11352539 C22.04053711 0.11352539 23.03053711 0.11352539 24.05053711 0.11352539 C24.38053711 0.77352539 24.71053711 1.43352539 25.05053711 2.11352539 C26.37053711 1.45352539 27.69053711 0.79352539 29.05053711 0.11352539 C28.90945964 1.57232648 28.76251296 3.03056091 28.61303711 4.48852539 C28.53182617 5.30063477 28.45061523 6.11274414 28.36694336 6.94946289 C28.05053711 9.11352539 28.05053711 9.11352539 27.05053711 11.11352539 C26.06053711 11.11352539 25.07053711 11.11352539 24.05053711 11.11352539 C23.39053711 10.12352539 22.73053711 9.13352539 22.05053711 8.11352539 C21.72053711 9.10352539 21.39053711 10.09352539 21.05053711 11.11352539 C19.73053711 10.78352539 18.41053711 10.45352539 17.05053711 10.11352539 C16.72053711 7.47352539 16.39053711 4.83352539 16.05053711 2.11352539 C15.06053711 2.11352539 14.07053711 2.11352539 13.05053711 2.11352539 C13.05053711 4.75352539 13.05053711 7.39352539 13.05053711 10.11352539 C11.73053711 10.11352539 10.41053711 10.11352539 9.05053711 10.11352539 C9.05053711 7.80352539 9.05053711 5.49352539 9.05053711 3.11352539 C6.41053711 2.78352539 3.77053711 2.45352539 1.05053711 2.11352539 C1.05053711 2.77352539 1.05053711 3.43352539 1.05053711 4.11352539 C2.70053711 4.11352539 4.35053711 4.11352539 6.05053711 4.11352539 C6.05053711 4.77352539 6.05053711 5.43352539 6.05053711 6.11352539 C4.40053711 6.11352539 2.75053711 6.11352539 1.05053711 6.11352539 C1.05053711 6.77352539 1.05053711 7.43352539 1.05053711 8.11352539 C2.70053711 8.11352539 4.35053711 8.11352539 6.05053711 8.11352539 C6.05053711 9.10352539 6.05053711 10.09352539 6.05053711 11.11352539 C-0.10180664 11.21118164 -0.10180664 11.21118164 -1.94946289 11.11352539 C-2.94946289 10.11352539 -2.94946289 10.11352539 -3.08227539 8.08227539 C-3.07969727 7.26758789 -3.07711914 6.45290039 -3.07446289 5.61352539 C-3.07704102 4.79883789 -3.07961914 3.98415039 -3.08227539 3.14477539 C-2.90591781 0.44754187 -2.70145062 0.15731679 0 0 Z " fill="#16252F" transform="translate(116.949462890625,178.886474609375)"/>
<path d="M0 0 C1.52519276 0.08937803 3.04681929 0.24537146 4.5625 0.4375 C5.38878906 0.53933594 6.21507812 0.64117187 7.06640625 0.74609375 C7.70449219 0.82988281 8.34257812 0.91367188 9 1 C9 1.33 9 1.66 9 2 C7.70642578 2.24169922 7.70642578 2.24169922 6.38671875 2.48828125 C1.59414209 4.62752827 -0.31257089 7.91514591 -3.1875 12.1875 C-4.32387733 13.81404067 -5.46060232 15.44033849 -6.59765625 17.06640625 C-7.16371582 17.8877002 -7.72977539 18.70899414 -8.31298828 19.55517578 C-10.87854343 23.2731887 -13.48903268 26.95669056 -16.125 30.625 C-16.57383545 31.26977295 -17.0226709 31.9145459 -17.48510742 32.57885742 C-18.5831062 34.10822039 -19.78350575 35.56309564 -21 37 C-21.99 37 -22.98 37 -24 37 C-24.495 35.515 -24.495 35.515 -25 34 C-24.09472656 32.24511719 -24.09472656 32.24511719 -22.640625 30.296875 C-22.10663086 29.57040771 -21.57263672 28.84394043 -21.02246094 28.09545898 C-20.14509277 26.93445679 -20.14509277 26.93445679 -19.25 25.75 C-18.66250977 24.95601807 -18.07501953 24.16203613 -17.46972656 23.34399414 C-16.25339657 21.70109715 -15.03296306 20.06123087 -13.80859375 18.42431641 C-12.09731512 16.13044535 -10.40397088 13.82477712 -8.71875 11.51171875 C-1.22107355 1.22107355 -1.22107355 1.22107355 0 0 Z " fill="#51535F" transform="translate(151,89)"/>
<path d="M0 0 C2.05078125 0.03255208 4.1015625 0.06510417 6.15234375 0.09765625 C7.0865802 3.10797369 7.19684286 3.96415893 6.15234375 7.09765625 C6.48234375 7.42765625 6.81234375 7.75765625 7.15234375 8.09765625 C8.47234375 5.45765625 9.79234375 2.81765625 11.15234375 0.09765625 C12.14234375 0.09765625 13.13234375 0.09765625 14.15234375 0.09765625 C15.14234375 2.07765625 16.13234375 4.05765625 17.15234375 6.09765625 C17.48234375 4.11765625 17.81234375 2.13765625 18.15234375 0.09765625 C19.14234375 0.09765625 20.13234375 0.09765625 21.15234375 0.09765625 C21.15234375 2.73765625 21.15234375 5.37765625 21.15234375 8.09765625 C22.80234375 8.09765625 24.45234375 8.09765625 26.15234375 8.09765625 C26.15234375 9.08765625 26.15234375 10.07765625 26.15234375 11.09765625 C24.42353393 11.15215463 22.69421663 11.19067313 20.96484375 11.22265625 C20.00191406 11.24585938 19.03898437 11.2690625 18.046875 11.29296875 C15.02421597 11.08901065 12.8846439 10.36640257 10.15234375 9.09765625 C10.15234375 9.75765625 10.15234375 10.41765625 10.15234375 11.09765625 C4.61388221 11.46688702 4.61388221 11.46688702 2.27734375 9.59765625 C1.90609375 9.10265625 1.53484375 8.60765625 1.15234375 8.09765625 C0.82234375 9.08765625 0.49234375 10.07765625 0.15234375 11.09765625 C-0.83765625 10.76765625 -1.82765625 10.43765625 -2.84765625 10.09765625 C-2.87454841 8.61858733 -2.89400246 7.13938142 -2.91015625 5.66015625 C-2.92175781 4.83644531 -2.93335937 4.01273438 -2.9453125 3.1640625 C-2.8198894 0.51010975 -2.66068535 0.14062819 0 0 Z M0.15234375 2.09765625 C0.15234375 2.75765625 0.15234375 3.41765625 0.15234375 4.09765625 C1.47234375 3.76765625 2.79234375 3.43765625 4.15234375 3.09765625 C2.83234375 2.76765625 1.51234375 2.43765625 0.15234375 2.09765625 Z M12.15234375 4.09765625 C13.15234375 6.09765625 13.15234375 6.09765625 13.15234375 6.09765625 Z " fill="#14212E" transform="translate(72.84765625,178.90234375)"/>
<path d="M0 0 C3.0625 0.1875 3.0625 0.1875 5.0625 2.1875 C5.7225 1.5275 6.3825 0.8675 7.0625 0.1875 C9.75089385 -0.08241906 12.35391936 0.10012643 15.0625 0.1875 C15.877209 3.95552913 16.0625 7.33431652 16.0625 11.1875 C13.0625 11.1875 13.0625 11.1875 11.375 9.6875 C10.941875 9.1925 10.50875 8.6975 10.0625 8.1875 C9.7325 9.1775 9.4025 10.1675 9.0625 11.1875 C7.7425 10.5275 6.4225 9.8675 5.0625 9.1875 C4.4025 9.8475 3.7425 10.5075 3.0625 11.1875 C0.125 11.625 0.125 11.625 -2.9375 11.1875 C-4.9375 9 -4.9375 9 -5.9375 6.1875 C-4.32529528 0.27608268 -4.32529528 0.27608268 0 0 Z M-0.9375 2.1875 C-2.23383621 3.25395115 -2.23383621 3.25395115 -2 5.75 C-1.979375 6.554375 -1.95875 7.35875 -1.9375 8.1875 C-0.9475 8.5175 0.0425 8.8475 1.0625 9.1875 C1.7225 7.8675 2.3825 6.5475 3.0625 5.1875 C2.4025 4.1975 1.7425 3.2075 1.0625 2.1875 C0.4025 2.1875 -0.2575 2.1875 -0.9375 2.1875 Z M9.0625 2.1875 C9.0625 2.8475 9.0625 3.5075 9.0625 4.1875 C10.3825 3.8575 11.7025 3.5275 13.0625 3.1875 C11.7425 2.8575 10.4225 2.5275 9.0625 2.1875 Z " fill="#0C1824" transform="translate(151.9375,178.8125)"/>
<path d="M0 0 C3.96 0 7.92 0 12 0 C12.66 2.64 13.32 5.28 14 8 C14.33 8 14.66 8 15 8 C15.33 5.36 15.66 2.72 16 0 C16.99 0 17.98 0 19 0 C19.05399736 1.45792884 19.09279177 2.91642712 19.125 4.375 C19.14820312 5.18710938 19.17140625 5.99921875 19.1953125 6.8359375 C19 9 19 9 17 11 C14 11.3125 14 11.3125 11 11 C8.87491756 7.81237635 8.4979837 5.73487777 8 2 C6.35 2 4.7 2 3 2 C3 2.66 3 3.32 3 4 C4.65 4 6.3 4 8 4 C8 4.66 8 5.32 8 6 C6.35 6 4.7 6 3 6 C3 6.66 3 7.32 3 8 C4.65 8 6.3 8 8 8 C8 8.99 8 9.98 8 11 C5.36 11 2.72 11 0 11 C0 7.37 0 3.74 0 0 Z " fill="#111F2B" transform="translate(50,179)"/>
<path d="M0 0 C4.6105758 1.55727228 8.16894476 4.04257276 12.0625 6.875 C12.97999023 7.52662109 12.97999023 7.52662109 13.91601562 8.19140625 C17.22629099 10.57480451 20.20587051 13.0038013 23 16 C22.34 16.66 21.68 17.32 21 18 C17.73489476 17.63900792 15.58270194 16.21018179 12.9609375 14.3125 C11.84332031 13.51199219 11.84332031 13.51199219 10.703125 12.6953125 C9.93484375 12.13585937 9.1665625 11.57640625 8.375 11 C6.84192115 9.8947571 5.308102 8.79054011 3.7734375 7.6875 C3.09716309 7.19636719 2.42088867 6.70523438 1.72412109 6.19921875 C0.00712761 4.94373466 0.00712761 4.94373466 -2 4 C-1.34 2.68 -0.68 1.36 0 0 Z " fill="#555C66" transform="translate(126,54)"/>
<path d="M0 0 C5.7693614 0.59585208 10.61661536 2.76987597 15.875 5.0625 C16.75414063 5.43955078 17.63328125 5.81660156 18.5390625 6.20507812 C20.69531564 7.13086072 22.84876979 8.06261911 25 9 C24.34 10.32 23.68 11.64 23 13 C18.1525295 12.26318448 13.78287863 10.5463347 9.25 8.75 C8.47011719 8.46253906 7.69023438 8.17507812 6.88671875 7.87890625 C4.7861375 7.04232693 2.88784182 6.24546725 1 5 C-0.015625 2.265625 -0.015625 2.265625 0 0 Z " fill="#49525E" transform="translate(84,117)"/>
<path d="M0 0 C2.19921875 0.03515625 2.19921875 0.03515625 5 1 C6.96081791 3.27326849 8.35962752 5.81942863 9.8125 8.4375 C10.21919922 9.13166016 10.62589844 9.82582031 11.04492188 10.54101562 C14 15.67142857 14 15.67142857 14 18 C12.68 18.33 11.36 18.66 10 19 C0 4.3 0 4.3 0 0 Z " fill="#525B66" transform="translate(100,105)"/>
<path d="M0 0 C1.98 0 3.96 0 6 0 C6 6.93 6 13.86 6 21 C4.02 21 2.04 21 0 21 C0 14.07 0 7.14 0 0 Z " fill="#636767" transform="translate(115,101)"/>
<path d="M0 0 C0.99 0 1.98 0 3 0 C3.66 0.99 4.32 1.98 5 3 C5.33 2.01 5.66 1.02 6 0 C6.99 0 7.98 0 9 0 C9 3.63 9 7.26 9 11 C7.68 10.67 6.36 10.34 5 10 C4.67 9.34 4.34 8.68 4 8 C3.01 9.485 3.01 9.485 2 11 C1.34 11 0.68 11 0 11 C-1.16461426 7.50615721 -1.13568319 4.66344611 -1 1 C-0.67 0.67 -0.34 0.34 0 0 Z " fill="#141E29" transform="translate(104,179)"/>
<path d="M0 0 C0.33 1.32 0.66 2.64 1 4 C-5.93 7.465 -5.93 7.465 -13 11 C-15.64 8.69 -18.28 6.38 -21 4 C-18 4 -18 4 -16.1953125 5.1796875 C-13.87340501 6.32229471 -13.87340501 6.32229471 -11.0546875 4.8828125 C-10.00539063 4.30273438 -8.95609375 3.72265625 -7.875 3.125 C-2.14349776 0 -2.14349776 0 0 0 Z " fill="#59626B" transform="translate(104,52)"/>
<path d="M0 0 C0.33 0.99 0.66 1.98 1 3 C-0.21558594 3.26554687 -1.43117187 3.53109375 -2.68359375 3.8046875 C-4.26832817 4.16101832 -5.85295831 4.51781314 -7.4375 4.875 C-8.64116211 5.13603516 -8.64116211 5.13603516 -9.86914062 5.40234375 C-11.9282378 5.87150513 -13.96658343 6.42972759 -16 7 C-16.33 7.66 -16.66 8.32 -17 9 C-17 7.02 -17 5.04 -17 3 C-15.75108386 2.51801537 -14.50081192 2.03954323 -13.25 1.5625 C-12.55390625 1.29566406 -11.8578125 1.02882813 -11.140625 0.75390625 C-6.94193898 -0.72482806 -4.38413131 -1.09603283 0 0 Z " fill="#55606C" transform="translate(147,83)"/>
<path d="M0 0 C4 1 4 1 6 3 C6.33 2.01 6.66 1.02 7 0 C7.66 0 8.32 0 9 0 C10.125 7.625 10.125 7.625 9 11 C8.01 11 7.02 11 6 11 C5.34 10.01 4.68 9.02 4 8 C3.67 8.99 3.34 9.98 3 11 C2.01 11 1.02 11 0 11 C0 7.37 0 3.74 0 0 Z " fill="#141F2A" transform="translate(39,179)"/>
<path d="M0 0 C3.26460973 1.80412643 4.88929795 2.83394693 7 6 C7.68869056 11.17318721 7.84213522 15.59644131 5.125 20.125 C2.09263757 22.80061391 0.01803712 23.24025131 -3.9375 23.6875 C-4.81277344 23.79449219 -5.68804687 23.90148437 -6.58984375 24.01171875 C-9 24 -9 24 -12 22 C-12 21.34 -12 20.68 -12 20 C-9.625 19.375 -9.625 19.375 -7 19 C-6.34 19.66 -5.68 20.32 -5 21 C-1.81180248 20.66083005 0.95781049 20.01406317 4 19 C5.48682607 15.48568384 5.38668774 11.73798144 5 8 C3.53203747 5.74672884 1.84374806 3.98202917 0 2 C0 1.34 0 0.68 0 0 Z " fill="#E3B956" transform="translate(123,78)"/>
<path d="M0 0 C0.99 0 1.98 0 3 0 C3.33 0.66 3.66 1.32 4 2 C4.66 1.34 5.32 0.68 6 0 C6.99 0 7.98 0 9 0 C8.608125 0.721875 8.21625 1.44375 7.8125 2.1875 C6.64088949 5.06293369 6.64088949 5.06293369 8.375 7.8125 C8.91125 8.534375 9.4475 9.25625 10 10 C8.68 10 7.36 10 6 10 C5.67 9.01 5.34 8.02 5 7 C4.34 7 3.68 7 3 7 C3 8.32 3 9.64 3 11 C2.01 11 1.02 11 0 11 C0 7.37 0 3.74 0 0 Z " fill="#111E29" transform="translate(169,179)"/>
<path d="M0 0 C2.64 0 5.28 0 8 0 C8 0.66 8 1.32 8 2 C6.35 2 4.7 2 3 2 C3 2.66 3 3.32 3 4 C4.65 4 6.3 4 8 4 C8 4.66 8 5.32 8 6 C6.35 6 4.7 6 3 6 C3 6.66 3 7.32 3 8 C4.65 8 6.3 8 8 8 C8 8.99 8 9.98 8 11 C5.36 11 2.72 11 0 11 C0 7.37 0 3.74 0 0 Z " fill="#192631" transform="translate(50,179)"/>
<path d="M0 0 C2.64 0 5.28 0 8 0 C8.814709 3.76802913 9 7.14681652 9 11 C6 11 6 11 4.3125 9.5 C3.879375 9.005 3.44625 8.51 3 8 C2.67 8.99 2.34 9.98 2 11 C1.34 10.67 0.68 10.34 0 10 C0 6.7 0 3.4 0 0 Z M2 2 C2 2.66 2 3.32 2 4 C3.32 3.67 4.64 3.34 6 3 C4.68 2.67 3.36 2.34 2 2 Z " fill="#192530" transform="translate(159,179)"/>
<path d="M0 0 C0.99 0 1.98 0 3 0 C3 2.64 3 5.28 3 8 C4.65 8 6.3 8 8 8 C8 8.99 8 9.98 8 11 C4.37 11 0.74 11 -3 11 C-3.33 8.69 -3.66 6.38 -4 4 C-3.34 4 -2.68 4 -2 4 C-1.67 4.66 -1.34 5.32 -1 6 C-0.67 4.02 -0.34 2.04 0 0 Z " fill="#141A25" transform="translate(91,179)"/>
<path d="M0 0 C2.0625 0.4375 2.0625 0.4375 4 1 C2.10032457 6.1991117 0.61956439 8.71767793 -4 12 C-4.33 12.66 -4.66 13.32 -5 14 C-5.66 14 -6.32 14 -7 14 C-2.8 2.8 -2.8 2.8 0 0 Z " fill="#515D69" transform="translate(141,102)"/>
<path d="M0 0 C0.66 0.66 1.32 1.32 2 2 C4.57061311 2.64767793 4.57061311 2.64767793 7 3 C7 3.66 7 4.32 7 5 C5.35 5 3.7 5 2 5 C2 5.66 2 6.32 2 7 C3.65 7 5.3 7 7 7 C7 7.99 7 8.98 7 10 C4.36 10 1.72 10 -1 10 C-1.33 9.34 -1.66 8.68 -2 8 C-1.34 8 -0.68 8 0 8 C0 5.36 0 2.72 0 0 Z " fill="#121F28" transform="translate(116,180)"/>
<path d="M0 0 C0.66 0.33 1.32 0.66 2 1 C1.34 2.65 0.68 4.3 0 6 C-0.66 6 -1.32 6 -2 6 C-1.67 7.03125 -1.34 8.0625 -1 9.125 C-0.0284808 12.48426709 0.17116771 15.49106202 0 19 C-0.66 19 -1.32 19 -2 19 C-5.62870159 9.58997722 -5.62870159 9.58997722 -4 5 C-3.34 5 -2.68 5 -2 5 C-1.34 3.35 -0.68 1.7 0 0 Z " fill="#E9BC48" transform="translate(110,79)"/>
<path d="M0 0 C3.83663072 1.34929464 6.65172569 3.07751025 9.8125 5.625 C10.99779297 6.57246094 10.99779297 6.57246094 12.20703125 7.5390625 C12.79871094 8.02117187 13.39039063 8.50328125 14 9 C13.01 10.485 13.01 10.485 12 12 C8.20411134 11.45773019 6.52788007 9.79872437 4 7 C4.99 7 5.98 7 7 7 C6.4946875 6.57847656 5.989375 6.15695313 5.46875 5.72265625 C4.8190625 5.17480469 4.169375 4.62695312 3.5 4.0625 C2.8503125 3.51722656 2.200625 2.97195312 1.53125 2.41015625 C1.0259375 1.94480469 0.520625 1.47945312 0 1 C0 0.67 0 0.34 0 0 Z " fill="#504F55" transform="translate(135,60)"/>
<path d="M0 0 C0.33 1.32 0.66 2.64 1 4 C0.01773438 4.55107422 0.01773438 4.55107422 -0.984375 5.11328125 C-3.29716453 6.87923182 -3.29716453 6.87923182 -3.390625 9.91796875 C-3.34421875 10.99691406 -3.2978125 12.07585937 -3.25 13.1875 C-3.21390625 14.27417969 -3.1778125 15.36085938 -3.140625 16.48046875 C-3.09421875 17.31191406 -3.0478125 18.14335938 -3 19 C-5.77959471 15.68218138 -6.5203739 13.45855454 -6.36328125 9.03515625 C-5.77223011 5.72399878 -4.11098395 3.5455983 -2 1 C-1.34 0.67 -0.68 0.34 0 0 Z " fill="#25A0B2" transform="translate(67,103)"/>
<path d="M0 0 C0.33 0.66 0.66 1.32 1 2 C0.67 2.99 0.34 3.98 0 5 C0.33 5.66 0.66 6.32 1 7 C0.21625 7.061875 -0.5675 7.12375 -1.375 7.1875 C-2.24125 7.455625 -3.1075 7.72375 -4 8 C-4.68132451 9.66072849 -5.34742127 11.327767 -6 13 C-8.625 14.3125 -8.625 14.3125 -11 15 C-11.33 13.68 -11.66 12.36 -12 11 C-11.25363281 10.93941406 -10.50726563 10.87882812 -9.73828125 10.81640625 C-6.08560148 9.72737619 -5.22838014 8.09886336 -3.1875 4.9375 C-2.58292969 4.01839844 -1.97835937 3.09929687 -1.35546875 2.15234375 C-0.90816406 1.44207031 -0.46085937 0.73179688 0 0 Z " fill="#596573" transform="translate(100,71)"/>
<path d="M0 0 C0.79921875 0.01804687 1.5984375 0.03609375 2.421875 0.0546875 C3.02515625 0.07789062 3.6284375 0.10109375 4.25 0.125 C3.26 0.455 2.27 0.785 1.25 1.125 C0.04117904 3.12516466 0.04117904 3.12516466 -0.75 5.125 C-1.08 4.795 -1.41 4.465 -1.75 4.125 C-4.08297433 4.08407063 -6.41705225 4.08258277 -8.75 4.125 C-8.75 3.465 -8.75 2.805 -8.75 2.125 C-5.68753253 0.34090198 -3.52920727 -0.10380021 0 0 Z " fill="#BF5D9D" transform="translate(118.75,121.875)"/>
<path d="M0 0 C2.4375 0.375 2.4375 0.375 5 1 C5.33 1.66 5.66 2.32 6 3 C8.30965848 4.05352843 10.6429774 5.05719096 13 6 C12.67 6.66 12.34 7.32 12 8 C10.948125 7.5359375 10.948125 7.5359375 9.875 7.0625 C6.91063343 5.96697322 4.12301892 5.43577008 1 5 C0.67 3.35 0.34 1.7 0 0 Z " fill="#536371" transform="translate(84,117)"/>
<path d="M0 0 C0.598125 0.33 1.19625 0.66 1.8125 1 C5.64084745 2.75010169 9.16492317 1.27835894 13 0 C12 3 12 3 10 4 C8.36174107 4.27819491 6.71369 4.50080157 5.0625 4.6875 C4.18722656 4.79449219 3.31195313 4.90148437 2.41015625 5.01171875 C0 5 0 5 -3 3 C-3 2.34 -3 1.68 -3 1 C-2.01 0.67 -1.02 0.34 0 0 Z " fill="#F0C149" transform="translate(114,97)"/>
<path d="M0 0 C2.64 0 5.28 0 8 0 C8.6875 1.8125 8.6875 1.8125 9 4 C7.5625 5.75 7.5625 5.75 6 7 C3.5625 6.3125 3.5625 6.3125 1 5 C0.1875 2.375 0.1875 2.375 0 0 Z M2 2 C2 2.66 2 3.32 2 4 C3.32 3.67 4.64 3.34 6 3 C4.68 2.67 3.36 2.34 2 2 Z " fill="#1D2D38" transform="translate(71,179)"/>
<path d="M0 0 C0.33 0.99 0.66 1.98 1 3 C-3.29 3.99 -7.58 4.98 -12 6 C-10.60804085 3.2160817 -8.84424221 3.02101003 -6 2 C-6.99 1.67 -7.98 1.34 -9 1 C-5.64919071 -1.10976881 -3.77897651 -1.0497157 0 0 Z " fill="#514E53" transform="translate(147,83)"/>
<path d="M0 0 C0.33 1.32 0.66 2.64 1 4 C-0.43011973 4.86646667 -1.86940619 5.71781829 -3.3125 6.5625 C-4.51326172 7.27599609 -4.51326172 7.27599609 -5.73828125 8.00390625 C-8 9 -8 9 -11 8 C-9.02 7.01 -7.04 6.02 -5 5 C-5.33 4.67 -5.66 4.34 -6 4 C-6 3.34 -6 2.68 -6 2 C-2.25 0 -2.25 0 0 0 Z " fill="#565A60" transform="translate(104,52)"/>
<path d="M0 0 C0.99 0 1.98 0 3 0 C3.33 6.6 3.66 13.2 4 20 C2.02 20 0.04 20 -2 20 C-1.67 19.34 -1.34 18.68 -1 18 C-0.01 18 0.98 18 2 18 C2 13.05 2 8.1 2 3 C1.34 3 0.68 3 0 3 C0 2.01 0 1.02 0 0 Z " fill="#585560" transform="translate(117,102)"/>
<path d="M0 0 C0.66 0 1.32 0 2 0 C2.70226141 1.24176695 3.38629109 2.49385599 4.0625 3.75 C4.44535156 4.44609375 4.82820313 5.1421875 5.22265625 5.859375 C6.1312406 8.36140628 5.88336837 9.5332355 5 12 C4.896875 11.360625 4.79375 10.72125 4.6875 10.0625 C4.460625 9.381875 4.23375 8.70125 4 8 C3.01 7.67 2.02 7.34 1 7 C0.67 4.69 0.34 2.38 0 0 Z " fill="#15A2B7" transform="translate(80,104)"/>
<path d="M0 0 C0.66 0 1.32 0 2 0 C2 1.32 2 2.64 2 4 C3.32 4.33 4.64 4.66 6 5 C4.515 7.475 4.515 7.475 3 10 C2.01 9.67 1.02 9.34 0 9 C0 6.03 0 3.06 0 0 Z " fill="#111D28" transform="translate(70,180)"/>
<path d="M0 0 C0.928125 0.103125 1.85625 0.20625 2.8125 0.3125 C2.1525 0.68375 1.4925 1.055 0.8125 1.4375 C-1.54053045 3.22144778 -1.54053045 3.22144778 -1.4375 6.5 C-1.355 7.428125 -1.2725 8.35625 -1.1875 9.3125 C-2.5075 9.3125 -3.8275 9.3125 -5.1875 9.3125 C-6.33566394 6.49427943 -6.24402601 5.45880262 -5.125 2.5625 C-3.1875 0.3125 -3.1875 0.3125 0 0 Z " fill="#16212B" transform="translate(152.1875,178.6875)"/>
<path d="M0 0 C4.21878192 -0.19622241 7.17010894 0.19769832 11 2 C10.34 3.32 9.68 4.64 9 6 C8.1646875 5.566875 8.1646875 5.566875 7.3125 5.125 C4.91505355 3.9586747 2.48403061 2.9660119 0 2 C0 1.34 0 0.68 0 0 Z " fill="#5B5B6D" transform="translate(98,124)"/>
<path d="M0 0 C0.66 0 1.32 0 2 0 C3.125 7.625 3.125 7.625 2 11 C1.01 11 0.02 11 -1 11 C-1.02688151 9.35425434 -1.04634123 7.70838587 -1.0625 6.0625 C-1.07410156 5.14597656 -1.08570313 4.22945312 -1.09765625 3.28515625 C-1 1 -1 1 0 0 Z " fill="#192832" transform="translate(46,179)"/>
<path d="M0 0 C2.97 0.495 2.97 0.495 6 1 C6 1.33 6 1.66 6 2 C9.3 2 12.6 2 16 2 C13.32333129 4.67666871 11.76050325 4.78714133 8 5 C5.40590039 4.26941684 3.41444495 3.27823556 1 2 C0.67 1.34 0.34 0.68 0 0 Z " fill="#239FB6" transform="translate(64,122)"/>
<path d="M0 0 C0.66 0.33 1.32 0.66 2 1 C0.515 3.475 0.515 3.475 -1 6 C-0.01 5.67 0.98 5.34 2 5 C1.34 6.65 0.68 8.3 0 10 C-1.32 10 -2.64 10 -4 10 C-3.43454163 6.04179141 -2.19097652 3.3340947 0 0 Z " fill="#385561" transform="translate(83,94)"/>
<path d="M0 0 C1.60332791 -0.08121924 3.20784026 -0.13929134 4.8125 -0.1875 C6.15248047 -0.23970703 6.15248047 -0.23970703 7.51953125 -0.29296875 C10 0 10 0 13 3 C8.38 3 3.76 3 -1 3 C-0.67 2.01 -0.34 1.02 0 0 Z " fill="#E9998C" transform="translate(110,37)"/>
<path d="M0 0 C2.89584583 1.29813778 4.98157613 2.53303749 7 5 C7.51171875 7.26171875 7.51171875 7.26171875 7.6875 9.6875 C7.75324219 10.49574219 7.81898438 11.30398437 7.88671875 12.13671875 C7.92410156 12.75160156 7.96148437 13.36648437 8 14 C7.67 14 7.34 14 7 14 C6.82984375 13.37351562 6.6596875 12.74703125 6.484375 12.1015625 C6.24203125 11.28429687 5.9996875 10.46703125 5.75 9.625 C5.51796875 8.81289062 5.2859375 8.00078125 5.046875 7.1640625 C3.7785108 4.54214546 2.67576692 4.00617682 0 3 C0 2.01 0 1.02 0 0 Z " fill="#D94A37" transform="translate(162,67)"/>
<path d="M0 0 C1.5625 1 1.5625 1 3 3 C2.96726452 5.76614782 2.49404328 8.26030547 2 11 C1.34 11 0.68 11 0 11 C-1.16461426 7.50615721 -1.13568319 4.66344611 -1 1 C-0.67 0.67 -0.34 0.34 0 0 Z " fill="#1C2C35" transform="translate(104,179)"/>
<path d="M0 0 C-0.75 2.4375 -0.75 2.4375 -2 5 C-4.125 5.8125 -4.125 5.8125 -6 6 C-6.33 5.34 -6.66 4.68 -7 4 C-3.375 0 -3.375 0 0 0 Z " fill="#E84B26" transform="translate(169,82)"/>
<path d="M0 0 C2.72426311 2.35277269 3.8141763 4.62496331 5 8 C3.68 8.33 2.36 8.66 1 9 C0.15818587 5.84319701 0 3.27427197 0 0 Z " fill="#5C596B" transform="translate(109,115)"/>
<path d="M0 0 C2.475 0.495 2.475 0.495 5 1 C5 2.65 5 4.3 5 6 C4.01 6 3.02 6 2 6 C0 3 0 3 0 0 Z " fill="#747F8B" transform="translate(100,105)"/>
<path d="M0 0 C0.93423645 3.01031744 1.04449911 3.86650268 0 7 C0.66 7 1.32 7 2 7 C2 8.98 2 10.96 2 13 C0.5 12 0.5 12 -1 10 C-1.42372144 6.54667028 -1.58512383 3.17024765 0 0 Z " fill="#B56095" transform="translate(107,128)"/>
<path d="M0 0 C0.99 0 1.98 0 3 0 C2.625 2.9375 2.625 2.9375 2 6 C1.01 6.495 1.01 6.495 0 7 C0 6.01 0 5.02 0 4 C-0.66 4 -1.32 4 -2 4 C-2 3.34 -2 2.68 -2 2 C-1.34 2 -0.68 2 0 2 C0 1.34 0 0.68 0 0 Z " fill="#EC9B78" transform="translate(125,48)"/>
<path d="M0 0 C0.99 0 1.98 0 3 0 C2.67 1.65 2.34 3.3 2 5 C1.34 5 0.68 5 0 5 C-0.33 5.66 -0.66 6.32 -1 7 C-1.04254356 5.00045254 -1.04080783 2.99958364 -1 1 C-0.67 0.67 -0.34 0.34 0 0 Z " fill="#667162" transform="translate(131,85)"/>
<path d="M0 0 C4.75 0.75 4.75 0.75 7 3 C7 3.99 7 4.98 7 6 C6.01 6 5.02 6 4 6 C3.67 4.35 3.34 2.7 3 1 C2.01 0.67 1.02 0.34 0 0 Z " fill="#101C27" transform="translate(161,184)"/>
<path d="M0 0 C0.33 1.32 0.66 2.64 1 4 C-1.475 5.485 -1.475 5.485 -4 7 C-3.6875 4.625 -3.6875 4.625 -3 2 C-2.01 1.34 -1.02 0.68 0 0 Z " fill="#14A9BB" transform="translate(67,103)"/>
<path d="M0 0 C0.66 0 1.32 0 2 0 C3.28430862 1.47695491 4.56580708 2.95806138 5.78125 4.4921875 C7.06784671 6.13813095 7.06784671 6.13813095 9 8 C6.75 7.875 6.75 7.875 4 7 C0 1.81081081 0 1.81081081 0 0 Z " fill="#71767B" transform="translate(67,70)"/>
<path d="M0 0 C0.99 0 1.98 0 3 0 C3.66 1.65 4.32 3.3 5 5 C4.01 5.495 4.01 5.495 3 6 C2.01 5.34 1.02 4.68 0 4 C0 2.68 0 1.36 0 0 Z " fill="#2E626F" transform="translate(84,117)"/>
<path d="M0 0 C1.65 0 3.3 0 5 0 C5.33 1.32 5.66 2.64 6 4 C5.01 4.33 4.02 4.66 3 5 C2.87625 4.360625 2.7525 3.72125 2.625 3.0625 C2.315625 2.0415625 2.315625 2.0415625 2 1 C1.34 0.67 0.68 0.34 0 0 Z " fill="#162131" transform="translate(74,179)"/>
<path d="M0 0 C1.65 0.99 3.3 1.98 5 3 C4.67 4.32 4.34 5.64 4 7 C0 2.25 0 2.25 0 0 Z " fill="#EEBB4E" transform="translate(123,78)"/>
</svg>
