<?xml version="1.0" encoding="UTF-8"?>
<svg version="1.1" xmlns="http://www.w3.org/2000/svg" width="282" height="179">
<path d="M0 0 C0.71220703 0.03544922 1.42441406 0.07089844 2.15820312 0.10742188 C6.18439192 0.35696364 9.59530087 0.79972806 13.1875 2.6875 C15.72990969 6.88247598 15.79047787 11.89189053 16.1875 16.6875 C16.6825 16.1925 16.6825 16.1925 17.1875 15.6875 C22.12955393 15.30734201 25.30509409 15.47064939 29.1875 18.6875 C31.240314 22.6926406 31.48545434 26.15948129 31.5 30.625 C31.51675781 31.80964844 31.53351563 32.99429688 31.55078125 34.21484375 C31.14880375 38.0574029 30.24539063 40.43194554 28.1875 43.6875 C23.99078853 46.01900637 20.92229143 46.83393685 16.1875 46.6875 C16.17332031 47.36296875 16.15914063 48.0384375 16.14453125 48.734375 C15.75178403 56.07980951 15.75178403 56.07980951 12.75 59.3125 C10.1875 60.6875 10.1875 60.6875 8.1875 60.6875 C8.21038504 64.08480695 8.28780286 67.47878305 8.375 70.875 C8.38080078 71.83470703 8.38660156 72.79441406 8.39257812 73.78320312 C8.53432021 79.7428841 8.53432021 79.7428841 11.70703125 84.671875 C12.52558594 85.33703125 13.34414062 86.0021875 14.1875 86.6875 C14.6875 89.75 14.6875 89.75 14.1875 92.6875 C13.68968018 93.25911865 13.19186035 93.8307373 12.67895508 94.41967773 C10.56805773 97.6293889 10.81540836 100.09287565 10.82421875 103.91015625 C10.82372025 104.61087753 10.82322174 105.31159882 10.82270813 106.03355408 C10.82504508 107.51710848 10.83475143 109.00066712 10.85131836 110.48413086 C10.87466881 112.71831173 10.87190679 114.95127688 10.86523438 117.18554688 C10.88230694 125.18789101 11.34471978 132.86385897 13.1875 140.6875 C14.54875 141.05875 14.54875 141.05875 15.9375 141.4375 C19.36197337 142.75460514 21.06061478 143.7098607 23.1875 146.6875 C22.78515625 149.32421875 22.78515625 149.32421875 22.1875 151.6875 C21.55904175 151.68527939 20.9305835 151.68305878 20.28308105 151.68077087 C13.66284766 151.65841732 7.04262521 151.64346986 0.42236328 151.63256836 C-2.03890418 151.62758083 -4.50016874 151.62078841 -6.96142578 151.61206055 C-19.19466368 151.5698084 -31.36675652 151.54458238 -43.5703125 152.45385742 C-48.0704153 152.77814947 -52.55223451 152.87114507 -57.0625 152.875 C-57.86300781 152.88724609 -58.66351563 152.89949219 -59.48828125 152.91210938 C-66.51565787 152.92970715 -66.51565787 152.92970715 -69.8125 150.6875 C-69.8125 149.6975 -69.8125 148.7075 -69.8125 147.6875 C-65.8525 146.6975 -61.8925 145.7075 -57.8125 144.6875 C-57.833125 143.553125 -57.85375 142.41875 -57.875 141.25 C-57.8125 137.6875 -57.8125 137.6875 -56.8125 136.6875 C-57.05601659 132.62889012 -57.70477612 129.56633827 -59.8125 126.125 C-63.09125284 120.48964355 -63.14905397 116.27726249 -61.60546875 110.11328125 C-59.68205508 104.22934093 -56.70853027 98.93847555 -53.1875 93.875 C-47.28404633 84.58218177 -47.38199682 73.32252295 -47.8125 62.6875 C-49.1325 62.3575 -50.4525 62.0275 -51.8125 61.6875 C-52.1425 60.3675 -52.4725 59.0475 -52.8125 57.6875 C-47.70289446 52.88253219 -42.59814034 49.88901725 -36 47.6875 C-35.35409912 47.46811768 -34.70819824 47.24873535 -34.04272461 47.02270508 C-30.65269633 45.96450768 -28.17490465 45.3323747 -24.8125 46.6875 C-24.5625 52.3125 -24.5625 52.3125 -26.8125 55.6875 C-27.48758498 62.30333281 -26.04786147 69.48402577 -22.20703125 74.98828125 C-21.51673828 75.82939453 -21.51673828 75.82939453 -20.8125 76.6875 C-18.5025 76.3575 -16.1925 76.0275 -13.8125 75.6875 C-13.76351562 74.92824219 -13.71453125 74.16898437 -13.6640625 73.38671875 C-13.58929688 72.39285156 -13.51453125 71.39898437 -13.4375 70.375 C-13.36789063 69.38886719 -13.29828125 68.40273437 -13.2265625 67.38671875 C-12.8125 64.6875 -12.8125 64.6875 -10.8125 61.6875 C-10.1525 61.6875 -9.4925 61.6875 -8.8125 61.6875 C-8.3175 60.6975 -8.3175 60.6975 -7.8125 59.6875 C-8.781875 59.378125 -9.75125 59.06875 -10.75 58.75 C-13.8125 57.6875 -13.8125 57.6875 -14.8125 56.6875 C-15.04677778 54.67155418 -15.22586124 52.649026 -15.375 50.625 C-15.45878906 49.52027344 -15.54257813 48.41554687 -15.62890625 47.27734375 C-15.71978516 45.99537109 -15.71978516 45.99537109 -15.8125 44.6875 C-16.70001953 44.79191406 -16.70001953 44.79191406 -17.60546875 44.8984375 C-18.39566406 44.95257813 -19.18585938 45.00671875 -20 45.0625 C-21.16595703 45.16691406 -21.16595703 45.16691406 -22.35546875 45.2734375 C-25.45446925 44.53440717 -26.92849017 43.02305651 -28.82885742 40.51025391 C-30.53233037 37.35360734 -30.4961102 34.17023662 -30.375 30.6875 C-30.38595703 30.00171875 -30.39691406 29.3159375 -30.40820312 28.609375 C-30.33573108 23.54599482 -29.11767942 20.49189923 -25.8125 16.6875 C-23.55859375 15.62890625 -23.55859375 15.62890625 -21.25 15.25 C-20.10337891 15.03537109 -20.10337891 15.03537109 -18.93359375 14.81640625 C-16.8125 14.6875 -16.8125 14.6875 -13.8125 15.6875 C-14.3075 14.6975 -14.3075 14.6975 -14.8125 13.6875 C-15.51403846 6.55519231 -15.51403846 6.55519231 -12.4375 2.75 C-8.13850553 -0.62778137 -5.26654623 -0.34234895 0 0 Z M-8.8125 5.6875 C-8.8125 6.6775 -8.8125 7.6675 -8.8125 8.6875 C-8.1525 8.6875 -7.4925 8.6875 -6.8125 8.6875 C-7.1425 7.6975 -7.4725 6.7075 -7.8125 5.6875 C-8.1425 5.6875 -8.4725 5.6875 -8.8125 5.6875 Z M-12.8125 14.6875 C-12.8125 15.0175 -12.8125 15.3475 -12.8125 15.6875 C-9.1825 15.6875 -5.5525 15.6875 -1.8125 15.6875 C-1.8125 15.3575 -1.8125 15.0275 -1.8125 14.6875 C-5.4425 14.6875 -9.0725 14.6875 -12.8125 14.6875 Z M-7.8125 29.6875 C-7.8125 30.0175 -7.8125 30.3475 -7.8125 30.6875 C-6.1625 30.6875 -4.5125 30.6875 -2.8125 30.6875 C-2.8125 30.3575 -2.8125 30.0275 -2.8125 29.6875 C-4.4625 29.6875 -6.1125 29.6875 -7.8125 29.6875 Z M-15.8125 39.6875 C-14.8125 42.6875 -14.8125 42.6875 -14.8125 42.6875 Z M-18.8125 93.6875 C-20.94349939 97.01987642 -20.94349939 97.01987642 -21.8125 100.6875 C-23.52850165 106.40750549 -25.43410183 109.50891608 -29.5 113.9375 C-33.02574085 118.03667052 -34.37423594 120.37640923 -34.1875 125.8125 C-34.05988281 127.29363281 -34.05988281 127.29363281 -33.9296875 128.8046875 C-33.75293701 133.15274957 -35.13366061 136.73023573 -36.8125 140.6875 C-35.8225 141.0175 -34.8325 141.3475 -33.8125 141.6875 C-34.1425 142.6775 -34.4725 143.6675 -34.8125 144.6875 C-22.47378237 144.38119524 -22.47378237 144.38119524 -11.875 138.875 C-7.7223518 130.32543018 -7.60363777 121.38052848 -7.25 112.0625 C-7.18631226 110.46921875 -7.18631226 110.46921875 -7.12133789 108.84375 C-6.84071461 101.4538154 -6.68250151 94.08296967 -6.8125 86.6875 C-10.73054704 86.6875 -15.8290272 91.40285867 -18.8125 93.6875 Z M-44.8125 144.6875 C-44.8125 145.0175 -44.8125 145.3475 -44.8125 145.6875 C-43.1625 145.6875 -41.5125 145.6875 -39.8125 145.6875 C-39.8125 145.3575 -39.8125 145.0275 -39.8125 144.6875 C-41.4625 144.6875 -43.1125 144.6875 -44.8125 144.6875 Z " fill="#FABC34" transform="translate(238.8125,12.3125)"/>
<path d="M0 0 C0.25 5.625 0.25 5.625 -2 9 C-2.67508498 15.61583281 -1.23536147 22.79652577 2.60546875 28.30078125 C3.06566406 28.86152344 3.52585938 29.42226562 4 30 C6.31 29.67 8.62 29.34 11 29 C11.04898438 28.24074219 11.09796875 27.48148438 11.1484375 26.69921875 C11.22320312 25.70535156 11.29796875 24.71148437 11.375 23.6875 C11.44460937 22.70136719 11.51421875 21.71523437 11.5859375 20.69921875 C12 18 12 18 14 15 C14.66 15 15.32 15 16 15 C18.22659723 23.01181531 18.77899667 32.87245975 17 41 C14.40482173 43.89765682 12.23247173 44.91611377 8.69140625 46.44921875 C5.17344708 48.47625763 4.78330937 50.0903078 3.6875 53.9375 C3.42324219 54.96875 3.15898437 56 2.88671875 57.0625 C1.25690495 62.46170696 -2.3377045 66.42519374 -6.375 70.25 C-8.67540184 74.14298772 -8.1117151 77.46723226 -7.94140625 81.90625 C-8.02479892 86.30938306 -9.29406549 89.97886864 -11 94 C-10.34 94.33 -9.68 94.66 -9 95 C-9 95.66 -9 96.32 -9 97 C-11.50497004 98.25248502 -13.20853274 98.11374406 -16.0078125 98.09765625 C-16.99394531 98.09443359 -17.98007813 98.09121094 -18.99609375 98.08789062 C-20.02863281 98.07951172 -21.06117188 98.07113281 -22.125 98.0625 C-23.68541016 98.05573242 -23.68541016 98.05573242 -25.27734375 98.04882812 C-27.85161962 98.03701952 -30.42578146 98.02055075 -33 98 C-33.04241723 95.66705225 -33.04092937 93.33297433 -33 91 C-32.505 90.505 -32.505 90.505 -32 90 C-32.24351659 85.94139012 -32.89227612 82.87883827 -35 79.4375 C-38.27875284 73.80214355 -38.33655397 69.58976249 -36.79296875 63.42578125 C-34.86955508 57.54184093 -31.89603027 52.25097555 -28.375 47.1875 C-22.47154633 37.89468177 -22.56949682 26.63502295 -23 16 C-24.32 15.67 -25.64 15.34 -27 15 C-27.33 13.68 -27.66 12.36 -28 11 C-22.89039446 6.19503219 -17.78564034 3.20151725 -11.1875 1 C-10.21864868 0.67092651 -10.21864868 0.67092651 -9.23022461 0.33520508 C-5.84019633 -0.72299232 -3.36240465 -1.3551253 0 0 Z " fill="#406F97" transform="translate(214,59)"/>
<path d="M0 0 C0.71220703 0.03544922 1.42441406 0.07089844 2.15820312 0.10742188 C6.16157547 0.35554949 9.71340797 0.60047614 13.1875 2.6875 C16.55304294 8.48546027 16.50452052 16.12373428 16.1875 22.6875 C14.68797441 26.15664056 12.5951942 27.9836529 9.1875 29.6875 C7.86067399 29.82592659 6.52815474 29.9125296 5.1953125 29.96875 C4.40769531 30.00613281 3.62007812 30.04351562 2.80859375 30.08203125 C1.98488281 30.11683594 1.16117188 30.15164062 0.3125 30.1875 C-1.31005824 30.25670865 -2.93246823 30.32950553 -4.5546875 30.40625 C-5.63532471 30.45168945 -5.63532471 30.45168945 -6.73779297 30.49804688 C-9.15998104 30.66577666 -9.15998104 30.66577666 -12.8125 31.6875 C-13.8025 35.9775 -14.7925 40.2675 -15.8125 44.6875 C-22.35546875 45.2734375 -22.35546875 45.2734375 -24.8125 44.6875 C-28.49888741 41.32393183 -29.63510177 39.78053757 -30.44140625 34.8125 C-30.44534281 33.43732747 -30.42279216 32.06184744 -30.375 30.6875 C-30.38595703 30.00171875 -30.39691406 29.3159375 -30.40820312 28.609375 C-30.33573108 23.54599482 -29.11767942 20.49189923 -25.8125 16.6875 C-23.55859375 15.62890625 -23.55859375 15.62890625 -21.25 15.25 C-20.48558594 15.10691406 -19.72117188 14.96382812 -18.93359375 14.81640625 C-16.8125 14.6875 -16.8125 14.6875 -13.8125 15.6875 C-14.1425 15.0275 -14.4725 14.3675 -14.8125 13.6875 C-15.51403846 6.55519231 -15.51403846 6.55519231 -12.4375 2.75 C-8.13850553 -0.62778137 -5.26654623 -0.34234895 0 0 Z M-8.8125 5.6875 C-8.8125 6.6775 -8.8125 7.6675 -8.8125 8.6875 C-8.1525 8.6875 -7.4925 8.6875 -6.8125 8.6875 C-7.1425 7.6975 -7.4725 6.7075 -7.8125 5.6875 C-8.1425 5.6875 -8.4725 5.6875 -8.8125 5.6875 Z M-12.8125 14.6875 C-12.8125 15.0175 -12.8125 15.3475 -12.8125 15.6875 C-9.1825 15.6875 -5.5525 15.6875 -1.8125 15.6875 C-1.8125 15.3575 -1.8125 15.0275 -1.8125 14.6875 C-5.4425 14.6875 -9.0725 14.6875 -12.8125 14.6875 Z " fill="#3F6F96" transform="translate(238.8125,12.3125)"/>
<path d="M0 0 C3.83397906 0.21701768 6.28529333 0.45456596 9.375 2.8125 C12.85531392 7.49753796 12.50146499 13.38359215 12 19 C10.26188462 23.29954857 8.15161838 25.04311738 4 27 C0.73493531 27.4975788 -2.51392698 27.60140749 -5.8125 27.6875 C-7.13797852 27.73874023 -7.13797852 27.73874023 -8.49023438 27.79101562 C-10.65972167 27.87310433 -12.8298389 27.93823879 -15 28 C-14.67 29.32 -14.34 30.64 -14 32 C-13.01 32 -12.02 32 -11 32 C-11 32.66 -11 33.32 -11 34 C-11.66 34 -12.32 34 -13 34 C-13 36.97 -13 39.94 -13 43 C-16.63 43 -20.26 43 -24 43 C-24 42.34 -24 41.68 -24 41 C-24.78375 40.7525 -25.5675 40.505 -26.375 40.25 C-29.43775812 38.79154375 -29.79555442 38.07188873 -31 35 C-31.95907748 28.00437606 -30.29832189 20.85096642 -29 14 C-28.02389771 14.02356567 -28.02389771 14.02356567 -27.02807617 14.04760742 C-24.08130576 14.10994649 -21.13467402 14.14898684 -18.1875 14.1875 C-17.16333984 14.21263672 -16.13917969 14.23777344 -15.08398438 14.26367188 C-14.10107422 14.27333984 -13.11816406 14.28300781 -12.10546875 14.29296875 C-11.19949951 14.3086792 -10.29353027 14.32438965 -9.36010742 14.34057617 C-6.54089255 13.93374833 -5.83759788 13.084947 -4 11 C-3.34 11 -2.68 11 -2 11 C-1.90912109 9.93458984 -1.90912109 9.93458984 -1.81640625 8.84765625 C-1.73261719 7.92855469 -1.64882812 7.00945313 -1.5625 6.0625 C-1.48128906 5.14597656 -1.40007812 4.22945312 -1.31640625 3.28515625 C-1 1 -1 1 0 0 Z " fill="#F7BC36" transform="translate(257,29)"/>
<path d="M0 0 C4.95224859 -0.29130874 8.10188939 -0.22986308 12 3 C14.052814 7.0051406 14.29795434 10.47198129 14.3125 14.9375 C14.32925781 16.12214844 14.34601563 17.30679688 14.36328125 18.52734375 C13.96130375 22.3699029 13.05789063 24.74444554 11 28 C6.80328853 30.33150637 3.73479143 31.14643685 -1 31 C-1.02126953 32.01320313 -1.02126953 32.01320313 -1.04296875 33.046875 C-1.43571597 40.39230951 -1.43571597 40.39230951 -4.4375 43.625 C-7 45 -7 45 -9 45 C-8.97711496 48.39730695 -8.89969714 51.79128305 -8.8125 55.1875 C-8.80669922 56.14720703 -8.80089844 57.10691406 -8.79492188 58.09570312 C-8.65317979 64.0553841 -8.65317979 64.0553841 -5.48046875 68.984375 C-4.66191406 69.64953125 -3.84335938 70.3146875 -3 71 C-2.5 74.0625 -2.5 74.0625 -3 77 C-3.49854492 77.57016846 -3.99708984 78.14033691 -4.51074219 78.7277832 C-6.62957938 81.960573 -6.35563489 84.45367926 -6.328125 88.29296875 C-6.32625183 88.99843338 -6.32437866 89.70389801 -6.32244873 90.43074036 C-6.31573795 91.9227064 -6.30184262 93.41465513 -6.28125 94.90649414 C-6.25034328 97.16244334 -6.24029727 99.41768892 -6.234375 101.67382812 C-6.1950843 108.83753463 -5.99785965 115.89427365 -5 123 C-5.99 123.495 -5.99 123.495 -7 124 C-7 123.34 -7 122.68 -7 122 C-7.66 122 -8.32 122 -9 122 C-9 107.48 -9 92.96 -9 78 C-7.02 77.505 -7.02 77.505 -5 77 C-5.495 76.05125 -5.99 75.1025 -6.5 74.125 C-8 71 -8 71 -8 69 C-9.485 68.505 -9.485 68.505 -11 68 C-12.44952585 65.1009483 -12.39046033 62.34824524 -12.625 59.125 C-12.72039062 57.89007813 -12.81578125 56.65515625 -12.9140625 55.3828125 C-12.98516871 52.58381341 -12.88157276 50.61840266 -12 48 C-14.64 48.33 -17.28 48.66 -20 49 C-20.870712 57.0256023 -21.20021144 65.01306666 -21.38787842 73.0809021 C-21.65610439 84.13012966 -22.07101873 95.16264917 -22.875 106.1875 C-22.94130615 107.21311035 -23.0076123 108.2387207 -23.07592773 109.29541016 C-23.77610329 118.08758264 -23.77610329 118.08758264 -27 122 C-27.99 122.495 -27.99 122.495 -29 123 C-28.79503906 122.195625 -28.59007812 121.39125 -28.37890625 120.5625 C-25.60207157 108.44540323 -25.25601639 96.39488356 -25 84 C-24.95552734 82.22496094 -24.95552734 82.22496094 -24.91015625 80.4140625 C-24.84802154 75.26378544 -25.03103608 70.13648984 -25.26171875 64.9921875 C-25.31021973 63.90615234 -25.3587207 62.82011719 -25.40869141 61.70117188 C-25.50992022 59.51205863 -25.61749771 57.32322821 -25.73193359 55.13476562 C-25.78043457 54.12865234 -25.82893555 53.12253906 -25.87890625 52.0859375 C-25.9260376 51.1789209 -25.97316895 50.2719043 -26.02172852 49.33740234 C-26 47 -26 47 -25 44 C-25.969375 43.690625 -26.93875 43.38125 -27.9375 43.0625 C-31 42 -31 42 -32 41 C-32.2650102 38.77685889 -32.46167286 36.54541537 -32.625 34.3125 C-32.72039062 33.09175781 -32.81578125 31.87101562 -32.9140625 30.61328125 C-33.04174615 25.24476418 -32.16133099 20.8990169 -30 16 C-29.34 16 -28.68 16 -28 16 C-28.0721875 16.68964844 -28.144375 17.37929688 -28.21875 18.08984375 C-29.55376964 28.65120808 -29.55376964 28.65120808 -28 39 C-26.34051852 40.01187895 -24.67419438 41.0126546 -23 42 C-23 42.66 -23 43.32 -23 44 C-19.37 44 -15.74 44 -12 44 C-12.0309375 41.8034375 -12.0309375 41.8034375 -12.0625 39.5625 C-12.08392007 38.04167482 -12.07179964 36.51928038 -12 35 C-11.67 34.67 -11.34 34.34 -11 34 C-12.485 33.505 -12.485 33.505 -14 33 C-14.66 32.34 -15.32 31.68 -16 31 C-15.34 31 -14.68 31 -14 31 C-14 30.34 -14 29.68 -14 29 C-10.27539255 27.13769627 -5.52170023 27.66856031 -1.38476562 27.5703125 C3.16517601 27.38056689 6.3489206 27.00032416 10 24 C13.49518168 18.94090821 12.12524987 12.33799751 11.8125 6.5 C11.23800246 3.81049735 11.23800246 3.81049735 8.75 2.625 C6.05333293 2.01212112 3.75122471 1.95383851 1 2 C0.91363281 2.67546875 0.82726562 3.3509375 0.73828125 4.046875 C0.59777344 4.93890625 0.45726562 5.8309375 0.3125 6.75 C0.12107422 8.07257812 0.12107422 8.07257812 -0.07421875 9.421875 C-1.38627918 13.07571417 -2.57322379 14.13084934 -6 16 C-9.62027408 16.47164364 -13.16976194 16.37721449 -16.8125 16.25 C-17.79154297 16.23195313 -18.77058594 16.21390625 -19.77929688 16.1953125 C-22.18720771 16.14832887 -24.59309335 16.08265694 -27 16 C-24.025932 13.025932 -20.67764716 13.73083493 -16.6875 13.6875 C-15.54764648 13.69233398 -15.54764648 13.69233398 -14.38476562 13.69726562 C-10.21471796 13.58495331 -8.47189524 13.3661907 -5.0703125 10.7265625 C-3.24914304 8.32811668 -2.10108194 6.52441235 -1.1875 3.6875 C-0.795625 2.470625 -0.40375 1.25375 0 0 Z " fill="#E4BC55" transform="translate(256,28)"/>
<path d="M0 0 C0.495 0.99 0.495 0.99 1 2 C-0.89404734 5.34243648 -1.94091591 5.97997149 -5.6875 7.25 C-7.3271875 7.62125 -7.3271875 7.62125 -9 8 C-5.55489134 9.14836955 -2.6984653 9.22730601 0.93359375 9.3515625 C1.60793961 9.37471527 2.28228546 9.39786804 2.97706604 9.42172241 C4.4017106 9.46928094 5.82643406 9.51452467 7.2512207 9.55761719 C9.4262657 9.62465375 11.60074251 9.70248516 13.77539062 9.78125 C15.16143725 9.82617601 16.54750461 9.87046784 17.93359375 9.9140625 C19.8216272 9.9752124 19.8216272 9.9752124 21.74780273 10.03759766 C24.42590296 10.00663696 26.47582799 9.81858625 29 9 C27.68 7.02 26.36 5.04 25 3 C25.33 2.34 25.66 1.68 26 1 C27.29373782 1.78827746 28.58491951 2.58075116 29.875 3.375 C30.95394531 4.03628906 30.95394531 4.03628906 32.0546875 4.7109375 C34 6 34 6 36 8 C35.625 10.625 35.625 10.625 35 13 C34.37154175 12.99777939 33.7430835 12.99555878 33.09558105 12.99327087 C26.47534766 12.97091732 19.85512521 12.95596986 13.23486328 12.94506836 C10.77359582 12.94008083 8.31233126 12.93328841 5.85107422 12.92456055 C-6.38216368 12.8823084 -18.55425652 12.85708238 -30.7578125 13.76635742 C-35.2579153 14.09064947 -39.73973451 14.18364507 -44.25 14.1875 C-45.05050781 14.19974609 -45.85101563 14.21199219 -46.67578125 14.22460938 C-53.70315787 14.24220715 -53.70315787 14.24220715 -57 12 C-57 11.01 -57 10.02 -57 9 C-51.9579554 7.01056706 -47.46451405 6.62070533 -42.125 6.4375 C-40.42576532 6.36103034 -38.72654675 6.2842017 -37.02734375 6.20703125 C-34.61222761 6.10626721 -32.19703908 6.00785034 -29.78173828 5.91162109 C-13.79969879 5.96895775 -13.79969879 5.96895775 0 0 Z " fill="#E9BB48" transform="translate(226,151)"/>
<path d="M0 0 C0.125 5.75 0.125 5.75 -1 8 C-1.66 8 -2.32 8 -3 8 C-2.67 6.02 -2.34 4.04 -2 2 C-10.69426657 4.10245422 -17.93903071 6.39605612 -25 12 C-24.360625 12.556875 -23.72125 13.11375 -23.0625 13.6875 C-19.24118477 17.97200496 -19.78305052 23.08510778 -19.83984375 28.5859375 C-20.04308804 31.64947339 -20.90422383 34.13880666 -22 37 C-22.21083451 38.3537795 -22.41887963 39.70799473 -22.625 41.0625 C-23.78901953 46.7013159 -26.96720914 51.08720478 -30.125 55.7890625 C-33.68003242 61.87705552 -34.82175238 68.05803217 -34 75 C-32.89261075 78.70082342 -31.14407318 81.78389024 -29 85 C-29.0234375 87.69921875 -29.0234375 87.69921875 -29.375 90.6875 C-29.54128906 92.17830078 -29.54128906 92.17830078 -29.7109375 93.69921875 C-29.80632812 94.45847656 -29.90171875 95.21773438 -30 96 C-28.083412 96.02712153 -26.1667127 96.04645097 -24.25 96.0625 C-23.18265625 96.07410156 -22.1153125 96.08570313 -21.015625 96.09765625 C-18.46631499 96.01510087 -16.42066409 95.74617558 -14 95 C-13.87625 94.278125 -13.7525 93.55625 -13.625 92.8125 C-13 90 -13 90 -11.953125 87.73046875 C-10.48800364 83.53325633 -11.06403677 79.54369044 -11.3203125 75.15625 C-10.92531022 71.26403241 -9.61582717 69.83055925 -7 67 C-6.46375 66.0925 -5.9275 65.185 -5.375 64.25 C-4 62 -4 62 -2 61 C-0.4066623 57.61415739 0.88179248 54.40190557 1.9375 50.8125 C3.11282292 47.70135108 4.50952525 46.15841145 7 44 C7.99 44.33 8.98 44.66 10 45 C9.236875 45.61875 8.47375 46.2375 7.6875 46.875 C5.20104258 49.32673036 4.42228235 51.45106176 3.5625 54.8125 C1.88225222 61.22799151 -1.60288953 65.72905324 -6.375 70.25 C-8.67540184 74.14298772 -8.1117151 77.46723226 -7.94140625 81.90625 C-8.02479892 86.30938306 -9.29406549 89.97886864 -11 94 C-10.34 94.33 -9.68 94.66 -9 95 C-9 95.66 -9 96.32 -9 97 C-11.50497004 98.25248502 -13.20853274 98.11374406 -16.0078125 98.09765625 C-16.99394531 98.09443359 -17.98007813 98.09121094 -18.99609375 98.08789062 C-20.02863281 98.07951172 -21.06117188 98.07113281 -22.125 98.0625 C-23.68541016 98.05573242 -23.68541016 98.05573242 -25.27734375 98.04882812 C-27.85161962 98.03701952 -30.42578146 98.02055075 -33 98 C-33.04241723 95.66705225 -33.04092937 93.33297433 -33 91 C-32.505 90.505 -32.505 90.505 -32 90 C-32.24351659 85.94139012 -32.89227612 82.87883827 -35 79.4375 C-38.27875284 73.80214355 -38.33655397 69.58976249 -36.79296875 63.42578125 C-34.86955508 57.54184093 -31.89603027 52.25097555 -28.375 47.1875 C-22.47154633 37.89468177 -22.56949682 26.63502295 -23 16 C-24.32 15.67 -25.64 15.34 -27 15 C-27.33 13.68 -27.66 12.36 -28 11 C-22.89039446 6.19503219 -17.78564034 3.20151725 -11.1875 1 C-10.21864868 0.67092651 -10.21864868 0.67092651 -9.23022461 0.33520508 C-5.84019633 -0.72299232 -3.36240465 -1.3551253 0 0 Z " fill="#385570" transform="translate(214,59)"/>
<path d="M0 0 C1.14662109 -0.04350586 1.14662109 -0.04350586 2.31640625 -0.08789062 C6.2242379 -0.13176093 8.30727199 0.05639534 11.76171875 2.0546875 C14.55319448 5.22457546 14.41222034 7.06583428 14.171875 11.125 C13.53460813 14.42934671 12.23813603 16.09335165 9.75 18.3125 C6.366593 20.08878868 4.66065931 20.3125 0.75 20.3125 C0.42 18.6625 0.09 17.0125 -0.25 15.3125 C4.5 12.3125 4.5 12.3125 6.75 12.3125 C6.42 10.6625 6.09 9.0125 5.75 7.3125 C3.11 7.3125 0.47 7.3125 -2.25 7.3125 C-2.25 14.9025 -2.25 22.4925 -2.25 30.3125 C-7.25 31.3125 -7.25 31.3125 -9.25 30.3125 C-9.27465746 26.2007744 -9.29283959 22.08907722 -9.30493164 17.97729492 C-9.3099708 16.57754772 -9.31680216 15.1778058 -9.32543945 13.77807617 C-9.3375232 11.77004223 -9.34269807 9.76197043 -9.34765625 7.75390625 C-9.35289307 6.54420166 -9.35812988 5.33449707 -9.36352539 4.08813477 C-9.13329591 -1.54085235 -4.53515656 0.05622095 0 0 Z " fill="#2E4A68" transform="translate(21.25,112.6875)"/>
<path d="M0 0 C1.98 0 3.96 0 6 0 C6 9.57 6 19.14 6 29 C1.55429612 31.22285194 -4.17211345 30.50253094 -9 30 C-12.57607417 27.93688029 -13.56226418 26.59441957 -14.64453125 22.65234375 C-15.33428836 18.3784282 -15.2193688 15.58498346 -13.6875 11.5 C-9.87995885 7.95810126 -6.05742771 7.55979162 -1 7 C-0.67 4.69 -0.34 2.38 0 0 Z M-4 13 C-6.23470405 13.78309467 -6.23470405 13.78309467 -8 15 C-8.39909856 19.6800086 -8.39909856 19.6800086 -6.8125 23.9375 C-4.6312462 25.42143292 -4.6312462 25.42143292 0 25 C0 21.7 0 18.4 0 15 C-1.32 14.34 -2.64 13.68 -4 13 Z " fill="#355675" transform="translate(98,113)"/>
<path d="M0 0 C1.794375 0.11794922 1.794375 0.11794922 3.625 0.23828125 C6.75948648 0.6554872 9.14718781 1.36375192 12 2.6875 C11.4375 4.625 11.4375 4.625 10 6.6875 C6.625 7.375 6.625 7.375 3 7.6875 C0.73575649 7.81313582 0.73575649 7.81313582 -1 8.6875 C-2.15521502 11.15880918 -2.15521502 11.15880918 -3 13.6875 C-3.99 14.1825 -3.99 14.1825 -5 14.6875 C-5.33 15.6775 -5.66 16.6675 -6 17.6875 C-6.99 17.6875 -7.98 17.6875 -9 17.6875 C-8.34 18.0175 -7.68 18.3475 -7 18.6875 C-7.33 20.9975 -7.66 23.3075 -8 25.6875 C-10.31 25.6875 -12.62 25.6875 -15 25.6875 C-17.43383868 21.92433577 -17.40189795 18.08949474 -17.4375 13.75 C-17.47037109 13.04681641 -17.50324219 12.34363281 -17.53710938 11.61914062 C-17.57723265 7.7271825 -17.14498421 5.88004517 -14.78515625 2.74609375 C-9.92800201 -0.84397678 -5.88293107 -0.42473748 0 0 Z " fill="#416F97" transform="translate(228,29.3125)"/>
<path d="M0 0 C3.58147628 2.6312887 5.31999051 4.64793929 6 9 C5.91564321 11.25314254 5.76460801 13.50435539 5.5625 15.75 C5.46066406 16.92046875 5.35882813 18.0909375 5.25390625 19.296875 C5.17011719 20.18890625 5.08632812 21.0809375 5 22 C1.77705298 22.8989625 0.22314591 22.80578648 -3 22 C-4.35432691 22 -5.70875209 22.02290225 -7.0625 22.0625 C-11 22 -11 22 -14 20 C-14.90435644 16.511768 -15.41779926 14.10418377 -14.125 10.6875 C-10.75476802 8.01113931 -7.20984668 7.73214725 -3 7 C-6.3 6.67 -9.6 6.34 -13 6 C-13 4.35 -13 2.7 -13 1 C-8.65448509 -0.44850497 -4.53660008 -0.65118661 0 0 Z M-7 13 C-7.99 14.485 -7.99 14.485 -9 16 C-7.94570314 17.26472065 -7.94570314 17.26472065 -5.5625 17.25 C-4.2940625 17.12625 -4.2940625 17.12625 -3 17 C-2.34 16.01 -1.68 15.02 -1 14 C-3.97 13.505 -3.97 13.505 -7 13 Z " fill="#395B7C" transform="translate(122,121)"/>
<path d="M0 0 C1.04671875 -0.03738281 2.0934375 -0.07476562 3.171875 -0.11328125 C7.15953182 0.43831087 8.66475828 1.20546638 11.25 4.3125 C11.84847367 7.42117549 11.72249616 10.41180642 11.5625 13.5625 C11.53994141 14.40296875 11.51738281 15.2434375 11.49414062 16.109375 C11.43537714 18.17784964 11.34569885 20.24540488 11.25 22.3125 C10.13625 22.29960937 9.0225 22.28671875 7.875 22.2734375 C4.47748844 22.13604477 4.47748844 22.13604477 2.25 22.9375 C-1.06986484 23.55997466 -3.64508122 22.46246992 -6.75 21.3125 C-8.75 18.3125 -8.75 18.3125 -8.5 14.75 C-7.75 11.3125 -7.75 11.3125 -5.75 9.3125 C-3.3671875 8.6796875 -3.3671875 8.6796875 -0.625 8.1875 C0.74011719 7.93613281 0.74011719 7.93613281 2.1328125 7.6796875 C3.18082031 7.49792969 3.18082031 7.49792969 4.25 7.3125 C0.5235915 6.26547814 -2.88013042 6.23807943 -6.75 6.3125 C-6.792721 4.64638095 -6.79063832 2.97867115 -6.75 1.3125 C-4.96066124 -0.47683876 -2.4198379 0.05606941 0 0 Z M-0.75 13.3125 C-1.74 14.7975 -1.74 14.7975 -2.75 16.3125 C-1.62465895 17.66868499 -1.62465895 17.66868499 1.3125 17.375 C2.281875 17.354375 3.25125 17.33375 4.25 17.3125 C4.58 16.3225 4.91 15.3325 5.25 14.3125 C2.28 13.8175 2.28 13.8175 -0.75 13.3125 Z " fill="#2F4761" transform="translate(44.75,120.6875)"/>
<path d="M0 0 C0.89203125 0.19464844 1.7840625 0.38929687 2.703125 0.58984375 C3.37859375 0.74582031 4.0540625 0.90179688 4.75 1.0625 C4.75 2.7125 4.75 4.3625 4.75 6.0625 C1.04263464 7.29828845 -1.43227929 6.68721794 -5.25 6.0625 C-5.91 6.0625 -6.57 6.0625 -7.25 6.0625 C-7.25 6.7225 -7.25 7.3825 -7.25 8.0625 C-5.4246875 7.93875 -5.4246875 7.93875 -3.5625 7.8125 C-0.33300702 7.82397244 0.79122599 8.08483075 3.75 9.6875 C5.75 12.0625 5.75 12.0625 6.3125 15.0625 C5.75 18.0625 5.75 18.0625 4.375 20.375 C0.46638137 22.88768341 -3.64176164 23.28404992 -8.25 23.0625 C-10.5625 22.0703125 -10.5625 22.0703125 -12.25 21.0625 C-11.92 19.4125 -11.59 17.7625 -11.25 16.0625 C-8.28 16.0625 -5.31 16.0625 -2.25 16.0625 C-2.25 15.7325 -2.25 15.4025 -2.25 15.0625 C-2.87648437 14.95292969 -3.50296875 14.84335938 -4.1484375 14.73046875 C-4.96570313 14.57191406 -5.78296875 14.41335937 -6.625 14.25 C-7.84316406 14.02376953 -7.84316406 14.02376953 -9.0859375 13.79296875 C-11.25 13.0625 -11.25 13.0625 -13.25 10.0625 C-13.625 6.5625 -13.625 6.5625 -13.25 3.0625 C-9.36103505 -1.10424816 -5.29349278 -1.18407075 0 0 Z " fill="#3E5875" transform="translate(143.25,120.9375)"/>
<path d="M0 0 C0.66 0.33 1.32 0.66 2 1 C2 1.66 2 2.32 2 3 C2.56460938 2.66742188 3.12921875 2.33484375 3.7109375 1.9921875 C6.31532185 0.86332466 7.82265269 0.83445563 10.625 1.125 C11.40101562 1.18945312 12.17703125 1.25390625 12.9765625 1.3203125 C15 2 15 2 16.265625 3.5078125 C17.36937411 7.25351427 17.20866388 10.86928306 17.125 14.75 C17.11597656 15.54277344 17.10695313 16.33554688 17.09765625 17.15234375 C17.07417012 19.10169281 17.03830137 21.05088575 17 23 C15.02 23 13.04 23 11 23 C10.67 18.05 10.34 13.1 10 8 C6.85938975 6.65486576 6.85938975 6.65486576 3 8 C3 12.95 3 17.9 3 23 C0 24 0 24 -3 23 C-3 15.74 -3 8.48 -3 1 C-2.01 0.67 -1.02 0.34 0 0 Z " fill="#35506D" transform="translate(63,120)"/>
<path d="M0 0 C0.33 0.66 0.66 1.32 1 2 C-0.89404734 5.34243648 -1.94091591 5.97997149 -5.6875 7.25 C-7.3271875 7.62125 -7.3271875 7.62125 -9 8 C-5.55489134 9.14836955 -2.6984653 9.22730601 0.93359375 9.3515625 C1.60793961 9.37471527 2.28228546 9.39786804 2.97706604 9.42172241 C4.4017106 9.46928094 5.82643406 9.51452467 7.2512207 9.55761719 C9.4262657 9.62465375 11.60074251 9.70248516 13.77539062 9.78125 C15.16143725 9.82617601 16.54750461 9.87046784 17.93359375 9.9140625 C19.8216272 9.9752124 19.8216272 9.9752124 21.74780273 10.03759766 C24.42590296 10.00663696 26.47582799 9.81858625 29 9 C27.68 7.02 26.36 5.04 25 3 C25.33 2.34 25.66 1.68 26 1 C27.29373782 1.78827746 28.58491951 2.58075116 29.875 3.375 C30.59429687 3.81585938 31.31359375 4.25671875 32.0546875 4.7109375 C34 6 34 6 36 8 C35.625 10.625 35.625 10.625 35 13 C23.80903178 13.05637993 12.63338775 12.93897797 1.4465332 12.62768555 C-0.98801267 12.56111885 -3.42267805 12.50218832 -5.85742188 12.44335938 C-7.4140749 12.40150028 -8.97071615 12.35920031 -10.52734375 12.31640625 C-11.61304909 12.29133751 -11.61304909 12.29133751 -12.72068787 12.26576233 C-17.77109728 12.11445136 -17.77109728 12.11445136 -20 11 C-19.67 10.01 -19.34 9.02 -19 8 C-19.99 7.34 -20.98 6.68 -22 6 C-21.40461426 5.88930176 -20.80922852 5.77860352 -20.19580078 5.66455078 C-17.50395324 5.15940228 -14.81452646 4.64235775 -12.125 4.125 C-11.18785156 3.95097656 -10.25070313 3.77695313 -9.28515625 3.59765625 C-7.94130859 3.33662109 -7.94130859 3.33662109 -6.5703125 3.0703125 C-5.74289551 2.91320801 -4.91547852 2.75610352 -4.06298828 2.59423828 C-1.80002424 2.12252919 -1.80002424 2.12252919 0 0 Z " fill="#E6B74A" transform="translate(226,151)"/>
<path d="M0 0 C0.71220703 0.03544922 1.42441406 0.07089844 2.15820312 0.10742188 C6.16157547 0.35554949 9.71340797 0.60047614 13.1875 2.6875 C15.4767323 6.60478881 15.69900923 10.78615605 16.0625 15.25 C16.18367188 16.55066406 16.30484375 17.85132813 16.4296875 19.19140625 C16.1875 22.6875 16.1875 22.6875 14.1953125 25.15234375 C13.53273437 25.65894531 12.87015625 26.16554688 12.1875 26.6875 C12.19273682 26.13288086 12.19797363 25.57826172 12.20336914 25.00683594 C12.22421031 22.48373557 12.23718282 19.96065336 12.25 17.4375 C12.26256836 16.12845703 12.26256836 16.12845703 12.27539062 14.79296875 C12.27861328 13.94863281 12.28183594 13.10429687 12.28515625 12.234375 C12.29039307 11.45932617 12.29562988 10.68427734 12.30102539 9.88574219 C12.18786998 7.69466402 11.79302448 5.79112139 11.1875 3.6875 C6.83417264 2.84726812 2.74307481 2.57979005 -1.6875 2.625 C-2.83992188 2.63402344 -3.99234375 2.64304687 -5.1796875 2.65234375 C-6.04851562 2.66394531 -6.91734375 2.67554688 -7.8125 2.6875 C-7.8125 3.0175 -7.8125 3.3475 -7.8125 3.6875 C-6.8225 4.0175 -5.8325 4.3475 -4.8125 4.6875 C-4.8125 5.6775 -4.8125 6.6675 -4.8125 7.6875 C-5.410625 7.48125 -6.00875 7.275 -6.625 7.0625 C-9.09700846 6.38078085 -9.09700846 6.38078085 -11.8125 8.6875 C-12.53632467 10.74675139 -12.53632467 10.74675139 -12.8125 12.6875 C-10.1725 12.6875 -7.5325 12.6875 -4.8125 12.6875 C-5.1425 13.3475 -5.4725 14.0075 -5.8125 14.6875 C-2.8425 15.1825 -2.8425 15.1825 0.1875 15.6875 C-4.32775019 18.69766679 -8.65134564 17.73283829 -13.953125 17.5625 C-17.95156248 17.69200405 -21.07475075 18.27422168 -24.8125 19.6875 C-27.29981205 23.41846808 -27.07331721 26.31471959 -27 30.625 C-26.9990332 31.69911133 -26.9990332 31.69911133 -26.99804688 32.79492188 C-26.96945659 36.22257923 -26.88155246 39.41192328 -25.8125 42.6875 C-29.00269955 40.24421225 -29.75898135 39.05819533 -30.34375 35.0078125 C-30.35432419 33.60937618 -30.34328468 32.21063742 -30.3125 30.8125 C-30.32796875 30.11769531 -30.3434375 29.42289063 -30.359375 28.70703125 C-30.32079813 23.58595155 -29.16830168 20.53184127 -25.8125 16.6875 C-23.55859375 15.62890625 -23.55859375 15.62890625 -21.25 15.25 C-20.48558594 15.10691406 -19.72117188 14.96382812 -18.93359375 14.81640625 C-16.8125 14.6875 -16.8125 14.6875 -13.8125 15.6875 C-14.1425 15.0275 -14.4725 14.3675 -14.8125 13.6875 C-15.51403846 6.55519231 -15.51403846 6.55519231 -12.4375 2.75 C-8.13850553 -0.62778137 -5.26654623 -0.34234895 0 0 Z " fill="#3F5465" transform="translate(238.8125,12.3125)"/>
<path d="M0 0 C3.63 0 7.26 0 11 0 C11 6.27 11 12.54 11 19 C12.32 19.66 13.64 20.32 15 21 C16.75 22.25 16.75 22.25 18 24 C18.375 26.9375 18.375 26.9375 18 30 C17.5040332 30.57274658 17.00806641 31.14549316 16.49707031 31.7355957 C14.36401625 34.96196172 14.64435388 37.45211126 14.671875 41.29296875 C14.67374817 41.99843338 14.67562134 42.70389801 14.67755127 43.43074036 C14.68426205 44.9227064 14.69815738 46.41465513 14.71875 47.90649414 C14.74965672 50.16244334 14.75970273 52.41768892 14.765625 54.67382812 C14.8049157 61.83753463 15.00214035 68.89427365 16 76 C15.01 76.495 15.01 76.495 14 77 C14 76.34 14 75.68 14 75 C13.34 75 12.68 75 12 75 C12 60.48 12 45.96 12 31 C13.32 30.67 14.64 30.34 16 30 C15.505 29.05125 15.01 28.1025 14.5 27.125 C13 24 13 24 13 22 C12.01 21.67 11.02 21.34 10 21 C8.55047415 18.1009483 8.60953967 15.34824524 8.375 12.125 C8.27960938 10.89007813 8.18421875 9.65515625 8.0859375 8.3828125 C8.01483129 5.58381341 8.11842724 3.61840266 9 1 C6.36 1.33 3.72 1.66 1 2 C-0.00774078 11.21557302 -0.30912951 20.42861823 -0.5625 29.6875 C-0.60581078 31.17904546 -0.64942848 32.67058205 -0.69335938 34.16210938 C-0.79910473 37.77464429 -0.90071966 41.38728094 -1 45 C-1.33 45 -1.66 45 -2 45 C-2.04951793 39.39495119 -2.08577555 33.79003035 -2.10986328 28.18481445 C-2.11990737 26.2788674 -2.13354516 24.37293571 -2.15087891 22.46704102 C-2.17519718 19.72408248 -2.18649912 16.98132809 -2.1953125 14.23828125 C-2.20563507 13.38913651 -2.21595764 12.53999176 -2.22659302 11.66511536 C-2.22674408 10.86466293 -2.22689514 10.06421051 -2.22705078 9.23950195 C-2.231492 8.54000931 -2.23593323 7.84051666 -2.24050903 7.11982727 C-2 5 -2 5 0 0 Z " fill="#E7B94C" transform="translate(235,75)"/>
<path d="M0 0 C2.86338805 3.80156297 2.96058597 5.94658293 2.9140625 10.6640625 C2.92695313 11.97632813 2.93984375 13.28859375 2.953125 14.640625 C2.2890625 18.0390625 2.2890625 18.0390625 -0.01171875 19.95703125 C-3.23676768 21.24985115 -6.26270636 21.70100062 -9.7109375 22.0390625 C-9.7109375 20.7190625 -9.7109375 19.3990625 -9.7109375 18.0390625 C-8.0609375 18.0390625 -6.4109375 18.0390625 -4.7109375 18.0390625 C-4.7109375 17.3790625 -4.7109375 16.7190625 -4.7109375 16.0390625 C-5.7009375 16.0390625 -6.6909375 16.0390625 -7.7109375 16.0390625 C-7.7109375 15.3790625 -7.7109375 14.7190625 -7.7109375 14.0390625 C-9.0309375 13.7090625 -10.3509375 13.3790625 -11.7109375 13.0390625 C-9.9609375 9.1640625 -9.9609375 9.1640625 -7.7109375 8.0390625 C-7.24442543 5.91329468 -7.24442543 5.91329468 -7.0859375 3.4765625 C-7.01117188 2.65027344 -6.93640625 1.82398438 -6.859375 0.97265625 C-6.81039063 0.33457031 -6.76140625 -0.30351562 -6.7109375 -0.9609375 C-3.551878 -2.48196615 -2.90763801 -2.10321943 0 0 Z " fill="#FBBC30" transform="translate(263.7109375,31.9609375)"/>
<path d="M0 0 C0.33 0 0.66 0 1 0 C1.24234375 0.94101563 1.4846875 1.88203125 1.734375 2.8515625 C2.06953125 4.09679687 2.4046875 5.34203125 2.75 6.625 C3.23726562 8.46964844 3.23726562 8.46964844 3.734375 10.3515625 C5.07022939 14.20245138 6.61304926 16.74050845 9 20 C12.465 19.505 12.465 19.505 16 19 C16.04898438 18.24074219 16.09796875 17.48148438 16.1484375 16.69921875 C16.22320312 15.70535156 16.29796875 14.71148437 16.375 13.6875 C16.44460937 12.70136719 16.51421875 11.71523437 16.5859375 10.69921875 C17 8 17 8 19 5 C19.66 5 20.32 5 21 5 C22.425723 9.96408205 22.30241568 14.9321083 22.375 20.0625 C22.41238281 21.06861328 22.44976562 22.07472656 22.48828125 23.11132812 C22.52098586 25.8312613 22.50037434 28.32572552 22 31 C19.6015625 33.24609375 19.6015625 33.24609375 17 34 C16.34 33.67 15.68 33.34 15 33 C15.495 32.071875 15.99 31.14375 16.5 30.1875 C18.21289852 27.13472484 18.21289852 27.13472484 18 24 C17.01 24.66 16.02 25.32 15 26 C13.68 25.34 12.36 24.68 11 24 C11.33 24.99 11.66 25.98 12 27 C9.5625 26.25 9.5625 26.25 7 25 C6.375 23.125 6.375 23.125 6 21 C5.29810547 20.11054687 5.29810547 20.11054687 4.58203125 19.203125 C0.81120823 13.95190479 -0.51595109 6.36339676 0 0 Z " fill="#416F90" transform="translate(209,69)"/>
<path d="M0 0 C0.99 0.33 1.98 0.66 3 1 C2.236875 1.61875 1.47375 2.2375 0.6875 2.875 C-1.79895742 5.32673036 -2.57771765 7.45106176 -3.4375 10.8125 C-5.11774778 17.22799151 -8.60288953 21.72905324 -13.375 26.25 C-15.67540184 30.14298772 -15.1117151 33.46723226 -14.94140625 37.90625 C-15.02479892 42.30938306 -16.29406549 45.97886864 -18 50 C-17.34 50.33 -16.68 50.66 -16 51 C-16 51.66 -16 52.32 -16 53 C-18.50497004 54.25248502 -20.20853274 54.11374406 -23.0078125 54.09765625 C-23.99394531 54.09443359 -24.98007813 54.09121094 -25.99609375 54.08789062 C-27.02863281 54.07951172 -28.06117188 54.07113281 -29.125 54.0625 C-30.68541016 54.05573242 -30.68541016 54.05573242 -32.27734375 54.04882812 C-34.85161962 54.03701952 -37.42578146 54.02055075 -40 54 C-40.1875 50.625 -40.1875 50.625 -40 47 C-39.01 46.34 -38.02 45.68 -37 45 C-37 47.31 -37 49.62 -37 52 C-35.083412 52.02712153 -33.1667127 52.04645097 -31.25 52.0625 C-30.18265625 52.07410156 -29.1153125 52.08570313 -28.015625 52.09765625 C-25.46631499 52.01510087 -23.42066409 51.74617558 -21 51 C-20.87625 50.278125 -20.7525 49.55625 -20.625 48.8125 C-20 46 -20 46 -18.953125 43.73046875 C-17.48800364 39.53325633 -18.06403677 35.54369044 -18.3203125 31.15625 C-17.92531022 27.26403241 -16.61582717 25.83055925 -14 23 C-13.46375 22.0925 -12.9275 21.185 -12.375 20.25 C-11 18 -11 18 -9 17 C-7.4066623 13.61415739 -6.11820752 10.40190557 -5.0625 6.8125 C-3.88717708 3.70135108 -2.49047475 2.15841145 0 0 Z " fill="#3C576E" transform="translate(221,103)"/>
<path d="M0 0 C0.99 0 1.98 0 3 0 C3 8.25 3 16.5 3 25 C-2.625 27.25 -2.625 27.25 -7 26 C-6.34 25.34 -5.68 24.68 -5 24 C-3.35 24 -1.7 24 0 24 C0 19.38 0 14.76 0 10 C-4.86132495 10.49152482 -4.86132495 10.49152482 -7 13 C-8.32 13 -9.64 13 -11 13 C-10.88648483 14.81325551 -10.75887039 16.62563357 -10.625 18.4375 C-10.55539063 19.44683594 -10.48578125 20.45617187 -10.4140625 21.49609375 C-10.27742188 22.32238281 -10.14078125 23.14867187 -10 24 C-9.34 24.33 -8.68 24.66 -8 25 C-11 25 -11 25 -12.6875 23.5 C-14.53737576 19.97642712 -14.60133762 16.90468561 -14 13 C-12.25746655 9.76386646 -11.52814056 9.17604685 -8 8 C-8.33 7.34 -8.66 6.68 -9 6 C-5.535 5.505 -5.535 5.505 -2 5 C-2 4.34 -2 3.68 -2 3 C-1.34 3 -0.68 3 0 3 C0 2.01 0 1.02 0 0 Z " fill="#406583" transform="translate(99,115)"/>
<path d="M0 0 C2.413125 -0.020625 4.82625 -0.04125 7.3125 -0.0625 C8.06829346 -0.071604 8.82408691 -0.08070801 9.6027832 -0.09008789 C12.6839493 -0.10287966 15.05605196 0.01868399 18 1 C18.2236337 2.41433206 18.42826476 3.83167618 18.625 5.25 C18.79902344 6.43335937 18.79902344 6.43335937 18.9765625 7.640625 C19.00358575 10.36096522 18.45625269 11.72585197 17 14 C14.00711009 15.99525994 12.76914404 16 9 16 C9.33 15.01 9.66 14.02 10 13 C10.66 12.690625 11.32 12.38125 12 12.0625 C14.16400096 11.19822443 14.16400096 11.19822443 14.6875 9.125 C14.8421875 8.073125 14.8421875 8.073125 15 7 C15.5 5 15.5 5 16 3 C12.41640884 1.75952614 9.66660232 2.20291254 6 3 C5.01 3.495 5.01 3.495 4 4 C3.67 11.26 3.34 18.52 3 26 C2.01 26 1.02 26 0 26 C0 17.42 0 8.84 0 0 Z " fill="#426B92" transform="translate(14,115)"/>
<path d="M0 0 C0.66 0 1.32 0 2 0 C2.04663606 7.87652391 2.08202633 15.7530146 2.10362434 23.62964249 C2.11399781 27.28830136 2.12803707 30.94686478 2.15087891 34.60546875 C2.17283987 38.14571807 2.18461682 41.68587641 2.18975449 45.22618866 C2.19517002 47.21334335 2.21074434 49.20046217 2.22659302 51.18756104 C2.22857813 67.48742741 2.22857813 67.48742741 0 74 C-2.07736206 75.8291626 -2.07736206 75.8291626 -4 77 C-3.79503906 76.195625 -3.59007812 75.39125 -3.37890625 74.5625 C-0.60207157 62.44540323 -0.25601639 50.39488356 0 38 C0.02964844 36.81664062 0.05929688 35.63328125 0.08984375 34.4140625 C0.15225905 29.24052744 -0.03272199 24.08954251 -0.26171875 18.921875 C-0.31021973 17.82681641 -0.3587207 16.73175781 -0.40869141 15.60351562 C-0.51028828 13.38838122 -0.61792144 11.17351448 -0.73193359 8.95898438 C-0.78043457 7.94642578 -0.82893555 6.93386719 -0.87890625 5.890625 C-0.9260376 4.97313477 -0.97316895 4.05564453 -1.02172852 3.11035156 C-1 1 -1 1 0 0 Z " fill="#D7B461" transform="translate(231,74)"/>
<path d="M0 0 C4.95224859 -0.29130874 8.10188939 -0.22986308 12 3 C14.052814 7.0051406 14.29795434 10.47198129 14.3125 14.9375 C14.32925781 16.12214844 14.34601563 17.30679688 14.36328125 18.52734375 C13.96111737 22.37168451 13.06018022 24.7435861 11 28 C5.36657682 31.17520216 5.36657682 31.17520216 1.5625 30.6875 C1.046875 30.460625 0.53125 30.23375 0 30 C1.65 29.67 3.3 29.34 5 29 C5 28.34 5 27.68 5 27 C5.78375 26.54625 6.5675 26.0925 7.375 25.625 C10.25801617 23.8402757 10.81426843 23.08180923 12 20 C12.49813192 14.88359419 12.58815462 8.88662959 11 4 C7.63705574 1.9448674 4.85150868 1.93537737 1 2 C0.91363281 2.67546875 0.82726562 3.3509375 0.73828125 4.046875 C0.59777344 4.93890625 0.45726562 5.8309375 0.3125 6.75 C0.12107422 8.07257812 0.12107422 8.07257812 -0.07421875 9.421875 C-1.38627918 13.07571417 -2.57322379 14.13084934 -6 16 C-9.62027408 16.47164364 -13.16976194 16.37721449 -16.8125 16.25 C-17.79154297 16.23195313 -18.77058594 16.21390625 -19.77929688 16.1953125 C-22.18720771 16.14832887 -24.59309335 16.08265694 -27 16 C-24.025932 13.025932 -20.67764716 13.73083493 -16.6875 13.6875 C-15.92759766 13.69072266 -15.16769531 13.69394531 -14.38476562 13.69726562 C-10.21471796 13.58495331 -8.47189524 13.3661907 -5.0703125 10.7265625 C-3.24914304 8.32811668 -2.10108194 6.52441235 -1.1875 3.6875 C-0.795625 2.470625 -0.40375 1.25375 0 0 Z " fill="#CFB05E" transform="translate(256,28)"/>
<path d="M0 0 C0.33 0.66 0.66 1.32 1 2 C2.75208132 4.18165579 2.75208132 4.18165579 4.875 4.16015625 C6.29172697 4.09504931 7.70839483 4.02864289 9.125 3.9609375 C11 4 11 4 13 5.1875 C14.40047854 7.72586735 14.56981532 9.15092341 14 12 C9.85644559 15.86731744 4.3886477 15.69656159 -1 16 C-1.33 14.35 -1.66 12.7 -2 11 C1.21451269 9.39274365 4.43612536 9.94251815 8 10 C7.67 8.68 7.34 7.36 7 6 C4.69 6 2.38 6 0 6 C-1.125 2.25 -1.125 2.25 0 0 Z " fill="#436B91" transform="translate(133,127)"/>
<path d="M0 0 C2.97 0 5.94 0 9 0 C8.67 0.66 8.34 1.32 8 2 C10.97 2.495 10.97 2.495 14 3 C9.48474981 6.01016679 5.16115436 5.04533829 -0.140625 4.875 C-4.13906248 5.00450405 -7.26225075 5.58672168 -11 7 C-13.48731205 10.73096808 -13.26081721 13.62721959 -13.1875 17.9375 C-13.1865332 19.01161133 -13.1865332 19.01161133 -13.18554688 20.10742188 C-13.15695659 23.53507923 -13.06905246 26.72442328 -12 30 C-15.19019955 27.55671225 -15.94648135 26.37069533 -16.53125 22.3203125 C-16.54182419 20.92187618 -16.53078468 19.52313742 -16.5 18.125 C-16.51546875 17.43019531 -16.5309375 16.73539063 -16.546875 16.01953125 C-16.50829813 10.89845155 -15.35580168 7.84434127 -12 4 C-9.74609375 2.94140625 -9.74609375 2.94140625 -7.4375 2.5625 C-6.29087891 2.34787109 -6.29087891 2.34787109 -5.12109375 2.12890625 C-3 2 -3 2 0 3 C0 2.01 0 1.02 0 0 Z " fill="#39526D" transform="translate(225,25)"/>
<path d="M0 0 C2.475 0.495 2.475 0.495 5 1 C5.66 0.67 6.32 0.34 7 0 C9.3329866 -0.04022391 11.66706666 -0.04320247 14 0 C16.71114746 5.60303808 17.81361152 11.98644603 16 18 C15.34 18 14.68 18 14 18 C13.96261719 17.09636719 13.92523438 16.19273437 13.88671875 15.26171875 C13.82097656 14.08222656 13.75523438 12.90273437 13.6875 11.6875 C13.62949219 10.51574219 13.57148437 9.34398437 13.51171875 8.13671875 C12.98395232 4.9016314 12.57619276 3.91315119 10 2 C9.401875 2.495 8.80375 2.99 8.1875 3.5 C6 5 6 5 3 5 C3 9.29 3 13.58 3 18 C2.01 18 1.02 18 0 18 C0 12.06 0 6.12 0 0 Z " fill="#436994" transform="translate(62,123)"/>
<path d="M0 0 C-3.00025 2.00016667 -3.7092458 2.26009441 -7.08984375 2.37890625 C-7.87423828 2.41306641 -8.65863281 2.44722656 -9.46679688 2.48242188 C-10.28212891 2.50884766 -11.09746094 2.53527344 -11.9375 2.5625 C-13.55091853 2.62273087 -15.16421255 2.68641676 -16.77734375 2.75390625 C-17.84843384 2.78979858 -17.84843384 2.78979858 -18.94116211 2.82641602 C-21.35067936 2.97421394 -21.35067936 2.97421394 -25 4 C-26.485 10.435 -26.485 10.435 -28 17 C-30.97 17 -33.94 17 -37 17 C-37.33 16.34 -37.66 15.68 -38 15 C-35.69 15 -33.38 15 -31 15 C-30.91773332 11.95613276 -31.02391783 9.92824652 -32 7 C-31.01 7 -30.02 7 -29 7 C-28.938125 6.401875 -28.87625 5.80375 -28.8125 5.1875 C-28 3 -28 3 -26.1171875 1.41015625 C-21.57724017 -0.64362945 -17.24457101 -0.60956137 -12.3125 -0.75 C-11.35021484 -0.79253906 -10.38792969 -0.83507813 -9.39648438 -0.87890625 C-2.29595768 -1.14797884 -2.29595768 -1.14797884 0 0 Z " fill="#495E6F" transform="translate(251,40)"/>
<path d="M0 0 C3.63 0 7.26 0 11 0 C11.06058594 1.33675781 11.12117187 2.67351562 11.18359375 4.05078125 C11.26800687 5.80469821 11.35265448 7.5586039 11.4375 9.3125 C11.47681641 10.19357422 11.51613281 11.07464844 11.55664062 11.98242188 C11.61948242 13.25375977 11.61948242 13.25375977 11.68359375 14.55078125 C11.72025146 15.33106689 11.75690918 16.11135254 11.79467773 16.9152832 C11.94125263 19.19329101 11.94125263 19.19329101 13 22 C12.01 21.67 11.02 21.34 10 21 C8.55047415 18.1009483 8.60953967 15.34824524 8.375 12.125 C8.27960938 10.89007813 8.18421875 9.65515625 8.0859375 8.3828125 C8.01483129 5.58381341 8.11842724 3.61840266 9 1 C6.36 1.33 3.72 1.66 1 2 C-0.00774078 11.21557302 -0.30912951 20.42861823 -0.5625 29.6875 C-0.60581078 31.17904546 -0.64942848 32.67058205 -0.69335938 34.16210938 C-0.79910473 37.77464429 -0.90071966 41.38728094 -1 45 C-1.33 45 -1.66 45 -2 45 C-2.04951793 39.39495119 -2.08577555 33.79003035 -2.10986328 28.18481445 C-2.11990737 26.2788674 -2.13354516 24.37293571 -2.15087891 22.46704102 C-2.17519718 19.72408248 -2.18649912 16.98132809 -2.1953125 14.23828125 C-2.20563507 13.38913651 -2.21595764 12.53999176 -2.22659302 11.66511536 C-2.22674408 10.86466293 -2.22689514 10.06421051 -2.22705078 9.23950195 C-2.231492 8.54000931 -2.23593323 7.84051666 -2.24050903 7.11982727 C-2 5 -2 5 0 0 Z " fill="#E7B844" transform="translate(235,75)"/>
<path d="M0 0 C1.04671875 -0.03738281 2.0934375 -0.07476562 3.171875 -0.11328125 C7.15953182 0.43831087 8.66475828 1.20546638 11.25 4.3125 C11.84847367 7.42117549 11.72249616 10.41180642 11.5625 13.5625 C11.53994141 14.40296875 11.51738281 15.2434375 11.49414062 16.109375 C11.43537714 18.17784964 11.34569885 20.24540488 11.25 22.3125 C9.27 22.3125 7.29 22.3125 5.25 22.3125 C5.25 21.6525 5.25 20.9925 5.25 20.3125 C6.57 20.3125 7.89 20.3125 9.25 20.3125 C8.92 19.3225 8.59 18.3325 8.25 17.3125 C8.18062938 15.08431559 8.16542916 12.85415476 8.1875 10.625 C8.19652344 9.44550781 8.20554687 8.26601562 8.21484375 7.05078125 C8.22644531 6.14714844 8.23804688 5.24351563 8.25 4.3125 C5.15174513 3.66680415 2.08014017 3.12285561 -1.0625 2.75 C-2.279375 2.605625 -3.49625 2.46125 -4.75 2.3125 C-4.75 2.9725 -4.75 3.6325 -4.75 4.3125 C-3.1103125 4.003125 -3.1103125 4.003125 -1.4375 3.6875 C2.25 3.3125 2.25 3.3125 5.25 5.3125 C1.1972484 6.29498524 -2.58861737 6.39409574 -6.75 6.3125 C-6.792721 4.64638095 -6.79063832 2.97867115 -6.75 1.3125 C-4.96066124 -0.47683876 -2.4198379 0.05606941 0 0 Z " fill="#35526C" transform="translate(44.75,120.6875)"/>
<path d="M0 0 C0.66 0 1.32 0 2 0 C3.425723 4.96408205 3.30241568 9.9321083 3.375 15.0625 C3.43107422 16.57166992 3.43107422 16.57166992 3.48828125 18.11132812 C3.52098586 20.8312613 3.50037434 23.32572552 3 26 C0.6015625 28.24609375 0.6015625 28.24609375 -2 29 C-2.66 28.67 -3.32 28.34 -4 28 C-1.25 23.125 -1.25 23.125 1 22 C0.67 18.37 0.34 14.74 0 11 C-0.99 11.99 -1.98 12.98 -3 14 C-2.88570603 12.22844346 -2.75816963 10.45773771 -2.625 8.6875 C-2.55539063 7.70136719 -2.48578125 6.71523437 -2.4140625 5.69921875 C-2 3 -2 3 0 0 Z " fill="#456071" transform="translate(228,74)"/>
<path d="M0 0 C-1.171875 2.01953125 -1.171875 2.01953125 -3 4 C-5.390625 4.13671875 -5.390625 4.13671875 -8.25 3.6875 C-15.64104834 2.78173427 -22.6057716 3.34340868 -30 4 C-30 4.66 -30 5.32 -30 6 C-27.03 6.495 -27.03 6.495 -24 7 C-24 7.33 -24 7.66 -24 8 C-26.97 7.67 -29.94 7.34 -33 7 C-33.33 5.68 -33.66 4.36 -34 3 C-23.22124562 -0.93993102 -11.33687804 -0.14112296 0 0 Z " fill="#D2B45F" transform="translate(203,157)"/>
<path d="M0 0 C1.77049689 -0.05410687 3.54146849 -0.09284119 5.3125 -0.125 C6.29863281 -0.14820312 7.28476562 -0.17140625 8.30078125 -0.1953125 C11 0 11 0 14 2 C14.2578125 5.15234375 14.2578125 5.15234375 14.125 8.9375 C13.91087119 14.0616547 13.91087119 14.0616547 15 19 C13.02 18.34 11.04 17.68 9 17 C9.66 16.67 10.32 16.34 11 16 C10.91306859 14.20741442 10.80489496 12.41584856 10.6875 10.625 C10.60048828 9.12839844 10.60048828 9.12839844 10.51171875 7.6015625 C10.34285156 6.74304688 10.17398438 5.88453125 10 5 C9.01 4.34 8.02 3.68 7 3 C6.67 2.67 6.34 2.34 6 2 C4.00041636 1.95919217 1.99954746 1.95745644 0 2 C0 1.34 0 0.68 0 0 Z " fill="#456B8C" transform="translate(40,123)"/>
<path d="M0 0 C2.38958004 1.46458132 3.7766284 2.38572809 4.75 5.0625 C5.32531952 11.82250431 5.45634813 17.58620209 3 24 C2.67280761 25.53861545 2.3613302 27.08062541 2.0625 28.625 C1.3367037 32.06817763 0.48971395 34.39711723 -2 37 C-3 34 -3 34 -2.1640625 32.1796875 C-1.77992188 31.46039063 -1.39578125 30.74109375 -1 30 C1.80520988 20.96670946 2.38095074 12.41089427 2 3 C1.01 2.67 0.02 2.34 -1 2 C-0.67 1.34 -0.34 0.68 0 0 Z " fill="#385B7B" transform="translate(189,72)"/>
<path d="M0 0 C0.99 0 1.98 0 3 0 C3 0.66 3 1.32 3 2 C2.34 2 1.68 2 1 2 C1 2.66 1 3.32 1 4 C2.8253125 3.87625 2.8253125 3.87625 4.6875 3.75 C7.91699298 3.76147244 9.04122599 4.02233075 12 5.625 C14 8 14 8 14.5625 11 C14 14 14 14 12.625 16.3125 C8.67164537 18.85394226 4.61732442 18.82376624 0 19 C0 18.34 0 17.68 0 17 C1.06541016 16.80083984 1.06541016 16.80083984 2.15234375 16.59765625 C3.07144531 16.42105469 3.99054688 16.24445313 4.9375 16.0625 C5.85402344 15.88847656 6.77054688 15.71445313 7.71484375 15.53515625 C9.95289844 15.22285012 9.95289844 15.22285012 11 14 C11.2500773 11.54190002 11.2500773 11.54190002 11 9 C9.21342243 6.78629949 9.21342243 6.78629949 6.8359375 6.8046875 C6.02382812 6.82789063 5.21171875 6.85109375 4.375 6.875 C3.14910156 6.90207031 3.14910156 6.90207031 1.8984375 6.9296875 C0.95871094 6.96449219 0.95871094 6.96449219 0 7 C-1.125 2.25 -1.125 2.25 0 0 Z " fill="#32516E" transform="translate(135,125)"/>
<path d="M0 0 C3.39163154 2.71330523 5.35844617 4.70308129 6 9 C5.91564321 11.25314254 5.76460801 13.50435539 5.5625 15.75 C5.46066406 16.92046875 5.35882813 18.0909375 5.25390625 19.296875 C5.17011719 20.18890625 5.08632812 21.0809375 5 22 C3.68 22.33 2.36 22.66 1 23 C1 22.01 1 21.02 1 20 C1.66 20 2.32 20 3 20 C2.85786703 18.10388566 2.71113093 16.20811606 2.5625 14.3125 C2.48128906 13.25675781 2.40007812 12.20101562 2.31640625 11.11328125 C2.03548319 8.34913703 1.59843148 5.71054259 1 3 C-2.3 2.67 -5.6 2.34 -9 2 C-5.48175489 -0.34549674 -4.14224306 -0.57991403 0 0 Z " fill="#324E64" transform="translate(122,121)"/>
<path d="M0 0 C0.67546875 0.06960937 1.3509375 0.13921875 2.046875 0.2109375 C2.046875 0.5409375 2.046875 0.8709375 2.046875 1.2109375 C1.42039062 1.32050781 0.79390625 1.43007812 0.1484375 1.54296875 C-0.66882813 1.70152344 -1.48609375 1.86007813 -2.328125 2.0234375 C-3.54628906 2.24966797 -3.54628906 2.24966797 -4.7890625 2.48046875 C-7.31133141 3.08638692 -7.31133141 3.08638692 -8.953125 6.2109375 C-9.6189487 12.09362466 -9.6189487 12.09362466 -6.890625 17.1484375 C-3.4849624 19.53964741 -1.06745486 19.9689181 3.046875 20.2109375 C3.046875 20.5409375 3.046875 20.8709375 3.046875 21.2109375 C-1.62915556 21.66937187 -4.88098093 21.88102754 -8.953125 19.3359375 C-11.71773124 15.01624026 -12.32663037 11.30197813 -11.953125 6.2109375 C-9.57568513 -0.355325 -6.31681024 -0.38339022 0 0 Z " fill="#2F4C66" transform="translate(94.953125,121.7890625)"/>
<path d="M0 0 C2.31 0 4.62 0 7 0 C7 0.99 7 1.98 7 3 C4.69 3 2.38 3 0 3 C0.33 4.65 0.66 6.3 1 8 C3.97 8 6.94 8 10 8 C10.33 6.68 10.66 5.36 11 4 C10.67 6.31 10.34 8.62 10 11 C1.99639964 11.46174617 1.99639964 11.46174617 -1.5625 9.8125 C-3.4433581 7.44098326 -3.31898502 5.95061143 -3 3 C-2.34 3 -1.68 3 -1 3 C-0.67 2.01 -0.34 1.02 0 0 Z " fill="#416E94" transform="translate(112,131)"/>
<path d="M0 0 C0 1.98 0 3.96 0 6 C-0.66 5.67 -1.32 5.34 -2 5 C-1.67 4.01 -1.34 3.02 -1 2 C-3.3431213 2.25561323 -5.67843403 2.59270772 -8 3 C-8.33 3.66 -8.66 4.32 -9 5 C-9.66 5 -10.32 5 -11 5 C-10.34 6.98 -9.68 8.96 -9 11 C-8.071875 11.144375 -7.14375 11.28875 -6.1875 11.4375 C-3 12 -3 12 0 13 C-1.87643761 14.87643761 -4.49805701 14.17984987 -6.9921875 14.23046875 C-9 14 -9 14 -12 12 C-13.54590571 6.03722084 -13.54590571 6.03722084 -11.75 2.625 C-8.25268637 -0.62250552 -4.52619017 -0.08539981 0 0 Z " fill="#2E485F" transform="translate(120,129)"/>
<path d="M0 0 C0.99 0 1.98 0 3 0 C3 7.92 3 15.84 3 24 C2.67 24 2.34 24 2 24 C2 21.36 2 18.72 2 16 C1.34 16 0.68 16 0 16 C0 10.72 0 5.44 0 0 Z " fill="#F5BC43" transform="translate(244,112)"/>
<path d="M0 0 C0.94875 0.165 1.8975 0.33 2.875 0.5 C5.80168901 1.0526635 5.80168901 1.0526635 8 1 C8.33 2.32 8.66 3.64 9 5 C9.639375 5.103125 10.27875 5.20625 10.9375 5.3125 C11.618125 5.539375 12.29875 5.76625 13 6 C13.33 6.99 13.66 7.98 14 9 C11.69 8.67 9.38 8.34 7 8 C7 7.67 7 7.34 7 7 C4.69 6.67 2.38 6.34 0 6 C0 4.02 0 2.04 0 0 Z " fill="#395C7F" transform="translate(226,19)"/>
<path d="M0 0 C1.27450447 0.59638333 2.54446877 1.20247416 3.8125 1.8125 C4.52019531 2.14894531 5.22789062 2.48539063 5.95703125 2.83203125 C8.11889576 4.06797291 9.56437428 4.95387564 11 7 C10.67 8.65 10.34 10.3 10 12 C4.39 12 -1.22 12 -7 12 C-7 11.67 -7 11.34 -7 11 C-2.38 10.67 2.24 10.34 7 10 C6.67 8.35 6.34 6.7 6 5 C3.03292954 3.14083176 3.03292954 3.14083176 0 2 C0 1.34 0 0.68 0 0 Z " fill="#DBBC6A" transform="translate(251,152)"/>
<path d="M0 0 C0.66 0 1.32 0 2 0 C2 8.25 2 16.5 2 25 C1.34 25 0.68 25 0 25 C-0.19585353 21.02119772 -0.3802867 17.04194844 -0.5625 13.0625 C-0.61857422 11.92619141 -0.67464844 10.78988281 -0.73242188 9.61914062 C-0.78076172 8.53955078 -0.82910156 7.45996094 -0.87890625 6.34765625 C-0.9260376 5.34742432 -0.97316895 4.34719238 -1.02172852 3.31665039 C-1 1 -1 1 0 0 Z " fill="#A89B62" transform="translate(231,74)"/>
<path d="M0 0 C0.33 0 0.66 0 1 0 C1.02505615 0.95253662 1.0501123 1.90507324 1.07592773 2.88647461 C1.17091814 6.45933867 1.27090548 10.03204917 1.37231445 13.60473633 C1.41532019 15.14376199 1.45701529 16.68282491 1.49731445 18.22192383 C1.70675337 26.18835978 1.92941917 34.09209621 3 42 C2.01 42.495 2.01 42.495 1 43 C0.12733788 37.76100772 -0.13410177 32.74677147 -0.09765625 27.44140625 C-0.0962413 26.65225327 -0.09482635 25.86310028 -0.09336853 25.05003357 C-0.08781555 22.55414885 -0.07527208 20.05835715 -0.0625 17.5625 C-0.05747891 15.86002735 -0.05291707 14.15755327 -0.04882812 12.45507812 C-0.03786158 8.30335012 -0.02062991 4.15169078 0 0 Z " fill="#D4B466" transform="translate(248,109)"/>
<path d="M0 0 C0.33 0 0.66 0 1 0 C1.24234375 0.94101563 1.4846875 1.88203125 1.734375 2.8515625 C2.06953125 4.09679687 2.4046875 5.34203125 2.75 6.625 C3.23726562 8.46964844 3.23726562 8.46964844 3.734375 10.3515625 C5.07022939 14.20245138 6.61304926 16.74050845 9 20 C12.465 19.505 12.465 19.505 16 19 C15.34 19.99 14.68 20.98 14 22 C10.625 22.5 10.625 22.5 7 22 C2.1972288 18.13110097 1.14743764 11.81368403 0 6 C-0.1875 2.3125 -0.1875 2.3125 0 0 Z " fill="#35546D" transform="translate(209,69)"/>
<path d="M0 0 C1.33641852 0.32074044 2.66869885 0.65864073 4 1 C5.19625 1.2475 6.3925 1.495 7.625 1.75 C11 3 11 3 12.5 5.3125 C13.04237396 8.22776006 12.80959356 10.16642252 12 13 C11.01 13 10.02 13 9 13 C9 10.36 9 7.72 9 5 C5.7 4.67 2.4 4.34 -1 4 C-0.67 2.68 -0.34 1.36 0 0 Z " fill="#406889" transform="translate(112,121)"/>
<path d="M0 0 C0.66 0 1.32 0 2 0 C1.4342212 3.28151704 0.63399232 4.93520397 -2 7 C-4.26831055 7.34057617 -4.26831055 7.34057617 -6.88671875 7.29296875 C-7.82451172 7.28330078 -8.76230469 7.27363281 -9.72851562 7.26367188 C-10.70498047 7.23853516 -11.68144531 7.21339844 -12.6875 7.1875 C-13.67556641 7.17396484 -14.66363281 7.16042969 -15.68164062 7.14648438 C-18.12164231 7.11112203 -20.56054719 7.06177033 -23 7 C-19.7107744 3.7107744 -14.7683514 4.63938491 -10.296875 4.609375 C-5.52891863 4.50734385 -5.52891863 4.50734385 -1.5859375 1.9609375 C-1.06257813 1.31382813 -0.53921875 0.66671875 0 0 Z " fill="#A6945E" transform="translate(252,37)"/>
<path d="M0 0 C2.97 0 5.94 0 9 0 C8.67 0.66 8.34 1.32 8 2 C10.97 2.495 10.97 2.495 14 3 C10.53329764 5.3111349 9.14345123 5.24298883 5.0625 5.1875 C4.02222656 5.18105469 2.98195312 5.17460937 1.91015625 5.16796875 C-0.56066692 5.02535748 -2.64177041 4.71031012 -5 4 C-5 3.34 -5 2.68 -5 2 C-2.525 2.495 -2.525 2.495 0 3 C0 2.01 0 1.02 0 0 Z " fill="#2B4B68" transform="translate(225,25)"/>
<path d="M0 0 C0.99 0.33 1.98 0.66 3 1 C1.8553125 1.928125 1.8553125 1.928125 0.6875 2.875 C-2.45720175 5.96655186 -3.22892114 9.39331051 -4.2265625 13.59765625 C-5.07023442 16.21815237 -6.2445562 17.90025645 -8 20 C-8.66 19.67 -9.32 19.34 -10 19 C-9.73445312 18.41992188 -9.46890625 17.83984375 -9.1953125 17.2421875 C-7.61326965 13.74321682 -6.11154214 10.36948334 -5 6.6875 C-3.86543701 3.63836196 -2.43691183 2.11199025 0 0 Z " fill="#35526E" transform="translate(221,103)"/>
<path d="M0 0 C0.33 0.66 0.66 1.32 1 2 C3.02463255 2.65213292 3.02463255 2.65213292 5 3 C4.01 4.485 4.01 4.485 3 6 C3.66 6.33 4.32 6.66 5 7 C-2.92 7 -10.84 7 -19 7 C-19 6.67 -19 6.34 -19 6 C-10.585 5.505 -10.585 5.505 -2 5 C-2 4.01 -2 3.02 -2 2 C-1.34 2 -0.68 2 0 2 C0 1.34 0 0.68 0 0 Z " fill="#ECB836" transform="translate(203,156)"/>
<path d="M0 0 C1.231394 2.46278801 1.07159196 4.2795055 1 7 C3.5625718 7.02710123 6.12485365 7.04688771 8.6875 7.0625 C9.40873047 7.07087891 10.12996094 7.07925781 10.87304688 7.08789062 C14.71555382 7.10543632 18.26639526 6.93524221 22 6 C22 6.66 22 7.32 22 8 C19.49502996 9.25248502 17.79146726 9.11374406 14.9921875 9.09765625 C14.00605469 9.09443359 13.01992187 9.09121094 12.00390625 9.08789062 C10.97136719 9.07951172 9.93882812 9.07113281 8.875 9.0625 C7.31458984 9.05573242 7.31458984 9.05573242 5.72265625 9.04882812 C3.14838038 9.03701952 0.57421854 9.02055075 -2 9 C-2.125 5.625 -2.125 5.625 -2 2 C-1.34 1.34 -0.68 0.68 0 0 Z " fill="#4A5B5A" transform="translate(183,148)"/>
<path d="M0 0 C0.99 0.33 1.98 0.66 3 1 C2.34 1.66 1.68 2.32 1 3 C0.75660449 5.89883083 0.75660449 5.89883083 0.875 9.125 C0.89304687 10.22070312 0.91109375 11.31640625 0.9296875 12.4453125 C0.95289062 13.28835937 0.97609375 14.13140625 1 15 C1.66 15.33 2.32 15.66 3 16 C0 16 0 16 -1.6875 14.5 C-3.53127111 10.98805503 -3.6222955 7.89333593 -3 4 C-1.5 1.5 -1.5 1.5 0 0 Z " fill="#437199" transform="translate(88,124)"/>
<path d="M0 0 C0.89203125 0.19464844 1.7840625 0.38929687 2.703125 0.58984375 C3.37859375 0.74582031 4.0540625 0.90179688 4.75 1.0625 C4.75 2.7125 4.75 4.3625 4.75 6.0625 C4.09 6.0625 3.43 6.0625 2.75 6.0625 C2.42 5.0725 2.09 4.0825 1.75 3.0625 C-3.27296004 1.93233399 -7.22874074 2.28333908 -12.25 3.0625 C-8.52525731 -1.2209541 -5.35681892 -1.19823581 0 0 Z " fill="#3A5368" transform="translate(143.25,120.9375)"/>
<path d="M0 0 C0.33 0 0.66 0 1 0 C0.51308901 7.30366492 0.51308901 7.30366492 -1.75 10.375 C-4.16056156 12.11596113 -6.12982106 13.21070079 -9 14 C-11.3125 13.625 -11.3125 13.625 -13 13 C-11.35 12.67 -9.7 12.34 -8 12 C-8 11.34 -8 10.68 -8 10 C-7.236875 9.608125 -6.47375 9.21625 -5.6875 8.8125 C-2.02360316 6.34149981 -1.47271683 4.10810485 0 0 Z " fill="#DABC75" transform="translate(269,45)"/>
<path d="M0 0 C-1.20825195 2.00292969 -1.20825195 2.00292969 -3 4 C-5.17651367 4.27050781 -5.17651367 4.27050781 -7.66796875 3.953125 C-9.00698242 3.7984375 -9.00698242 3.7984375 -10.37304688 3.640625 C-11.76620117 3.44726562 -11.76620117 3.44726562 -13.1875 3.25 C-14.12787109 3.1365625 -15.06824219 3.023125 -16.03710938 2.90625 C-18.3611328 2.62312024 -20.68087077 2.32040393 -23 2 C-23 1.67 -23 1.34 -23 1 C-15.34916042 -0.24911667 -7.72559014 -0.09053426 0 0 Z " fill="#BEA145" transform="translate(203,157)"/>
<path d="M0 0 C3.96 0.99 3.96 0.99 8 2 C8 2.99 8 3.98 8 5 C7.401875 4.79375 6.80375 4.5875 6.1875 4.375 C3.71549154 3.69328085 3.71549154 3.69328085 1 6 C-0.20450304 8.55183404 -0.20450304 8.55183404 -1 11 C-1.33 11 -1.66 11 -2 11 C-2.25 3.375 -2.25 3.375 0 0 Z " fill="#3A5673" transform="translate(226,15)"/>
<path d="M0 0 C2.375 0.625 2.375 0.625 5 2 C7.54339922 6.84456994 7.65717109 12.62665989 7 18 C6.34 18.66 5.68 19.32 5 20 C4.96132813 18.58847656 4.96132813 18.58847656 4.921875 17.1484375 C4.65953951 7.75179121 4.65953951 7.75179121 0 0 Z " fill="#E6B64B" transform="translate(262,30)"/>
<path d="M0 0 C0.33 0.66 0.66 1.32 1 2 C-0.74503988 4.45891983 -2.19623472 5.81962179 -5.17578125 6.48828125 C-10.77783835 7.07201037 -16.37323359 7.0907543 -22 7 C-22 6.67 -22 6.34 -22 6 C-21.40461426 5.88930176 -20.80922852 5.77860352 -20.19580078 5.66455078 C-17.50395324 5.15940228 -14.81452646 4.64235775 -12.125 4.125 C-11.18785156 3.95097656 -10.25070313 3.77695313 -9.28515625 3.59765625 C-7.94130859 3.33662109 -7.94130859 3.33662109 -6.5703125 3.0703125 C-5.74289551 2.91320801 -4.91547852 2.75610352 -4.06298828 2.59423828 C-1.80002424 2.12252919 -1.80002424 2.12252919 0 0 Z " fill="#D7B660" transform="translate(226,151)"/>
<path d="M0 0 C0.66 0 1.32 0 2 0 C1.67 1.32 1.34 2.64 1 4 C0.37351563 4.04898438 -0.25296875 4.09796875 -0.8984375 4.1484375 C-1.71570313 4.22320312 -2.53296875 4.29796875 -3.375 4.375 C-4.18710938 4.44460937 -4.99921875 4.51421875 -5.8359375 4.5859375 C-8.20334191 4.82892588 -8.20334191 4.82892588 -10 7 C-10.33 5.35 -10.66 3.7 -11 2 C-8.70961976 0.85480988 -7.46931463 0.92648088 -4.9375 1 C-3.638125 1 -2.33875 1 -1 1 C-0.67 0.67 -0.34 0.34 0 0 Z " fill="#2F526B" transform="translate(142,136)"/>
<path d="M0 0 C2.125 0.375 2.125 0.375 4 1 C3.01 1.495 3.01 1.495 2 2 C2 3.65 2 5.3 2 7 C4.97 7.495 4.97 7.495 8 8 C7.34 8.66 6.68 9.32 6 10 C0.54545455 9.54545455 0.54545455 9.54545455 -2 7 C-2.25 4.5 -2.25 4.5 -2 2 C-1.34 1.34 -0.68 0.68 0 0 Z " fill="#426990" transform="translate(40,132)"/>
<path d="M0 0 C0.66 0 1.32 0 2 0 C2.7579917 2.82640972 3.27676554 5.59472961 3.625 8.5 C3.72039062 9.2528125 3.81578125 10.005625 3.9140625 10.78125 C4.00260295 13.06720344 3.66338395 14.82172433 3 17 C2.34 17 1.68 17 1 17 C0.93941406 16.09636719 0.87882812 15.19273437 0.81640625 14.26171875 C0.73261719 13.08222656 0.64882812 11.90273437 0.5625 10.6875 C0.48128906 9.51574219 0.40007812 8.34398437 0.31640625 7.13671875 C0.1132629 3.97409042 0.1132629 3.97409042 -1 1 C-0.67 0.67 -0.34 0.34 0 0 Z " fill="#486C94" transform="translate(75,124)"/>
<path d="M0 0 C0.33 0 0.66 0 1 0 C1.13487595 2.77245014 1.23400807 5.53837088 1.3125 8.3125 C1.35439453 9.09818359 1.39628906 9.88386719 1.43945312 10.69335938 C1.48641506 12.90057029 1.47331379 14.8423971 1 17 C-1.39453125 19.10546875 -1.39453125 19.10546875 -4 20 C-4.66 19.67 -5.32 19.34 -6 19 C-3.25 14.125 -3.25 14.125 -1 13 C-0.53045739 9.95418731 -0.53045739 9.95418731 -0.375 6.4375 C-0.30023438 5.23996094 -0.22546875 4.04242188 -0.1484375 2.80859375 C-0.09945312 1.88175781 -0.05046875 0.95492187 0 0 Z " fill="#3C5762" transform="translate(230,83)"/>
<path d="M0 0 C0.66 0 1.32 0 2 0 C1.34 6.6 0.68 13.2 0 20 C-0.33 20 -0.66 20 -1 20 C-1 16.04 -1 12.08 -1 8 C-1.66 7.67 -2.32 7.34 -3 7 C-2.01 4.69 -1.02 2.38 0 0 Z " fill="#D8B44F" transform="translate(226,44)"/>
<path d="M0 0 C0.66 0 1.32 0 2 0 C2.33 0.99 2.66 1.98 3 3 C1.74458443 5.51083114 0.49936512 5.87125446 -2 7 C-1.01 7.66 -0.02 8.32 1 9 C1 9.66 1 10.32 1 11 C-0.65 10.67 -2.3 10.34 -4 10 C-4 7.33333333 -4 4.66666667 -4 2 C-2.68 2 -1.36 2 0 2 C0 1.34 0 0.68 0 0 Z " fill="#315477" transform="translate(45,129)"/>
<path d="M0 0 C0.33 0 0.66 0 1 0 C1 3.96 1 7.92 1 12 C-0.65 12.33 -2.3 12.66 -4 13 C-4 12.34 -4 11.68 -4 11 C-3.01 10.67 -2.02 10.34 -1 10 C-0.67 9.34 -0.34 8.68 0 8 C-0.99 7.67 -1.98 7.34 -3 7 C-3 5.35 -3 3.7 -3 2 C-2.01 2 -1.02 2 0 2 C0 1.34 0 0.68 0 0 Z " fill="#2F4F6C" transform="translate(50,127)"/>
<path d="M0 0 C5.82107356 4.12326044 5.82107356 4.12326044 6.625 8.0625 C5.88405261 11.54495272 4.72625247 12.78491987 2 15 C2 13.68 2 12.36 2 11 C2.66 11 3.32 11 4 11 C3.566875 10.06027344 3.566875 10.06027344 3.125 9.1015625 C2.75375 8.28429687 2.3825 7.46703125 2 6.625 C1.62875 5.81289062 1.2575 5.00078125 0.875 4.1640625 C0 2 0 2 0 0 Z " fill="#D8B85F" transform="translate(247,94)"/>
<path d="M0 0 C0.96661363 3.12180401 0.98988909 5.52083795 0.5625 8.75 C0.46066406 9.54921875 0.35882813 10.3484375 0.25390625 11.171875 C0.17011719 11.77515625 0.08632812 12.3784375 0 13 C-2.64 13 -5.28 13 -8 13 C-8.33 12.34 -8.66 11.68 -9 11 C-6.69 11 -4.38 11 -2 11 C-1.91773332 7.95613276 -2.02391783 5.92824652 -3 3 C-2.01 3 -1.02 3 0 3 C0 2.01 0 1.02 0 0 Z " fill="#3F5E78" transform="translate(222,44)"/>
<path d="M0 0 C-0.33 0.66 -0.66 1.32 -1 2 C-1.66 2 -2.32 2 -3 2 C-4.485 8.435 -4.485 8.435 -6 15 C-8.39089172 11.41366242 -8.10828968 10.5472056 -7.375 6.4375 C-7.21773437 5.46683594 -7.06046875 4.49617188 -6.8984375 3.49609375 C-6 1 -6 1 -4.0390625 -0.40234375 C-2 -1 -2 -1 0 0 Z " fill="#55666B" transform="translate(229,42)"/>
<path d="M0 0 C0.99 0.33 1.98 0.66 3 1 C1 3 1 3 -2 4 C-2.33 4.66 -2.66 5.32 -3 6 C-0.36 5.34 2.28 4.68 5 4 C5 4.66 5 5.32 5 6 C1.62902617 7.49821059 -0.20442119 8 -4 8 C-4.33 6.35 -4.66 4.7 -5 3 C-2.6875 1.4375 -2.6875 1.4375 0 0 Z " fill="#2B4662" transform="translate(26,125)"/>
<path d="M0 0 C0.33 0 0.66 0 1 0 C1.03738281 1.03640625 1.07476562 2.0728125 1.11328125 3.140625 C1.17895788 4.51045184 1.24540464 5.88024191 1.3125 7.25 C1.33505859 7.93191406 1.35761719 8.61382812 1.38085938 9.31640625 C1.60166604 13.45151296 2.09593 15.97914434 5 19 C1.125 18.125 1.125 18.125 0 17 C-0.26309771 14.71397321 -0.46071865 12.4202452 -0.625 10.125 C-0.72039062 8.86945312 -0.81578125 7.61390625 -0.9140625 6.3203125 C-1 3 -1 3 0 0 Z " fill="#DABB7A" transform="translate(224,52)"/>
<path d="M0 0 C0.66 0 1.32 0 2 0 C1.67 2.64 1.34 5.28 1 8 C4.3 8.33 7.6 8.66 11 9 C11 9.33 11 9.66 11 10 C9.02090602 10.02686553 7.04171029 10.04633375 5.0625 10.0625 C3.96035156 10.07410156 2.85820312 10.08570313 1.72265625 10.09765625 C-1 10 -1 10 -2 9 C-1.30232558 2.60465116 -1.30232558 2.60465116 0 0 Z " fill="#426A89" transform="translate(185,146)"/>
<path d="M0 0 C0.33 0 0.66 0 1 0 C1 2.31 1 4.62 1 7 C-3.62197306 9.21854707 -6.76824163 10.38281159 -12 10 C-12 9.34 -12 8.68 -12 8 C-8.7 7.34 -5.4 6.68 -2 6 C-1.34 4.02 -0.68 2.04 0 0 Z " fill="#29465F" transform="translate(147,134)"/>
<path d="M0 0 C2.31 0 4.62 0 7 0 C7.19456705 1.95764383 7.38044247 3.91615321 7.5625 5.875 C7.66691406 6.96554688 7.77132812 8.05609375 7.87890625 9.1796875 C8 12 8 12 7 14 C3.9375 14.625 3.9375 14.625 1 15 C1 14.34 1 13.68 1 13 C2.65 13 4.3 13 6 13 C5.67 9.7 5.34 6.4 5 3 C2.525 2.01 2.525 2.01 0 1 C0 0.67 0 0.34 0 0 Z " fill="#2D4F6C" transform="translate(92,125)"/>
<path d="M0 0 C-0.66 3.3 -1.32 6.6 -2 10 C-2.66 9.67 -3.32 9.34 -4 9 C-3.67 7.02 -3.34 5.04 -3 3 C-4.98 3 -6.96 3 -9 3 C-6.38997624 -0.48003168 -4.1689578 -0.27793052 0 0 Z " fill="#486B8F" transform="translate(237,14)"/>
<path d="M0 0 C4.95 0 9.9 0 15 0 C11 2 11 2 8.875 2.5 C6.77320517 2.89277065 6.77320517 2.89277065 5 5 C4.67 3.68 4.34 2.36 4 1 C2.68 0.67 1.36 0.34 0 0 Z " fill="#E3BB46" transform="translate(246,56)"/>
<path d="M0 0 C0.33 0.66 0.66 1.32 1 2 C1.99 2 2.98 2 4 2 C4.33 3.32 4.66 4.64 5 6 C4.01 6 3.02 6 2 6 C1.67 5.34 1.34 4.68 1 4 C-0.155 3.835 -1.31 3.67 -2.5 3.5 C-3.655 3.335 -4.81 3.17 -6 3 C-6.33 2.34 -6.66 1.68 -7 1 C-3.535 0.505 -3.535 0.505 0 0 Z " fill="#345579" transform="translate(26,116)"/>
<path d="M0 0 C0 3.3 0 6.6 0 10 C-0.66 9.67 -1.32 9.34 -2 9 C-2.33333333 7.33333333 -2.66666667 5.66666667 -3 4 C-3.66 3.67 -4.32 3.34 -5 3 C-3.82137388 0.64274776 -2.79264635 0 0 0 Z " fill="#446F94" transform="translate(102,121)"/>
<path d="M0 0 C1.98 0 3.96 0 6 0 C6 2.64 6 5.28 6 8 C5.34 8 4.68 8 4 8 C4 6.02 4 4.04 4 2 C3.01 2 2.02 2 1 2 C0.67 2.99 0.34 3.98 0 5 C0 3.35 0 1.7 0 0 Z " fill="#354B66" transform="translate(98,113)"/>
<path d="M0 0 C-0.33 0.66 -0.66 1.32 -1 2 C-2.66500443 2.34153937 -4.33178677 2.67449498 -6 3 C-6.66 3.66 -7.32 4.32 -8 5 C-8.99 5 -9.98 5 -11 5 C-10.6875 3.0625 -10.6875 3.0625 -10 1 C-6.52674819 -0.1577506 -3.63932552 -0.06866652 0 0 Z " fill="#465F7E" transform="translate(76,123)"/>
<path d="M0 0 C2.58787727 2.58787727 2.62709152 4.42007861 3 8 C2.67 8.66 2.34 9.32 2 10 C1.01 10 0.02 10 -1 10 C-1.02689216 8.52093108 -1.04634621 7.04172517 -1.0625 5.5625 C-1.07410156 4.73878906 -1.08570312 3.91507812 -1.09765625 3.06640625 C-1 1 -1 1 0 0 Z " fill="#477092" transform="translate(122,124)"/>
<path d="M0 0 C-0.39803561 2.88575819 -0.79009069 3.82189513 -3.0625 5.75 C-3.701875 6.1625 -4.34125 6.575 -5 7 C-5.66 6.67 -6.32 6.34 -7 6 C-7 5.34 -7 4.68 -7 4 C-2.52941176 0 -2.52941176 0 0 0 Z " fill="#DFCB74" transform="translate(254,66)"/>
<path d="M0 0 C2.79192205 -0.05380578 5.5828141 -0.09357669 8.375 -0.125 C9.1690625 -0.14175781 9.963125 -0.15851563 10.78125 -0.17578125 C12.85492015 -0.19335473 14.92883241 -0.10335168 17 0 C17.66 0.66 18.32 1.32 19 2 C18.01 2.33 17.02 2.66 16 3 C15.67 2.67 15.34 2.34 15 2 C12.47403741 1.76346477 9.96892793 1.57826308 7.4375 1.4375 C6.72658203 1.39431641 6.01566406 1.35113281 5.28320312 1.30664062 C3.52238088 1.20028223 1.7612168 1.09961154 0 1 C0 0.67 0 0.34 0 0 Z " fill="#415671" transform="translate(13,113)"/>
<path d="M0 0 C0.33 0 0.66 0 1 0 C2.19876651 5.44893869 1.91360308 8.22169095 -1 13 C-1.66 12.01 -2.32 11.02 -3 10 C-2.690625 9.46375 -2.38125 8.9275 -2.0625 8.375 C-0.82172561 5.6015043 -0.4090325 2.99957163 0 0 Z " fill="#46617E" transform="translate(189,96)"/>
<path d="M0 0 C2.31 0.66 4.62 1.32 7 2 C6 4 6 4 2.9375 5.125 C1.968125 5.41375 0.99875 5.7025 0 6 C0 4.02 0 2.04 0 0 Z " fill="#4B6D96" transform="translate(226,19)"/>
<path d="M0 0 C1.65 0 3.3 0 5 0 C5 0.99 5 1.98 5 3 C2.69 3.33 0.38 3.66 -2 4 C-1.34 2.68 -0.68 1.36 0 0 Z " fill="#F5BE40" transform="translate(208,158)"/>
<path d="M0 0 C0.66 0.33 1.32 0.66 2 1 C2 4 2 4 0.625 5.6875 C-1 7 -1 7 -3 7 C-1.125 1.125 -1.125 1.125 0 0 Z " fill="#41637E" transform="translate(210,121)"/>
<path d="M0 0 C0.99 0.33 1.98 0.66 3 1 C2.67 1.66 2.34 2.32 2 3 C3.98 3 5.96 3 8 3 C6 5 6 5 2.875 5.125 C1.451875 5.063125 1.451875 5.063125 0 5 C0 3.35 0 1.7 0 0 Z " fill="#31445C" transform="translate(109,122)"/>
<path d="M0 0 C0.99 0.33 1.98 0.66 3 1 C2.34 1.66 1.68 2.32 1 3 C0.59952556 5.32275177 0.2602896 7.65739357 0 10 C-0.33 8.68 -0.66 7.36 -1 6 C-1.66 6 -2.32 6 -3 6 C-1.125 1.125 -1.125 1.125 0 0 Z " fill="#406A91" transform="translate(88,124)"/>
<path d="M0 0 C3 3 3 3 3.07421875 5.69921875 C2.94660156 6.68535156 2.81898437 7.67148438 2.6875 8.6875 C2.50767578 10.17830078 2.50767578 10.17830078 2.32421875 11.69921875 C2.21722656 12.45847656 2.11023438 13.21773437 2 14 C1.67 14 1.34 14 1 14 C0.67 9.38 0.34 4.76 0 0 Z " fill="#39587B" transform="translate(77,122)"/>
<path d="M0 0 C0.33 0.99 0.66 1.98 1 3 C-0.9375 6.1875 -0.9375 6.1875 -3 9 C-3.66 8.67 -4.32 8.34 -5 8 C-2.25 1.125 -2.25 1.125 0 0 Z " fill="#3A5A73" transform="translate(216,114)"/>
<path d="M0 0 C2.0625 0.4375 2.0625 0.4375 4 1 C4.125 6.75 4.125 6.75 3 9 C2.34 9 1.68 9 1 9 C1.33 7.02 1.66 5.04 2 3 C1.01 2.34 0.02 1.68 -1 1 C-0.67 0.67 -0.34 0.34 0 0 Z " fill="#364E64" transform="translate(210,58)"/>
<path d="M0 0 C0 3.28176588 -0.47835901 5.10888212 -2 8 C-4.078125 8.6484375 -4.078125 8.6484375 -6 9 C-5.18914873 7.68648079 -4.37626942 6.37421332 -3.5625 5.0625 C-3.11003906 4.33160156 -2.65757812 3.60070312 -2.19140625 2.84765625 C-1 1 -1 1 0 0 Z " fill="#E9BD3F" transform="translate(230,148)"/>
<path d="M0 0 C1.134375 0.020625 2.26875 0.04125 3.4375 0.0625 C3.4375 1.0525 3.4375 2.0425 3.4375 3.0625 C0.5625 3.1875 0.5625 3.1875 -2.5625 3.0625 C-3.2225 2.4025 -3.8825 1.7425 -4.5625 1.0625 C-3.5625 0.0625 -3.5625 0.0625 0 0 Z " fill="#3D6586" transform="translate(115.5625,130.9375)"/>
<path d="M0 0 C0.33 0 0.66 0 1 0 C0.67 2.31 0.34 4.62 0 7 C-2.31 7 -4.62 7 -7 7 C-7 6.34 -7 5.68 -7 5 C-3.535 4.505 -3.535 4.505 0 4 C0 2.68 0 1.36 0 0 Z " fill="#45688C" transform="translate(122,135)"/>
<path d="M0 0 C0.66 0 1.32 0 2 0 C2.33 0.99 2.66 1.98 3 3 C2.67 3.66 2.34 4.32 2 5 C-0.86724686 4.42655063 -1.8614515 4.1385485 -4 2 C-2.68 2 -1.36 2 0 2 C0 1.34 0 0.68 0 0 Z " fill="#375F82" transform="translate(45,129)"/>
<path d="M0 0 C0.598125 0.350625 1.19625 0.70125 1.8125 1.0625 C-1.27559695 2.82712683 -2.42062136 3.0625 -6.1875 3.0625 C-5.8575 2.0725 -5.5275 1.0825 -5.1875 0.0625 C-2.1875 -0.9375 -2.1875 -0.9375 0 0 Z " fill="#39628A" transform="translate(29.1875,127.9375)"/>
<path d="M0 0 C1.67542976 0.28604898 3.34385343 0.61781233 5 1 C5 2.65 5 4.3 5 6 C4.34 6 3.68 6 3 6 C2.67 5.01 2.34 4.02 2 3 C1.01 2.34 0.02 1.68 -1 1 C-0.67 0.67 -0.34 0.34 0 0 Z " fill="#345779" transform="translate(117,125)"/>
<path d="M0 0 C0.99 0 1.98 0 3 0 C3 1.98 3 3.96 3 6 C2.01 6 1.02 6 0 6 C0 4.02 0 2.04 0 0 Z " fill="#446787" transform="translate(99,115)"/>
<path d="M0 0 C0.66 0 1.32 0 2 0 C1.38722388 2.96175123 0.74627478 4.38058783 -1 7 C-1.99 6.67 -2.98 6.34 -4 6 C-2.7260411 3.96166576 -1.38938077 1.96147874 0 0 Z " fill="#365289" transform="translate(185,107)"/>
</svg>
