<?xml version="1.0" encoding="UTF-8"?>
<svg version="1.1" xmlns="http://www.w3.org/2000/svg" width="225" height="225">
<path d="M0 0 C2.62397707 0.8237808 5.24892918 1.64390415 7.875 2.4609375 C8.9710833 2.80461868 8.9710833 2.80461868 10.08930969 3.15524292 C20.63916122 6.44926975 31.26320925 9.49572062 41.87753296 12.57397461 C45.4032262 13.59692198 48.92791134 14.62327624 52.45239258 15.65039062 C64.76036722 19.23215909 77.08156077 22.75917975 89.43501282 26.18118286 C96.3043075 28.08905808 103.10989032 30.13692531 109.8984375 32.31640625 C112.66870377 33.18175747 115.43184059 34.00011688 118.2265625 34.77734375 C118.99162109 34.99245605 119.75667969 35.20756836 120.54492188 35.42919922 C122.00469674 35.83689259 123.46681538 36.23633079 124.93164062 36.62548828 C131.26475032 38.40533167 136.4172568 41.46721337 140.6875 46.5 C143.390217 51.39413469 142.98300936 56.51206445 142.97802734 61.9465332 C142.98474457 62.99755219 142.99146179 64.04857117 142.99838257 65.13143921 C143.01737414 68.60460137 143.02128745 72.0775704 143.0234375 75.55078125 C143.02986485 77.96827778 143.03659316 80.38577354 143.04360962 82.80326843 C143.05558546 87.87138675 143.05929014 92.93943689 143.05810547 98.00756836 C143.05790232 104.49406099 143.08519935 110.9801153 143.11964989 117.4665041 C143.14191455 122.4603017 143.14594312 127.45399377 143.14488602 132.44783592 C143.14724281 134.83878273 143.15607071 137.22973241 143.17155075 139.62063026 C143.19120008 142.96915783 143.18537589 146.3167396 143.17333984 149.6652832 C143.18457886 150.64789627 143.19581787 151.63050934 143.20739746 152.64289856 C143.14130423 159.89839591 141.54807175 165.23564973 136.72265625 170.7421875 C136.07167969 171.28101563 135.42070312 171.81984375 134.75 172.375 C134.10160156 172.92929688 133.45320312 173.48359375 132.78515625 174.0546875 C126.27292331 178.54170089 119.32663844 178.0740393 111.6875 177.5 C108.90083129 176.82904462 107.23573882 175.95613647 104.6875 174.5 C104.04941406 174.16355469 103.41132813 173.82710937 102.75390625 173.48046875 C97.86433975 170.8536795 97.86433975 170.8536795 96.6875 168.5 C96.5 165 96.5 165 96.6875 161.5 C98.6875 159.5 98.6875 159.5 100.8515625 159.3046875 C101.66367188 159.32789063 102.47578125 159.35109375 103.3125 159.375 C104.12976563 159.39304688 104.94703125 159.41109375 105.7890625 159.4296875 C106.41554687 159.45289063 107.04203125 159.47609375 107.6875 159.5 C107.6875 160.16 107.6875 160.82 107.6875 161.5 C109.74933633 161.58150744 111.81211349 161.6394194 113.875 161.6875 C115.02355469 161.72230469 116.17210937 161.75710937 117.35546875 161.79296875 C121.02039234 161.47073045 122.78414715 160.71232393 125.6875 158.5 C127.71656486 155.45640272 127.93890037 154.86295259 127.95492554 151.44569397 C127.96345551 150.62276352 127.97198547 149.79983307 127.98077393 148.95196533 C127.97986755 148.05266296 127.97896118 147.1533606 127.97802734 146.22680664 C127.98474457 145.27694382 127.99146179 144.32708099 127.99838257 143.34843445 C128.01741148 140.2022888 128.02128911 137.05635589 128.0234375 133.91015625 C128.02986157 131.72684134 128.03658963 129.54352731 128.04360962 127.36021423 C128.05559432 122.78121952 128.05928917 118.20230032 128.05810547 113.62329102 C128.05790211 107.75063782 128.0852166 101.87846763 128.11964989 96.00592899 C128.14186618 91.49610664 128.14594464 86.98640155 128.14488602 82.47653008 C128.14724946 80.31114473 128.15611451 78.1457565 128.17155075 75.98042488 C128.1911057 72.95413303 128.18541401 69.92889605 128.17333984 66.90258789 C128.18457886 66.00530975 128.19581787 65.10803162 128.20739746 64.18356323 C128.18450028 59.24076452 128.18450028 59.24076452 125.84515381 54.99234009 C123.0421279 53.05362873 120.37383093 52.12509514 117.1171875 51.11328125 C116.46475067 50.90697586 115.81231384 50.70067047 115.1401062 50.4881134 C112.99291847 49.81289882 110.84061284 49.15605162 108.6875 48.5 C107.19538558 48.03645635 105.703527 47.57208843 104.21191406 47.10693359 C100.2501456 45.87601203 96.2836661 44.66104699 92.31549072 43.45095825 C80.1225844 39.73189734 67.94317504 35.98041647 55.8125 32.0625 C47.30406114 29.31813023 38.77155011 26.70596465 30.18359375 24.22314453 C24.722697 22.64106548 19.26719046 21.04082385 13.8125 19.4375 C12.68279785 19.10878906 11.5530957 18.78007813 10.38916016 18.44140625 C4.18057438 16.61454564 -1.89889327 14.62518054 -7.93432617 12.28540039 C-11.6892607 11.04531987 -14.38503851 10.94877733 -18.3125 11.5 C-21.30101594 13.69583792 -22.21273245 14.87681786 -22.80456543 18.5736084 C-22.80138306 19.77843872 -22.79820068 20.98326904 -22.79492188 22.22460938 C-22.79883438 22.89176468 -22.80274689 23.55891998 -22.80677795 24.24629211 C-22.81274278 25.69057777 -22.80960115 27.13492366 -22.7983551 28.57917786 C-22.7810808 30.86615077 -22.78860561 33.15186102 -22.8026123 35.43884277 C-22.82794832 40.292648 -22.82244419 45.1461555 -22.8125 50 C-22.80097498 55.62545923 -22.80211027 61.25030479 -22.83656311 66.87568665 C-22.84365855 69.12723123 -22.82697986 71.37780453 -22.80944824 73.62927246 C-22.81515601 75.01131717 -22.82197325 76.39335789 -22.83007812 77.77539062 C-22.82689575 78.98022095 -22.82371338 80.18505127 -22.82043457 81.4263916 C-23.412732 85.12608325 -24.3473694 86.27644199 -27.3125 88.5 C-31.08765096 89.52958663 -33.32359423 89.88641821 -36.99372864 88.45230103 C-39.3125 86.5 -39.3125 86.5 -39.95414734 83.31454468 C-39.96114151 81.99822052 -39.96813568 80.68189636 -39.9753418 79.32568359 C-39.98570969 78.59843079 -39.99607758 77.87117798 -40.00675964 77.12188721 C-40.03389749 74.71349871 -40.02414918 72.30692433 -40.01171875 69.8984375 C-40.01762836 68.22034193 -40.02487537 66.54225058 -40.03340149 64.86416626 C-40.04529681 61.34167581 -40.03855619 57.81981645 -40.01928711 54.29736328 C-39.99649888 49.8012968 -40.02305931 45.30713278 -40.06434917 40.8112545 C-40.09004638 37.34167831 -40.08731345 33.87254923 -40.07645607 30.40291214 C-40.07497666 28.74684557 -40.08257474 27.09074347 -40.09970665 25.43476486 C-40.23473591 9.84120457 -40.23473591 9.84120457 -34.90950012 3.10122681 C-24.90514966 -6.92960157 -12.23038722 -4.02005516 0 0 Z " fill="#EFC813" transform="translate(60.3125,16.5)"/>
<path d="M0 0 C1.19786133 -0.03577148 1.19786133 -0.03577148 2.41992188 -0.07226562 C3.19787109 -0.07033203 3.97582031 -0.06839844 4.77734375 -0.06640625 C5.83103149 -0.0674939 5.83103149 -0.0674939 6.90600586 -0.06860352 C10.273569 0.91692243 12.307728 2.58988658 14.0625 5.5625 C14.81042421 9.54982522 14.71430728 13.49494455 14.66186523 17.54125977 C14.66580795 18.75476105 14.66975067 19.96826233 14.67381287 21.21853638 C14.67936994 24.5392391 14.66264452 27.85838112 14.63533282 31.17887998 C14.61147008 34.65634052 14.61444752 38.13378504 14.61402893 41.61131287 C14.60940366 47.44959979 14.58578003 53.28756018 14.54956055 59.12573242 C14.50780902 65.8735288 14.49024441 72.62103133 14.4869408 79.36894947 C14.48333993 86.55720863 14.46446511 93.74536223 14.43982053 100.9335773 C14.4335954 103.00335721 14.42995691 105.07312909 14.42678642 107.14291573 C14.41978415 110.99975533 14.39538859 114.85637752 14.36889648 118.71313477 C14.36789948 120.43304375 14.36789948 120.43304375 14.36688232 122.18769836 C14.3569072 123.23774048 14.34693207 124.28778259 14.33665466 125.36964417 C14.33200416 126.28125588 14.32735365 127.1928676 14.32256222 128.13210392 C14.04045243 130.76854427 13.50367493 132.34545007 12.0625 134.5625 C8.00894682 137.26486878 4.88344744 136.92997676 0.125 136.9375 C-0.68646484 136.96199219 -1.49792969 136.98648438 -2.33398438 137.01171875 C-3.11966797 137.01558594 -3.90535156 137.01945313 -4.71484375 137.0234375 C-5.42890381 137.03165527 -6.14296387 137.03987305 -6.87866211 137.04833984 C-9.86172812 136.34440277 -11.00322763 134.90196777 -12.9375 132.5625 C-13.44086456 130.0824585 -13.44086456 130.0824585 -13.44543457 127.24902344 C-13.45671387 126.1722937 -13.46799316 125.09556396 -13.47961426 123.98620605 C-13.47151733 122.80997681 -13.46342041 121.63374756 -13.45507812 120.421875 C-13.4620874 119.17925903 -13.46909668 117.93664307 -13.47631836 116.65637207 C-13.49090873 113.25114814 -13.48748748 109.84689618 -13.47480202 106.44172668 C-13.46467116 102.87747902 -13.47406792 99.31327274 -13.48034668 95.74902344 C-13.48762288 89.76359606 -13.47803627 83.77836614 -13.45898438 77.79296875 C-13.43721546 70.87411042 -13.44426687 63.95572358 -13.46629 57.03687668 C-13.48444495 51.09534038 -13.48700193 45.15394598 -13.47653532 39.2123909 C-13.47030082 35.66426109 -13.46946329 32.11635286 -13.48268127 28.5682373 C-13.49638678 24.61301359 -13.47738835 20.65831752 -13.45507812 16.703125 C-13.46317505 15.52689575 -13.47127197 14.3506665 -13.47961426 13.13879395 C-13.46833496 12.06206421 -13.45705566 10.98533447 -13.44543457 9.87597656 C-13.44392647 8.94094299 -13.44241837 8.00590942 -13.44086456 7.0425415 C-11.95694684 -0.2686159 -6.10308905 -0.08333535 0 0 Z " fill="#F0C811" transform="translate(134.9375,74.4375)"/>
<path d="M0 0 C1.12148437 -0.02578125 2.24296875 -0.0515625 3.3984375 -0.078125 C6.96923905 0.28500736 8.80726101 1.05728675 11.625 3.25 C12.93441023 7.17823069 12.79732709 10.93612735 12.81787109 15.0324707 C12.82604858 15.93035309 12.83422607 16.82823547 12.84265137 17.75332642 C12.86748308 20.72747125 12.88401486 23.70156847 12.8984375 26.67578125 C12.90376118 27.69156942 12.90908485 28.7073576 12.91456985 29.75392723 C12.94129052 35.12948222 12.96066976 40.50501406 12.97509766 45.88061523 C12.9917518 51.43253766 13.03653937 56.98386722 13.0874691 62.53556538 C13.12112119 66.80525903 13.13267279 71.07481149 13.13832474 75.34462547 C13.14504174 77.39116133 13.16027541 79.43768776 13.18421555 81.48409462 C13.21582881 84.34967066 13.21590969 87.21364112 13.20849609 90.0793457 C13.22490143 90.9226796 13.24130676 91.76601349 13.25820923 92.63490295 C13.21397884 96.81644215 12.88320152 99.45709071 10.21757507 102.77563477 C6.82898071 106.00972437 6.82898071 106.00972437 3.55859375 106.01171875 C2.4593457 106.01655273 2.4593457 106.01655273 1.33789062 106.02148438 C0.58701172 105.99376953 -0.16386719 105.96605469 -0.9375 105.9375 C-1.69224609 105.95232422 -2.44699219 105.96714844 -3.22460938 105.98242188 C-6.79505957 105.92894377 -8.88905285 105.68334062 -11.58850098 103.27612305 C-14.03183513 99.13739714 -13.93740933 95.85648279 -13.89257812 91.1328125 C-13.8995874 90.2232782 -13.90659668 89.3137439 -13.91381836 88.37664795 C-13.93139647 85.37578634 -13.91977611 82.37587089 -13.90625 79.375 C-13.90894496 77.28661926 -13.91282742 75.19823973 -13.91784668 73.10986328 C-13.92374149 68.73522991 -13.91517914 64.36092347 -13.89648438 59.98632812 C-13.87369506 54.38056414 -13.8868182 48.7755662 -13.91077423 43.16983032 C-13.92523254 38.85809565 -13.92062602 34.5465424 -13.91026306 30.23480225 C-13.90759588 28.16794748 -13.91086523 26.10107621 -13.92018127 24.03424072 C-13.93034719 21.14477951 -13.91484489 18.25655655 -13.89257812 15.3671875 C-13.90067505 14.51404968 -13.90877197 13.66091187 -13.91711426 12.78192139 C-13.86008191 8.78446293 -13.66601003 6.7243812 -11.53015137 3.24267578 C-7.95457399 -0.06334094 -4.69066891 0.06440278 0 0 Z " fill="#F0C815" transform="translate(99.375,93.75)"/>
<path d="M0 0 C1.21429688 -0.04898438 2.42859375 -0.09796875 3.6796875 -0.1484375 C8.14767967 0.5303731 9.33654898 1.87026743 12.125 5.375 C12.75991821 8.75195312 12.75991821 8.75195312 12.77197266 12.65625 C12.78511505 13.72794434 12.78511505 13.72794434 12.79852295 14.82128906 C12.8204549 17.17315151 12.80598866 19.52311987 12.7890625 21.875 C12.79243248 23.51497761 12.79728661 25.15495279 12.80355835 26.79492188 C12.81092119 30.22810703 12.80024392 33.66064072 12.77685547 37.09375 C12.74836713 41.48909357 12.76477439 45.88291065 12.79471779 50.27819824 C12.81280723 53.66352794 12.80702539 57.04849719 12.79407883 60.43383789 C12.79074932 62.05411969 12.79481592 63.67443448 12.80647659 65.29467773 C12.81921367 67.56191356 12.79977397 69.82669642 12.77197266 72.09375 C12.76799469 73.38216797 12.76401672 74.67058594 12.75991821 75.99804688 C11.95948658 80.25531979 10.50233428 81.74189346 7.125 84.375 C3.75 84.96875 3.75 84.96875 0.125 84.875 C-1.07125 84.8646875 -2.2675 84.854375 -3.5 84.84375 C-7.06357694 84.34880876 -9.01626518 83.51905112 -11.875 81.375 C-13.35818468 78.40863063 -13.01872108 75.72866391 -13.03613281 72.41845703 C-13.04109772 71.70282593 -13.04606262 70.98719482 -13.05117798 70.24987793 C-13.06580791 67.87751308 -13.07260295 65.50521509 -13.078125 63.1328125 C-13.08387577 61.48615517 -13.08963351 59.83949786 -13.09539795 58.19284058 C-13.1059103 54.73776944 -13.11175143 51.2827216 -13.11523438 47.82763672 C-13.12071966 43.39999215 -13.14474727 38.97265502 -13.17320633 34.54510689 C-13.19182848 31.14276225 -13.19703808 27.74049173 -13.19857025 24.33810043 C-13.20159827 22.70581252 -13.20963185 21.07352596 -13.22275543 19.44128799 C-13.23980755 17.15739798 -13.23793811 14.87425984 -13.23144531 12.59033203 C-13.23509094 11.29064484 -13.23873657 9.99095764 -13.24249268 8.65188599 C-12.85252981 5.17463613 -12.36483237 3.78456966 -9.875 1.375 C-6.44866115 0.23288705 -3.61002589 0.09921847 0 0 Z " fill="#EFC714" transform="translate(64.875,103.625)"/>
<path d="M0 0 C1.93359375 -0.01933594 1.93359375 -0.01933594 3.90625 -0.0390625 C8.50909879 0.81146391 9.69846674 1.8884462 12.5 5.625 C13.27350242 9.05316155 13.29246731 12.42510814 13.3125 15.9296875 C13.33473633 16.92702911 13.35697266 17.92437073 13.37988281 18.95193481 C13.42138382 21.05809031 13.45089864 23.16451159 13.46923828 25.27099609 C13.49983576 28.48276039 13.57306854 31.6914516 13.65234375 34.90234375 C13.6874385 36.95308306 13.72007156 39.00386628 13.75 41.0546875 C13.77167236 42.00906708 13.79334473 42.96344666 13.81567383 43.94674683 C13.84144862 49.61928613 13.30730577 53.64744353 10.5 58.625 C6.76750107 61.11333262 4.58053598 60.98809518 0.125 61.0625 C-1.83566406 61.12244141 -1.83566406 61.12244141 -3.8359375 61.18359375 C-7.5 60.625 -7.5 60.625 -10.1875 58.79321289 C-13.59629323 54.1230366 -13.21838463 50.02233972 -13.1640625 44.375 C-13.16884613 43.28413086 -13.17362976 42.19326172 -13.17855835 41.06933594 C-13.18195613 38.76626135 -13.17276243 36.46313845 -13.15185547 34.16015625 C-13.1250906 30.63692583 -13.15161001 27.11688144 -13.18359375 23.59375 C-13.18028963 21.35415964 -13.17388337 19.11457126 -13.1640625 16.875 C-13.17418365 15.82280273 -13.18430481 14.77060547 -13.19473267 13.68652344 C-13.07831239 6.4141618 -13.07831239 6.4141618 -10.18310547 2.46337891 C-6.63903701 0.03509542 -4.27045018 -0.0427045 0 0 Z " fill="#EFC910" transform="translate(29.5,115.375)"/>
<path d="M0 0 C7.93509021 1.38852826 15.5486982 3.53396853 23.25 5.875 C25.64428935 6.59715666 28.03881835 7.3185193 30.43359375 8.0390625 C32.13684814 8.55194824 32.13684814 8.55194824 33.87451172 9.07519531 C38.656592 10.49017111 43.46977923 11.77787808 48.30078125 13.015625 C53.87570027 15.04873584 59.17608217 18.71147952 62.09320068 23.97103882 C63.4430107 28.4797786 63.27780961 32.84391445 63.25878906 37.52587891 C63.2622937 38.58492935 63.26579834 39.6439798 63.26940918 40.73512268 C63.27820501 44.23233614 63.27238565 47.72934702 63.265625 51.2265625 C63.26697206 53.65603677 63.26891294 56.08551078 63.27142334 58.51498413 C63.27437153 63.60409108 63.27008595 68.69312778 63.26074219 73.78222656 C63.24933577 80.3139281 63.25591668 86.84546549 63.26788712 93.37716103 C63.27510356 98.39219405 63.27281898 103.40718795 63.26763153 108.42222214 C63.26629507 110.8312418 63.26794263 113.24026499 63.27259064 115.64928055 C63.27765357 119.01058662 63.26994925 122.37162415 63.25878906 125.73291016 C63.26283752 126.7334996 63.26688599 127.73408905 63.27105713 128.76499939 C63.26541748 129.67904037 63.25977783 130.59308136 63.25396729 131.53482056 C63.25321323 132.32936457 63.25245918 133.12390858 63.25168228 133.94252968 C63 136 63 136 61 139 C61 102.04 61 65.08 61 27 C59.515 26.505 59.515 26.505 58 26 C58 25.01 58 24.02 58 23 C57.34 23 56.68 23 56 23 C56 22.34 56 21.68 56 21 C52.56769552 21.26393501 52.56769552 21.26393501 49 22 C48.01 23.485 48.01 23.485 47 25 C48.32 24.34 49.64 23.68 51 23 C50.7215625 24.11375 50.7215625 24.11375 50.4375 25.25 C49.98940187 28.06661684 50.31116646 29.30741291 51 32 C51.08507467 33.39848057 51.12205075 34.80041232 51.12025452 36.20147705 C51.12231651 37.44660568 51.12231651 37.44660568 51.12442017 38.71688843 C51.11902725 40.06987534 51.11902725 40.06987534 51.11352539 41.45019531 C51.11367142 42.40662933 51.11381744 43.36306335 51.1139679 44.34848022 C51.11327148 47.50838492 51.10549174 50.6682306 51.09765625 53.828125 C51.09579111 56.01959196 51.09436766 58.21105933 51.09336853 60.40252686 C51.08955094 66.16960807 51.07972709 71.93666409 51.06866455 77.70373535 C51.05843416 83.5889451 51.05386742 89.47415892 51.04882812 95.359375 C51.03810417 106.90626107 51.02103681 118.45312844 51 130 C50.34 130.33 49.68 130.66 49 131 C48.99453156 129.17169647 48.99453156 129.17169647 48.98895264 127.30645752 C48.95203771 115.82894991 48.89430337 104.35171146 48.81609726 92.87440872 C48.77656046 86.9735527 48.74440236 81.0728473 48.72900391 75.171875 C48.71387829 69.47883259 48.67950542 63.7862041 48.63169098 58.09334564 C48.61683491 55.91964055 48.60895658 53.74587637 48.60811615 51.57212067 C48.60575749 48.53102807 48.57876613 45.49108966 48.54589844 42.45019531 C48.5509288 41.54820404 48.55595917 40.64621277 48.56114197 39.71688843 C48.50511206 34.7534612 48.50511206 34.7534612 46.15170288 30.48867798 C43.36748781 28.56238987 40.72782854 27.63805586 37.4921875 26.6328125 C36.84305389 26.42753937 36.19392029 26.22226624 35.52511597 26.01077271 C33.35377741 25.32796805 31.17722186 24.66378572 29 24 C27.42194347 23.50961549 25.84415038 23.01838254 24.26660156 22.52636719 C19.2244619 20.95925467 14.17525023 19.41573808 9.125 17.875 C6.53627783 17.08432474 3.94773547 16.29307538 1.35958862 15.5005188 C-0.23289381 15.01293768 -1.82570227 14.52641942 -3.41891479 14.04122925 C-8.64118156 12.44336239 -13.82630629 10.74858437 -19 9 C-19 8.67 -19 8.34 -19 8 C-14.15419895 8.59336339 -9.67638434 9.61440464 -5 11 C-1.92902073 11.87742265 -0.42348175 12.10833254 2.6875 11.3125 C5.34193916 9.80592643 5.84657212 8.75048188 7 6 C7.66 5.67 8.32 5.34 9 5 C5.81237635 2.87491756 3.73487777 2.4979837 0 2 C0 1.34 0 0.68 0 0 Z " fill="#EACA30" transform="translate(140,41)"/>
<path d="M0 0 C1.27950132 0.40290057 2.55962969 0.80381444 3.84033203 1.20288086 C5.86620055 1.83440937 7.891581 2.46720012 9.91513062 3.10612488 C17.55970803 5.51744905 25.25094345 7.76662002 32.94500732 10.01397705 C35.9477722 10.89139027 38.94930717 11.77296926 41.9508667 12.65449524 C44.758628 13.47896293 47.56679891 14.30203171 50.375 15.125 C46.9454078 16.28662803 44.73754912 15.94598415 41.26953125 15.015625 C40.28533203 14.75523438 39.30113281 14.49484375 38.28710938 14.2265625 C37.26423828 13.94554688 36.24136719 13.66453125 35.1875 13.375 C34.18396484 13.10945313 33.18042969 12.84390625 32.14648438 12.5703125 C26.1446595 10.96149542 20.24619243 9.15638304 14.375 7.125 C12.96541016 6.65513672 12.96541016 6.65513672 11.52734375 6.17578125 C9.4765625 5.4921875 7.42578125 4.80859375 5.375 4.125 C5.375 4.785 5.375 5.445 5.375 6.125 C6.035 6.455 6.695 6.785 7.375 7.125 C5.065 6.795 2.755 6.465 0.375 6.125 C0.375 6.785 0.375 7.445 0.375 8.125 C2.685 8.125 4.995 8.125 7.375 8.125 C1.31529851 13.31902985 1.31529851 13.31902985 -2.625 14.125 C-4.90310646 13.50846831 -7.06949219 12.7009429 -9.28125 11.87890625 C-12.99632725 10.68388973 -15.73626881 10.66362511 -19.625 11.125 C-22.62245945 13.31426789 -23.52495689 14.50009665 -24.11706543 18.1986084 C-24.11388306 19.40343872 -24.11070068 20.60826904 -24.10742188 21.84960938 C-24.11133438 22.51676468 -24.11524689 23.18391998 -24.11927795 23.87129211 C-24.12524278 25.31557777 -24.12210115 26.75992366 -24.1108551 28.20417786 C-24.0935808 30.49115077 -24.10110561 32.77686102 -24.1151123 35.06384277 C-24.14044832 39.917648 -24.13494419 44.7711555 -24.125 49.625 C-24.11347498 55.25045923 -24.11461027 60.87530479 -24.14906311 66.50068665 C-24.15615855 68.75223123 -24.13947986 71.00280453 -24.12194824 73.25427246 C-24.12765601 74.63631717 -24.13447325 76.01835789 -24.14257812 77.40039062 C-24.13939575 78.60522095 -24.13621338 79.81005127 -24.13293457 81.0513916 C-24.71558334 84.69081443 -25.79565591 85.85601928 -28.625 88.125 C-29.285 87.795 -29.945 87.465 -30.625 87.125 C-28.645 86.135 -28.645 86.135 -26.625 85.125 C-26.625 60.705 -26.625 36.285 -26.625 11.125 C-27.285 11.125 -27.945 11.125 -28.625 11.125 C-28.295 9.805 -27.965 8.485 -27.625 7.125 C-28.285 7.125 -28.945 7.125 -29.625 7.125 C-30.285 4.485 -30.945 1.845 -31.625 -0.875 C-21.93760038 -7.33326641 -10.17256222 -3.31481674 0 0 Z " fill="#ECC927" transform="translate(61.625,16.875)"/>
<path d="M0 0 C1.19786133 -0.03577148 1.19786133 -0.03577148 2.41992188 -0.07226562 C3.19787109 -0.07033203 3.97582031 -0.06839844 4.77734375 -0.06640625 C5.83103149 -0.0674939 5.83103149 -0.0674939 6.90600586 -0.06860352 C10.27474305 0.91726602 12.30845034 2.58792435 14.0625 5.5625 C14.81065112 9.56035322 14.71429819 13.51627839 14.66186523 17.57299805 C14.66580795 18.78971191 14.66975067 20.00642578 14.67381287 21.26000977 C14.67936941 24.58884111 14.66264864 27.91611521 14.63533282 31.24474311 C14.61147818 34.72847815 14.61444761 38.21219699 14.61402893 41.69599915 C14.60940425 47.54267823 14.58578084 53.38903115 14.54956055 59.2355957 C14.50777035 65.99933677 14.49024216 72.76278452 14.4869408 79.52664727 C14.48334484 86.72624485 14.46448075 93.92573665 14.43982053 101.12529016 C14.43358644 103.20165249 14.42995368 105.27800677 14.42678642 107.35437584 C14.41980384 111.21641287 14.39543069 115.078231 14.36889648 118.94018555 C14.36789948 120.67088036 14.36789948 120.67088036 14.36688232 122.4365387 C14.3569072 123.48383148 14.34693207 124.53112427 14.33665466 125.6101532 C14.33200416 126.5236085 14.32735365 127.43706381 14.32256222 128.37819958 C14.0625 130.5625 14.0625 130.5625 12.0625 132.5625 C11.7325 90.3225 11.4025 48.0825 11.0625 4.5625 C6.97546152 3.7450923 3.62180209 3.39888066 -0.5 3.375 C-2.17255859 3.35373047 -2.17255859 3.35373047 -3.87890625 3.33203125 C-7.22350817 3.38988431 -7.22350817 3.38988431 -10.9375 5.5625 C-11.2675 47.4725 -11.5975 89.3825 -11.9375 132.5625 C-12.2675 132.5625 -12.5975 132.5625 -12.9375 132.5625 C-13.03091723 115.94249328 -13.10146626 99.32257164 -13.14474869 82.70236588 C-13.16537913 74.98540728 -13.19350873 67.26861175 -13.23925781 59.55175781 C-13.27911108 52.82619486 -13.30492931 46.10074999 -13.31385398 39.37507224 C-13.31907138 35.81339892 -13.33134353 32.25206345 -13.36042023 28.69049835 C-13.39260691 24.71580139 -13.39346037 20.74143577 -13.39160156 16.76660156 C-13.40598267 15.58408813 -13.42036377 14.40157471 -13.43518066 13.18322754 C-13.42968201 12.10071716 -13.42418335 11.01820679 -13.41851807 9.90289307 C-13.42220524 8.96266422 -13.42589241 8.02243538 -13.42969131 7.05371475 C-11.98233597 -0.27204023 -6.09746554 -0.08325857 0 0 Z " fill="#E6C948" transform="translate(134.9375,74.4375)"/>
<path d="M0 0 C1.27950132 0.40290057 2.55962969 0.80381444 3.84033203 1.20288086 C5.86620055 1.83440937 7.891581 2.46720012 9.91513062 3.10612488 C17.55970803 5.51744905 25.25094345 7.76662002 32.94500732 10.01397705 C35.9477722 10.89139027 38.94930717 11.77296926 41.9508667 12.65449524 C44.758628 13.47896293 47.56679891 14.30203171 50.375 15.125 C46.9454078 16.28662803 44.73754912 15.94598415 41.26953125 15.015625 C40.28533203 14.75523438 39.30113281 14.49484375 38.28710938 14.2265625 C37.26423828 13.94554688 36.24136719 13.66453125 35.1875 13.375 C34.18396484 13.10945313 33.18042969 12.84390625 32.14648438 12.5703125 C26.1446595 10.96149542 20.24619243 9.15638304 14.375 7.125 C12.96541016 6.65513672 12.96541016 6.65513672 11.52734375 6.17578125 C9.4765625 5.4921875 7.42578125 4.80859375 5.375 4.125 C5.375 4.785 5.375 5.445 5.375 6.125 C6.035 6.455 6.695 6.785 7.375 7.125 C5.065 6.795 2.755 6.465 0.375 6.125 C0.375 6.785 0.375 7.445 0.375 8.125 C2.685 8.125 4.995 8.125 7.375 8.125 C1.31529851 13.31902985 1.31529851 13.31902985 -2.625 14.125 C-5.73481905 13.38556579 -8.66523138 12.32438336 -11.625 11.125 C-8.52779155 10.24659004 -6.71854597 10.13064594 -3.625 11.125 C-3.625 10.465 -3.625 9.805 -3.625 9.125 C-4.615 9.455 -5.605 9.785 -6.625 10.125 C-7.285 9.465 -7.945 8.805 -8.625 8.125 C-7.635 7.795 -6.645 7.465 -5.625 7.125 C-3.95789654 5.62514391 -3.95789654 5.62514391 -2.625 4.125 C-10.55838801 -1.46443246 -17.66472649 -1.81609582 -27.1875 -0.3125 C-27.991875 -0.168125 -28.79625 -0.02375 -29.625 0.125 C-30.285 -0.205 -30.945 -0.535 -31.625 -0.875 C-21.93760038 -7.33326641 -10.17256222 -3.31481674 0 0 Z " fill="#E9CA30" transform="translate(61.625,16.875)"/>
<path d="M0 0 C1.21816406 0.03480469 1.21816406 0.03480469 2.4609375 0.0703125 C3.68683594 0.09738281 3.68683594 0.09738281 4.9375 0.125 C5.87722656 0.15980469 5.87722656 0.15980469 6.8359375 0.1953125 C6.8359375 0.8553125 6.8359375 1.5153125 6.8359375 2.1953125 C11.7859375 2.1953125 16.7359375 2.1953125 21.8359375 2.1953125 C21.5059375 3.1853125 21.1759375 4.1753125 20.8359375 5.1953125 C18.8559375 5.1953125 16.8759375 5.1953125 14.8359375 5.1953125 C14.5059375 6.1853125 14.1759375 7.1753125 13.8359375 8.1953125 C11.1959375 8.5253125 8.5559375 8.8553125 5.8359375 9.1953125 C5.8359375 10.1853125 5.8359375 11.1753125 5.8359375 12.1953125 C5.8359375 13.1853125 5.8359375 14.1753125 5.8359375 15.1953125 C12.14329057 16.19875503 18.47034177 16.70404321 24.8359375 17.1953125 C24.8359375 17.5253125 24.8359375 17.8553125 24.8359375 18.1953125 C10.05461632 18.74884325 10.05461632 18.74884325 3.8359375 15.1953125 C2.87880859 14.69064453 2.87880859 14.69064453 1.90234375 14.17578125 C-2.98722275 11.548992 -2.98722275 11.548992 -4.1640625 9.1953125 C-4.3515625 5.6953125 -4.3515625 5.6953125 -4.1640625 2.1953125 C-2.1640625 0.1953125 -2.1640625 0.1953125 0 0 Z " fill="#ECC91E" transform="translate(161.1640625,175.8046875)"/>
<path d="M0 0 C1.2375 -0.01417969 2.475 -0.02835937 3.75 -0.04296875 C7 0.1875 7 0.1875 10 2.1875 C10 2.8475 10 3.5075 10 4.1875 C8.68 3.8575 7.36 3.5275 6 3.1875 C6 2.5275 6 1.8675 6 1.1875 C3.69 1.5175 1.38 1.8475 -1 2.1875 C-1 3.5075 -1 4.8275 -1 6.1875 C-4.02419525 5.59946203 -7.01758453 4.96071882 -10 4.1875 C-9.01 5.5075 -8.02 6.8275 -7 8.1875 C-8.32 8.5175 -9.64 8.8475 -11 9.1875 C-11.02315598 18.1321663 -11.04093173 27.07682231 -11.05181217 36.02151203 C-11.05703386 40.1747525 -11.06411859 44.32797249 -11.07543945 48.48120117 C-11.08629366 52.48823943 -11.09228223 56.49525797 -11.09487724 60.5023098 C-11.09672691 62.03214008 -11.10033877 63.56196926 -11.10573006 65.09179115 C-11.11297407 67.23219777 -11.11398952 69.37252257 -11.11352539 71.51293945 C-11.115746 72.73205521 -11.11796661 73.95117096 -11.12025452 75.20722961 C-11.13595272 78.24251217 -11.13595272 78.24251217 -10 81.1875 C-6.61429851 82.5337194 -2.85177378 82.49787584 0.75 82.75 C2.50570312 82.87568359 2.50570312 82.87568359 4.296875 83.00390625 C5.18890625 83.06449219 6.0809375 83.12507813 7 83.1875 C7 83.5175 7 83.8475 7 84.1875 C4.77144426 84.2689222 2.54202345 84.32688079 0.3125 84.375 C-1.54955078 84.42720703 -1.54955078 84.42720703 -3.44921875 84.48046875 C-7.21666932 84.16962299 -9.02794917 83.4647857 -12 81.1875 C-13.48318468 78.22113063 -13.14372108 75.54116391 -13.16113281 72.23095703 C-13.16609772 71.51532593 -13.17106262 70.79969482 -13.17617798 70.06237793 C-13.19080791 67.69001308 -13.19760295 65.31771509 -13.203125 62.9453125 C-13.20887577 61.29865517 -13.21463351 59.65199786 -13.22039795 58.00534058 C-13.2309103 54.55026944 -13.23675143 51.0952216 -13.24023438 47.64013672 C-13.24571966 43.21249215 -13.26974727 38.78515502 -13.29820633 34.35760689 C-13.31682848 30.95526225 -13.32203808 27.55299173 -13.32357025 24.15060043 C-13.32659827 22.51831252 -13.33463185 20.88602596 -13.34775543 19.25378799 C-13.36480755 16.96989798 -13.36293811 14.68675984 -13.35644531 12.40283203 C-13.36009094 11.10314484 -13.36373657 9.80345764 -13.36749268 8.46438599 C-12.97752981 4.98713613 -12.48983237 3.59706966 -10 1.1875 C-6.50953395 0.02401132 -3.67722983 0.01915224 0 0 Z " fill="#E6C748" transform="translate(65,103.8125)"/>
<path d="M0 0 C0.66 0.33 1.32 0.66 2 1 C1.34 1.66 0.68 2.32 0 3 C-0.29901286 5.19470407 -0.29901286 5.19470407 -0.24291992 7.75341797 C-0.24599655 8.74139374 -0.24907318 9.72936951 -0.25224304 10.74728394 C-0.24505753 11.81810211 -0.23787201 12.88892029 -0.23046875 13.9921875 C-0.23001053 15.08967316 -0.22955231 16.18715881 -0.2290802 17.31790161 C-0.22605473 19.64309772 -0.21815968 21.96829175 -0.20581055 24.29345703 C-0.18761113 27.85326321 -0.18530045 31.41280851 -0.18554688 34.97265625 C-0.18062953 37.22916892 -0.17480026 39.48567982 -0.16796875 41.7421875 C-0.16685593 42.80895721 -0.1657431 43.87572693 -0.16459656 44.974823 C-0.15821671 45.96910309 -0.15183685 46.96338318 -0.14526367 47.98779297 C-0.14145187 48.86112274 -0.13764008 49.73445251 -0.13371277 50.63424683 C-0.0063646 52.88739242 0.37091526 54.8385514 1 57 C3.27155498 56.91297874 5.54230743 56.80480478 7.8125 56.6875 C9.70935547 56.60048828 9.70935547 56.60048828 11.64453125 56.51171875 C15.17157798 55.97383386 15.80397431 55.58396713 18 53 C18.99 53 19.98 53 21 53 C21.33 51.68 21.66 50.36 22 49 C21.51330798 55.4486692 21.51330798 55.4486692 19.41796875 57.69921875 C16.06190937 59.50465942 13.35691443 59.46991545 9.5625 59.5 C7.61537109 59.54640625 7.61537109 59.54640625 5.62890625 59.59375 C0.93519365 58.8257798 -0.20039329 57.8392155 -3 54 C-3.72346786 50.23697363 -3.65312071 46.53643193 -3.59375 42.71484375 C-3.59379028 41.62160294 -3.59383057 40.52836212 -3.59387207 39.4019928 C-3.58851831 37.09467814 -3.570942 34.78736386 -3.54199219 32.48022461 C-3.50010712 28.94653701 -3.50092717 25.41475355 -3.5078125 21.88085938 C-3.49732098 19.63800758 -3.4843831 17.3951656 -3.46875 15.15234375 C-3.46854858 14.0949852 -3.46834717 13.03762665 -3.46813965 11.94822693 C-3.45222778 10.96362991 -3.43631592 9.9790329 -3.41992188 8.96459961 C-3.41150269 8.10031845 -3.4030835 7.23603729 -3.39440918 6.3455658 C-2.92200035 3.53613322 -1.85241926 2.12386473 0 0 Z " fill="#E2CA3F" transform="translate(20,117)"/>
<path d="M0 0 C0.33 0 0.66 0 1 0 C1.95401687 4.03978799 2.15302991 7.84737104 2.20532227 11.9934082 C2.21522186 12.67688828 2.22512146 13.36036835 2.23532104 14.06455994 C2.26675406 16.30993254 2.29162095 18.55532626 2.31640625 20.80078125 C2.33699153 22.36305777 2.3579884 23.92532891 2.37937927 25.4875946 C2.43443751 29.58923986 2.48391808 33.69093401 2.53222656 37.79266357 C2.58256061 41.98226243 2.6381844 46.17179072 2.69335938 50.36132812 C2.80074206 58.57415899 2.90223076 66.78704909 3 75 C5.31 75.99 7.62 76.98 10 78 C10 78.33 10 78.66 10 79 C2.25 78.25 2.25 78.25 0 76 C-0.18769518 73.56062946 -0.25198605 71.23585272 -0.22705078 68.79638672 C-0.22734283 68.0548233 -0.22763489 67.31325989 -0.22793579 66.54922485 C-0.22653994 64.09259429 -0.21096698 61.63626522 -0.1953125 59.1796875 C-0.19158327 57.47860886 -0.18873587 55.77752808 -0.18673706 54.07644653 C-0.17909349 49.59489024 -0.15943884 45.11346317 -0.1373291 40.63195801 C-0.11688622 36.06064604 -0.10773868 31.48931323 -0.09765625 26.91796875 C-0.07619359 17.94525566 -0.04204896 8.97263857 0 0 Z " fill="#E3CA48" transform="translate(21,27)"/>
<path d="M0 0 C0.33 0 0.66 0 1 0 C1.33 31.02 1.66 62.04 2 94 C3.32 94.33 4.64 94.66 6 95 C6 95.66 6 96.32 6 97 C10.95 97 15.9 97 21 97 C21 95.68 21 94.36 21 93 C21.66 93 22.32 93 23 93 C23.33 93.99 23.66 94.98 24 96 C23.02734375 97.46875 23.02734375 97.46875 21 99 C18.09023995 99.35234229 15.47018787 99.50976553 12.5625 99.5 C11.79873047 99.52835937 11.03496094 99.55671875 10.24804688 99.5859375 C9.50748047 99.58851563 8.76691406 99.59109375 8.00390625 99.59375 C7.33174072 99.60083984 6.6595752 99.60792969 5.96704102 99.61523438 C2.74348477 98.60699784 1.77646863 96.83081253 0 94 C-0.56560441 90.93067067 -0.50610237 87.91674218 -0.45410156 84.8034668 C-0.45468567 83.88590103 -0.45526978 82.96833527 -0.45587158 82.02296448 C-0.45309067 78.99799425 -0.42199799 75.97401628 -0.390625 72.94921875 C-0.38316265 70.84886717 -0.37746969 68.74850862 -0.37347412 66.64814758 C-0.35821744 61.12585149 -0.31893496 55.60397765 -0.2746582 50.08184814 C-0.23370646 44.44459749 -0.21546329 38.80727847 -0.1953125 33.16992188 C-0.15244105 22.11309595 -0.084189 11.05658312 0 0 Z " fill="#E5D058" transform="translate(86,100)"/>
<path d="M0 0 C6.46684143 0.59682298 12.31293197 2.12454483 18.5 4.0625 C19.4178125 4.34416016 20.335625 4.62582031 21.28125 4.91601562 C23.52272203 5.6048013 25.76215031 6.29955305 28 7 C27.67 7.99 27.34 8.98 27 10 C24.69 9.67 22.38 9.34 20 9 C20 8.34 20 7.68 20 7 C18.02 7 16.04 7 14 7 C13.505 6.01 13.505 6.01 13 5 C11.35 5 9.7 5 8 5 C7.34 7.31 6.68 9.62 6 12 C5.34 12 4.68 12 4 12 C4 12.66 4 13.32 4 14 C5.32 14.33 6.64 14.66 8 15 C4.23028765 16.25657078 2.7747462 15.53833416 -0.98046875 14.34765625 C-2.14384766 13.98349609 -3.30722656 13.61933594 -4.50585938 13.24414062 C-5.72080078 12.85419922 -6.93574219 12.46425781 -8.1875 12.0625 C-9.41404297 11.67642578 -10.64058594 11.29035156 -11.90429688 10.89257812 C-14.93876282 9.93619003 -17.97041163 8.97170703 -21 8 C-21 7.67 -21 7.34 -21 7 C-16.71 7.33 -12.42 7.66 -8 8 C-8 8.66 -8 9.32 -8 10 C-7.28972656 9.91621094 -6.57945313 9.83242188 -5.84765625 9.74609375 C-4.92855469 9.64425781 -4.00945312 9.54242188 -3.0625 9.4375 C-1.68771484 9.28087891 -1.68771484 9.28087891 -0.28515625 9.12109375 C0.46894531 9.08113281 1.22304687 9.04117188 2 9 C2.33 9.33 2.66 9.66 3 10 C3.66 7.69 4.32 5.38 5 3 C2.525 2.505 2.525 2.505 0 2 C0 1.34 0 0.68 0 0 Z " fill="#EDCD2F" transform="translate(112,33)"/>
<path d="M0 0 C4.455 0.99 4.455 0.99 9 2 C8 5 8 5 5 7 C5 7.99 5 8.98 5 10 C4.01 10.495 4.01 10.495 3 11 C7.29 11.99 11.58 12.98 16 14 C16 14.66 16 15.32 16 16 C16.969375 16.12375 17.93875 16.2475 18.9375 16.375 C20.4534375 16.684375 20.4534375 16.684375 22 17 C22.33 17.66 22.66 18.32 23 19 C13.11712869 16.91850484 3.59683148 14.11681433 -6 11 C-6 10.34 -6 9.68 -6 9 C-4.37373596 7.61767557 -2.7074998 6.28062485 -1 5 C-2.65 5 -4.3 5 -6 5 C-5.67 4.01 -5.34 3.02 -5 2 C-3.35 2 -1.7 2 0 2 C0 1.34 0 0.68 0 0 Z " fill="#ECCB22" transform="translate(67,21)"/>
<path d="M0 0 C0.33 0 0.66 0 1 0 C1 5.94 1 11.88 1 18 C1.66 18.33 2.32 18.66 3 19 C3 22.3 3 25.6 3 29 C2.34 29 1.68 29 1 29 C1.66 33.62 2.32 38.24 3 43 C3.66 43 4.32 43 5 43 C5.33 43.66 5.66 44.32 6 45 C8.54941373 45.31241371 11.00361513 45.51303421 13.5625 45.625 C14.27341797 45.66367188 14.98433594 45.70234375 15.71679688 45.7421875 C17.47742425 45.83671783 19.23867728 45.91945817 21 46 C21 45.34 21 44.68 21 44 C22.485 44.495 22.485 44.495 24 45 C22.41375861 46.8864675 21.51683081 47.90108346 19.0546875 48.37231445 C17.97574219 48.36784302 17.97574219 48.36784302 16.875 48.36328125 C15.69164062 48.36231445 15.69164062 48.36231445 14.484375 48.36132812 C13.66453125 48.34521484 12.8446875 48.32910156 12 48.3125 C10.77023438 48.31733398 10.77023438 48.31733398 9.515625 48.32226562 C3.4009705 48.26731366 3.4009705 48.26731366 0 46 C-0.36076355 44.01315308 -0.36076355 44.01315308 -0.34057617 41.55029297 C-0.34034958 40.62948944 -0.34012299 39.70868591 -0.33988953 38.75997925 C-0.31666374 37.26617233 -0.31666374 37.26617233 -0.29296875 35.7421875 C-0.28872391 34.72399933 -0.28447906 33.70581116 -0.28010559 32.6567688 C-0.26327579 29.39591327 -0.22561546 26.13566959 -0.1875 22.875 C-0.17245874 20.66797766 -0.15876937 18.46094566 -0.14648438 16.25390625 C-0.1133583 10.83572777 -0.06311653 5.41790758 0 0 Z " fill="#E8C724" transform="translate(123,163)"/>
<path d="M0 0 C3.82618989 -0.4449058 5.50404932 -0.35733964 8.67651367 1.9284668 C11.88452362 6.16929618 11.6415819 9.28282787 11.48828125 14.45703125 C11.47766914 15.81147591 11.47766914 15.81147591 11.46684265 17.19328308 C11.43893319 20.06721088 11.37620232 22.93916472 11.3125 25.8125 C11.28741262 27.76494575 11.26460022 29.71742215 11.24414062 31.66992188 C11.18911789 36.44737102 11.10286998 41.22335126 11 46 C10.67 46 10.34 46 10 46 C9.67 32.8 9.34 19.6 9 6 C7.68 6.33 6.36 6.66 5 7 C4.67 8.32 4.34 9.64 4 11 C3.67 10.01 3.34 9.02 3 8 C2.34 8 1.68 8 1 8 C1 8.66 1 9.32 1 10 C0.34 10 -0.32 10 -1 10 C-1 8.68 -1 7.36 -1 6 C-0.195625 5.731875 0.60875 5.46375 1.4375 5.1875 C2.283125 4.795625 3.12875 4.40375 4 4 C4.33 3.01 4.66 2.02 5 1 C3.35 1 1.7 1 0 1 C0 0.67 0 0.34 0 0 Z " fill="#E7C934" transform="translate(31,116)"/>
<path d="M0 0 C0.80824219 0.19464844 1.61648437 0.38929687 2.44921875 0.58984375 C3.06410156 0.74582031 3.67898437 0.90179688 4.3125 1.0625 C3.9825 1.7225 3.6525 2.3825 3.3125 3.0625 C3.9725 3.7225 4.6325 4.3825 5.3125 5.0625 C4.9825 5.7225 4.6525 6.3825 4.3125 7.0625 C3.6525 7.0625 2.9925 7.0625 2.3125 7.0625 C1.9825 8.0525 1.6525 9.0425 1.3125 10.0625 C-0.0075 9.7325 -1.3275 9.4025 -2.6875 9.0625 C-1.6975 9.0625 -0.7075 9.0625 0.3125 9.0625 C-0.0175 8.4025 -0.3475 7.7425 -0.6875 7.0625 C-2.9975 7.3925 -5.3075 7.7225 -7.6875 8.0625 C-7.6875 5.4225 -7.6875 2.7825 -7.6875 0.0625 C-4.39053895 -1.03648702 -3.28255097 -0.80874444 0 0 Z " fill="#F2CA11" transform="translate(168.6875,50.9375)"/>
<path d="M0 0 C0.33 0 0.66 0 1 0 C1 1.98 1 3.96 1 6 C2.98 6.495 2.98 6.495 5 7 C5 7.66 5 8.32 5 9 C9.95 9 14.9 9 20 9 C20 7.68 20 6.36 20 5 C20.66 5 21.32 5 22 5 C22.33 5.99 22.66 6.98 23 8 C20.56331698 10.86206042 20.14273077 10.98544146 16.09375 11.3984375 C14.56250077 11.40639893 13.03109712 11.3980048 11.5 11.375 C10.34177734 11.39240234 10.34177734 11.39240234 9.16015625 11.41015625 C3.47007898 11.38057179 3.47007898 11.38057179 1.27416992 9.6027832 C-1.02846129 6.70629462 -0.1753694 3.5658445 0 0 Z " fill="#E4CB3E" transform="translate(87,188)"/>
<path d="M0 0 C1.21816406 0.03480469 1.21816406 0.03480469 2.4609375 0.0703125 C3.68683594 0.09738281 3.68683594 0.09738281 4.9375 0.125 C5.87722656 0.15980469 5.87722656 0.15980469 6.8359375 0.1953125 C6.8359375 0.8553125 6.8359375 1.5153125 6.8359375 2.1953125 C11.7859375 2.1953125 16.7359375 2.1953125 21.8359375 2.1953125 C21.8359375 2.8553125 21.8359375 3.5153125 21.8359375 4.1953125 C19.56516908 4.22230975 17.29430929 4.24170703 15.0234375 4.2578125 C13.75886719 4.26941406 12.49429688 4.28101563 11.19140625 4.29296875 C7.8359375 4.1953125 7.8359375 4.1953125 4.8359375 3.1953125 C4.8359375 2.5353125 4.8359375 1.8753125 4.8359375 1.1953125 C2.8559375 1.1953125 0.8759375 1.1953125 -1.1640625 1.1953125 C-1.1640625 4.4953125 -1.1640625 7.7953125 -1.1640625 11.1953125 C-0.1740625 11.1953125 0.8159375 11.1953125 1.8359375 11.1953125 C1.8359375 11.8553125 1.8359375 12.5153125 1.8359375 13.1953125 C-3.0390625 11.4453125 -3.0390625 11.4453125 -4.1640625 9.1953125 C-4.3515625 5.6953125 -4.3515625 5.6953125 -4.1640625 2.1953125 C-2.1640625 0.1953125 -2.1640625 0.1953125 0 0 Z " fill="#E7CF48" transform="translate(161.1640625,175.8046875)"/>
<path d="M0 0 C0 0.33 0 0.66 0 1 C-3.97848164 0.58121246 -7.49657704 0.16147529 -11.3125 -1.0625 C-18.23099527 -2.82143948 -25.02815979 -2.25135593 -32 -1 C-32.66 -1.33 -33.32 -1.66 -34 -2 C-23.42265478 -9.05156348 -10.84370782 -3.85309415 0 0 Z " fill="#E0C944" transform="translate(64,18)"/>
<path d="M0 0 C4.01297627 0.53412644 6.25905505 1.60483112 9.3125 4.25 C10.00988281 4.83265625 10.70726562 5.4153125 11.42578125 6.015625 C13.39455938 8.49736021 13.31431892 9.91008519 13 13 C12.01 12.67 11.02 12.34 10 12 C10 11.01 10 10.02 10 9 C9.34 9 8.68 9 8 9 C8 8.34 8 7.68 8 7 C7.38125 6.690625 6.7625 6.38125 6.125 6.0625 C4.75 5.375 3.375 4.6875 2 4 C2 3.01 2 2.02 2 1 C1.34 0.67 0.68 0.34 0 0 Z " fill="#E8CB36" transform="translate(188,55)"/>
<path d="M0 0 C2.27057377 -0.05398987 4.54151288 -0.09278742 6.8125 -0.125 C8.07707031 -0.14820312 9.34164062 -0.17140625 10.64453125 -0.1953125 C14 0 14 0 17 2 C17 2.66 17 3.32 17 4 C15.68 3.67 14.36 3.34 13 3 C13 2.34 13 1.68 13 1 C10.69 1.33 8.38 1.66 6 2 C6 3.32 6 4.64 6 6 C2.62537285 5.45276317 0.91765 4.9451 -2 3 C-1.34 3 -0.68 3 0 3 C0 2.01 0 1.02 0 0 Z " fill="#EBCB18" transform="translate(58,104)"/>
<path d="M0 0 C4.84580105 0.59336339 9.32361566 1.61440464 14 3 C17.7308156 3.97711837 20.25560907 3.96284338 24 3 C23.67 3.99 23.34 4.98 23 6 C23.66 6.66 24.32 7.32 25 8 C16.3321012 6.63353125 8.25329756 3.88315195 0 1 C0 0.67 0 0.34 0 0 Z " fill="#E9CE41" transform="translate(121,49)"/>
<path d="M0 0 C0.6953125 1.74609375 0.6953125 1.74609375 1 4 C-1.80312514 8.53549129 -6.04379215 12.93491339 -11 15 C-11.99 14.67 -12.98 14.34 -14 14 C-13.01 13.67 -12.02 13.34 -11 13 C-11.33 11.35 -11.66 9.7 -12 8 C-9.69 8.33 -7.38 8.66 -5 9 C-5 8.34 -5 7.68 -5 7 C-4.34 6.67 -3.68 6.34 -3 6 C-2.29788106 4.34795544 -1.63028587 2.68076231 -1 1 C-0.67 0.67 -0.34 0.34 0 0 Z " fill="#E8CC31" transform="translate(200,178)"/>
<path d="M0 0 C5.75762166 1.08896667 11.39247819 2.29336293 17 4 C16.67 4.99 16.34 5.98 16 7 C13.69 6.67 11.38 6.34 9 6 C9 5.34 9 4.68 9 4 C8.071875 4.0825 7.14375 4.165 6.1875 4.25 C5.135625 4.1675 4.08375 4.085 3 4 C1.30078125 1.984375 1.30078125 1.984375 0 0 Z " fill="#E4CA35" transform="translate(123,36)"/>
<path d="M0 0 C1.60875 0.185625 1.60875 0.185625 3.25 0.375 C0.89722731 3.09926311 -1.37496331 4.1891763 -4.75 5.375 C-4.75 7.025 -4.75 8.675 -4.75 10.375 C-5.41 10.375 -6.07 10.375 -6.75 10.375 C-7.08 11.035 -7.41 11.695 -7.75 12.375 C-8.11127484 8.58161419 -7.80579543 6.49551813 -6.1875 3 C-3.75 0.375 -3.75 0.375 0 0 Z " fill="#F4D60F" transform="translate(27.75,115.625)"/>
<path d="M0 0 C0.33 0 0.66 0 1 0 C1.33 3.96 1.66 7.92 2 12 C5.465 13.485 5.465 13.485 9 15 C9 15.33 9 15.66 9 16 C1.125 15.125 1.125 15.125 0 14 C-0.07271741 11.64686445 -0.08370868 9.29166332 -0.0625 6.9375 C-0.05347656 5.64714844 -0.04445313 4.35679688 -0.03515625 3.02734375 C-0.02355469 2.02832031 -0.01195313 1.02929688 0 0 Z " fill="#E0C637" transform="translate(22,90)"/>
<path d="M0 0 C0.33 1.32 0.66 2.64 1 4 C-2.22791555 6.1519437 -3.28400809 6.20086443 -7 6 C-2.25 1.125 -2.25 1.125 0 0 Z " fill="#F2C90B" transform="translate(145,47)"/>
<path d="M0 0 C0.99 0 1.98 0 3 0 C3 0.66 3 1.32 3 2 C2.01 2.495 2.01 2.495 1 3 C1 3.66 1 4.32 1 5 C1.66 5.66 2.32 6.32 3 7 C1.0625 7.5625 1.0625 7.5625 -1 8 C-2 7 -2 7 -2.1875 4.5625 C-2 2 -2 2 0 0 Z " fill="#EED13D" transform="translate(55,105)"/>
<path d="M0 0 C2.27057377 -0.05398987 4.54151288 -0.09278742 6.8125 -0.125 C8.07707031 -0.14820312 9.34164062 -0.17140625 10.64453125 -0.1953125 C14 0 14 0 17 2 C17 2.66 17 3.32 17 4 C15.68 3.67 14.36 3.34 13 3 C13 2.34 13 1.68 13 1 C8.71 1 4.42 1 0 1 C0 0.67 0 0.34 0 0 Z " fill="#E6C648" transform="translate(58,104)"/>
<path d="M0 0 C0.8125 1.625 0.8125 1.625 1 4 C-0.46818136 6.24609835 -2.15852858 8.02378677 -4 10 C-4.33 9.01 -4.66 8.02 -5 7 C-4.34 6.67 -3.68 6.34 -3 6 C-2.29788106 4.34795544 -1.63028587 2.68076231 -1 1 C-0.67 0.67 -0.34 0.34 0 0 Z " fill="#E3D03D" transform="translate(200,178)"/>
<path d="M0 0 C3.63 0 7.26 0 11 0 C11 0.99 11 1.98 11 3 C6.72213252 2.50639991 3.90432869 1.95216435 0 0 Z " fill="#E8CE3E" transform="translate(165,63)"/>
<path d="M0 0 C6.625 0.75 6.625 0.75 10 3 C7.03 3 4.06 3 1 3 C0.67 2.01 0.34 1.02 0 0 Z " fill="#E7D143" transform="translate(167,49)"/>
<path d="M0 0 C1.32 0 2.64 0 4 0 C4 0.66 4 1.32 4 2 C5.32 2.33 6.64 2.66 8 3 C4.23375329 4.25541557 2.62811066 3.37061958 -1 2 C-0.67 1.34 -0.34 0.68 0 0 Z " fill="#E4CC40" transform="translate(112,45)"/>
<path d="M0 0 C1.32 0.66 2.64 1.32 4 2 C2.71034824 3.37562854 1.37310707 4.70766393 0 6 C-0.66 6 -1.32 6 -2 6 C-1.125 1.125 -1.125 1.125 0 0 Z " fill="#E6C73B" transform="translate(38,26)"/>
</svg>
