<?xml version="1.0" encoding="UTF-8"?>
<svg version="1.1" xmlns="http://www.w3.org/2000/svg" width="306" height="165">
<path d="M0 0 C1.22847656 0.00572021 2.45695312 0.01144043 3.72265625 0.01733398 C21.76817675 0.37105096 36.78373584 6.60376664 50 19.12109375 C63.20558671 33.08325053 68.70409378 51.48399059 68.453125 70.40991211 C67.95918118 83.85026612 63.92221678 96.52529272 59.5625 109.125 C58.79101258 111.36170795 58.02360182 113.59939338 57.26908875 115.84188843 C56.80612992 117.21771452 56.33384266 118.59045406 55.85017395 119.95913696 C54.40159876 124.26131486 54.03529083 127.97616157 54.25 132.5 C58.19171502 131.91604222 60.41313309 130.25342965 63.25 127.5 C64.48135232 124.93996091 65.21057372 122.30283721 65.9375 119.5625 C66.52519114 117.48751284 67.11742836 115.41409645 67.71875 113.34301758 C68.17533814 111.75901765 68.61120162 110.16906989 69.04296875 108.578125 C70.25 106.5 70.25 106.5 72.8515625 105.57421875 C75.65104167 105.21614583 78.45052083 104.85807292 81.25 104.5 C80.59 108.13 79.93 111.76 79.25 115.5 C80.44625 114.241875 81.6425 112.98375 82.875 111.6875 C86.10217981 108.47739521 88.85343323 105.96552226 93.25 104.5 C96.68395207 104.7341331 97.80011158 105.05011158 100.25 107.5 C101.15775499 115.15107777 98.90834259 121.25272415 96.34375 128.33984375 C95.14097652 131.25765318 95.14097652 131.25765318 95.25 133.5 C99.99996912 132.79630087 102.95531276 129.79468724 106.25 126.5 C106.59504433 130.1049408 106.75140763 131.86641302 104.45703125 134.765625 C103.27173828 135.74789062 103.27173828 135.74789062 102.0625 136.75 C101.28519531 137.41515625 100.50789062 138.0803125 99.70703125 138.765625 C95.85261205 141.4863915 93.30509976 142.55364914 88.5625 142.3125 C85.25 141.5 85.25 141.5 83.25 138.5 C81.59198218 129.77359044 85.25564181 121.52060229 88.25 113.5 C78.2780506 121.68087111 75.59281039 127.60195285 74.25 140.5 C70.95 141.16 67.65 141.82 64.25 142.5 C63.92 139.86 63.59 137.22 63.25 134.5 C62.71890625 134.90992188 62.1878125 135.31984375 61.640625 135.7421875 C60.93421875 136.28101563 60.2278125 136.81984375 59.5 137.375 C58.80390625 137.90867188 58.1078125 138.44234375 57.390625 138.9921875 C53.91065466 141.44340749 52.02004784 142.5 47.6875 142.5 C44.25 141.5 44.25 141.5 42.53515625 138.4375 C42.11105469 137.468125 41.68695313 136.49875 41.25 135.5 C40.21166016 136.64275391 40.21166016 136.64275391 39.15234375 137.80859375 C28.47767591 149.20985818 16.26483289 156.92148593 1.25 161.5 C0.01765625 161.891875 -1.2146875 162.28375 -2.484375 162.6875 C-27.00741602 169.54443361 -60.79204149 168.86276912 -83.75 157.5 C-92.5307551 152.03641905 -94.48358573 140.92667883 -96.75 131.5 C-103.05306841 102.74667668 -98.56052581 70.9159754 -83.75 45.5 C-76.18794955 34.35761568 -66.18557823 24.58544473 -54.75 17.5 C-53.69039062 16.84257812 -52.63078125 16.18515625 -51.5390625 15.5078125 C-35.50866052 5.84071067 -18.88881562 -0.10260014 0 0 Z M-1.75 72.5 C-0.75 74.5 -0.75 74.5 -0.75 74.5 Z M3.25 72.5 C3.25 78.44 3.25 84.38 3.25 90.5 C3.91 90.17 4.57 89.84 5.25 89.5 C5.99664647 86.52019764 5.99664647 86.52019764 6.25 83.5 C5.92 83.17 5.59 82.84 5.25 82.5 C5.17794489 80.81391034 5.16613932 79.12499341 5.1875 77.4375 C5.19652344 76.51839844 5.20554687 75.59929687 5.21484375 74.65234375 C5.22644531 73.94207031 5.23804688 73.23179688 5.25 72.5 C4.59 72.5 3.93 72.5 3.25 72.5 Z M16.25 72.5 C16.25 73.16 16.25 73.82 16.25 74.5 C16.91 74.5 17.57 74.5 18.25 74.5 C18.25 73.84 18.25 73.18 18.25 72.5 C17.59 72.5 16.93 72.5 16.25 72.5 Z M22.25 74.5 C21.21872645 77.82211783 21.19034212 80.66478969 21.4375 84.125 C21.49292969 85.08664063 21.54835938 86.04828125 21.60546875 87.0390625 C21.99809133 89.66318674 21.99809133 89.66318674 24.30078125 90.8359375 C24.94402344 91.05507812 25.58726562 91.27421875 26.25 91.5 C26.25 90.84 26.25 90.18 26.25 89.5 C25.59 89.5 24.93 89.5 24.25 89.5 C24.25 85.87 24.25 82.24 24.25 78.5 C24.91 78.17 25.57 77.84 26.25 77.5 C25.59 77.5 24.93 77.5 24.25 77.5 C24.25 76.51 24.25 75.52 24.25 74.5 C23.59 74.5 22.93 74.5 22.25 74.5 Z M-12.75 77.5 C-13.08 78.16 -13.41 78.82 -13.75 79.5 C-11.77 79.5 -9.79 79.5 -7.75 79.5 C-7.75 80.16 -7.75 80.82 -7.75 81.5 C-7.09 81.17 -6.43 80.84 -5.75 80.5 C-6.9988427 78.9166747 -6.9988427 78.9166747 -8.75 77.5 C-10.07 77.5 -11.39 77.5 -12.75 77.5 Z M-1.75 77.5 C-1.75 81.79 -1.75 86.08 -1.75 90.5 C-1.42 90.5 -1.09 90.5 -0.75 90.5 C-0.75 86.21 -0.75 81.92 -0.75 77.5 C-1.08 77.5 -1.41 77.5 -1.75 77.5 Z M17.25 77.5 C16.92 81.79 16.59 86.08 16.25 90.5 C16.91 90.5 17.57 90.5 18.25 90.5 C18.25 86.21 18.25 81.92 18.25 77.5 C17.92 77.5 17.59 77.5 17.25 77.5 Z M-27.75 78.5 C-28.08 80.15 -28.41 81.8 -28.75 83.5 C-24.88236554 85.37543354 -24.88236554 85.37543354 -20.75 84.5 C-22.73 83.84 -24.71 83.18 -26.75 82.5 C-26.42 81.18 -26.09 79.86 -25.75 78.5 C-26.41 78.5 -27.07 78.5 -27.75 78.5 Z M-22.75 78.5 C-21.76 79.49 -20.77 80.48 -19.75 81.5 C-20.08 80.51 -20.41 79.52 -20.75 78.5 C-21.41 78.5 -22.07 78.5 -22.75 78.5 Z M-14.75 79.5 C-15.95561184 80.48267859 -15.95561184 80.48267859 -15.84765625 82.34765625 C-15.83605469 83.07855469 -15.82445312 83.80945313 -15.8125 84.5625 C-15.791875 85.861875 -15.77125 87.16125 -15.75 88.5 C-14.76 88.995 -14.76 88.995 -13.75 89.5 C-13.75 86.2 -13.75 82.9 -13.75 79.5 C-14.08 79.5 -14.41 79.5 -14.75 79.5 Z M7.25 81.5 C6.92 82.16 6.59 82.82 6.25 83.5 C6.91 83.5 7.57 83.5 8.25 83.5 C8.559375 84.28375 8.86875 85.0675 9.1875 85.875 C10.17875038 88.42330128 10.17875038 88.42330128 11.25 90.5 C11.91 90.17 12.57 89.84 13.25 89.5 C12.44185349 88.16402348 11.62836819 86.831275 10.8125 85.5 C10.13380859 84.38625 10.13380859 84.38625 9.44140625 83.25 C8.85166016 82.38375 8.85166016 82.38375 8.25 81.5 C7.92 81.5 7.59 81.5 7.25 81.5 Z M-20.75 85.5 C-20.42 86.82 -20.09 88.14 -19.75 89.5 C-19.42 88.51 -19.09 87.52 -18.75 86.5 C-19.41 86.17 -20.07 85.84 -20.75 85.5 Z M-6.75 86.5 C-6.75 89.5 -6.75 89.5 -6.75 89.5 Z M-28.75 87.5 C-28.42 88.49 -28.09 89.48 -27.75 90.5 C-25.35280568 91.17958603 -25.35280568 91.17958603 -22.75 91.5 C-22.09 90.84 -21.43 90.18 -20.75 89.5 C-23.39 88.84 -26.03 88.18 -28.75 87.5 Z M-13.75 89.5 C-11.77 90.49 -11.77 90.49 -9.75 91.5 C-9.09 90.84 -8.43 90.18 -7.75 89.5 C-9.73 89.5 -11.71 89.5 -13.75 89.5 Z " fill="#F59839" transform="translate(199.75,-0.5)"/>
<path d="M0 0 C12.55591803 9.12510596 20.15121706 21.238029 22.70703125 36.63818359 C24.3929973 50.22987989 24.25525474 65.01668443 18.3125 77.5625 C11.77029304 84.45833977 2.11179853 85.9224044 -7.04296875 86.3359375 C-25.27171429 86.65285258 -41.88942992 83.61090303 -55.546875 70.640625 C-68.18714686 57.03421771 -73.56659436 42.03720665 -73.2734375 23.78515625 C-72.88413828 13.90427946 -68.93926369 5.99379621 -62 -1 C-43.06515568 -16.31544045 -19.33444899 -12.82726347 0 0 Z " fill="#3498CC" transform="translate(73,78)"/>
<path d="M0 0 C0.55429688 0.36480469 1.10859375 0.72960937 1.6796875 1.10546875 C2.33882743 13.94649113 -0.74700261 22.71495387 -8.3203125 33.10546875 C-9.28734713 34.09661896 -10.26459973 35.07805264 -11.2578125 36.04296875 C-14.42683024 40.74847995 -13.89852583 45.58766159 -13.3203125 51.10546875 C-12.9903125 51.76546875 -12.6603125 52.42546875 -12.3203125 53.10546875 C-6.90677198 52.88450791 -3.81145662 51.68189627 0.18359375 47.98046875 C2.32836416 45.29250583 3.10276341 42.55074528 4.01953125 39.2734375 C5.93155305 32.99431265 10.61302627 28.93666333 15.6796875 25.10546875 C19.13414805 23.37823847 22.89600603 23.75599906 26.6796875 24.10546875 C29.2421875 25.10546875 29.2421875 25.10546875 30.6796875 27.10546875 C31.37546868 31.898628 31.54161009 33.92032518 28.6796875 37.85546875 C23.80453248 41.51183502 18.81178042 44.33895713 12.6796875 45.10546875 C14.79295276 49.81389499 14.79295276 49.81389499 18.6796875 53.10546875 C24.12354777 53.10546875 27.74787747 51.41619145 31.91015625 48.10546875 C34.59912071 45.06628597 35.38461676 41.68879585 36.5625 37.86328125 C38.90204841 32.08803238 43.61250003 28.48359373 48.6796875 25.10546875 C52.64776053 23.78277774 55.49989024 23.76286242 59.6796875 24.10546875 C60.6696875 24.76546875 61.6596875 25.42546875 62.6796875 26.10546875 C62.6796875 26.76546875 62.6796875 27.42546875 62.6796875 28.10546875 C63.49373047 27.67234375 63.49373047 27.67234375 64.32421875 27.23046875 C65.03964844 26.85921875 65.75507813 26.48796875 66.4921875 26.10546875 C67.19988281 25.73421875 67.90757812 25.36296875 68.63671875 24.98046875 C70.6796875 24.10546875 70.6796875 24.10546875 73.6796875 24.10546875 C72.69717602 29.43414865 71.56182507 34.64834416 70.0546875 39.85546875 C68.96431326 43.71835236 68.35154363 47.05836097 68.6796875 51.10546875 C72.53800284 50.84265597 74.30918444 50.43688204 77.234375 47.8203125 C78.00007813 46.90378906 78.76578125 45.98726562 79.5546875 45.04296875 C80.33585937 44.12386719 81.11703125 43.20476562 81.921875 42.2578125 C82.50195312 41.54753906 83.08203125 40.83726563 83.6796875 40.10546875 C82.95072266 39.18894531 82.95072266 39.18894531 82.20703125 38.25390625 C80.27331853 35.53385 80.13285505 34.38646342 80.6796875 31.10546875 C83.63206845 26.1530878 83.63206845 26.1530878 85.6796875 24.10546875 C87.67927114 24.06466092 89.68014004 24.06292519 91.6796875 24.10546875 C92.94233351 28.39846518 92.30919162 30.98378186 90.6796875 35.10546875 C96.64699641 31.88818466 96.64699641 31.88818466 100.9296875 26.79296875 C101.7959375 25.46265625 101.7959375 25.46265625 102.6796875 24.10546875 C103.9996875 24.10546875 105.3196875 24.10546875 106.6796875 24.10546875 C105.27864223 29.42149157 103.86760194 34.68468323 101.9921875 39.85546875 C100.63407534 43.78126171 100.41584206 46.97189017 100.6796875 51.10546875 C104.62140252 50.52151097 106.84282059 48.8588984 109.6796875 46.10546875 C110.91103982 43.54542966 111.64026122 40.90830596 112.3671875 38.16796875 C112.95487864 36.09298159 113.54711586 34.0195652 114.1484375 31.94848633 C114.60502564 30.3644864 115.04088912 28.77453864 115.47265625 27.18359375 C116.6796875 25.10546875 116.6796875 25.10546875 119.28125 24.1796875 C122.08072917 23.82161458 124.88020833 23.46354167 127.6796875 23.10546875 C127.0196875 26.73546875 126.3596875 30.36546875 125.6796875 34.10546875 C126.8759375 32.84734375 128.0721875 31.58921875 129.3046875 30.29296875 C132.53186731 27.08286396 135.28312073 24.57099101 139.6796875 23.10546875 C143.11363957 23.33960185 144.22979908 23.65558033 146.6796875 26.10546875 C147.58744249 33.75654652 145.33803009 39.8581929 142.7734375 46.9453125 C141.57066402 49.86312193 141.57066402 49.86312193 141.6796875 52.10546875 C146.42965662 51.40176962 149.38500026 48.40015599 152.6796875 45.10546875 C153.02473183 48.71040955 153.18109513 50.47188177 150.88671875 53.37109375 C150.09652344 54.0259375 149.30632812 54.68078125 148.4921875 55.35546875 C147.71488281 56.020625 146.93757812 56.68578125 146.13671875 57.37109375 C142.28229955 60.09186025 139.73478726 61.15911789 134.9921875 60.91796875 C131.6796875 60.10546875 131.6796875 60.10546875 129.6796875 57.10546875 C128.02166968 48.37905919 131.68532931 40.12607104 134.6796875 32.10546875 C124.7077381 40.28633986 122.02249789 46.2074216 120.6796875 59.10546875 C117.3796875 59.76546875 114.0796875 60.42546875 110.6796875 61.10546875 C110.3496875 58.46546875 110.0196875 55.82546875 109.6796875 53.10546875 C109.14859375 53.51539063 108.6175 53.9253125 108.0703125 54.34765625 C107.36390625 54.88648438 106.6575 55.4253125 105.9296875 55.98046875 C105.23359375 56.51414063 104.5375 57.0478125 103.8203125 57.59765625 C100.24889015 60.11329316 98.51543068 61.14869685 94.0546875 60.91796875 C90.6796875 60.10546875 90.6796875 60.10546875 88.6796875 57.10546875 C87.75845377 49.73559891 90.34150376 44.59108287 93.6796875 38.10546875 C90.73241215 38.20716036 90.73241215 38.20716036 87.6796875 39.10546875 C86.9746317 40.75626206 86.31340487 42.42599725 85.6796875 44.10546875 C81.18161698 50.21076351 74.15545156 59.10324904 66.33203125 60.53515625 C64.1171875 60.54296875 64.1171875 60.54296875 60.6796875 60.10546875 C59.3596875 57.13546875 58.0396875 54.16546875 56.6796875 51.10546875 C55.7515625 52.21921875 54.8234375 53.33296875 53.8671875 54.48046875 C50.74146242 58.23133884 48.8123658 59.99759463 43.7421875 60.48046875 C40.708157 60.39680982 39.82680066 60.20731632 37.2421875 58.41796875 C35.54590926 55.90747695 35.18367729 54.05601093 34.6796875 51.10546875 C33.90882813 51.67136719 33.13796875 52.23726562 32.34375 52.8203125 C31.34085938 53.55378906 30.33796875 54.28726563 29.3046875 55.04296875 C28.30695313 55.77386719 27.30921875 56.50476563 26.28125 57.2578125 C21.03270801 60.98538061 15.98641882 60.72096526 9.6796875 60.10546875 C6.00947055 58.00820192 4.15800517 55.4473362 1.6796875 52.10546875 C1.14859375 52.51539063 0.6175 52.9253125 0.0703125 53.34765625 C-0.63609375 53.88648438 -1.3425 54.4253125 -2.0703125 54.98046875 C-2.76640625 55.51414063 -3.4625 56.0478125 -4.1796875 56.59765625 C-9.39270885 60.26960194 -13.98149837 61.16017992 -20.3203125 60.10546875 C-23.81262556 56.95386916 -25.12996754 54.02523362 -25.59375 49.34765625 C-26.05310149 34.11838764 -20.8091844 15.8387766 -12.3203125 3.10546875 C-10.078125 1.8671875 -10.078125 1.8671875 -7.4453125 0.79296875 C-6.14980469 0.24189453 -6.14980469 0.24189453 -4.828125 -0.3203125 C-2.3203125 -0.89453125 -2.3203125 -0.89453125 0 0 Z " fill="#090302" transform="translate(153.3203125,80.89453125)"/>
<path d="M0 0 C-0.66 3.63 -1.32 7.26 -2 11 C-0.80375 9.741875 0.3925 8.48375 1.625 7.1875 C4.85217981 3.97739521 7.60343323 1.46552226 12 0 C15.43395207 0.2341331 16.55011158 0.55011158 19 3 C19.90775499 10.65107777 17.65834259 16.75272415 15.09375 23.83984375 C13.89097652 26.75765318 13.89097652 26.75765318 14 29 C18.74996912 28.29630087 21.70531276 25.29468724 25 22 C25.34504433 25.6049408 25.50140763 27.36641302 23.20703125 30.265625 C22.41683594 30.92046875 21.62664062 31.5753125 20.8125 32.25 C20.03519531 32.91515625 19.25789063 33.5803125 18.45703125 34.265625 C14.60261205 36.9863915 12.05509976 38.05364914 7.3125 37.8125 C4 37 4 37 2 34 C0.34198218 25.27359044 4.00564181 17.02060229 7 9 C-2.9719494 17.18087111 -5.65718961 23.10195285 -7 36 C-10.3 36.66 -13.6 37.32 -17 38 C-17.33 35.36 -17.66 32.72 -18 30 C-18.53109375 30.40992188 -19.0621875 30.81984375 -19.609375 31.2421875 C-20.66898437 32.05042969 -20.66898437 32.05042969 -21.75 32.875 C-22.44609375 33.40867188 -23.1421875 33.94234375 -23.859375 34.4921875 C-27.43079735 37.00782441 -29.16425682 38.0432281 -33.625 37.8125 C-37 37 -37 37 -39 34 C-39.77588069 27.68211438 -38.34155597 23.91936593 -35.2890625 18.39453125 C-33.95417474 16.03446579 -33.95417474 16.03446579 -33.046875 13.53125 C-31.85787167 10.65634643 -30.37103507 8.26080496 -28.625 5.6875 C-28.03976563 4.80449219 -27.45453125 3.92148438 -26.8515625 3.01171875 C-26.24054688 2.34785156 -25.62953125 1.68398437 -25 1 C-23.68 1 -22.36 1 -21 1 C-22.40104527 6.31602282 -23.81208556 11.57921448 -25.6875 16.75 C-27.04561216 20.67579296 -27.26384544 23.86642142 -27 28 C-23.05828498 27.41604222 -20.83686691 25.75342965 -18 23 C-16.76864768 20.43996091 -16.03942628 17.80283721 -15.3125 15.0625 C-12.27092601 4.32347985 -12.27092601 4.32347985 -11 2 C-8.90625 1.07421875 -8.90625 1.07421875 -6.5 0.6875 C-5.30890625 0.47673828 -5.30890625 0.47673828 -4.09375 0.26171875 C-2 0 -2 0 0 0 Z " fill="#020202" transform="translate(281,104)"/>
<path d="M0 0 C0.99 0.66 1.98 1.32 3 2 C3 2.66 3 3.32 3 4 C3.54269531 3.71125 4.08539063 3.4225 4.64453125 3.125 C5.35996094 2.75375 6.07539063 2.3825 6.8125 2 C7.52019531 1.62875 8.22789062 1.2575 8.95703125 0.875 C11 0 11 0 14 0 C13.01748852 5.3286799 11.88213757 10.54287541 10.375 15.75 C9.28462576 19.61288361 8.67185613 22.95289222 9 27 C12.85831534 26.73718722 14.62949694 26.33141329 17.5546875 23.71484375 C18.70324219 22.34005859 18.70324219 22.34005859 19.875 20.9375 C20.65617187 20.01839844 21.43734375 19.09929687 22.2421875 18.15234375 C22.82226562 17.44207031 23.40234375 16.73179688 24 16 C23.27103516 15.08347656 23.27103516 15.08347656 22.52734375 14.1484375 C20.59363103 11.42838125 20.45316755 10.28099467 21 7 C23.95238095 2.04761905 23.95238095 2.04761905 26 0 C27.99958364 -0.04080783 30.00045254 -0.04254356 32 0 C33.26264601 4.29299643 32.62950412 6.87831311 31 11 C31.78375 10.484375 32.5675 9.96875 33.375 9.4375 C34.674375 8.7259375 34.674375 8.7259375 36 8 C36.66 8.33 37.32 8.66 38 9 C36.375 11.4375 36.375 11.4375 34 14 C32.96875 14.165 31.9375 14.33 30.875 14.5 C29.92625 14.665 28.9775 14.83 28 15 C27.29945562 16.65271286 26.63813659 18.32220266 26 20 C21.50192948 26.10529476 14.47576406 34.99778029 6.65234375 36.4296875 C4.4375 36.4375 4.4375 36.4375 1 36 C-0.32 33.03 -1.64 30.06 -3 27 C-3.928125 28.11375 -4.85625 29.2275 -5.8125 30.375 C-10.37015235 35.84418283 -10.37015235 35.84418283 -14.04296875 36.1953125 C-15.10451172 36.16050781 -15.10451172 36.16050781 -16.1875 36.125 C-17.445625 36.08375 -18.70375 36.0425 -20 36 C-16.375 33 -16.375 33 -13 33 C-13.474375 32.05125 -13.94875 31.1025 -14.4375 30.125 C-16.35920784 25.48864661 -17.53019802 21.04061494 -17 16 C-15.3800941 12.36917643 -13.29921006 9.23132225 -11 6 C-10.67 5.34 -10.34 4.68 -10 4 C-14.20626034 5.50223584 -15.73900021 8.28550034 -18 12 C-19.32 11.67 -20.64 11.34 -22 11 C-15.19488099 3.72854035 -10.33153182 -0.84684687 0 0 Z " fill="#0F0502" transform="translate(213,105)"/>
<path d="M0 0 C3.78959324 2.01080458 4.71078061 3.28383771 6.3125 7.25 C6.539375 8.1575 6.76625 9.065 7 10 C8.32 9.34 9.64 8.68 11 8 C10.34 8 9.68 8 9 8 C9.33 7.01 9.66 6.02 10 5 C10.66 5.33 11.32 5.66 12 6 C12.33 5.34 12.66 4.68 13 4 C13.66 4 14.32 4 15 4 C15 2.68 15 1.36 15 0 C15.61875 0.185625 16.2375 0.37125 16.875 0.5625 C19.04160178 1.23686176 19.04160178 1.23686176 21 0 C23.14474644 -0.07139635 25.29167354 -0.08403003 27.4375 -0.0625 C28.59121094 -0.05347656 29.74492187 -0.04445313 30.93359375 -0.03515625 C31.94550781 -0.02355469 32.95742187 -0.01195313 34 0 C34.99 0 35.98 0 37 0 C39.00309329 0.31421071 41.00371336 0.6451046 43 1 C38.375 5 38.375 5 35 5 C34.4121875 4.2575 34.4121875 4.2575 33.8125 3.5 C31.38591389 1.4917908 29.2667164 1.45973032 26.18359375 1.58984375 C19.98483763 2.75418971 15.17086299 7.22291377 11.2890625 11.9765625 C9.82948779 14.26765251 9.01079532 16.49754485 8.125 19.0625 C6.11528226 24.53293502 3.16079137 27.36161789 -2 30 C-5.6875 31.125 -5.6875 31.125 -9 31 C-11.875 29.375 -11.875 29.375 -14 27 C-14.6328125 24.3515625 -14.6328125 24.3515625 -15 22 C-14.32453125 21.74605469 -13.6490625 21.49210937 -12.953125 21.23046875 C-12.06109375 20.88628906 -11.1690625 20.54210937 -10.25 20.1875 C-9.36828125 19.85105469 -8.4865625 19.51460937 -7.578125 19.16796875 C-5.06869674 18.03112171 -3.18254368 16.6558864 -1 15 C-0.34 15 0.32 15 1 15 C2.31886422 11.04340734 2.26518132 8.17660573 2 4 C-1.14611253 1.90259164 -1.91188078 1.74671781 -5.5 1.8125 C-6.66015625 1.82216797 -6.66015625 1.82216797 -7.84375 1.83203125 C-10.18348849 1.9269435 -10.18348849 1.9269435 -13 3 C-13 2.34 -13 1.68 -13 1 C-9.05489381 -0.9725531 -4.30066993 -0.44125371 0 0 Z " fill="#E69542" transform="translate(181,104)"/>
<path d="M0 0 C2.5625 1 2.5625 1 4 3 C4.69578118 7.79315925 4.86192259 9.81485643 2 13.75 C-2.63216305 17.22412228 -7.32885203 19.73693809 -13 21 C-13 20.34 -13 19.68 -13 19 C-13.99 19 -14.98 19 -16 19 C-16.66 19.66 -17.32 20.32 -18 21 C-18 20.34 -18 19.68 -18 19 C-18.99 19.33 -19.98 19.66 -21 20 C-21.66 19.67 -22.32 19.34 -23 19 C-23.33 19.66 -23.66 20.32 -24 21 C-23.44845228 13.64603046 -19.76331725 8.3077835 -14.3125 3.5625 C-9.62325518 -0.25335998 -5.96429883 -0.55087662 0 0 Z " fill="#150702" transform="translate(180,105)"/>
<path d="M0 0 C0 3.16499873 -0.55662758 4.55541519 -1.875 7.375 C-2.96174275 9.71753436 -3.99061375 11.97156652 -4.80078125 14.42578125 C-6.38131158 17.81851574 -8.68353086 20.21501803 -11.3125 22.8125 C-11.83505371 23.33223389 -12.35760742 23.85196777 -12.89599609 24.38745117 C-18.2624578 29.53992263 -24.24966578 33.8263354 -31 37 C-31.66 36.67 -32.32 36.34 -33 36 C-32.34 34.35 -31.68 32.7 -31 31 C-30.67 31.66 -30.34 32.32 -30 33 C-29.01 33 -28.02 33 -27 33 C-27 32.34 -27 31.68 -27 31 C-26.01 30.34 -25.02 29.68 -24 29 C-25.36125 28.87625 -25.36125 28.87625 -26.75 28.75 C-30.45247886 27.8955818 -31.46920206 26.70533573 -34 24 C-34.99 24 -35.98 24 -37 24 C-36.67 22.35 -36.34 20.7 -36 19 C-38.31 19.66 -40.62 20.32 -43 21 C-41.02 18.36 -39.04 15.72 -37 13 C-35.00902154 15.98646769 -34.05875074 18.59687262 -33 22 C-28.51476644 22.76164343 -26.19552118 22.73780736 -22.265625 20.3125 C-15.87290049 15.22657553 -9.70088836 9.40177672 -6 2 C-4.02111039 1.27306096 -2.02045442 0.60183749 0 0 Z " fill="#F39838" transform="translate(247,118)"/>
<path d="M0 0 C0.804375 0.12375 1.60875 0.2475 2.4375 0.375 C5.01235167 4.2372775 4.59572659 6.20265488 4.046875 10.671875 C2.74824228 16.43247655 -0.61512517 22.9736798 -5.5625 26.375 C-8.25 26.25 -8.25 26.25 -10.5625 25.375 C-12.22559004 22.04881993 -12.16770326 18.95578593 -11.5625 15.375 C-5.75683437 0.84246357 -5.75683437 0.84246357 0 0 Z " fill="#EB9640" transform="translate(209.5625,107.625)"/>
<path d="M0 0 C0.33 1.65 0.66 3.3 1 5 C1.33 3.35 1.66 1.7 2 0 C2.99 0.33 3.98 0.66 5 1 C4.40164922 5.18845544 3.5586679 9.05748707 2 13 C1.01 13.495 1.01 13.495 0 14 C-0.1546875 14.928125 -0.1546875 14.928125 -0.3125 15.875 C-1 18 -1 18 -3.25 19.75 C-6.17113625 21.0777892 -7.84025714 21.51239073 -11 21 C-14.13861603 16.29207596 -14.05219202 11.48693425 -13 6 C-9.53128119 0.88510955 -6.16365322 -1.84585762 0 0 Z " fill="#F59838" transform="translate(152,114)"/>
<path d="M0 0 C1.32 0 2.64 0 4 0 C4.33 0.99 4.66 1.98 5 3 C4.34 3 3.68 3 3 3 C2.83210874 5.43742131 2.66563867 7.87492546 2.5 10.3125 C2.45230469 11.00279297 2.40460938 11.69308594 2.35546875 12.40429688 C2.16120511 15.27662359 2 18.12013788 2 21 C1.01 20.67 0.02 20.34 -1 20 C-1.33 20.66 -1.66 21.32 -2 22 C-6.6875 18.38671875 -6.6875 18.38671875 -8 17 C-8 16.01 -8 15.02 -8 14 C-8.66 13.67 -9.32 13.34 -10 13 C-11.20272819 10.59454362 -11.10071472 9.05003047 -11.0625 6.375 C-11.05347656 5.55773437 -11.04445312 4.74046875 -11.03515625 3.8984375 C-11.02355469 3.27195312 -11.01195312 2.64546875 -11 2 C-10.56042969 2.49113281 -10.12085938 2.98226562 -9.66796875 3.48828125 C-8.04157708 5.27541725 -8.04157708 5.27541725 -5.3125 5.1875 C-4.549375 5.125625 -3.78625 5.06375 -3 5 C-2.690625 4.360625 -2.38125 3.72125 -2.0625 3.0625 C-1 1 -1 1 0 0 Z M1 1 C1 1.66 1 2.32 1 3 C1.66 3 2.32 3 3 3 C3 2.34 3 1.68 3 1 C2.34 1 1.68 1 1 1 Z M-8 10 C-8.33 10.66 -8.66 11.32 -9 12 C-8.34 12 -7.68 12 -7 12 C-6.690625 12.78375 -6.38125 13.5675 -6.0625 14.375 C-5.07124962 16.92330128 -5.07124962 16.92330128 -4 19 C-3.34 18.67 -2.68 18.34 -2 18 C-2.80814651 16.66402348 -3.62163181 15.331275 -4.4375 14 C-5.11619141 12.88625 -5.11619141 12.88625 -5.80859375 11.75 C-6.39833984 10.88375 -6.39833984 10.88375 -7 10 C-7.33 10 -7.66 10 -8 10 Z " fill="#E6933B" transform="translate(215,71)"/>
<path d="M0 0 C0.33 0.66 0.66 1.32 1 2 C1.66 2 2.32 2 3 2 C3 3.65 3 5.3 3 7 C2.34 7 1.68 7 1 7 C0.9175 7.61875 0.835 8.2375 0.75 8.875 C0 11 0 11 -1.625 12.3125 C-5.12159666 13.32467272 -7.49981412 12.93754979 -11 12 C-13.4375 9.625 -13.4375 9.625 -15 7 C-15 6.01 -15 5.02 -15 4 C-13.06441401 3.32779649 -11.12645628 2.66241923 -9.1875 2 C-8.10855469 1.62875 -7.02960938 1.2575 -5.91796875 0.875 C-3 0 -3 0 0 0 Z " fill="#F49737" transform="translate(181,122)"/>
<path d="M0 0 C0.66 0.33 1.32 0.66 2 1 C2.97909164 11.18255306 -1.57988571 19.88489615 -7.86328125 27.671875 C-8.42595703 28.32929687 -8.42595703 28.32929687 -9 29 C-10.53842135 24.38473594 -8.705532 20.730278 -7.3125 16.1875 C-7.05533203 15.29740234 -6.79816406 14.40730469 -6.53320312 13.49023438 C-4.98179435 8.34809572 -3.25077093 4.28478521 0 0 Z " fill="#E69545" transform="translate(150,85)"/>
<path d="M0 0 C0 3.16499873 -0.55662758 4.55541519 -1.875 7.375 C-3.03366048 9.87057641 -4.09499971 12.27312417 -5 14.875 C-6.20890763 17.44392872 -7.62792447 18.4976855 -10 20 C-10.33 18.68 -10.66 17.36 -11 16 C-9.68 15.34 -8.36 14.68 -7 14 C-7 13.34 -7 12.68 -7 12 C-10.11490087 13.57577814 -10.11490087 13.57577814 -13 16 C-13.50169415 19.16926564 -13.50169415 19.16926564 -13 22 C-15.97 21.67 -18.94 21.34 -22 21 C-19.21662937 17.39192696 -16.21883646 14.21883646 -13 11 C-9.08155047 6.79504286 -9.08155047 6.79504286 -6 2 C-4.02111039 1.27306096 -2.02045442 0.60183749 0 0 Z M-6 5 C-5 7 -5 7 -5 7 Z " fill="#ED9844" transform="translate(247,118)"/>
<path d="M0 0 C2.50982116 7.52946348 1.70753087 14.24617562 -1.66821289 21.31567383 C-4.3757455 26.62625066 -7.10106478 31.44246086 -11 36 C-11.66 35.67 -12.32 35.34 -13 35 C-12.52949219 34.35933594 -12.05898437 33.71867187 -11.57421875 33.05859375 C-5.53560182 24.66954207 -1.81041195 17.73580782 -1.9375 7.1875 C-1.94652344 6.21167969 -1.95554688 5.23585938 -1.96484375 4.23046875 C-1.97644531 3.49441406 -1.98804688 2.75835937 -2 2 C-6.18060826 0.60646391 -8.07488623 2.24771707 -12 4 C-12.99 4 -13.98 4 -15 4 C-15.28875 4.763125 -15.5775 5.52625 -15.875 6.3125 C-17 9 -17 9 -19 12 C-19 9.69 -19 7.38 -19 5 C-18.34 5 -17.68 5 -17 5 C-17.33 3.35 -17.66 1.7 -18 0 C-16.9275 0.20625 -15.855 0.4125 -14.75 0.625 C-11.19097666 1.31798541 -11.19097666 1.31798541 -9 0 C-5.90719881 -1.5464006 -3.29676204 -0.6339927 0 0 Z " fill="#DE954A" transform="translate(156,80)"/>
<path d="M0 0 C0.33 0 0.66 0 1 0 C1.125 2.375 1.125 2.375 1 5 C0.34 5.66 -0.32 6.32 -1 7 C-0.67 7.66 -0.34 8.32 0 9 C-1.79033807 10.31431172 -3.58231203 11.6263953 -5.375 12.9375 C-6.37273437 13.66839844 -7.37046875 14.39929688 -8.3984375 15.15234375 C-12.21808532 17.86509663 -14.26631904 18.18205555 -18.9375 18.25 C-19.99839844 18.27578125 -21.05929688 18.3015625 -22.15234375 18.328125 C-25 18 -25 18 -26.87890625 16.484375 C-27.43384766 15.74960938 -27.43384766 15.74960938 -28 15 C-26.824375 15.185625 -25.64875 15.37125 -24.4375 15.5625 C-20.38731406 16.08230996 -17.00125547 15.7502354 -13 15 C-13 14.34 -13 13.68 -13 13 C-13.94875 12.855625 -14.8975 12.71125 -15.875 12.5625 C-19 12 -19 12 -21 11 C-20.67 10.01 -20.34 9.02 -20 8 C-19.484375 8.515625 -18.96875 9.03125 -18.4375 9.5625 C-16.00488799 11.26614121 -16.00488799 11.26614121 -12.75 11.0625 C-8.03467017 9.72648988 -4.40676536 7.54802148 -1 4 C-0.23615913 1.89418098 -0.23615913 1.89418098 0 0 Z " fill="#180601" transform="translate(188,123)"/>
<path d="M0 0 C0.83588797 6.9259289 0.83588797 6.9259289 -1.453125 9.8671875 C-6.15938995 14 -6.15938995 14 -10 14 C-10.49925898 7.88407749 -9.35277477 4.93055113 -6 0 C-3.50907189 -1.24546405 -2.58919267 -0.7767578 0 0 Z " fill="#E79444" transform="translate(176,109)"/>
<path d="M0 0 C1.65 0.33 3.3 0.66 5 1 C6.10643764 6.83394389 6.27137992 9.76579213 3 15 C1.02 15 -0.96 15 -3 15 C-4.39935013 12.20129973 -4.25265405 10.09501208 -4 7 C-2.75 5.0625 -2.75 5.0625 -1 4 C1.1875 4.3125 1.1875 4.3125 3 5 C1.8509288 3.7018576 1.8509288 3.7018576 -1 3 C-0.67 2.01 -0.34 1.02 0 0 Z " fill="#EA9541" transform="translate(189,74)"/>
<path d="M0 0 C1.0161692 4.62921525 0.83796731 8.34462607 0 13 C-0.99 13.33 -1.98 13.66 -3 14 C-3 14.66 -3 15.32 -3 16 C-3.66 16 -4.32 16 -5 16 C-5 13.36 -5 10.72 -5 8 C-5.45375 8.45375 -5.9075 8.9075 -6.375 9.375 C-7.58333333 10.58333333 -8.79166667 11.79166667 -10 13 C-9.66666667 11.33333333 -9.33333333 9.66666667 -9 8 C-8.87625 6.700625 -8.87625 6.700625 -8.75 5.375 C-8 3 -8 3 -5.625 1.1875 C-3 0 -3 0 0 0 Z " fill="#F59837" transform="translate(211,109)"/>
<path d="M0 0 C0.66 0.33 1.32 0.66 2 1 C2.60721063 8.16508539 2.60721063 8.16508539 0 11.75 C-4.63216305 15.22412228 -9.32885203 17.73693809 -15 19 C-15 18.34 -15 17.68 -15 17 C-15.66 17 -16.32 17 -17 17 C-17 14.36 -17 11.72 -17 9 C-16.67 9 -16.34 9 -16 9 C-16 11.31 -16 13.62 -16 16 C-10.87051769 13.79433342 -10.87051769 13.79433342 -7 10 C-6.26958147 6.38976901 -6.26958147 6.38976901 -6 3 C-5.67 3 -5.34 3 -5 3 C-4.67 5.31 -4.34 7.62 -4 10 C-3.01 9.67 -2.02 9.34 -1 9 C-0.67 6.03 -0.34 3.06 0 0 Z " fill="#220E04" transform="translate(182,107)"/>
<path d="M0 0 C0 0.33 0 0.66 0 1 C-2.97 0.67 -5.94 0.34 -9 0 C-9 -0.66 -9 -1.32 -9 -2 C-9.66 -2 -10.32 -2 -11 -2 C-11.391875 -2.45375 -11.78375 -2.9075 -12.1875 -3.375 C-18.01108668 -8.59614667 -27.19529513 -7.22772631 -34.4375 -7.125 C-36.25024414 -7.11146484 -36.25024414 -7.11146484 -38.09960938 -7.09765625 C-41.06661278 -7.07420168 -44.03320143 -7.04137794 -47 -7 C-32.85650186 -16.42899876 -12.92027334 -7.60628995 0 0 Z " fill="#3D88B0" transform="translate(71,77)"/>
<path d="M0 0 C0.33 0.66 0.66 1.32 1 2 C1.66 2 2.32 2 3 2 C3 3.65 3 5.3 3 7 C2.34 7 1.68 7 1 7 C0.8453125 7.9590625 0.8453125 7.9590625 0.6875 8.9375 C0.460625 9.618125 0.23375 10.29875 0 11 C-0.99 11.33 -1.98 11.66 -3 12 C-5 11 -5 11 -6.0625 8.125 C-6.371875 7.09375 -6.68125 6.0625 -7 5 C-7.33 4.01 -7.66 3.02 -8 2 C-5.09399739 0.74335022 -3.20395416 0 0 0 Z " fill="#F2993D" transform="translate(181,122)"/>
<path d="M0 0 C0.928125 0.2784375 0.928125 0.2784375 1.875 0.5625 C4.04160178 1.23686176 4.04160178 1.23686176 6 0 C8.14474644 -0.07139635 10.29167354 -0.08403003 12.4375 -0.0625 C13.59121094 -0.05347656 14.74492187 -0.04445313 15.93359375 -0.03515625 C16.94550781 -0.02355469 17.95742187 -0.01195313 19 0 C19.99 0 20.98 0 22 0 C24.00309329 0.31421071 26.00371336 0.6451046 28 1 C23.375 5 23.375 5 20 5 C19.608125 4.505 19.21625 4.01 18.8125 3.5 C16.39142048 1.49634799 14.27181373 1.46814087 11.1953125 1.5703125 C7.21774647 2.34883966 4.2204721 4.643557 1 7 C0.01 7.66 -0.98 8.32 -2 9 C-2 7.35 -2 5.7 -2 4 C-1.34 4 -0.68 4 0 4 C0 2.68 0 1.36 0 0 Z " fill="#D99046" transform="translate(196,104)"/>
<path d="M0 0 C0.33 0.99 0.66 1.98 1 3 C1.66 3.33 2.32 3.66 3 4 C-0.39462485 11.22260607 -3.89221357 17.84167594 -9 24 C-9.66 22.68 -10.32 21.36 -11 20 C-10.54109375 19.39414063 -10.0821875 18.78828125 -9.609375 18.1640625 C-5.36253876 12.36481133 -2.32898498 6.79890024 0 0 Z " fill="#220901" transform="translate(151,94)"/>
<path d="M0 0 C0.66 0.99 1.32 1.98 2 3 C1.06725891 4.12894876 0.12859878 5.25300876 -0.8125 6.375 C-1.33457031 7.00148437 -1.85664063 7.62796875 -2.39453125 8.2734375 C-4.39750541 10.42748757 -6.04240077 11.90845132 -9.04296875 12.1953125 C-9.75066406 12.17210937 -10.45835937 12.14890625 -11.1875 12.125 C-13.0746875 12.063125 -13.0746875 12.063125 -15 12 C-11.375 9 -11.375 9 -8 9 C-8.66 8.01 -9.32 7.02 -10 6 C-9.625 3.8125 -9.625 3.8125 -9 2 C-9 2.66 -9 3.32 -9 4 C-6.66834966 4.33498301 -6.66834966 4.33498301 -4 4 C-1.68622853 2.10415891 -1.68622853 2.10415891 0 0 Z " fill="#1B0801" transform="translate(208,129)"/>
<path d="M0 0 C2.88888554 2.88888554 5.4092123 5.84904198 8 9 C7.4225 8.835 6.845 8.67 6.25 8.5 C2.97895702 7.77310156 0.20144081 7.95888963 -3.0625 8.625 C-6 9 -6 9 -9 7 C-6.03 4.69 -3.06 2.38 0 0 Z " fill="#EB9A46" transform="translate(155,132)"/>
<path d="M0 0 C0.33 0 0.66 0 1 0 C1.61916858 23.58238484 1.61916858 23.58238484 -2 35 C-2.66 34.67 -3.32 34.34 -4 34 C-3.79375 33.0925 -3.5875 32.185 -3.375 31.25 C-2.9872755 27.88972103 -3.19588033 26.75924185 -5 24 C-3.68 23.34 -2.36 22.68 -1 22 C-1.33 21.01 -1.66 20.02 -2 19 C-1.92993164 16.9152832 -1.92993164 16.9152832 -1.66015625 14.55078125 C-1.56669922 13.70322266 -1.47324219 12.85566406 -1.37695312 11.98242188 C-1.27318359 11.10134766 -1.16941406 10.22027344 -1.0625 9.3125 C-0.96259766 8.41982422 -0.86269531 7.52714844 -0.75976562 6.60742188 C-0.51234698 4.40421779 -0.25887721 2.20188219 0 0 Z " fill="#3F8FB8" transform="translate(95,117)"/>
<path d="M0 0 C0.66 0.33 1.32 0.66 2 1 C2 3.64 2 6.28 2 9 C1.34 8.01 0.68 7.02 0 6 C-2.44398704 6.93401003 -2.44398704 6.93401003 -3.2890625 10.59765625 C-3.74217015 12.08358282 -4.1871441 13.57200796 -4.625 15.0625 C-4.85445312 15.82111328 -5.08390625 16.57972656 -5.3203125 17.36132812 C-5.88710193 19.23881812 -6.44444077 21.11915633 -7 23 C-6.34 23.33 -5.68 23.66 -5 24 C-6.65 25.65 -8.3 27.3 -10 29 C-9.15859187 22.15267868 -7.41210373 15.87364915 -5 9.4375 C-4.60820557 8.38369141 -4.60820557 8.38369141 -4.20849609 7.30859375 C-3.08402889 4.39167313 -2.23445312 2.23445312 0 0 Z " fill="#D5934E" transform="translate(150,85)"/>
<path d="M0 0 C1.99097846 2.98646769 2.94124926 5.59687262 4 9 C5.258125 9 6.51625 9 7.8125 9 C10.20833333 9 12.60416667 9 15 9 C11.25 12 11.25 12 9 12 C8.67 12.99 8.34 13.98 8 15 C7.236875 14.34 6.47375 13.68 5.6875 13 C3.15722061 10.70149462 3.15722061 10.70149462 0 11 C0.33 9.35 0.66 7.7 1 6 C-1.31 6.66 -3.62 7.32 -6 8 C-4.02 5.36 -2.04 2.72 0 0 Z " fill="#E09548" transform="translate(210,131)"/>
<path d="M0 0 C0 3.16499873 -0.55662758 4.55541519 -1.875 7.375 C-3.03366048 9.87057641 -4.09499971 12.27312417 -5 14.875 C-6.20890763 17.44392872 -7.62792447 18.4976855 -10 20 C-10.33 18.68 -10.66 17.36 -11 16 C-9.68 15.34 -8.36 14.68 -7 14 C-7 12.02 -7 10.04 -7 8 C-7.66 7.67 -8.32 7.34 -9 7 C-7.32482761 3.46352496 -6.50719183 2.2088437 -2.8125 0.6875 C-1.884375 0.460625 -0.95625 0.23375 0 0 Z M-6 5 C-5 7 -5 7 -5 7 Z " fill="#E29649" transform="translate(247,118)"/>
<path d="M0 0 C2.97 0.495 2.97 0.495 6 1 C6 3.97 6 6.94 6 10 C4.02 10.99 4.02 10.99 2 12 C0.26043342 10.26043342 0.62809614 7.8063378 0.4375 5.4375 C0.35371094 4.42558594 0.26992187 3.41367188 0.18359375 2.37109375 C0.12300781 1.58863281 0.06242188 0.80617188 0 0 Z " fill="#050202" transform="translate(176,106)"/>
<path d="M0 0 C3 2 3 2 4 4 C3.5359375 4.8971875 3.5359375 4.8971875 3.0625 5.8125 C1.76905057 8.47548411 1.63362597 10.06900773 2 13 C3.39957197 15.28484306 3.39957197 15.28484306 5 17 C3.68 17.99 2.36 18.98 1 20 C0.80083984 18.53626953 0.80083984 18.53626953 0.59765625 17.04296875 C0.42105469 15.77066406 0.24445313 14.49835938 0.0625 13.1875 C-0.11152344 11.92292969 -0.28554687 10.65835938 -0.46484375 9.35546875 C-0.90392455 6.01678297 -0.90392455 6.01678297 -2 3 C-1.34 2.01 -0.68 1.02 0 0 Z " fill="#EE9741" transform="translate(233,104)"/>
<path d="M0 0 C0.804375 0.12375 1.60875 0.2475 2.4375 0.375 C5.34651683 4.73852524 4.41552566 8.36844007 3.4375 13.375 C1.875 17 1.875 17 0.4375 19.375 C-0.125 17.4375 -0.125 17.4375 -0.5625 15.375 C-0.2325 15.045 0.0975 14.715 0.4375 14.375 C0.67231693 12.19207226 0.85113323 10.00296826 1 7.8125 C1.08378906 6.61496094 1.16757813 5.41742188 1.25390625 4.18359375 C1.31449219 3.25675781 1.37507812 2.32992187 1.4375 1.375 C0.65375 1.890625 -0.13 2.40625 -0.9375 2.9375 C-1.80375 3.411875 -2.67 3.88625 -3.5625 4.375 C-4.2225 4.045 -4.8825 3.715 -5.5625 3.375 C-3.76123295 1.09971531 -2.9258843 0.42817819 0 0 Z " fill="#D4904A" transform="translate(209.5625,107.625)"/>
<path d="M0 0 C0.66 0.33 1.32 0.66 2 1 C2.24908976 10.23015944 1.68944836 18.91921505 0 28 C-0.33 28 -0.66 28 -1 28 C-1.02886338 23.52084672 -1.04675187 19.04171709 -1.0625 14.5625 C-1.07087891 13.28310547 -1.07925781 12.00371094 -1.08789062 10.68554688 C-1.09111328 9.47060547 -1.09433594 8.25566406 -1.09765625 7.00390625 C-1.10289307 5.87799072 -1.10812988 4.7520752 -1.11352539 3.59204102 C-1 1 -1 1 0 0 Z " fill="#E6953D" transform="translate(266,59)"/>
<path d="M0 0 C0.33 0 0.66 0 1 0 C1 5.94 1 11.88 1 18 C0.67 18 0.34 18 0 18 C0 16.02 0 14.04 0 12 C-0.66 12 -1.32 12 -2 12 C-2 13.98 -2 15.96 -2 18 C-2.33 18 -2.66 18 -3 18 C-3.33 13.38 -3.66 8.76 -4 4 C-3.34 4 -2.68 4 -2 4 C-2 4.66 -2 5.32 -2 6 C-1.34 6 -0.68 6 0 6 C0 4.02 0 2.04 0 0 Z " fill="#E09853" transform="translate(202,72)"/>
<path d="M0 0 C0.33 0.66 0.66 1.32 1 2 C3.01669827 3.13350534 3.01669827 3.13350534 5 4 C4.01 5.485 4.01 5.485 3 7 C2.34 6.34 1.68 5.68 1 5 C0.05125 5.825 -0.8975 6.65 -1.875 7.5 C-4.75 10 -4.75 10 -7 10 C-7.33 8.68 -7.66 7.36 -8 6 C-5.36 4.02 -2.72 2.04 0 0 Z " fill="#260D05" transform="translate(154,128)"/>
<path d="M0 0 C0.99 0 1.98 0 3 0 C2.62669176 2.72574271 2.20805399 3.80822085 0.15234375 5.703125 C-0.57855469 6.21359375 -1.30945313 6.7240625 -2.0625 7.25 C-2.79597656 7.77078125 -3.52945313 8.2915625 -4.28515625 8.828125 C-4.85105469 9.21484375 -5.41695312 9.6015625 -6 10 C-6 8.68 -6 7.36 -6 6 C-7.32 6 -8.64 6 -10 6 C-9.67 5.34 -9.34 4.68 -9 4 C-8.05125 3.855625 -7.1025 3.71125 -6.125 3.5625 C-2.76217163 2.95719089 -2.19205718 2.40082453 0 0 Z " fill="#271005" transform="translate(231,128)"/>
<path d="M0 0 C-0.28317926 1.60568666 -0.57687791 3.20952047 -0.875 4.8125 C-1.03742188 5.70582031 -1.19984375 6.59914063 -1.3671875 7.51953125 C-2 10 -2 10 -4 13 C-3.67 10.69 -3.34 8.38 -3 6 C-3.66 6 -4.32 6 -5 6 C-5 5.34 -5 4.68 -5 4 C-6.98 4.33 -8.96 4.66 -11 5 C-4.63636364 0 -4.63636364 0 0 0 Z " fill="#1A0801" transform="translate(227,105)"/>
<path d="M0 0 C1.32 0.33 2.64 0.66 4 1 C4 2.65 4 4.3 4 6 C2.35 6.66 0.7 7.32 -1 8 C-1 7.34 -1 6.68 -1 6 C-1.99 6 -2.98 6 -4 6 C-3.67 4.68 -3.34 3.36 -3 2 C-2.01 2 -1.02 2 0 2 C0 1.34 0 0.68 0 0 Z " fill="#F29A3A" transform="translate(171,110)"/>
<path d="M0 0 C0.33 0.66 0.66 1.32 1 2 C0.67 2.66 0.34 3.32 0 4 C-0.06950541 5.54023996 -0.08452357 7.08334988 -0.0625 8.625 C-0.05347656 9.44226563 -0.04445312 10.25953125 -0.03515625 11.1015625 C-0.02355469 11.72804687 -0.01195312 12.35453125 0 13 C2.64 13.33 5.28 13.66 8 14 C6.19873295 16.27528469 5.3633843 16.94682181 2.4375 17.375 C1.633125 17.25125 0.82875 17.1275 0 17 C-2.31590289 13.52614567 -2.26991835 12.03569994 -2.25 7.9375 C-2.25515625 6.87402344 -2.2603125 5.81054688 -2.265625 4.71484375 C-2 2 -2 2 0 0 Z " fill="#E09651" transform="translate(141,118)"/>
<path d="M0 0 C0.66 0 1.32 0 2 0 C2.33 1.32 2.66 2.64 3 4 C3.66 4 4.32 4 5 4 C3.549046 7.82524236 1.61818068 9.19090966 -2 11 C-2.66 11 -3.32 11 -4 11 C-3.67 9.02 -3.34 7.04 -3 5 C-2.67 5.99 -2.34 6.98 -2 8 C-1.34 8 -0.68 8 0 8 C0 5.36 0 2.72 0 0 Z " fill="#D99045" transform="translate(248,105)"/>
<path d="M0 0 C0.66 0 1.32 0 2 0 C2 3.63 2 7.26 2 11 C1.01 10.67 0.02 10.34 -1 10 C-2.25 3.375 -2.25 3.375 0 0 Z " fill="#F79835" transform="translate(213,78)"/>
<path d="M0 0 C0.33 1.32 0.66 2.64 1 4 C-1.1875 6.0625 -1.1875 6.0625 -4 8 C-6.8125 7.75 -6.8125 7.75 -9 7 C-9 5.02 -9 3.04 -9 1 C-8.67 1 -8.34 1 -8 1 C-7.87625 1.804375 -7.7525 2.60875 -7.625 3.4375 C-7.41875 4.283125 -7.2125 5.12875 -7 6 C-6.34 6.33 -5.68 6.66 -5 7 C-4.731875 6.401875 -4.46375 5.80375 -4.1875 5.1875 C-3.01506533 3.02775192 -1.80630718 1.64209744 0 0 Z " fill="#DD9248" transform="translate(230,125)"/>
<path d="M0 0 C1.16180608 3.92759816 0.75984959 6.97279717 0 11 C-0.33 11.33 -0.66 11.66 -1 12 C-1.23075082 13.34747084 -1.41153063 14.70377565 -1.5625 16.0625 C-1.706875 17.361875 -1.85125 18.66125 -2 20 C-2.66 20 -3.32 20 -4 20 C-3.56615452 12.96871122 -2.25678003 6.670985 0 0 Z " fill="#E19649" transform="translate(107,64)"/>
<path d="M0 0 C0.66 0.33 1.32 0.66 2 1 C-1.33491686 5.81710214 -1.33491686 5.81710214 -4.5 6.6875 C-5.325 6.790625 -6.15 6.89375 -7 7 C-9.23408113 7.99083967 -9.23408113 7.99083967 -11 9 C-7.86394624 4.48408258 -4.8731652 2.3463388 0 0 Z " fill="#3C8EB9" transform="translate(20,71)"/>
<path d="M0 0 C0.35233161 5.37305699 0.35233161 5.37305699 0 8 C-2 10 -2 10 -4 11 C-4 10.01 -4 9.02 -4 8 C-3.34 7.67 -2.68 7.34 -2 7 C-2 5.35 -2 3.7 -2 2 C-2.99 1.67 -3.98 1.34 -5 1 C-5 1.66 -5 2.32 -5 3 C-5.66 3 -6.32 3 -7 3 C-6.67 2.01 -6.34 1.02 -6 0 C-3.50907189 -1.24546405 -2.58919267 -0.7767578 0 0 Z " fill="#DD974E" transform="translate(176,109)"/>
<path d="M0 0 C4.04256383 1.22217046 7.49288959 2.62754296 11 5 C11 5.33 11 5.66 11 6 C8.03 5.67 5.06 5.34 2 5 C2 4.34 2 3.68 2 3 C1.34 3 0.68 3 0 3 C0 2.01 0 1.02 0 0 Z " fill="#378FBC" transform="translate(60,72)"/>
<path d="M0 0 C0.8353125 0.556875 0.8353125 0.556875 1.6875 1.125 C1.6875 1.785 1.6875 2.445 1.6875 3.125 C1.0275 3.125 0.3675 3.125 -0.3125 3.125 C-0.3125 2.465 -0.3125 1.805 -0.3125 1.125 C-1.3025 1.455 -2.2925 1.785 -3.3125 2.125 C-2.6525 2.455 -1.9925 2.785 -1.3125 3.125 C-1.6425 3.785 -1.9725 4.445 -2.3125 5.125 C-3.3025 5.455 -4.2925 5.785 -5.3125 6.125 C-5.9725 4.475 -6.6325 2.825 -7.3125 1.125 C-2.88173077 -1.09038462 -2.88173077 -1.09038462 0 0 Z " fill="#2D1206" transform="translate(153.3125,80.875)"/>
<path d="M0 0 C1.32 0 2.64 0 4 0 C4 1.32 4 2.64 4 4 C6.31 4 8.62 4 11 4 C10.67 4.66 10.34 5.32 10 6 C3.52443609 5.38909774 3.52443609 5.38909774 1.0625 3.5625 C0 2 0 2 0 0 Z " fill="#D18B48" transform="translate(167,129)"/>
<path d="M0 0 C0 3 0 3 -1 5 C-2.32 5 -3.64 5 -5 5 C-5.99 6.485 -5.99 6.485 -7 8 C-7.66 7.67 -8.32 7.34 -9 7 C-7.32482761 3.46352496 -6.50719183 2.2088437 -2.8125 0.6875 C-1.884375 0.460625 -0.95625 0.23375 0 0 Z " fill="#D2914E" transform="translate(247,118)"/>
<path d="M0 0 C0.598125 0.474375 1.19625 0.94875 1.8125 1.4375 C4.00382924 3.16465744 4.00382924 3.16465744 7 4 C6.67 4.99 6.34 5.98 6 7 C3.36 6.01 0.72 5.02 -2 4 C-1.34 2.68 -0.68 1.36 0 0 Z " fill="#E49445" transform="translate(174,78)"/>
<path d="M0 0 C-4.625 4 -4.625 4 -8 4 C-8.66 2.68 -9.32 1.36 -10 0 C-6.42355152 -1.2380014 -3.66305234 -0.74926071 0 0 Z " fill="#E29748" transform="translate(224,105)"/>
<path d="M0 0 C3.3 0 6.6 0 10 0 C9.34 0.66 8.68 1.32 8 2 C8 3.32 8 4.64 8 6 C7.01 6 6.02 6 5 6 C4.87625 5.071875 4.87625 5.071875 4.75 4.125 C4.08785794 1.46510021 4.08785794 1.46510021 0 0 Z " fill="#F8A335" transform="translate(204,0)"/>
<path d="M0 0 C6.93 0.495 6.93 0.495 14 1 C11.47982574 3.52017426 10.48500151 3.29730377 7 3.3125 C6.113125 3.32925781 5.22625 3.34601563 4.3125 3.36328125 C3.549375 3.24339844 2.78625 3.12351563 2 3 C1.34 2.01 0.68 1.02 0 0 Z " fill="#200701" transform="translate(131,138)"/>
<path d="M0 0 C1.21236328 0.01353516 1.21236328 0.01353516 2.44921875 0.02734375 C3.37154297 0.04474609 3.37154297 0.04474609 4.3125 0.0625 C2.6780205 2.02696905 1.84820606 2.98567791 -0.73046875 3.35546875 C-2.71614583 3.2578125 -4.70182292 3.16015625 -6.6875 3.0625 C-7.0175 2.4025 -7.3475 1.7425 -7.6875 1.0625 C-4.80538698 0.10179566 -2.98899956 -0.04331883 0 0 Z " fill="#240C02" transform="translate(220.6875,137.9375)"/>
<path d="M0 0 C1.32 0 2.64 0 4 0 C4 0.66 4 1.32 4 2 C2.04072937 3.7143618 0.04119788 5.38405168 -2 7 C-2.66 6.67 -3.32 6.34 -4 6 C-2.25 3 -2.25 3 0 0 Z " fill="#1C0902" transform="translate(256,105)"/>
<path d="M0 0 C0.66 0 1.32 0 2 0 C3.19287411 3.87684087 4 6.91621923 4 11 C3.01 10.67 2.02 10.34 1 10 C1.33 8.35 1.66 6.7 2 5 C1.34 5 0.68 5 0 5 C0 3.35 0 1.7 0 0 Z " fill="#408CB1" transform="translate(91,104)"/>
<path d="M0 0 C0.928125 0.0825 1.85625 0.165 2.8125 0.25 C3.1425 1.9 3.4725 3.55 3.8125 5.25 C3.1525 4.92 2.4925 4.59 1.8125 4.25 C1.8125 3.59 1.8125 2.93 1.8125 2.25 C-0.8275 2.91 -3.4675 3.57 -6.1875 4.25 C-4.36434338 1.00883268 -3.82500054 0.30000004 0 0 Z " fill="#2C0C04" transform="translate(242.1875,104.75)"/>
<path d="M0 0 C0.33 0 0.66 0 1 0 C1 5.28 1 10.56 1 16 C0.67 16 0.34 16 0 16 C-0.06058594 15.37351562 -0.12117187 14.74703125 -0.18359375 14.1015625 C-0.26738281 13.28429687 -0.35117188 12.46703125 -0.4375 11.625 C-0.51871094 10.81289062 -0.59992188 10.00078125 -0.68359375 9.1640625 C-0.89090114 6.95727195 -0.89090114 6.95727195 -2 5 C-1.0625 2.375 -1.0625 2.375 0 0 Z " fill="#EB8F2E" transform="translate(197,75)"/>
<path d="M0 0 C3.53372712 1.96318174 6.24479785 4.04070881 9 7 C8.67 7.66 8.34 8.32 8 9 C6.0625 8.1875 6.0625 8.1875 4 7 C3.67 6.01 3.34 5.02 3 4 C2.01 4 1.02 4 0 4 C0 2.68 0 1.36 0 0 Z " fill="#E39544" transform="translate(243,14)"/>
<path d="M0 0 C4.8991349 1.29977048 9.37559575 2.92373687 14 5 C11.26980214 6.06528748 10.20701188 6.07998186 7.421875 5.00390625 C6.54015625 4.52824219 5.6584375 4.05257812 4.75 3.5625 C3.85796875 3.08941406 2.9659375 2.61632812 2.046875 2.12890625 C1.37140625 1.75636719 0.6959375 1.38382813 0 1 C0 0.67 0 0.34 0 0 Z " fill="#3D8AAF" transform="translate(27,155)"/>
<path d="M0 0 C0.33 0.66 0.66 1.32 1 2 C1.99 2 2.98 2 4 2 C4 1.34 4 0.68 4 0 C5.32 0.33 6.64 0.66 8 1 C6.71475739 1.86380259 5.42157581 2.71580369 4.125 3.5625 C3.40570313 4.03816406 2.68640625 4.51382813 1.9453125 5.00390625 C1.30335938 5.33261719 0.66140625 5.66132813 0 6 C-0.66 5.67 -1.32 5.34 -2 5 C-1.34 3.35 -0.68 1.7 0 0 Z " fill="#E89846" transform="translate(216,149)"/>
<path d="M0 0 C0.66 1.98 1.32 3.96 2 6 C1.01 6 0.02 6 -1 6 C-1 5.01 -1 4.02 -1 3 C-2.32 3.99 -3.64 4.98 -5 6 C-5.66 5.67 -6.32 5.34 -7 5 C-2.25 0 -2.25 0 0 0 Z " fill="#CF8D48" transform="translate(188,132)"/>
<path d="M0 0 C0 1.32 0 2.64 0 4 C-1.65 4.66 -3.3 5.32 -5 6 C-5.33 5.01 -5.66 4.02 -6 3 C-3.375 0 -3.375 0 0 0 Z " fill="#E5913B" transform="translate(240,126)"/>
<path d="M0 0 C0 1.32 0 2.64 0 4 C-1.98 4 -3.96 4 -6 4 C-6 3.01 -6 2.02 -6 1 C-4 0 -4 0 0 0 Z " fill="#E49342" transform="translate(172,125)"/>
<path d="M0 0 C0.33 0 0.66 0 1 0 C1.28875 0.928125 1.5775 1.85625 1.875 2.8125 C2.8875 6.09791667 2.8875 6.09791667 5 9 C3.68 9.99 2.36 10.98 1 12 C0.67 8.04 0.34 4.08 0 0 Z " fill="#E39850" transform="translate(233,112)"/>
<path d="M0 0 C0.33 0.99 0.66 1.98 1 3 C1.66 3.33 2.32 3.66 3 4 C2.01 6.31 1.02 8.62 0 11 C-0.33 11 -0.66 11 -1 11 C-1.125 3.375 -1.125 3.375 0 0 Z " fill="#290D02" transform="translate(151,94)"/>
<path d="M0 0 C0.33 0.66 0.66 1.32 1 2 C0.34 2.66 -0.32 3.32 -1 4 C-1.66 3.67 -2.32 3.34 -3 3 C-3 3.66 -3 4.32 -3 5 C-4.98 5.99 -4.98 5.99 -7 7 C-7 5.68 -7 4.36 -7 3 C-4.66785852 1.79371992 -2.50357861 0.8345262 0 0 Z " fill="#E8923E" transform="translate(184,136)"/>
<path d="M0 0 C0.99 0.99 1.98 1.98 3 3 C3.66 2.67 4.32 2.34 5 2 C4.34 3.98 3.68 5.96 3 8 C2.01 7.67 1.02 7.34 0 7 C0 4.69 0 2.38 0 0 Z " fill="#F39B43" transform="translate(222,124)"/>
<path d="M0 0 C0.33 1.32 0.66 2.64 1 4 C0.01 4 -0.98 4 -2 4 C-2 5.65 -2 7.3 -2 9 C-2.66 9 -3.32 9 -4 9 C-3.6875 5.625 -3.6875 5.625 -3 2 C-2.01 1.34 -1.02 0.68 0 0 Z " fill="#F7993A" transform="translate(150,90)"/>
<path d="M0 0 C0.66 0 1.32 0 2 0 C2.36923077 5.53846154 2.36923077 5.53846154 0.5 7.875 C-0.2425 8.431875 -0.2425 8.431875 -1 9 C-1.09765625 2.84765625 -1.09765625 2.84765625 -1 1 C-0.67 0.67 -0.34 0.34 0 0 Z " fill="#F49732" transform="translate(188,78)"/>
<path d="M0 0 C0.66 0 1.32 0 2 0 C2.33 1.32 2.66 2.64 3 4 C2.01 3.67 1.02 3.34 0 3 C0 6.63 0 10.26 0 14 C-0.33 14 -0.66 14 -1 14 C-1.02685938 11.85423363 -1.04633088 9.70837355 -1.0625 7.5625 C-1.07410156 6.36753906 -1.08570313 5.17257813 -1.09765625 3.94140625 C-1 1 -1 1 0 0 Z " fill="#E98F3A" transform="translate(219,76)"/>
<path d="M0 0 C0.66 0.33 1.32 0.66 2 1 C1.4375 2.9375 1.4375 2.9375 0 5 C-3.625 5.75 -3.625 5.75 -7 6 C-4.74259377 3.66475218 -2.7194239 1.81294927 0 0 Z " fill="#E49749" transform="translate(148,15)"/>
<path d="M0 0 C0.33 1.32 0.66 2.64 1 4 C0.34 4 -0.32 4 -1 4 C-1 4.66 -1 5.32 -1 6 C-2.65 6 -4.3 6 -6 6 C-4 4 -2 2 0 0 Z " fill="#F99834" transform="translate(183,125)"/>
<path d="M0 0 C0.33 0.99 0.66 1.98 1 3 C-0.28965176 4.37562854 -1.62689293 5.70766393 -3 7 C-3.66 7 -4.32 7 -5 7 C-5 6.34 -5 5.68 -5 5 C-4.34 5 -3.68 5 -3 5 C-3 3.68 -3 2.36 -3 1 C-2.01 0.67 -1.02 0.34 0 0 Z " fill="#D18D45" transform="translate(187,124)"/>
<path d="M0 0 C1.485 0.99 1.485 0.99 3 2 C3.66 2.33 4.32 2.66 5 3 C1.25 6 1.25 6 -1 6 C-1.042721 4.33388095 -1.04063832 2.66617115 -1 1 C-0.67 0.67 -0.34 0.34 0 0 Z " fill="#E99745" transform="translate(224,117)"/>
<path d="M0 0 C0 0.66 0 1.32 0 2 C-0.99 2.33 -1.98 2.66 -3 3 C-3.66 3.66 -4.32 4.32 -5 5 C-5.99 5.33 -6.98 5.66 -8 6 C-7.1875 3.5625 -7.1875 3.5625 -6 1 C-3 0 -3 0 0 0 Z " fill="#180501" transform="translate(147,83)"/>
<path d="M0 0 C0 0.99 0 1.98 0 3 C-2.66666667 3.66666667 -5.33333333 4.33333333 -8 5 C-3.375 0 -3.375 0 0 0 Z " fill="#F49C45" transform="translate(150,113)"/>
<path d="M0 0 C1.231394 2.46278801 1.07159196 4.2795055 1 7 C-0.65 7.33 -2.3 7.66 -4 8 C-2.87548273 5.0280615 -1.77706209 2.66559313 0 0 Z " fill="#E59642" transform="translate(119,41)"/>
</svg>
