<?xml version="1.0" encoding="UTF-8"?>
<svg version="1.1" xmlns="http://www.w3.org/2000/svg" width="312" height="162">
<path d="M0 0 C4.56382285 0.532446 6.72346622 2.16473818 9.75 5.4375 C12.08536349 8.71574519 14.1113942 12.14220775 16.125 15.625 C16.67027344 16.53958984 17.21554687 17.45417969 17.77734375 18.39648438 C21.75 25.14203477 21.75 25.14203477 21.75 27.4375 C22.98919189 27.07398438 22.98919189 27.07398438 24.25341797 26.703125 C27.36291918 25.79790981 30.4756042 24.90486091 33.59082031 24.01953125 C34.93039965 23.63624307 36.26866721 23.24833547 37.60546875 22.85546875 C54.21219927 17.98283524 54.21219927 17.98283524 60.75 19.4375 C63.30954641 21.53054961 64.36788599 23.12584528 64.75 26.4375 C62.27587327 33.36505485 57.62428511 38.07850462 52.65625 43.31640625 C48.42053019 47.80203353 44.59454985 52.61520044 40.75 57.4375 C42.02044977 60.73739786 43.42847779 63.86027219 45.09765625 66.9765625 C45.75797852 68.21792969 45.75797852 68.21792969 46.43164062 69.484375 C46.88732422 70.33515625 47.34300781 71.1859375 47.8125 72.0625 C48.72216054 73.76189389 49.62980273 75.46237014 50.53515625 77.1640625 C50.93613525 77.91252441 51.33711426 78.66098633 51.75024414 79.43212891 C53.80532855 83.55434218 54.14402944 86.86675847 53.75 91.4375 C51.95437595 94.19079021 50.69745078 95.96377461 47.75 97.4375 C40.82228775 97.81896695 34.95752869 96.84874621 28.3125 94.9375 C27.41595703 94.71835938 26.51941406 94.49921875 25.59570312 94.2734375 C23.05442311 93.54571602 20.98010849 92.85979829 18.75 91.4375 C17.31796706 88.815313 16.98730586 86.38651602 16.75 83.4375 C16.54540169 82.10358843 16.33731171 80.77020563 16.125 79.4375 C16.00125 78.4475 15.8775 77.4575 15.75 76.4375 C22.61273384 77.09737825 29.0895201 78.69120143 35.75 80.4375 C35.41154053 79.82229492 35.07308105 79.20708984 34.72436523 78.57324219 C33.19940335 75.78471041 31.69333262 72.98640447 30.1875 70.1875 C29.65447266 69.21941406 29.12144531 68.25132813 28.57226562 67.25390625 C28.07275391 66.31933594 27.57324219 65.38476562 27.05859375 64.421875 C26.35947876 63.13361816 26.35947876 63.13361816 25.64624023 61.81933594 C24.61883465 59.08891674 24.62032032 58.09224725 25.75 55.4375 C26.90161133 53.77758789 26.90161133 53.77758789 28.33203125 52.16015625 C28.85216797 51.56396484 29.37230469 50.96777344 29.90820312 50.35351562 C30.45412109 49.74185547 31.00003906 49.13019531 31.5625 48.5 C32.63222092 47.28317632 33.70124472 46.06573941 34.76953125 44.84765625 C35.27822754 44.27031738 35.78692383 43.69297852 36.31103516 43.09814453 C38.19020602 40.92947805 39.98016321 38.69586317 41.75 36.4375 C32.98339098 38.03909203 24.37927587 40.23200269 15.75 42.4375 C11.7890352 36.56134343 7.94179716 30.62313787 4.16796875 24.625 C2.92901644 22.54693875 2.92901644 22.54693875 1.75 21.4375 C1.63930176 22.11329102 1.52860352 22.78908203 1.41455078 23.48535156 C0.90804847 26.55388062 0.39163587 29.62066154 -0.125 32.6875 C-0.29902344 33.75097656 -0.47304687 34.81445312 -0.65234375 35.91015625 C-0.82636719 36.93496094 -1.00039062 37.95976563 -1.1796875 39.015625 C-1.33679199 39.95825195 -1.49389648 40.90087891 -1.65576172 41.87207031 C-2.25667786 44.4663295 -2.69646528 46.27103808 -4.25 48.4375 C-6.77197266 49.62597656 -6.77197266 49.62597656 -9.9140625 50.578125 C-11.03554687 50.92617188 -12.15703125 51.27421875 -13.3125 51.6328125 C-14.488125 51.98085938 -15.66375 52.32890625 -16.875 52.6875 C-18.05835938 53.05101562 -19.24171875 53.41453125 -20.4609375 53.7890625 C-23.38672856 54.68567589 -26.31612356 55.56778129 -29.25 56.4375 C-27.51509352 57.23475198 -25.77922765 58.02991639 -24.04296875 58.82421875 C-23.07641357 59.26725342 -22.1098584 59.71028809 -21.11401367 60.16674805 C-17.54031475 61.75238464 -13.9294718 63.11844407 -10.25 64.4375 C-10.25 65.0975 -10.25 65.7575 -10.25 66.4375 C-12.44776639 68.11184706 -14.62315296 69.62911335 -16.9375 71.125 C-17.56333984 71.55361328 -18.18917969 71.98222656 -18.83398438 72.42382812 C-21.46305845 74.13341451 -23.48618356 75.4375 -26.67578125 75.4375 C-30.42450497 73.98124314 -34.1011036 72.44210481 -37.75 70.75 C-38.49636719 70.42322266 -39.24273437 70.09644531 -40.01171875 69.75976562 C-45.08858059 67.41003223 -48.08888101 65.08692793 -51.25 60.4375 C-51.99509547 56.19045583 -51.85513058 54.33476259 -49.4375 50.75 C-44.99232371 47.52506818 -40.44863559 46.11163689 -35.25 44.4375 C-33.71138452 43.91265627 -32.17368512 43.38512233 -30.63671875 42.85546875 C-29.00804945 42.29878545 -27.37914245 41.74279708 -25.75 41.1875 C-24.96020752 40.91687744 -24.17041504 40.64625488 -23.35668945 40.36743164 C-22.60991943 40.11727295 -21.86314941 39.86711426 -21.09375 39.609375 C-20.42537109 39.3834668 -19.75699219 39.15755859 -19.06835938 38.92480469 C-17.25 38.4375 -17.25 38.4375 -14.25 38.4375 C-14.21132812 37.57705078 -14.21132812 37.57705078 -14.171875 36.69921875 C-13.74069711 30.24134983 -12.70395689 23.96277486 -11.4375 17.625 C-11.28442383 16.81313232 -11.13134766 16.00126465 -10.97363281 15.16479492 C-9.64194387 8.76016223 -7.263964 0.97784131 0 0 Z " fill="#DD591D" transform="translate(247.25,-0.4375)"/>
<path d="M0 0 C0.82564453 0.6496875 0.82564453 0.6496875 1.66796875 1.3125 C2.29058594 1.786875 2.91320312 2.26125 3.5546875 2.75 C9.34455293 7.79944239 11.82412755 14.14506006 13.046875 21.6328125 C13.53501725 30.41937293 9.7723211 38.83664801 4.29296875 45.53515625 C-3.01726958 53.53072943 -11.2129606 57.83789529 -22.08203125 58.5625 C-26.84188525 58.51734009 -30.92777931 56.98906928 -35.33203125 55.3125 C-36.81703125 54.8175 -36.81703125 54.8175 -38.33203125 54.3125 C-39.32203125 60.9125 -40.31203125 67.5125 -41.33203125 74.3125 C-45.95203125 74.3125 -50.57203125 74.3125 -55.33203125 74.3125 C-54.48460413 67.14242513 -53.62288151 59.97426629 -52.75097656 52.80712891 C-52.3559604 49.51210482 -51.97889039 46.21549784 -51.60546875 42.91796875 C-49.77534449 27.20771697 -47.75027745 14.04727183 -34.95703125 3.5 C-25.54734144 -3.31230436 -10.52864322 -6.69370695 0 0 Z M-31.33203125 17.3125 C-34.86842526 22.80855183 -35.9552782 27.62137955 -34.93359375 34.08203125 C-33.64483458 38.86048244 -31.30484454 40.74025689 -27.14453125 43.1875 C-21.49259854 44.85528342 -17.29220282 44.64766567 -11.8984375 42.21484375 C-6.88544344 39.25972903 -3.87245699 36.17551785 -1.85546875 30.6796875 C-0.64348539 25.19862842 -1.54986412 20.93700095 -3.95703125 15.9375 C-7.33632311 12.20249321 -10.81594756 10.6995898 -15.76953125 9.9375 C-21.66019604 10.79954851 -27.19835533 12.94917542 -31.33203125 17.3125 Z " fill="#39373C" transform="translate(104.33203125,87.6875)"/>
<path d="M0 0 C3.51293515 2.63651215 6.21286282 5.9692269 8.89453125 9.421875 C4.92450945 13.64002317 0.58612841 17.03414603 -4.10546875 20.421875 C-4.70359375 19.638125 -5.30171875 18.854375 -5.91796875 18.046875 C-8.01632124 15.27613177 -8.01632124 15.27613177 -11.10546875 13.421875 C-15.81535017 12.95671569 -15.81535017 12.95671569 -20.10546875 14.609375 C-21.29668389 16.40053397 -21.29668389 16.40053397 -21.0234375 18.63671875 C-19.74435464 22.51751059 -17.21840974 24.94170363 -14.41796875 27.796875 C-13.32103828 28.95257828 -12.22467774 30.10882279 -11.12890625 31.265625 C-10.3414502 32.08740234 -10.3414502 32.08740234 -9.53808594 32.92578125 C-3.87592634 38.83882044 0.87251031 44.25867956 1.33203125 52.796875 C1.00819835 60.74427398 -2.87522353 66.9691097 -8.16796875 72.6953125 C-15.01722284 78.79888167 -22.69807666 79.78164719 -31.58203125 79.69921875 C-37.71759044 79.21626453 -41.81566721 77.0862366 -45.98046875 72.609375 C-48.32367038 69.09457256 -49.20705307 66.50558265 -50.10546875 62.421875 C-48.85693202 61.62790261 -47.60656832 60.83680283 -46.35546875 60.046875 C-45.659375 59.60601562 -44.96328125 59.16515625 -44.24609375 58.7109375 C-38.78425663 55.421875 -38.78425663 55.421875 -35.10546875 55.421875 C-34.58984375 56.535625 -34.07421875 57.649375 -33.54296875 58.796875 C-31.77966517 61.85161218 -31.14358191 62.40317798 -27.79296875 64.046875 C-23.08857639 64.52528778 -21.1914324 63.71001464 -17.10546875 61.421875 C-15.67496941 58.56087632 -15.79277906 56.59895668 -16.10546875 53.421875 C-17.78950682 50.58000634 -17.78950682 50.58000634 -20.16796875 47.984375 C-20.9878125 47.03304687 -21.80765625 46.08171875 -22.65234375 45.1015625 C-25.21892964 42.29793524 -27.87088007 39.62245152 -30.6015625 36.98046875 C-35.96663668 31.42030096 -37.54798901 25.9496345 -37.4375 18.3359375 C-36.64693532 11.39756988 -32.98845571 6.84356077 -27.73046875 2.484375 C-19.54448207 -3.3415661 -9.00784987 -5.06347569 0 0 Z " fill="#38363B" transform="translate(50.10546875,66.578125)"/>
<path d="M0 0 C6.25300152 5.13749061 9.95966112 10.07646753 10.91015625 18.2109375 C11.27958211 30.03256513 10.32098222 44.09564709 6.57421875 55.3359375 C2.28421875 55.3359375 -2.00578125 55.3359375 -6.42578125 55.3359375 C-5.5222227 39.49482592 -5.5222227 39.49482592 -4.86328125 35.0234375 C-3.55123041 24.20473828 -3.55123041 24.20473828 -7.42578125 14.3359375 C-10.21588038 10.96456772 -12.62214624 10.42053066 -16.98828125 9.9609375 C-22.99781726 10.0609113 -28.67309539 12.61854248 -32.94921875 16.83984375 C-36.29441684 21.76274165 -36.28807627 27.61029857 -35.42578125 33.3359375 C-33.37977095 37.50102991 -31.695314 39.6250417 -27.42578125 41.3359375 C-21.34381122 42.10872907 -16.74572541 41.52790399 -11.42578125 38.3359375 C-10.76578125 38.3359375 -10.10578125 38.3359375 -9.42578125 38.3359375 C-9.42578125 37.6759375 -9.42578125 37.0159375 -9.42578125 36.3359375 C-8.76578125 36.3359375 -8.10578125 36.3359375 -7.42578125 36.3359375 C-8.08578125 41.9459375 -8.74578125 47.5559375 -9.42578125 53.3359375 C-17.80706662 56.92791694 -25.50036788 58.08098725 -34.41015625 55.45703125 C-41.45896831 52.22098571 -45.66277271 47.67957438 -49.23828125 40.8984375 C-52.23247559 31.91585447 -51.67103654 23.92560821 -47.80078125 15.2734375 C-42.54668898 5.78155547 -35.50290534 0.22779232 -25.42578125 -3.6640625 C-16.48615202 -5.86872294 -7.71926442 -5.29534081 0 0 Z " fill="#39373C" transform="translate(171.42578125,88.6640625)"/>
<path d="M0 0 C1.0257962 3.23704014 0.94875607 5.64961078 0.44140625 8.9921875 C0.30283203 9.94480469 0.16425781 10.89742187 0.02148438 11.87890625 C-0.12998047 12.86761719 -0.28144531 13.85632813 -0.4375 14.875 C-1.77308542 23.39490363 -1.77308542 23.39490363 -2 32 C-0.14446067 30.00125813 1.70974762 28.00132344 3.5625 26 C4.110271 25.40856201 4.65804199 24.81712402 5.22241211 24.20776367 C8.76542067 20.37059485 12.23430248 16.48493828 15.59765625 12.48828125 C17 11 17 11 20 9 C20.34171006 10.37294222 20.67291117 11.74850118 21 13.125 C21.185625 13.89070313 21.37125 14.65640625 21.5625 15.4453125 C22.08754687 18.51121121 22.39488259 20.89227401 22 24 C20.30395676 26.2721131 18.7433053 28.09709083 16.75 30.0625 C15.764225 31.0728547 14.77982974 32.08455756 13.796875 33.09765625 C13.32314453 33.57992676 12.84941406 34.06219727 12.36132812 34.55908203 C10.43484425 36.59819749 8.71122949 38.77947602 7 41 C8.72775905 43.45933271 10.45695845 45.91762565 12.1875 48.375 C12.71835205 49.1292627 13.2492041 49.88352539 13.79614258 50.66064453 C16.72069786 54.80564991 19.66795079 58.93191647 22.65625 63.03125 C23.54147339 64.24675537 23.54147339 64.24675537 24.44458008 65.48681641 C25.59214243 67.05922921 26.74294248 68.62928502 27.8972168 70.19677734 C28.41968994 70.9130127 28.94216309 71.62924805 29.48046875 72.3671875 C29.94348389 72.99737793 30.40649902 73.62756836 30.88354492 74.27685547 C32 76 32 76 33 79 C26.81484023 80.86219864 20.99142193 81.96005427 15 79 C7.13507859 71.13931844 1.1222271 60.82431841 -4 51 C-4 50.34 -4 49.68 -4 49 C-4.66 49 -5.32 49 -6 49 C-6.04898438 49.99257812 -6.09796875 50.98515625 -6.1484375 52.0078125 C-6.63665543 61.11820716 -7.59013723 69.9768783 -9 79 C-13.95 79 -18.9 79 -24 79 C-24.25382297 68.10888539 -22.78379901 57.38705984 -21.44072247 46.59738064 C-21.01452382 43.17295614 -20.60798398 39.74870235 -20.24780273 36.31665039 C-19.82866809 32.32690928 -19.32914716 28.35089891 -18.82421875 24.37109375 C-18.70600266 23.15006454 -18.58778656 21.92903534 -18.46598816 20.67100525 C-17.76599245 15.61189209 -17.19441157 12.21740759 -13.54629517 8.49905396 C-10.77387203 6.45353972 -8.00085097 4.68858785 -5 3 C-3.33285348 2.00080018 -1.66602925 1.00106159 0 0 Z " fill="#3B383D" transform="translate(240,66)"/>
<path d="M0 0 C0.70189453 0.00451172 1.40378906 0.00902344 2.12695312 0.01367188 C3.85550538 0.02543073 5.58401365 0.04336546 7.3125 0.0625 C7.17116501 1.83369803 7.02426792 3.60445287 6.875 5.375 C6.79378906 6.36113281 6.71257812 7.34726563 6.62890625 8.36328125 C6.3125 11.0625 6.3125 11.0625 5.3125 14.0625 C-0.6275 14.5575 -0.6275 14.5575 -6.6875 15.0625 C-6.83372803 16.22297852 -6.97995605 17.38345703 -7.13061523 18.57910156 C-7.6742359 22.88816913 -8.22103842 27.19682798 -8.76879883 31.50537109 C-9.0053436 33.36951901 -9.24102753 35.23377637 -9.47583008 37.09814453 C-9.81364836 39.77926464 -10.15456936 42.45997478 -10.49609375 45.140625 C-10.60030136 45.97305725 -10.70450897 46.8054895 -10.81187439 47.66314697 C-10.91190262 48.44365417 -11.01193085 49.22416138 -11.11499023 50.02832031 C-11.24489601 51.05424286 -11.24489601 51.05424286 -11.37742615 52.10089111 C-11.69509656 54.11055785 -12.19403238 56.08862954 -12.6875 58.0625 C-17.3075 58.0625 -21.9275 58.0625 -26.6875 58.0625 C-26.02600006 48.58100079 -25.08001109 39.17743974 -23.875 29.75 C-23.72224609 28.44482422 -23.56949219 27.13964844 -23.41210938 25.79492188 C-22.32520859 17.33599837 -21.23936502 9.24327931 -14.125 3.625 C-13.54621094 3.15191406 -12.96742188 2.67882812 -12.37109375 2.19140625 C-8.48235016 -0.41612716 -4.4801178 -0.05438051 0 0 Z " fill="#39373C" transform="translate(210.6875,85.9375)"/>
<path d="M0 0 C4.18944155 1.39648052 5.55273446 4.39485597 7.875 7.9375 C8.84676645 9.38949019 9.82082206 10.8399503 10.796875 12.2890625 C11.31185547 13.05379883 11.82683594 13.81853516 12.35742188 14.60644531 C15.73921929 19.53437959 19.29863906 24.33756603 22.84716797 29.14624023 C23.37455566 29.86755127 23.90194336 30.5888623 24.4453125 31.33203125 C24.91469238 31.96858643 25.38407227 32.6051416 25.86767578 33.26098633 C27 35 27 35 28 38 C12.63789265 39.93890675 12.63789265 39.93890675 8.26416016 36.72412109 C5.11158742 33.23704114 2.98872581 29.23331108 1 25 C1.99 25 2.98 25 4 25 C5.35827971 26.64639965 6.69254251 28.31295807 8 30 C8.66 30 9.32 30 10 30 C9.7525 29.4225 9.505 28.845 9.25 28.25 C9.12625 27.13625 9.12625 27.13625 9 26 C10.29103643 24.6256709 11.6256709 23.29103643 13 22 C13 18.89448334 12.4606285 17.64738916 11 15 C10.34 15 9.68 15 9 15 C8.0234375 13.27473958 7.046875 11.54947917 6.0703125 9.82421875 C4.03224841 6.35058397 2.68374705 4.59629039 -1 3 C-0.34 3 0.32 3 1 3 C0.67 2.01 0.34 1.02 0 0 Z " fill="#343337" transform="translate(245,107)"/>
<path d="M0 0 C0.99 0 1.98 0 3 0 C3 0.66 3 1.32 3 2 C3.99 2 4.98 2 6 2 C8 5 8 5 8 8 C7.34 8 6.68 8 6 8 C6 8.66 6 9.32 6 10 C7.32 9.67 8.64 9.34 10 9 C10 9.66 10 10.32 10 11 C10.66 11 11.32 11 12 11 C12 12.65 12 14.3 12 16 C12.66 16 13.32 16 14 16 C13.67 17.32 13.34 18.64 13 20 C12.34 20 11.68 20 11 20 C10.67 20.66 10.34 21.32 10 22 C9.01 22 8.02 22 7 22 C6.34 22.33 5.68 22.66 5 23 C4.67 22.01 4.34 21.02 4 20 C3.34 19.67 2.68 19.34 2 19 C-0.16888759 15.00468076 -0.01661577 12.37144782 1 8 C0.34 8 -0.32 8 -1 8 C-0.67 5.36 -0.34 2.72 0 0 Z " fill="#E25A1B" transform="translate(277,52)"/>
<path d="M0 0 C0.66 0 1.32 0 2 0 C5.80070879 9.56964177 6.10196093 16.71160869 2.26171875 26.359375 C-2.60678374 36.54856287 -10.48439948 43.18884308 -21 47 C-28.916131 49.31691639 -35.53113368 47.84317791 -43 45 C-43.99 44.67 -44.98 44.34 -46 44 C-46.12117188 45.07121094 -46.24234375 46.14242187 -46.3671875 47.24609375 C-46.53597601 48.64328752 -46.70527313 50.04041991 -46.875 51.4375 C-46.95363281 52.14455078 -47.03226562 52.85160156 -47.11328125 53.58007812 C-47.33927676 55.39673432 -47.66300727 57.20062522 -48 59 C-48.99 59.495 -48.99 59.495 -50 60 C-52.00620099 53.83911328 -49.66076436 46.70163792 -47 41 C-45.948125 41.433125 -45.948125 41.433125 -44.875 41.875 C-43.92625 42.24625 -42.9775 42.6175 -42 43 C-41.154375 43.37125 -40.30875 43.7425 -39.4375 44.125 C-30.27233402 46.45795134 -21.03657808 45.56858483 -12.87890625 40.74609375 C-5.52467426 35.64400842 -0.72590374 29.34482206 1.53515625 20.6484375 C2.79454706 13.47308483 2.43585457 6.85084097 0 0 Z " fill="#29282B" transform="translate(112,98)"/>
<path d="M0 0 C0.99 0 1.98 0 3 0 C3 1.98 3 3.96 3 6 C5.97 6.495 5.97 6.495 9 7 C9.33 4.69 9.66 2.38 10 0 C11.32 0 12.64 0 14 0 C13.69095829 2.27130656 13.37765093 4.54203305 13.0625 6.8125 C12.88847656 8.07707031 12.71445313 9.34164062 12.53515625 10.64453125 C12 14 12 14 11 17 C9.68 17 8.36 17 7 17 C7.33 15.02 7.66 13.04 8 11 C6.02 11.33 4.04 11.66 2 12 C1.67 13.65 1.34 15.3 1 17 C-0.32 17 -1.64 17 -3 17 C-2.22095672 5.47835991 -2.22095672 5.47835991 0 0 Z " fill="#2E2E30" transform="translate(154,57)"/>
<path d="M0 0 C1.32 0 2.64 0 4 0 C4.99 5.61 5.98 11.22 7 17 C5.35 17 3.7 17 2 17 C2 16.01 2 15.02 2 14 C-0.47266765 14.34444881 -0.47266765 14.34444881 -3 15 C-3.33 15.66 -3.66 16.32 -4 17 C-5.65 17 -7.3 17 -9 17 C-7.57997238 13.24069983 -5.87350167 9.77000304 -3.9375 6.25 C-3.14666016 4.80367187 -3.14666016 4.80367187 -2.33984375 3.328125 C-1 1 -1 1 0 0 Z M0 7 C-0.33 7.99 -0.66 8.98 -1 10 C-0.34 10 0.32 10 1 10 C0.67 9.01 0.34 8.02 0 7 Z " fill="#313034" transform="translate(78,57)"/>
<path d="M0 0 C1.65 0.33 3.3 0.66 5 1 C5.99 6.28 6.98 11.56 8 17 C6.35 17 4.7 17 3 17 C3 16.01 3 15.02 3 14 C1.02 14 -0.96 14 -3 14 C-3.33 14.99 -3.66 15.98 -4 17 C-5.32 17 -6.64 17 -8 17 C-6.3341708 10.83643195 -3.12194714 5.51740344 0 0 Z M1 7 C0.67 7.99 0.34 8.98 0 10 C0.66 10 1.32 10 2 10 C1.67 9.01 1.34 8.02 1 7 Z " fill="#312F33" transform="translate(117,57)"/>
<path d="M0 0 C2.97 0 5.94 0 9 0 C9 1.32 9 2.64 9 4 C7.02 4 5.04 4 3 4 C3 4.99 3 5.98 3 7 C4.65 7 6.3 7 8 7 C7.67 8.32 7.34 9.64 7 11 C5.35 11 3.7 11 2 11 C2 11.66 2 12.32 2 13 C3.65 13 5.3 13 7 13 C7 14.32 7 15.64 7 17 C3.7 17 0.4 17 -3 17 C-2.69095829 14.72869344 -2.37765093 12.45796695 -2.0625 10.1875 C-1.88847656 8.92292969 -1.71445313 7.65835938 -1.53515625 6.35546875 C-1 3 -1 3 0 0 Z " fill="#302F33" transform="translate(177,57)"/>
<path d="M0 0 C1.47968324 0.14049518 2.95874516 0.28754826 4.4375 0.4375 C5.67306641 0.55931641 5.67306641 0.55931641 6.93359375 0.68359375 C9 1 9 1 10 2 C10.45875252 7.27565392 10.45875252 7.27565392 8.8125 9.875 C6.43963721 11.34781139 4.74086056 11.22223194 2 11 C1.67 12.98 1.34 14.96 1 17 C-0.32 17 -1.64 17 -3 17 C-2.69188262 14.54104382 -2.37871012 12.08291693 -2.0625 9.625 C-1.97548828 8.92632812 -1.88847656 8.22765625 -1.79882812 7.5078125 C-1.11328125 2.2265625 -1.11328125 2.2265625 0 0 Z M3 5 C3 5.66 3 6.32 3 7 C3.99 7 4.98 7 6 7 C6 6.34 6 5.68 6 5 C5.01 5 4.02 5 3 5 Z " fill="#2F2E32" transform="translate(95,57)"/>
<path d="M0 0 C3.18591992 4.77887988 3.9587035 9.32711996 3 15 C0.22481368 19.70948982 -4.00001721 23.34858714 -8 27 C-9.00526582 27.9947063 -10.00852469 28.99154737 -11 30 C-11.66 29.67 -12.32 29.34 -13 29 C-12.22914063 28.25234375 -11.45828125 27.5046875 -10.6640625 26.734375 C-9.65077644 25.73985349 -8.63777025 24.74504677 -7.625 23.75 C-7.11710938 23.25886719 -6.60921875 22.76773438 -6.0859375 22.26171875 C-2.34594239 18.59291322 -2.34594239 18.59291322 0 14 C0 12.68 0 11.36 0 10 C-0.66 10 -1.32 10 -2 10 C-2.66 10.66 -3.32 11.32 -4 12 C-4.99 11.67 -5.98 11.34 -7 11 C-8.0828125 12.11375 -8.0828125 12.11375 -9.1875 13.25 C-11.68592573 15.69290515 -14.23643202 17.8681047 -17 20 C-15.59205918 16.83981842 -13.90337795 14.61032937 -11.5234375 12.109375 C-10.853125 11.40039062 -10.1828125 10.69140625 -9.4921875 9.9609375 C-8.79351562 9.23132813 -8.09484375 8.50171875 -7.375 7.75 C-6.31539062 6.63238281 -6.31539062 6.63238281 -5.234375 5.4921875 C-3.49372207 3.65744523 -1.74884777 1.826927 0 0 Z " fill="#2F2D31" transform="translate(259,75)"/>
<path d="M0 0 C0 1.32 0 2.64 0 4 C-1.7015625 4.2165625 -1.7015625 4.2165625 -3.4375 4.4375 C-6.80777201 4.61171478 -6.80777201 4.61171478 -8 6 C-8.04063832 7.66617115 -8.042721 9.33388095 -8 11 C-6.02 11 -4.04 11 -2 11 C-2 12.65 -2 14.3 -2 16 C-4.6875 16.75 -4.6875 16.75 -8 17 C-11.09221058 15.21338944 -12.60931341 13.92788066 -14 10.625 C-14 6.99839234 -12.97205102 5.02381156 -11 2 C-7.15007852 -1.22560989 -4.78741113 -1.22468657 0 0 Z " fill="#27272A" transform="translate(144,58)"/>
<path d="M0 0 C6.3358691 4.34634498 11.31317885 9.34092019 13 17 C13.53581357 23.93405793 13.58305103 31.19288058 12 38 C11.01 38.495 11.01 38.495 10 39 C10.02094727 38.38068604 10.04189453 37.76137207 10.06347656 37.12329102 C10.1475182 34.26986458 10.19893445 31.41669964 10.25 28.5625 C10.28351563 27.58861328 10.31703125 26.61472656 10.3515625 25.61132812 C10.4504075 18.22266466 9.44355601 11.70235086 4.24902344 6.11743164 C-2.19082447 0.18005594 -7.9584011 -0.31125046 -16.52734375 -0.203125 C-20.63010741 0.03685668 -24.09732227 0.75114313 -28 2 C-28 1.34 -28 0.68 -28 0 C-18.32053152 -3.39488665 -9.46694771 -4.85568058 0 0 Z " fill="#2B2A2D" transform="translate(169,87)"/>
<path d="M0 0 C0.33 0 0.66 0 1 0 C0.45390249 9.45610955 -0.56680175 18.63643809 -2 28 C-6.95 28 -11.9 28 -17 28 C-17.08393395 22.54429301 -17.115347 17.3536656 -16 12 C-15.34 11.67 -14.68 11.34 -14 11 C-13.61781233 12.65614657 -13.28604898 14.32457024 -13 16 C-13.33 16.33 -13.66 16.66 -14 17 C-14.39148761 18.51165654 -14.73972457 20.03469632 -15.0625 21.5625 C-15.371875 23.026875 -15.68125 24.49125 -16 26 C-12.04 26 -8.08 26 -4 26 C-3.79503906 24.29070312 -3.59007812 22.58140625 -3.37890625 20.8203125 C-3.1069649 18.58851801 -2.83481891 16.35674845 -2.5625 14.125 C-2.36043945 12.43310547 -2.36043945 12.43310547 -2.15429688 10.70703125 C-2.02216797 9.63066406 -1.89003906 8.55429688 -1.75390625 7.4453125 C-1.63345947 6.45031738 -1.5130127 5.45532227 -1.38891602 4.43017578 C-1 2 -1 2 0 0 Z " fill="#29282A" transform="translate(233,117)"/>
<path d="M0 0 C1.33333333 2.66666667 2.66666667 5.33333333 4 8 C2.68 8.33 1.36 8.66 0 9 C0 12.63 0 16.26 0 20 C3.3 20 6.6 20 10 20 C10 17.36 10 14.72 10 12 C10.66 12 11.32 12 12 12 C11.67 15.3 11.34 18.6 11 22 C6.38 22 1.76 22 -3 22 C-1.50561798 1.50561798 -1.50561798 1.50561798 0 0 Z " fill="#2F2D31" transform="translate(187,122)"/>
<path d="M0 0 C0.99 0.33 1.98 0.66 3 1 C-0.75 4 -0.75 4 -3 4 C-2.34 5.32 -1.68 6.64 -1 8 C-1.99 9.485 -1.99 9.485 -3 11 C-2.67 11.66 -2.34 12.32 -2 13 C-2.99 13.33 -3.98 13.66 -5 14 C-5 13.34 -5 12.68 -5 12 C-5.78375 12.495 -6.5675 12.99 -7.375 13.5 C-10 15 -10 15 -12 15 C-12 15.66 -12 16.32 -12 17 C-12.66 16.67 -13.32 16.34 -14 16 C-9.94321554 9.76069016 -6.10852358 4.34644947 0 0 Z " fill="#312F34" transform="translate(137,89)"/>
<path d="M0 0 C0.86625 -0.01675781 1.7325 -0.03351562 2.625 -0.05078125 C5.44547394 0.38063993 6.27170154 1.09506047 8 3.3125 C8.875 5.125 8.875 5.125 9 7.3125 C7.5625 10.5625 7.5625 10.5625 6 13.3125 C5.67 12.6525 5.34 11.9925 5 11.3125 C4.34 10.9825 3.68 10.6525 3 10.3125 C3.33 8.9925 3.66 7.6725 4 6.3125 C4.66 6.3125 5.32 6.3125 6 6.3125 C6 5.3225 6 4.3325 6 3.3125 C-0.93 2.8175 -0.93 2.8175 -8 2.3125 C-4.78169935 0.16696623 -3.73213493 0.01666132 0 0 Z " fill="#D05B22" transform="translate(303,18.6875)"/>
<path d="M0 0 C0.66 0.33 1.32 0.66 2 1 C2.20970151 6.13768696 1.40341225 10.08805711 0 15 C-0.0777346 17.33203812 -0.08967728 19.66839059 0 22 C0 22.99 0 23.98 0 25 C2.97 25 5.94 25 9 25 C9 25.66 9 26.32 9 27 C2.565 27.495 2.565 27.495 -4 28 C-3.52466252 23.89535626 -3.04490566 19.7913137 -2.5625 15.6875 C-2.42779297 14.52025391 -2.29308594 13.35300781 -2.15429688 12.15039062 C-2.02216797 11.03212891 -1.89003906 9.91386719 -1.75390625 8.76171875 C-1.63345947 7.73006592 -1.5130127 6.69841309 -1.38891602 5.63549805 C-1 3 -1 3 0 0 Z " fill="#2E2D30" transform="translate(53,134)"/>
<path d="M0 0 C0.66 0 1.32 0 2 0 C2.61875 0.94875 3.2375 1.8975 3.875 2.875 C6.0011596 6.00170529 6.63383062 6.72255083 10 8 C16.08197003 8.77279157 20.68005584 8.19196649 26 5 C26.66 5 27.32 5 28 5 C28 4.34 28 3.68 28 3 C28.66 3 29.32 3 30 3 C29.67 4.98 29.34 6.96 29 9 C28.01 8.67 27.02 8.34 26 8 C24.31754564 8.75875393 22.63513765 9.51761114 20.953125 10.27734375 C16.67009591 11.86206452 12.9161367 11.86535206 8.8203125 10.015625 C5.21591714 7.87675303 2.06740731 5.74717575 0 2 C0 1.34 0 0.68 0 0 Z " fill="#2B292C" transform="translate(134,122)"/>
<path d="M0 0 C0.66 0 1.32 0 2 0 C1.73891343 3.67582404 1.38255963 7.33498429 1 11 C0.94714844 11.8559375 0.89429688 12.711875 0.83984375 13.59375 C0.54459862 16.08877924 0.23597504 17.80523549 -1 20 C-4.14533427 22.06958626 -7.30464507 23.29327086 -11 24 C-11.99 23.67 -12.98 23.34 -14 23 C-13.01 21.68 -12.02 20.36 -11 19 C-11 19.66 -11 20.32 -11 21 C-9.68 21 -8.36 21 -7 21 C-7 19.68 -7 18.36 -7 17 C-6.01 17 -5.02 17 -4 17 C-4 17.66 -4 18.32 -4 19 C-3.34 19 -2.68 19 -2 19 C-2.020625 17.700625 -2.04125 16.40125 -2.0625 15.0625 C-2.08399454 13.70834367 -2.07148199 12.35243917 -2 11 C-1.67 10.67 -1.34 10.34 -1 10 C-0.76712992 8.31816052 -0.58735834 6.6287584 -0.4375 4.9375 C-0.35371094 4.01839844 -0.26992187 3.09929688 -0.18359375 2.15234375 C-0.12300781 1.44207031 -0.06242188 0.73179688 0 0 Z " fill="#CB5C2A" transform="translate(245,27)"/>
<path d="M0 0 C0.66 0.33 1.32 0.66 2 1 C1.85879286 2.93784265 1.71187127 4.87526955 1.5625 6.8125 C1.48128906 7.89144531 1.40007812 8.97039062 1.31640625 10.08203125 C1 13 1 13 0 16 C-4.29 16 -8.58 16 -13 16 C-13 13.36 -13 10.72 -13 8 C-12.34 7.67 -11.68 7.34 -11 7 C-11 8.98 -11 10.96 -11 13 C-7.7 13.33 -4.4 13.66 -1 14 C-1.01160156 13.24074219 -1.02320313 12.48148438 -1.03515625 11.69921875 C-1.04417969 10.70535156 -1.05320313 9.71148437 -1.0625 8.6875 C-1.07410156 7.70136719 -1.08570313 6.71523437 -1.09765625 5.69921875 C-1 3 -1 3 0 0 Z " fill="#2C2A2D" transform="translate(178,128)"/>
<path d="M0 0 C0.70189453 0.00451172 1.40378906 0.00902344 2.12695312 0.01367188 C3.85550538 0.02543073 5.58401365 0.04336546 7.3125 0.0625 C7.3125 1.3825 7.3125 2.7025 7.3125 4.0625 C6.6525 4.0625 5.9925 4.0625 5.3125 4.0625 C5.3125 3.4025 5.3125 2.7425 5.3125 2.0625 C-5.55990157 2.04820022 -5.55990157 2.04820022 -14.6875 7.0625 C-15.863125 7.92875 -15.863125 7.92875 -17.0625 8.8125 C-17.866875 9.43125 -17.866875 9.43125 -18.6875 10.0625 C-17.12739422 5.85021439 -14.2029607 3.71703155 -10.6875 1.0625 C-7.06882441 -0.1437252 -3.76243749 -0.04566918 0 0 Z " fill="#2D2C2F" transform="translate(210.6875,85.9375)"/>
<path d="M0 0 C0.66 0.33 1.32 0.66 2 1 C1.67 6.94 1.34 12.88 1 19 C1.66 19.33 2.32 19.66 3 20 C1.68 20.99 0.36 21.98 -1 23 C-3.14287839 20.85712161 -2.1852037 16.15202892 -2.1875 13.1875 C-2.19974609 12.36701172 -2.21199219 11.54652344 -2.22460938 10.70117188 C-2.22654297 9.90646484 -2.22847656 9.11175781 -2.23046875 8.29296875 C-2.23457764 7.5661792 -2.23868652 6.83938965 -2.24291992 6.09057617 C-1.965442 3.70259282 -1.18192164 2.07663368 0 0 Z " fill="#323134" transform="translate(237,79)"/>
<path d="M0 0 C2.97 0.33 5.94 0.66 9 1 C9.33 1.99 9.66 2.98 10 4 C5.545 3.01 5.545 3.01 1 2 C1.33 2.66 1.66 3.32 2 4 C3.32 3.67 4.64 3.34 6 3 C5.01 4.32 4.02 5.64 3 7 C4.32 6.67 5.64 6.34 7 6 C6.67 6.99 6.34 7.98 6 9 C5.236875 8.79375 4.47375 8.5875 3.6875 8.375 C0.78114056 7.66608797 0.78114056 7.66608797 -2 10 C-1.34 6.7 -0.68 3.4 0 0 Z " fill="#28272C" transform="translate(95,57)"/>
<path d="M0 0 C0.99 0 1.98 0 3 0 C3.33 0.99 3.66 1.98 4 3 C4.66 2.01 5.32 1.02 6 0 C6.66 0 7.32 0 8 0 C8 2.64 8 5.28 8 8 C5.36 8 2.72 8 0 8 C0 5.36 0 2.72 0 0 Z " fill="#363637" transform="translate(282,137)"/>
<path d="M0 0 C0.66 0.33 1.32 0.66 2 1 C1.484375 1.556875 0.96875 2.11375 0.4375 2.6875 C-1.29476698 4.94085007 -1.29476698 4.94085007 -0.6875 7.75 C-0.460625 8.4925 -0.23375 9.235 0 10 C1.84725052 10.69159401 1.84725052 10.69159401 4 11 C4.99 10.34 5.98 9.68 7 9 C7 10.65 7 12.3 7 14 C4.3125 14.75 4.3125 14.75 1 15 C-1.875 13.0625 -1.875 13.0625 -4 11 C-3.71758359 9.53984709 -3.42373386 8.08190207 -3.125 6.625 C-2.96257812 5.81289062 -2.80015625 5.00078125 -2.6328125 4.1640625 C-2 2 -2 2 0 0 Z " fill="#323235" transform="translate(135,60)"/>
<path d="M0 0 C0.33 0 0.66 0 1 0 C0.88970353 3.56311404 0.75917283 7.12521145 0.625 10.6875 C0.5940625 11.69490234 0.563125 12.70230469 0.53125 13.74023438 C0.49257812 14.71669922 0.45390625 15.69316406 0.4140625 16.69921875 C0.3826416 17.59471436 0.3512207 18.49020996 0.31884766 19.4128418 C-0.02661113 22.21592507 -0.84681468 24.43264531 -2 27 C-2.66 27 -3.32 27 -4 27 C-3.52785122 22.68670099 -3.04611289 18.37452747 -2.5625 14.0625 C-2.42779297 12.83080078 -2.29308594 11.59910156 -2.15429688 10.33007812 C-2.02216797 9.16025391 -1.89003906 7.99042969 -1.75390625 6.78515625 C-1.63345947 5.70113525 -1.5130127 4.61711426 -1.38891602 3.50024414 C-1 1 -1 1 0 0 Z " fill="#2E2D30" transform="translate(223,90)"/>
<path d="M0 0 C1.15507777 3.93421227 0.83585767 6.97268577 0 11 C-0.99 11.495 -0.99 11.495 -2 12 C-2.33 10.35 -2.66 8.7 -3 7 C-3.99 8.485 -3.99 8.485 -5 10 C-5.33 9.34 -5.66 8.68 -6 8 C-6.99 8 -7.98 8 -9 8 C-7.82255415 4.46766245 -7.04394359 4.13691925 -3.9375 2.3125 C-3.20402344 1.87550781 -2.47054687 1.43851562 -1.71484375 0.98828125 C-1.14894531 0.66214844 -0.58304688 0.33601563 0 0 Z " fill="#322F32" transform="translate(240,66)"/>
<path d="M0 0 C4.875 4.625 4.875 4.625 6 8 C0.06 8 -5.88 8 -12 8 C-12 7.01 -12 6.02 -12 5 C-7.38 5 -2.76 5 2 5 C1.34 3.35 0.68 1.7 0 0 Z " fill="#262528" transform="translate(267,137)"/>
<path d="M0 0 C0.33 0.66 0.66 1.32 1 2 C0.34 2 -0.32 2 -1 2 C-1 4.31 -1 6.62 -1 9 C-2.98 9.33 -4.96 9.66 -7 10 C-7.33 8.35 -7.66 6.7 -8 5 C-4.04 2.525 -4.04 2.525 0 0 Z " fill="#36353A" transform="translate(8,124)"/>
<path d="M0 0 C1.258125 0.12375 2.51625 0.2475 3.8125 0.375 C4.87404297 0.47941406 4.87404297 0.47941406 5.95703125 0.5859375 C8 1 8 1 11 3 C9.02 3 7.04 3 5 3 C4.07155611 7.33273814 4.07155611 10.66726186 5 15 C4.34 15 3.68 15 3 15 C1.68272247 9.9943454 0.64187918 5.13503344 0 0 Z " fill="#C25728" transform="translate(263,76)"/>
<path d="M0 0 C0.99 0 1.98 0 3 0 C2.25 4.75 2.25 4.75 0 7 C-3.625 7.125 -3.625 7.125 -7 7 C-7.144375 7.598125 -7.28875 8.19625 -7.4375 8.8125 C-7.8872439 10.56150404 -8.42892341 12.28677023 -9 14 C-9.76173392 9.6835078 -10.16063604 6.25566547 -9 2 C-8.67 2.99 -8.34 3.98 -8 5 C-5.36 5 -2.72 5 0 5 C0 3.35 0 1.7 0 0 Z " fill="#363538" transform="translate(163,59)"/>
<path d="M0 0 C0.66 0 1.32 0 2 0 C3.24549452 1.43067595 4.42106422 2.92250342 5.5625 4.4375 C9.66552611 9.71497028 14.17898455 14.37986019 19 19 C15.53632385 19 15.30405372 18.68699142 12.96875 16.3671875 C12.40542969 15.80773437 11.84210937 15.24828125 11.26171875 14.671875 C10.68035156 14.07890625 10.09898438 13.4859375 9.5 12.875 C8.62794922 12.02035156 8.62794922 12.02035156 7.73828125 11.1484375 C4.31058728 7.69721245 1.9320149 4.54023502 0 0 Z " fill="#272629" transform="translate(27,86)"/>
<path d="M0 0 C0.33 0.99 0.66 1.98 1 3 C4.3 2.67 7.6 2.34 11 2 C7.90203725 4.0653085 6.04666313 4.5483273 2.4375 5.1875 C1.46683594 5.36667969 0.49617188 5.54585937 -0.50390625 5.73046875 C-3 6 -3 6 -5 5 C-5 4.34 -5 3.68 -5 3 C-4.34 3 -3.68 3 -3 3 C-3 2.34 -3 1.68 -3 1 C-2.01 0.67 -1.02 0.34 0 0 Z " fill="#D25A24" transform="translate(275,33)"/>
<path d="M0 0 C0.66 1.32 1.32 2.64 2 4 C3.32 4 4.64 4 6 4 C5.814375 5.051875 5.62875 6.10375 5.4375 7.1875 C5.04920669 10.57119882 5.11752515 12.76425888 6 16 C3.91656096 13.49987316 2.28566695 10.85804682 0.75 8 C0.39421875 7.34 0.0384375 6.68 -0.328125 6 C-1.13384316 3.60158317 -0.81998065 2.35481623 0 0 Z " fill="#CA5B29" transform="translate(273,55)"/>
<path d="M0 0 C0.66 0.33 1.32 0.66 2 1 C2.33 0.67 2.66 0.34 3 0 C3.33 0.99 3.66 1.98 4 3 C3.360625 3.268125 2.72125 3.53625 2.0625 3.8125 C-0.33131686 4.88667752 -0.33131686 4.88667752 -1 8 C-0.34 8.33 0.32 8.66 1 9 C0.67 9.66 0.34 10.32 0 11 C-1.65 11 -3.3 11 -5 11 C-3.55049545 7.2089881 -1.84827434 3.6125362 0 0 Z " fill="#2A2A2C" transform="translate(74,63)"/>
<path d="M0 0 C0.33 0 0.66 0 1 0 C1.61593211 8.96523405 1.61593211 8.96523405 -0.5625 12.625 C-3.82242096 14.46392977 -6.32112194 14.28299062 -10 14 C-6.81237635 11.87491756 -4.73487777 11.4979837 -1 11 C-0.67 7.37 -0.34 3.74 0 0 Z " fill="#C75C2B" transform="translate(234,27)"/>
<path d="M0 0 C2.97 0.33 5.94 0.66 9 1 C5.6325319 2.68373405 2.84984234 3.68218415 -0.75 4.625 C-1.73484375 4.88539062 -2.7196875 5.14578125 -3.734375 5.4140625 C-4.85585937 5.70410156 -4.85585937 5.70410156 -6 6 C-6 5.34 -6 4.68 -6 4 C-5.34 4 -4.68 4 -4 4 C-3.67 3.34 -3.34 2.68 -3 2 C-2.01 2.33 -1.02 2.66 0 3 C0 2.01 0 1.02 0 0 Z " fill="#CD5822" transform="translate(222,50)"/>
<path d="M0 0 C0.66 0.66 1.32 1.32 2 2 C1.21625 2.61875 0.4325 3.2375 -0.375 3.875 C-2.96837647 5.89858661 -2.96837647 5.89858661 -5 8 C-6.32 7.67 -7.64 7.34 -9 7 C-6.03 4.69 -3.06 2.38 0 0 Z " fill="#2D2D2F" transform="translate(27,66)"/>
<path d="M0 0 C5.625 -0.25 5.625 -0.25 9 2 C8.67 3.32 8.34 4.64 8 6 C7.01 6 6.02 6 5 6 C5 5.34 5 4.68 5 4 C4.01 3.34 3.02 2.68 2 2 C1.01 2.495 1.01 2.495 0 3 C0 2.01 0 1.02 0 0 Z " fill="#363538" transform="translate(96,59)"/>
<path d="M0 0 C0 0.66 0 1.32 0 2 C-2.2727675 3.49524178 -4.5679943 4.78399715 -7 6 C-9.625 5.0625 -9.625 5.0625 -12 4 C-8.14070855 1.42713903 -4.66785662 0 0 0 Z " fill="#D2571F" transform="translate(224,41)"/>
<path d="M0 0 C0.33 0 0.66 0 1 0 C1.07347656 1.06541016 1.07347656 1.06541016 1.1484375 2.15234375 C1.22320312 3.07144531 1.29796875 3.99054688 1.375 4.9375 C1.44460937 5.85402344 1.51421875 6.77054687 1.5859375 7.71484375 C1.72257813 8.46894531 1.85921875 9.22304687 2 10 C2.66 10.33 3.32 10.66 4 11 C2.68 11.99 1.36 12.98 0 14 C-1 13 -1 13 -1.125 9.25 C-1.09051205 6.05411684 -0.77827069 3.11308275 0 0 Z " fill="#2B292D" transform="translate(236,88)"/>
<path d="M0 0 C1.71056541 2.58430745 2.05220752 3.68321539 1.5390625 6.796875 C1.23742187 7.77140625 0.93578125 8.7459375 0.625 9.75 C0.32851562 10.73484375 0.03203125 11.7196875 -0.2734375 12.734375 C-0.51320312 13.48203125 -0.75296875 14.2296875 -1 15 C-1.33 15 -1.66 15 -2 15 C-1.85973717 12.68715544 -1.71264442 10.37472409 -1.5625 8.0625 C-1.48128906 6.77472656 -1.40007812 5.48695313 -1.31640625 4.16015625 C-1 1 -1 1 0 0 Z " fill="#2C2A2D" transform="translate(218,128)"/>
<path d="M0 0 C1.98 0 3.96 0 6 0 C6 0.66 6 1.32 6 2 C5.34 2 4.68 2 4 2 C4 3.98 4 5.96 4 8 C3.34 8 2.68 8 2 8 C2 6.02 2 4.04 2 2 C1.34 2 0.68 2 0 2 C0 1.34 0 0.68 0 0 Z " fill="#2D2D2E" transform="translate(275,137)"/>
<path d="M0 0 C2.97 0 5.94 0 9 0 C9 0.66 9 1.32 9 2 C7.88625 2.12375 6.7725 2.2475 5.625 2.375 C1.96896323 2.6465813 1.96896323 2.6465813 0 5 C-0.33 4.34 -0.66 3.68 -1 3 C-0.67 2.01 -0.34 1.02 0 0 Z " fill="#272629" transform="translate(177,57)"/>
<path d="M0 0 C2.97069541 2.54631035 4.4775751 5.42230149 6 9 C5.67 9.66 5.34 10.32 5 11 C4.34 10.67 3.68 10.34 3 10 C3 9.01 3 8.02 3 7 C2.34 7 1.68 7 1 7 C0.67 4.69 0.34 2.38 0 0 Z " fill="#C85627" transform="translate(288,61)"/>
<path d="M0 0 C0.66 0 1.32 0 2 0 C2 2.64 2 5.28 2 8 C1.34 8 0.68 8 0 8 C-0.38063221 5.6739143 -0.71269945 3.33944736 -1 1 C-0.67 0.67 -0.34 0.34 0 0 Z " fill="#2B2A32" transform="translate(288,137)"/>
<path d="M0 0 C0.33 0 0.66 0 1 0 C1.66 3.3 2.32 6.6 3 10 C1.68 10 0.36 10 -1 10 C-0.67 6.7 -0.34 3.4 0 0 Z " fill="#2F2F30" transform="translate(152,64)"/>
<path d="M0 0 C1.32 0 2.64 0 4 0 C3.67 2.97 3.34 5.94 3 9 C2.34 9 1.68 9 1 9 C1.33 6.69 1.66 4.38 2 2 C1.34 2 0.68 2 0 2 C0 1.34 0 0.68 0 0 Z " fill="#232325" transform="translate(164,57)"/>
<path d="M0 0 C1.65 0.33 3.3 0.66 5 1 C5.33 2.98 5.66 4.96 6 7 C5.34 7 4.68 7 4 7 C3.67 5.35 3.34 3.7 3 2 C1.68 2.33 0.36 2.66 -1 3 C-0.67 2.01 -0.34 1.02 0 0 Z " fill="#28262B" transform="translate(117,57)"/>
<path d="M0 0 C0.99 0.66 1.98 1.32 3 2 C2.34 3.32 1.68 4.64 1 6 C0.01 6 -0.98 6 -2 6 C-1.49396008 3.83125748 -1.00016187 2.00032373 0 0 Z " fill="#D25827" transform="translate(288,50)"/>
<path d="M0 0 C1 3 1 3 0.1875 5.125 C-1 7 -1 7 -3 8 C-3.33 6.35 -3.66 4.7 -4 3 C-2.68 2.01 -1.36 1.02 0 0 Z " fill="#2A2A2E" transform="translate(4,126)"/>
<path d="M0 0 C0.66 0.33 1.32 0.66 2 1 C2.25 3.8125 2.25 3.8125 2 7 C0.68 7.99 -0.64 8.98 -2 10 C-1.34 6.7 -0.68 3.4 0 0 Z " fill="#352F31" transform="translate(260,83)"/>
<path d="M0 0 C2.00720923 0.28674418 4.0085944 0.61866701 6 1 C6 1.66 6 2.32 6 3 C3.36 3.66 0.72 4.32 -2 5 C-1 1 -1 1 0 0 Z " fill="#2C2B2F" transform="translate(156,65)"/>
<path d="M0 0 C1.32 1.32 2.64 2.64 4 4 C3.01 5.98 2.02 7.96 1 10 C-0.60725635 6.78548731 -0.05748185 3.56387464 0 0 Z " fill="#2E2C2F" transform="translate(34,118)"/>
<path d="M0 0 C2.4375 1.25 2.4375 1.25 3.4375 4.25 C-2.3125 2.5 -2.3125 2.5 -4.5625 0.25 C-2.5625 -0.75 -2.5625 -0.75 0 0 Z " fill="#CD5622" transform="translate(209.5625,66.75)"/>
<path d="M0 0 C2.97 0.495 2.97 0.495 6 1 C6 1.66 6 2.32 6 3 C3.69 3 1.38 3 -1 3 C-0.67 2.01 -0.34 1.02 0 0 Z " fill="#2F2F31" transform="translate(138,57)"/>
</svg>
