<?xml version="1.0" encoding="UTF-8"?>
<svg version="1.1" xmlns="http://www.w3.org/2000/svg" width="301" height="167">
<path d="M0 0 C1.15371094 0.268125 2.30742187 0.53625 3.49609375 0.8125 C13.32190311 3.35092222 23.4204353 6.88520354 30 15 C31.16226261 18.48678784 31.13240097 21.6000412 31.11352539 25.2253418 C31.11367142 25.95729767 31.11381744 26.68925354 31.1139679 27.44338989 C31.1132714 29.86202969 31.10549128 32.28059241 31.09765625 34.69921875 C31.09579114 36.37644916 31.09436767 38.05368011 31.09336853 39.73091125 C31.0895507 44.14500432 31.07972666 48.55906447 31.06866455 52.97314453 C31.05843467 57.47753453 31.05386753 61.98192985 31.04882812 66.48632812 C31.03810375 75.32423321 31.02103611 84.16211387 31 93 C30.31664581 93.13055283 29.63329163 93.26110565 28.92922974 93.39561462 C28.03106537 93.57048904 27.132901 93.74536346 26.20751953 93.92553711 C25.31791534 94.09733994 24.42831116 94.26914276 23.51174927 94.44615173 C12.76161492 96.81658868 5.46013538 103.36112842 -0.52734375 112.2734375 C-1.01332031 112.84320313 -1.49929687 113.41296875 -2 114 C-4.33333333 114 -6.66666667 114 -9 114 C-16.88852478 115.97213119 -23.39472688 119.0455838 -28.2421875 125.70703125 C-31.66137449 131.63445396 -32.22429272 138.30442133 -33 145 C-36.93231378 146.31077126 -40.0950032 145.49425358 -44.0625 144.75 C-44.82892822 144.60868652 -45.59535645 144.46737305 -46.38500977 144.32177734 C-59.47330841 141.83495911 -72.09637392 138.55331273 -80 127 C-81.07578692 123.77263925 -81.12689579 121.44619456 -81.12939453 118.05200195 C-81.13248123 116.81862595 -81.13556793 115.58524994 -81.13874817 114.3144989 C-81.13693636 112.95575945 -81.13495276 111.59702022 -81.1328125 110.23828125 C-81.13403928 108.82562731 -81.13560747 107.41297364 -81.13749695 106.00032043 C-81.14138125 101.43769332 -81.13392166 96.87511747 -81.125 92.3125 C-81.12372982 91.54237328 -81.12245964 90.77224655 -81.12115097 89.97878265 C-81.10462953 80.02349909 -81.06952881 70.06838978 -81.01959229 60.11322021 C-81.00114643 56.3966168 -80.98925991 52.68001147 -80.97802734 48.96337891 C-80.96036103 44.18185817 -80.91713369 39.40146551 -80.84539795 34.62045288 C-80.82363559 32.96968282 -80.81003674 31.31878299 -80.80499268 29.6678772 C-80.79591207 27.42592189 -80.75608282 25.18669819 -80.70703125 22.9453125 C-80.6913208 21.73375488 -80.67561035 20.52219727 -80.65942383 19.27392578 C-79.58931724 13.96103078 -76.59887441 11.11283418 -72.16015625 8.0234375 C-50.82179695 -3.33190629 -23.5541054 -5.57943816 0 0 Z M-64 17 C-63.09779298 20.6088281 -62.15425424 21.885986 -59.125 24.125 C-51.1694984 28.21025758 -41.84754608 29.58050428 -33 30 C-31.9378125 30.05285156 -30.875625 30.10570313 -29.78125 30.16015625 C-17.17219315 30.47538267 3.08123477 30.97174745 13 22 C14.29628737 18.84534204 14.29628737 18.84534204 14 16 C-2.47979205 2.14199305 -48.48592794 0.55134528 -64 17 Z M-62 67 C-62.40404349 70.08083161 -62.65343982 72.04531559 -62 75 C-58.75046513 78.40067602 -55.09231465 80.71311828 -51 83 C-51.33 83.66 -51.66 84.32 -52 85 C-55.3 84.67 -58.6 84.34 -62 84 C-62 86.31 -62 88.62 -62 91 C-55.10732694 92.02627325 -49.1993294 92.79955293 -43.125 88.75 C-41.38561866 86.0442957 -41 84.22770511 -41 81 C-43.4479036 77.36311466 -45.75365661 74.4154478 -50 73 C-50.99 73 -51.98 73 -53 73 C-53 71.68 -53 70.36 -53 69 C-49.7 69 -46.4 69 -43 69 C-43 67.02 -43 65.04 -43 63 C-50.36090339 60.54636554 -56.45133812 61.45133812 -62 67 Z M-36.875 68.25 C-39.02069192 73.4950247 -39.63391808 77.8833011 -37.875 83.25 C-36.25283101 86.950573 -34.54696584 88.91808527 -31 91 C-28.67677914 91.78514396 -26.36445577 92.48672726 -23.98828125 93.09375 C-21.43747428 94.25639679 -21.02484341 95.45556118 -20 98 C-18.96593327 99.25949049 -18.96593327 99.25949049 -16.71484375 99.09765625 C-15.79832031 99.08605469 -14.88179687 99.07445312 -13.9375 99.0625 C-13.01839844 99.05347656 -12.09929687 99.04445312 -11.15234375 99.03515625 C-10.44207031 99.02355469 -9.73179687 99.01195312 -9 99 C-9.763125 98.236875 -10.52625 97.47375 -11.3125 96.6875 C-13.20833333 94.79166667 -15.10416667 92.89583333 -17 91 C-16.57847656 90.51789063 -16.15695313 90.03578125 -15.72265625 89.5390625 C-14.90087891 88.59160156 -14.90087891 88.59160156 -14.0625 87.625 C-13.24458984 86.68527344 -13.24458984 86.68527344 -12.41015625 85.7265625 C-8.89059853 81.41729793 -9.4667385 76.3175936 -10 71 C-11.78950635 67.14567864 -13.26334285 65.50226624 -16.75 63.125 C-24.74369211 60.35795273 -31.34974016 61.61968819 -36.875 68.25 Z M-5 63 C-5.02912348 66.72915017 -5.04684037 70.4582709 -5.0625 74.1875 C-5.07087891 75.24259766 -5.07925781 76.29769531 -5.08789062 77.38476562 C-5.09111328 78.40634766 -5.09433594 79.42792969 -5.09765625 80.48046875 C-5.10289307 81.41785889 -5.10812988 82.35524902 -5.11352539 83.32104492 C-5.05166196 86.41085968 -5.05166196 86.41085968 -4 91 C1.94 91 7.88 91 14 91 C14 89.02 14 87.04 14 85 C10.7 85 7.4 85 4 85 C4 77.74 4 70.48 4 63 C0.52176885 61.84058962 -1.45895578 62.29179116 -5 63 Z " fill="#0178D4" transform="translate(151,2)"/>
<path d="M0 0 C0.63035156 0.33902344 1.26070313 0.67804688 1.91015625 1.02734375 C9.08705895 5.45967267 14.21819015 13.48362026 16.578125 21.484375 C17.43985638 26.62284731 17.2165255 31.81140738 17 37 C17.93199219 37.11601562 18.86398438 37.23203125 19.82421875 37.3515625 C23.91056809 38.18592165 25.36660165 39.83992198 28 43 C29.44932983 47.34798948 29.51669065 51.45595345 29 56 C26.97423357 59.97918406 24.85779873 62.75577977 21 65 C18.31519362 65.3002504 15.86173192 65.43060125 13.17724609 65.41992188 C12.39293213 65.42839142 11.60861816 65.43686096 10.80053711 65.44558716 C8.20800533 65.4689798 5.61606686 65.46997829 3.0234375 65.46875 C1.21464807 65.47585375 -0.5941391 65.48355307 -2.40292358 65.49182129 C-6.19755303 65.50527385 -9.99197447 65.50683298 -13.78662109 65.50097656 C-18.62865484 65.4951008 -23.46967884 65.52557969 -28.31151772 65.56609344 C-32.05041803 65.59206796 -35.78907901 65.59483866 -39.5280571 65.59120178 C-41.31169533 65.59288608 -43.09534545 65.60246166 -44.87889481 65.62034607 C-64.72294627 65.79733005 -64.72294627 65.79733005 -72.88516235 58.25891113 C-77.52829854 53.3717837 -80.10947023 47.95972757 -80.4375 41.1875 C-80.15003735 33.62148308 -77.851134 27.32475505 -72.3125 22.0625 C-66.74617509 17.69190414 -61.37117493 15.67623856 -54.3125 16.375 C-52.07117996 16.56190415 -52.07117996 16.56190415 -50 16 C-48.1221144 13.97242786 -46.88708278 11.84940838 -45.515625 9.453125 C-41.95321039 3.68715496 -36.0873691 -0.82335979 -29.8125 -3.33984375 C-19.85026414 -5.67820189 -8.95232939 -5.12770474 0 0 Z M-40 9 C-42.32244367 12.18591631 -44.17050622 15.51496431 -46 19 C-46.66 19.99 -47.32 20.98 -48 22 C-48.99 21.67 -49.98 21.34 -51 21 C-57.49162389 20.21895649 -62.66316151 21.13191328 -68 25 C-72.88475717 29.76794776 -75.17097394 33.15705199 -75.4375 40.0625 C-75.38592918 45.89000234 -74.33978346 49.3766201 -70.99609375 54.09765625 C-65.76072027 59.08714134 -60.96475171 60.59755071 -53.84912109 60.53344727 C-53.06609116 60.54206284 -52.28306122 60.55067841 -51.4763031 60.55955505 C-48.90833754 60.5821135 -46.34147184 60.5754974 -43.7734375 60.56640625 C-41.97937701 60.57164492 -40.18531929 60.57792229 -38.39126587 60.58518982 C-34.64059437 60.59557418 -30.89030278 60.59105878 -27.13964844 60.57641602 C-22.33640284 60.55919716 -17.53435004 60.58277144 -12.73123741 60.61790562 C-9.03026423 60.63987216 -5.32957711 60.63844056 -1.62855911 60.6301403 C0.14245287 60.62932103 1.9134859 60.63617999 3.6844368 60.65091133 C6.1596742 60.66835222 8.63275902 60.65382306 11.10791016 60.63110352 C11.83634628 60.64279572 12.56478241 60.65448792 13.31529236 60.66653442 C17.19814562 60.59409862 18.86439617 60.10882266 21.93075562 57.64805603 C24.3325915 54.57437558 25 52.89255832 25 49 C23.38377662 45.34223129 21.50210191 42.94561217 18 41 C14.34725531 40.27518916 14.34725531 40.27518916 11 40 C10.67 38.35 10.34 36.7 10 35 C10.66 35 11.32 35 12 35 C12.62641649 24.71632934 11.29456764 17.8844876 4.875 9.75 C-0.69881307 3.7575529 -7.83513233 0.47105006 -16 0 C-16.94875 -0.0825 -17.8975 -0.165 -18.875 -0.25 C-26.76073516 0.38085881 -34.13817747 3.68910064 -40 9 Z " fill="#1971BC" transform="translate(201,102)"/>
<path d="M0 0 C1.15371094 0.268125 2.30742187 0.53625 3.49609375 0.8125 C13.32190311 3.35092222 23.4204353 6.88520354 30 15 C31.16226261 18.48678784 31.13240097 21.6000412 31.11352539 25.2253418 C31.11367142 25.95729767 31.11381744 26.68925354 31.1139679 27.44338989 C31.1132714 29.86202969 31.10549128 32.28059241 31.09765625 34.69921875 C31.09579114 36.37644916 31.09436767 38.05368011 31.09336853 39.73091125 C31.0895507 44.14500432 31.07972666 48.55906447 31.06866455 52.97314453 C31.05843467 57.47753453 31.05386753 61.98192985 31.04882812 66.48632812 C31.03810375 75.32423321 31.02103611 84.16211387 31 93 C29.98366989 93.19032303 29.98366989 93.19032303 28.94680786 93.38449097 C27.60632889 93.64251999 27.60632889 93.64251999 26.23876953 93.90576172 C24.91306442 94.15795975 24.91306442 94.15795975 23.56057739 94.41525269 C20.02371685 95.2229493 17.13583126 96.52927407 13.875 98.125 C12.75867188 98.66382812 11.64234375 99.20265625 10.4921875 99.7578125 C9.66976562 100.16773437 8.84734375 100.57765625 8 101 C8 99.68 8 98.36 8 97 C8.7425 96.896875 9.485 96.79375 10.25 96.6875 C13.00708425 96.19194315 13.00708425 96.19194315 14.875 94.5625 C19.47659135 91.17897695 24.47103765 90.89876548 30 91 C29.91567792 81.66403396 29.82082653 72.32825197 29.71247292 62.99253368 C29.66249388 58.65773415 29.61616405 54.32295917 29.578125 49.98803711 C29.54129239 45.80581033 29.49493811 41.62378825 29.44193649 37.44173622 C29.42338174 35.84495949 29.40827777 34.24813886 29.39665604 32.65129662 C29.37981187 30.41730086 29.35078206 28.183775 29.31884766 25.94995117 C29.30552399 24.67754074 29.29220032 23.40513031 29.2784729 22.09416199 C29.23334632 18.83231115 29.23334632 18.83231115 27 16 C26.01 16 25.02 16 24 16 C23.505 14.02 23.505 14.02 23 12 C19.535 13.485 19.535 13.485 16 15 C16.0825 15.721875 16.165 16.44375 16.25 17.1875 C15.91323484 20.97610806 14.74063515 22.4036088 12 25 C8.75 25.8125 8.75 25.8125 6 26 C6.598125 25.566875 7.19625 25.13375 7.8125 24.6875 C8.534375 24.130625 9.25625 23.57375 10 23 C10.598125 22.54625 11.19625 22.0925 11.8125 21.625 C13.21467508 20.00548286 13.21467508 20.00548286 13.1875 17.5625 C11.5897157 14.11464967 9.71561293 13.35180592 6.31640625 11.84375 C2.60920734 10.49340436 -1.11321467 9.64673034 -5 9 C-6.48306641 8.73509766 -6.48306641 8.73509766 -7.99609375 8.46484375 C-24.51139852 6.17246374 -46.53453869 5.63999563 -61 15 C-62.20546905 17.05005806 -62.20546905 17.05005806 -63 19 C-59.57611908 22.82669043 -56.99275057 24.72278474 -52 26 C-52 26.33 -52 26.66 -52 27 C-58.81059063 27.3095723 -58.81059063 27.3095723 -62 25 C-64.46513442 21.93983313 -65.06116765 20.64837707 -64.6875 16.6875 C-64.460625 15.800625 -64.23375 14.91375 -64 14 C-65.32 14.33 -66.64 14.66 -68 15 C-67.67 13.68 -67.34 12.36 -67 11 C-68.84725052 10.30840599 -68.84725052 10.30840599 -71 10 C-74.57698675 12.38465783 -75.38866678 14.05561369 -77 18 C-77.4644313 21.14418401 -77.4644313 21.14418401 -77.43237305 24.46435547 C-77.45216721 25.72520966 -77.47196136 26.98606384 -77.49235535 28.28512573 C-77.49912353 29.64581146 -77.50557057 31.00649883 -77.51171875 32.3671875 C-77.5285795 33.7711035 -77.54673162 35.17500452 -77.56611633 36.57888794 C-77.61347151 40.25800905 -77.64337399 43.93706946 -77.66955566 47.61639404 C-77.69943476 51.37719711 -77.74593967 55.13779131 -77.79101562 58.8984375 C-77.87688368 66.26552103 -77.94430169 73.63262002 -78 81 C-78.99 81 -79.98 81 -81 81 C-81.0725494 73.41021643 -81.05944354 65.82180488 -81.01245117 58.23187256 C-81.00375818 56.67365355 -80.99690576 55.11542366 -80.99145508 53.55718994 C-80.97266012 48.20913625 -80.92536685 42.86240571 -80.84640503 37.51489258 C-80.82386608 35.71843075 -80.80992075 33.92183982 -80.80471802 32.12524414 C-80.79546265 29.5682787 -80.7547343 27.01353162 -80.70703125 24.45703125 C-80.71095886 23.69227982 -80.71488647 22.92752838 -80.71893311 22.13960266 C-80.56412488 16.45992688 -79.04811816 13.98919413 -75 10 C-54.62838848 -4.17886579 -23.65906496 -5.60430072 0 0 Z " fill="#0F73C3" transform="translate(151,2)"/>
<path d="M0 0 C1.06347656 -0.00257812 2.12695312 -0.00515625 3.22265625 -0.0078125 C5.9375 0.125 5.9375 0.125 7.9375 1.125 C7.9375 2.775 7.9375 4.425 7.9375 6.125 C9.9175 5.795 11.8975 5.465 13.9375 5.125 C13.6075 4.135 13.2775 3.145 12.9375 2.125 C17.50458796 -0.15854398 22.23441676 0.01562539 27.25 0.0625 C28.50425781 0.07152344 29.75851563 0.08054688 31.05078125 0.08984375 C32.00339844 0.10144531 32.95601562 0.11304688 33.9375 0.125 C33.9375 0.785 33.9375 1.445 33.9375 2.125 C35.2575 1.795 36.5775 1.465 37.9375 1.125 C37.9375 2.115 37.9375 3.105 37.9375 4.125 C38.5975 4.455 39.2575 4.785 39.9375 5.125 C40.2675 4.795 40.5975 4.465 40.9375 4.125 C41.4325 5.61 41.4325 5.61 41.9375 7.125 C41.2775 7.125 40.6175 7.125 39.9375 7.125 C40.5975 8.115 41.2575 9.105 41.9375 10.125 C41.9375 11.445 41.9375 12.765 41.9375 14.125 C42.5975 14.125 43.2575 14.125 43.9375 14.125 C43.9375 10.165 43.9375 6.205 43.9375 2.125 C45.92060399 6.09120798 46.17801678 7.51642288 46.1328125 11.765625 C46.12636719 12.83554688 46.11992187 13.90546875 46.11328125 15.0078125 C46.09652344 16.11898437 46.07976562 17.23015625 46.0625 18.375 C46.05347656 19.50164062 46.04445312 20.62828125 46.03515625 21.7890625 C46.01160763 24.56779922 45.97573725 27.34642659 45.9375 30.125 C51.8775 30.125 57.8175 30.125 63.9375 30.125 C63.9375 30.455 63.9375 30.785 63.9375 31.125 C62.98488281 31.18558594 62.03226562 31.24617188 61.05078125 31.30859375 C59.79652344 31.39238281 58.54226562 31.47617188 57.25 31.5625 C56.00863281 31.64371094 54.76726562 31.72492188 53.48828125 31.80859375 C50.55569663 32.06991317 47.80308383 32.47298379 44.9375 33.125 C43.9475 31.475 42.9575 29.825 41.9375 28.125 C40.9475 28.785 39.9575 29.445 38.9375 30.125 C39.4325 31.61 39.4325 31.61 39.9375 33.125 C39.4425 34.115 39.4425 34.115 38.9375 35.125 C35.57029613 33.73167426 33.9515476 32.1460714 31.9375 29.125 C32.72125 28.5475 33.505 27.97 34.3125 27.375 C37.53523128 24.6126589 38.72605163 22.75266071 39.2734375 18.5390625 C39.35660379 12.60098914 39.23222596 8.65187331 34.9375 4.125 C30.92386277 1.67222169 26.53084834 1.54857982 21.9375 2.125 C18.41990658 3.38602406 16.50614221 4.43870768 14.125 7.3125 C11.7437416 12.95232252 11.59427601 18.15511559 12.9375 24.125 C11.9475 23.795 10.9575 23.465 9.9375 23.125 C8.9475 25.6 8.9475 25.6 7.9375 28.125 C7.2775 27.795 6.6175 27.465 5.9375 27.125 C6.288125 26.568125 6.63875 26.01125 7 25.4375 C8.21251877 22.44662038 8.06809495 21.13991986 6.9375 18.125 C4.45540798 15.71185498 2.44371536 14.30907831 -0.8125 13.125 C-3.0625 12.125 -3.0625 12.125 -3.9375 10.0625 C-3.97875 9.423125 -4.02 8.78375 -4.0625 8.125 C-2.16364904 6.22614904 0.50997903 7.00132494 3.02734375 6.9921875 C4.9375 7.125 4.9375 7.125 6.9375 8.125 C6.9375 6.145 6.9375 4.165 6.9375 2.125 C5.04239301 2.04339252 3.14625496 1.98553541 1.25 1.9375 C0.19425781 1.90269531 -0.86148438 1.86789063 -1.94921875 1.83203125 C-5.72533227 2.18737443 -8.36300942 3.42550942 -11.0625 6.125 C-11.54573069 11.66050307 -11.54573069 11.66050307 -9.5625 16.625 C-9.0675 17.12 -8.5725 17.615 -8.0625 18.125 C-9.0525 18.125 -10.0425 18.125 -11.0625 18.125 C-11.0625 17.465 -11.0625 16.805 -11.0625 16.125 C-12.0525 16.125 -13.0425 16.125 -14.0625 16.125 C-14.84566087 7.16215898 -14.84566087 7.16215898 -11.75 3.0625 C-7.7393397 0.17109374 -4.82805269 -0.01173281 0 0 Z " fill="#1470BD" transform="translate(101.0625,62.875)"/>
<path d="M0 0 C14.45619875 1.07945262 31.2590154 4.4097026 42.125 14.6875 C45.34355931 18.65705648 45.13888012 22.35563598 45.11352539 27.2253418 C45.11367142 27.95729767 45.11381744 28.68925354 45.1139679 29.44338989 C45.1132714 31.86202969 45.10549128 34.28059241 45.09765625 36.69921875 C45.09579114 38.37644916 45.09436767 40.05368011 45.09336853 41.73091125 C45.0895507 46.14500432 45.07972666 50.55906447 45.06866455 54.97314453 C45.05843467 59.47753453 45.05386753 63.98192985 45.04882812 68.48632812 C45.03810375 77.32423321 45.02103611 86.16211387 45 95 C43.98366989 95.19032303 43.98366989 95.19032303 42.94680786 95.38449097 C41.60632889 95.64251999 41.60632889 95.64251999 40.23876953 95.90576172 C38.91306442 96.15795975 38.91306442 96.15795975 37.56057739 96.41525269 C34.02371685 97.2229493 31.13583126 98.52927407 27.875 100.125 C26.75867188 100.66382812 25.64234375 101.20265625 24.4921875 101.7578125 C23.66976562 102.16773437 22.84734375 102.57765625 22 103 C22 101.68 22 100.36 22 99 C22.7425 98.896875 23.485 98.79375 24.25 98.6875 C27.00708425 98.19194315 27.00708425 98.19194315 28.875 96.5625 C33.47659135 93.17897695 38.47103765 92.89876548 44 93 C43.91567792 83.66403396 43.82082653 74.32825197 43.71247292 64.99253368 C43.66249388 60.65773415 43.61616405 56.32295917 43.578125 51.98803711 C43.54129239 47.80581033 43.49493811 43.62378825 43.44193649 39.44173622 C43.42338174 37.84495949 43.40827777 36.24813886 43.39665604 34.65129662 C43.37981187 32.41730086 43.35078206 30.183775 43.31884766 27.94995117 C43.30552399 26.67754074 43.29220032 25.40513031 43.2784729 24.09416199 C43.23334632 20.83231115 43.23334632 20.83231115 41 18 C40.01 18 39.02 18 38 18 C37.505 16.02 37.505 16.02 37 14 C33.535 15.485 33.535 15.485 30 17 C30.0825 17.721875 30.165 18.44375 30.25 19.1875 C29.91323484 22.97610806 28.74063515 24.4036088 26 27 C22.75 27.8125 22.75 27.8125 20 28 C20.598125 27.566875 21.19625 27.13375 21.8125 26.6875 C22.534375 26.130625 23.25625 25.57375 24 25 C24.598125 24.54625 25.19625 24.0925 25.8125 23.625 C27.21467508 22.00548286 27.21467508 22.00548286 27.1875 19.5625 C25.5897157 16.11464967 23.71561293 15.35180592 20.31640625 13.84375 C16.60920734 12.49340436 12.88678533 11.64673034 9 11 C8.01515625 10.82082031 7.0303125 10.64164063 6.015625 10.45703125 C0.48051887 9.68515644 -5.11117822 9.85587025 -10.6875 9.875 C-11.79544922 9.87113281 -12.90339844 9.86726562 -14.04492188 9.86328125 C-21.41062324 9.87189107 -28.67092397 10.27165492 -36 11 C-35.67 10.34 -35.34 9.68 -35 9 C-33.00390625 8.62109375 -33.00390625 8.62109375 -30.5625 8.4375 C-27.15371795 8.1938825 -27.15371795 8.1938825 -24 7 C-20.13099356 6.75220034 -16.25103583 6.81025286 -12.375 6.8125 C-11.25101807 6.81185547 -10.12703613 6.81121094 -8.96899414 6.81054688 C-0.16836443 6.86598788 8.3203831 7.55124129 17 9 C17.33 7.68 17.66 6.36 18 5 C17.195625 5.020625 16.39125 5.04125 15.5625 5.0625 C13 5 13 5 12 4 C9.98035801 3.92755947 7.95832876 3.91622812 5.9375 3.9375 C4.83277344 3.94652344 3.72804687 3.95554688 2.58984375 3.96484375 C1.30787109 3.98224609 1.30787109 3.98224609 0 4 C-0.495 2.515 -0.495 2.515 -1 1 C-0.67 0.67 -0.34 0.34 0 0 Z " fill="#0774CE" transform="translate(137,0)"/>
<path d="M0 0 C0.99 0.495 0.99 0.495 2 1 C1.99395126 2.89628151 1.94357843 4.7924493 1.875 6.6875 C1.85179687 7.74324219 1.82859375 8.79898438 1.8046875 9.88671875 C0.90323897 13.37436184 -0.38731843 14.75389829 -3.18754959 16.95816612 C-6.36299044 18.78347502 -9.65948132 18.65324073 -13.20849609 18.56762695 C-14.40949951 18.56872215 -14.40949951 18.56872215 -15.63476562 18.56983948 C-18.26502698 18.56637309 -20.89348794 18.52755941 -23.5234375 18.48828125 C-25.35331251 18.47894969 -27.18320005 18.4718352 -29.01309204 18.46684265 C-33.81710618 18.44779978 -38.62035817 18.39872258 -43.42407227 18.34332275 C-48.33078706 18.2920716 -53.23762564 18.2693161 -58.14453125 18.24414062 C-67.76335473 18.19060104 -77.38161386 18.10532126 -87 18 C-87.66 16.68 -88.32 15.36 -89 14 C-87.96683151 13.98969254 -86.93366302 13.97938507 -85.8691864 13.96876526 C-76.14268998 13.87109947 -66.4162585 13.76837184 -56.68986797 13.66066074 C-51.68918254 13.60544606 -46.68849124 13.55202832 -41.68774414 13.50268555 C-36.86368988 13.45502063 -32.03970719 13.40267694 -27.2157383 13.34705925 C-25.37332753 13.32664536 -23.53089715 13.30793068 -21.68845177 13.29092598 C-19.11213449 13.26686066 -16.53595255 13.23680892 -13.9597168 13.20532227 C-13.19439133 13.1995668 -12.42906586 13.19381134 -11.64054871 13.18788147 C-8.50084674 13.14413197 -6.00070856 13.00023619 -3 12 C-2.67 11.01 -2.34 10.02 -2 9 C-1.34 9 -0.68 9 0 9 C0 6.03 0 3.06 0 0 Z " fill="#0C7BD5" transform="translate(227,149)"/>
<path d="M0 0 C6.27 0 12.54 0 19 0 C19.495 1.485 19.495 1.485 20 3 C20.72445312 2.97679687 21.44890625 2.95359375 22.1953125 2.9296875 C27.54578244 2.82981206 31.99446082 2.83544252 37 5 C36.67 6.65 36.34 8.3 36 10 C35.13503906 9.855625 34.27007812 9.71125 33.37890625 9.5625 C24.43104103 8.24367442 15.67243204 7.80731188 6.625 7.8125 C5.51326416 7.81185547 4.40152832 7.81121094 3.25610352 7.81054688 C-2.04060809 7.60552806 -2.04060809 7.60552806 -7 9 C-9.33077343 9.30791869 -11.66241896 9.50895274 -14.00390625 9.71875 C-15.99583131 9.79532012 -15.99583131 9.79532012 -17 11 C-19.33297433 11.04092937 -21.66705225 11.04241723 -24 11 C-22.125 6.25 -22.125 6.25 -21 4 C-16.24998443 2.56262054 -11.11424555 2.66160998 -6.1875 2.4375 C-5.30384766 2.39431641 -4.42019531 2.35113281 -3.50976562 2.30664062 C-1.34000377 2.20108464 0.8299791 2.10008929 3 2 C2.01 1.34 1.02 0.68 0 0 Z " fill="#0277D6" transform="translate(118,0)"/>
<path d="M0 0 C-0.33 1.32 -0.66 2.64 -1 4 C-1.78375 4.144375 -2.5675 4.28875 -3.375 4.4375 C-5.96421018 4.87798925 -5.96421018 4.87798925 -8 6 C-10.57006364 10.2756926 -11.38259367 13.50632967 -11.43237305 18.46435547 C-11.45216721 19.72520966 -11.47196136 20.98606384 -11.49235535 22.28512573 C-11.49912353 23.64581146 -11.50557057 25.00649883 -11.51171875 26.3671875 C-11.5285795 27.7711035 -11.54673162 29.17500452 -11.56611633 30.57888794 C-11.61347151 34.25800905 -11.64337399 37.93706946 -11.66955566 41.61639404 C-11.69943476 45.37719711 -11.74593967 49.13779131 -11.79101562 52.8984375 C-11.87688368 60.26552103 -11.94430169 67.63262002 -12 75 C-12.99 75 -13.98 75 -15 75 C-15.0725494 67.41021643 -15.05944354 59.82180488 -15.01245117 52.23187256 C-15.00375818 50.67365355 -14.99690576 49.11542366 -14.99145508 47.55718994 C-14.97266012 42.20913625 -14.92536685 36.86240571 -14.84640503 31.51489258 C-14.82386608 29.71843075 -14.80992075 27.92183982 -14.80471802 26.12524414 C-14.79546265 23.5682787 -14.7547343 21.01353162 -14.70703125 18.45703125 C-14.71095886 17.69227982 -14.71488647 16.92752838 -14.71893311 16.13960266 C-14.56428328 10.4657386 -13.02270679 7.99946516 -9 4 C-6.31449016 1.98721307 -3.44052377 0 0 0 Z " fill="#116EBC" transform="translate(85,8)"/>
<path d="M0 0 C9.52606248 1.56164959 18.78353598 5.3330277 25 13 C26.16226261 16.48678784 26.13240097 19.6000412 26.11352539 23.2253418 C26.11367142 23.95729767 26.11381744 24.68925354 26.1139679 25.44338989 C26.1132714 27.86202969 26.10549128 30.28059241 26.09765625 32.69921875 C26.09579114 34.37644916 26.09436767 36.05368011 26.09336853 37.73091125 C26.0895507 42.14500432 26.07972666 46.55906447 26.06866455 50.97314453 C26.05843467 55.47753453 26.05386753 59.98192985 26.04882812 64.48632812 C26.03810375 73.32423321 26.02103611 82.16211387 26 91 C24.98366989 91.19032303 24.98366989 91.19032303 23.94680786 91.38449097 C22.60632889 91.64251999 22.60632889 91.64251999 21.23876953 91.90576172 C20.35496613 92.07389374 19.47116272 92.24202576 18.56057739 92.41525269 C15.02371685 93.2229493 12.13583126 94.52927407 8.875 96.125 C7.75867188 96.66382812 6.64234375 97.20265625 5.4921875 97.7578125 C4.66976562 98.16773437 3.84734375 98.57765625 3 99 C3 97.68 3 96.36 3 95 C3.7425 94.896875 4.485 94.79375 5.25 94.6875 C8.00708425 94.19194315 8.00708425 94.19194315 9.875 92.5625 C14.47659135 89.17897695 19.47103765 88.89876548 25 89 C24.91567792 79.66403396 24.82082653 70.32825197 24.71247292 60.99253368 C24.66249388 56.65773415 24.61616405 52.32295917 24.578125 47.98803711 C24.54129239 43.80581033 24.49493811 39.62378825 24.44193649 35.44173622 C24.42338174 33.84495949 24.40827777 32.24813886 24.39665604 30.65129662 C24.37981187 28.41730086 24.35078206 26.183775 24.31884766 23.94995117 C24.30552399 22.67754074 24.29220032 21.40513031 24.2784729 20.09416199 C24.23334632 16.83231115 24.23334632 16.83231115 22 14 C21.01 14 20.02 14 19 14 C19 12.35 19 10.7 19 9 C18.32582031 8.73445312 17.65164062 8.46890625 16.95703125 8.1953125 C13.51292692 6.80311181 10.09940271 5.34376965 6.6875 3.875 C6.04232422 3.59785156 5.39714844 3.32070312 4.73242188 3.03515625 C3.15470995 2.35732446 1.57732174 1.67873926 0 1 C0 0.67 0 0.34 0 0 Z " fill="#1F6BAF" transform="translate(156,4)"/>
<path d="M0 0 C3.375 0.25 3.375 0.25 7 1 C8.98442221 3.32953912 8.99602937 4.95235245 9.25 8 C8.85654008 12.72151899 8.85654008 12.72151899 7 15 C4.0625 15.875 4.0625 15.875 1 16 C-2 14 -2 14 -3 11 C-3.45528455 4.7398374 -3.45528455 4.7398374 -1.5 1.5625 C-1.005 1.046875 -0.51 0.53125 0 0 Z " fill="#0F73C6" transform="translate(124,71)"/>
<path d="M0 0 C1.12656006 -0.00064453 2.25312012 -0.00128906 3.41381836 -0.00195312 C11.87190683 0.05139109 19.99085745 0.67201388 28.3125 2.1875 C28.3125 2.8475 28.3125 3.5075 28.3125 4.1875 C29.385 4.14625 30.4575 4.105 31.5625 4.0625 C36.90190397 4.24048013 36.90190397 4.24048013 39.3125 6.1875 C39.69816189 7.84284099 40.03615134 9.51044296 40.3125 11.1875 C39.38630859 10.68089844 39.38630859 10.68089844 38.44140625 10.1640625 C32.78782219 7.18668033 27.622216 5.17305836 21.3125 4.1875 C19.83910156 3.92066406 19.83910156 3.92066406 18.3359375 3.6484375 C12.79816374 2.87245316 7.20445522 3.0433595 1.625 3.0625 C0.51705078 3.05863281 -0.59089844 3.05476562 -1.73242188 3.05078125 C-9.09812324 3.05939107 -16.35842397 3.45915492 -23.6875 4.1875 C-23.3575 3.5275 -23.0275 2.8675 -22.6875 2.1875 C-20.69140625 1.80859375 -20.69140625 1.80859375 -18.25 1.625 C-12.0056645 1.13387249 -6.47498933 -0.00374088 0 0 Z " fill="#176EB6" transform="translate(124.6875,6.8125)"/>
<path d="M0 0 C19.47 0 38.94 0 59 0 C59 0.33 59 0.66 59 1 C49.1 1 39.2 1 29 1 C29 1.66 29 2.32 29 3 C19.76 3 10.52 3 1 3 C0.67 2.01 0.34 1.02 0 0 Z " fill="#0371D0" transform="translate(138,163)"/>
<path d="M0 0 C-0.33 0.99 -0.66 1.98 -1 3 C-11.01233082 5.50414139 -20.95197983 5.22889401 -31.1875 5.125 C-32.91991669 5.11494761 -34.65233904 5.10582576 -36.38476562 5.09765625 C-40.58998586 5.07582749 -44.794929 5.04142299 -49 5 C-49 4.34 -49 3.68 -49 3 C-51.64 3 -54.28 3 -57 3 C-57 2.34 -57 1.68 -57 1 C-55.80246094 1.144375 -54.60492188 1.28875 -53.37109375 1.4375 C-36.299094 3.4220009 -20.8610737 3.0274102 -3.91674805 0.27539062 C-2 0 -2 0 0 0 Z " fill="#1D6EB7" transform="translate(156,28)"/>
<path d="M0 0 C2.05078125 0.03255208 4.1015625 0.06510417 6.15234375 0.09765625 C6.15234375 0.75765625 6.15234375 1.41765625 6.15234375 2.09765625 C8.13234375 1.76765625 10.11234375 1.43765625 12.15234375 1.09765625 C11.82234375 4.06765625 11.49234375 7.03765625 11.15234375 10.09765625 C9.14275712 9.46047024 7.14497966 8.78602138 5.15234375 8.09765625 C4.518125 7.87980469 3.88390625 7.66195312 3.23046875 7.4375 C-1.60733987 5.60832856 -1.60733987 5.60832856 -2.84765625 2.97265625 C-2.84765625 0.4215827 -2.53870076 0.1341808 0 0 Z " fill="#106FC4" transform="translate(99.84765625,69.90234375)"/>
<path d="M0 0 C1.65 0 3.3 0 5 0 C4.60167969 0.4846875 4.20335938 0.969375 3.79296875 1.46875 C-2.42386854 9.33433489 -4.40824393 16.04217368 -5 26 C-8.67807537 27.22602512 -10.88243927 26.70295577 -14.6875 26.0625 C-15.86699219 25.86785156 -17.04648438 25.67320312 -18.26171875 25.47265625 C-19.16535156 25.31667969 -20.06898437 25.16070312 -21 25 C-21 24.67 -21 24.34 -21 24 C-16.71 24 -12.42 24 -8 24 C-7.34 19.71 -6.68 15.42 -6 11 C-5.34 11 -4.68 11 -4 11 C-4 9.68 -4 8.36 -4 7 C-3.34 6.67 -2.68 6.34 -2 6 C-2 5.01 -2 4.02 -2 3 C-1.01 2.67 -0.02 2.34 1 2 C0.67 1.34 0.34 0.68 0 0 Z " fill="#1B70BC" transform="translate(123,121)"/>
<path d="M0 0 C0.66 0 1.32 0 2 0 C3.22650358 2.45300716 3.12556198 4.09181651 3.140625 6.83203125 C3.15996094 7.79560547 3.17929688 8.75917969 3.19921875 9.75195312 C3.2328752 11.78040166 3.25128685 13.80916458 3.25390625 15.83789062 C3.28608842 22.11584582 3.28608842 22.11584582 6.546875 27.19921875 C7.76117188 28.09060547 7.76117188 28.09060547 9 29 C8.67 29.66 8.34 30.32 8 31 C6.84852339 29.73427767 5.70400686 28.46222094 4.5625 27.1875 C3.92441406 26.47980469 3.28632812 25.77210938 2.62890625 25.04296875 C0.09840785 21.86922615 -0.12261977 19.25130315 -0.09765625 15.33203125 C-0.09443359 14.43935547 -0.09121094 13.54667969 -0.08789062 12.62695312 C-0.07951172 11.69818359 -0.07113281 10.76941406 -0.0625 9.8125 C-0.05798828 8.87212891 -0.05347656 7.93175781 -0.04882812 6.96289062 C-0.03704626 4.64186288 -0.02059558 2.32096356 0 0 Z " fill="#1265BD" transform="translate(70,106)"/>
<path d="M0 0 C0.66 0 1.32 0 2 0 C2.33 1.32 2.66 2.64 3 4 C3.66 3.34 4.32 2.68 5 2 C6.65 2.66 8.3 3.32 10 4 C7.7764853 7.51081269 5.93049901 8.72258782 2 10 C1.01 10.33 0.02 10.66 -1 11 C-1 10.01 -1 9.02 -1 8 C-4.96 8 -8.92 8 -13 8 C-13 7.67 -13 7.34 -13 7 C-8.71 7 -4.42 7 0 7 C0 4.69 0 2.38 0 0 Z " fill="#0A76CC" transform="translate(165,87)"/>
<path d="M0 0 C3.86229702 1.28743234 5.79807741 3.80182674 8.02734375 7.046875 C9.52163271 10.04745524 9.33372792 12.72946639 9 16 C8.34 16 7.68 16 7 16 C6.59007812 15.16855469 6.18015625 14.33710937 5.7578125 13.48046875 C5.21898437 12.39378906 4.68015625 11.30710937 4.125 10.1875 C3.59132812 9.10855469 3.05765625 8.02960938 2.5078125 6.91796875 C1.02778861 3.92161735 1.02778861 3.92161735 -1 1 C-0.67 0.67 -0.34 0.34 0 0 Z " fill="#0D72C8" transform="translate(206,108)"/>
<path d="M0 0 C0.66 0.33 1.32 0.66 2 1 C0.00855113 4.42556392 -2.00708564 7.37992309 -5 10 C-8.78428446 10.77613341 -12.19390478 10.55749315 -16 10 C-15.34 9.01 -14.68 8.02 -14 7 C-12.6078125 7.0928125 -12.6078125 7.0928125 -11.1875 7.1875 C-7.69679884 7.35367067 -7.69679884 7.35367067 -5.3125 4.0625 C-4.1678125 2.5465625 -4.1678125 2.5465625 -3 1 C-2.01 0.67 -1.02 0.34 0 0 Z " fill="#156FC1" transform="translate(154,106)"/>
<path d="M0 0 C2.05164237 3.46214649 2 4.59389235 2 9 C7.94 9 13.88 9 20 9 C20 9.33 20 9.66 20 10 C19.04738281 10.06058594 18.09476563 10.12117188 17.11328125 10.18359375 C15.85902344 10.26738281 14.60476562 10.35117188 13.3125 10.4375 C12.07113281 10.51871094 10.82976562 10.59992188 9.55078125 10.68359375 C6.61819663 10.94491317 3.86558383 11.34798379 1 12 C-0.625 9.375 -0.625 9.375 -2 6 C-1.1875 2.625 -1.1875 2.625 0 0 Z " fill="#1C73BA" transform="translate(145,84)"/>
<path d="M0 0 C3.375 -0.125 3.375 -0.125 7 0 C9 2 9 2 10 4 C10.680625 3.938125 11.36125 3.87625 12.0625 3.8125 C15.91936125 4.05868263 18.51079594 5.35802162 22 7 C16.31933035 8.91527165 10.81273935 6.26618492 5.5703125 3.90625 C3.69578519 2.97232181 1.84506285 1.99086708 0 1 C0 0.67 0 0.34 0 0 Z " fill="#106ACA" transform="translate(80,137)"/>
<path d="M0 0 C0.99 0.33 1.98 0.66 3 1 C3.05386629 3.12472576 3.09273071 5.24983652 3.125 7.375 C3.14820313 8.55835938 3.17140625 9.74171875 3.1953125 10.9609375 C3 14 3 14 1 16 C0 15 0 15 -0.09765625 11.62109375 C-0.09098369 10.22652923 -0.07902532 8.83198257 -0.0625 7.4375 C-0.05798828 6.72658203 -0.05347656 6.01566406 -0.04882812 5.28320312 C-0.03700864 3.52209987 -0.01907263 1.76103964 0 0 Z " fill="#0573CF" transform="translate(214,125)"/>
<path d="M0 0 C3.75 1 3.75 1 6 2 C6 2.66 6 3.32 6 4 C-0.93 3.34 -7.86 2.68 -15 2 C-10.33823953 -1.10784031 -5.46513044 -0.37442264 0 0 Z " fill="#0874D2" transform="translate(190,99)"/>
<path d="M0 0 C0.66 0 1.32 0 2 0 C2.33 3.96 2.66 7.92 3 12 C2.01 11.67 1.02 11.34 0 11 C-0.66 12.65 -1.32 14.3 -2 16 C-2.66 15.67 -3.32 15.34 -4 15 C-3.649375 14.443125 -3.29875 13.88625 -2.9375 13.3125 C-1.76827359 10.42840819 -2.14660484 8.94809235 -3 6 C-3.33 5.34 -3.66 4.68 -4 4 C-2.68 4.33 -1.36 4.66 0 5 C0 3.35 0 1.7 0 0 Z " fill="#186BB4" transform="translate(111,75)"/>
<path d="M0 0 C0 0.33 0 0.66 0 1 C-1.8253125 1.556875 -1.8253125 1.556875 -3.6875 2.125 C-10.02384468 4.22024496 -15.98624042 7.12789535 -22 10 C-22 8.68 -22 7.36 -22 6 C-21.2575 5.896875 -20.515 5.79375 -19.75 5.6875 C-16.99291575 5.19194315 -16.99291575 5.19194315 -15.125 3.5625 C-10.59855644 0.23423268 -5.47906821 -0.26727162 0 0 Z " fill="#1771B8" transform="translate(181,93)"/>
<path d="M0 0 C2.27792016 0.22985482 4.54846234 0.53457827 6.8125 0.875 C8.05644531 1.05804688 9.30039063 1.24109375 10.58203125 1.4296875 C13.11002153 1.85150074 15.53464543 2.31690428 18 3 C18 3.66 18 4.32 18 5 C16.33388095 5.042721 14.66617115 5.04063832 13 5 C12.67 4.67 12.34 4.34 12 4 C9.98035801 3.92755947 7.95832876 3.91622812 5.9375 3.9375 C4.83277344 3.94652344 3.72804687 3.95554688 2.58984375 3.96484375 C1.73519531 3.97644531 0.88054687 3.98804688 0 4 C-0.33 3.01 -0.66 2.02 -1 1 C-0.67 0.67 -0.34 0.34 0 0 Z " fill="#116FB9" transform="translate(137,0)"/>
<path d="M0 0 C1.8125 0.1875 1.8125 0.1875 4 1 C5.75 3.5625 5.75 3.5625 7 6 C4.36 6.33 1.72 6.66 -1 7 C-2 4 -2 4 -1.0625 1.8125 C-0.5365625 0.9153125 -0.5365625 0.9153125 0 0 Z " fill="#0B74CA" transform="translate(111,86)"/>
<path d="M0 0 C0.99 0 1.98 0 3 0 C2.67 2.97 2.34 5.94 2 9 C0.68 8.67 -0.64 8.34 -2 8 C-2.33 6.35 -2.66 4.7 -3 3 C-2.01 2.67 -1.02 2.34 0 2 C0 1.34 0 0.68 0 0 Z " fill="#0377D4" transform="translate(109,71)"/>
<path d="M0 0 C0.33 0 0.66 0 1 0 C1.33 7.92 1.66 15.84 2 24 C1.01 24 0.02 24 -1 24 C-0.67 16.08 -0.34 8.16 0 0 Z " fill="#1666B5" transform="translate(71,59)"/>
<path d="M0 0 C0.66 0.33 1.32 0.66 2 1 C1.51917969 1.69480469 1.03835937 2.38960937 0.54296875 3.10546875 C-1.1938778 6.36370494 -1.48614821 8.64789746 -1.6875 12.3125 C-1.75324219 13.38113281 -1.81898437 14.44976562 -1.88671875 15.55078125 C-1.92410156 16.35902344 -1.96148437 17.16726562 -2 18 C-2.33 18 -2.66 18 -3 18 C-3 13.71 -3 9.42 -3 5 C-3.66 5 -4.32 5 -5 5 C-5.33 5.66 -5.66 6.32 -6 7 C-5.67 5.35 -5.34 3.7 -5 2 C-3.02 2.495 -3.02 2.495 -1 3 C-0.67 2.01 -0.34 1.02 0 0 Z " fill="#2072BA" transform="translate(128,130)"/>
<path d="M0 0 C-0.33 0.99 -0.66 1.98 -1 3 C-3.5625 4.1875 -3.5625 4.1875 -6 5 C-5.67 4.01 -5.34 3.02 -5 2 C-7.31 1.67 -9.62 1.34 -12 1 C-12 0.67 -12 0.34 -12 0 C-10.37585622 -0.19477739 -8.75063577 -0.38059458 -7.125 -0.5625 C-6.22007812 -0.66691406 -5.31515625 -0.77132812 -4.3828125 -0.87890625 C-2 -1 -2 -1 0 0 Z " fill="#1775C4" transform="translate(144,101)"/>
<path d="M0 0 C4.75 1.875 4.75 1.875 7 3 C7.625 5.0625 7.625 5.0625 8 7 C5.69 6.67 3.38 6.34 1 6 C1.33 5.01 1.66 4.02 2 3 C1.34 3 0.68 3 0 3 C0 2.01 0 1.02 0 0 Z " fill="#0E6FC7" transform="translate(197,101)"/>
<path d="M0 0 C2.97 0.495 2.97 0.495 6 1 C6 2.32 6 3.64 6 5 C5.34 5 4.68 5 4 5 C3.67 5.99 3.34 6.98 3 8 C2.01 8 1.02 8 0 8 C0 5.36 0 2.72 0 0 Z " fill="#0B72BF" transform="translate(70,97)"/>
<path d="M0 0 C0.33 0 0.66 0 1 0 C1.36630156 3.93774177 1.30233203 5.56539771 -1 8.875 C-1.66 9.57625 -2.32 10.2775 -3 11 C-3 9.68 -3 8.36 -3 7 C-3.99 7 -4.98 7 -6 7 C-6 6.34 -6 5.68 -6 5 C-4.02 4.67 -2.04 4.34 0 4 C-0.33 3.01 -0.66 2.02 -1 1 C-0.67 0.67 -0.34 0.34 0 0 Z " fill="#0E73C3" transform="translate(115,64)"/>
<path d="M0 0 C-0.33 0.66 -0.66 1.32 -1 2 C-5.95 2 -10.9 2 -16 2 C-16 1.67 -16 1.34 -16 1 C-10.28728907 -1.0662997 -5.96345767 -1.0006709 0 0 Z " fill="#0673C8" transform="translate(122,1)"/>
<path d="M0 0 C5.01113235 1.4317521 6.94469549 3.98445693 10 8 C5.17965738 7.58682778 3.09007389 5.61980085 0 2 C0 1.34 0 0.68 0 0 Z " fill="#0A74CD" transform="translate(127,155)"/>
<path d="M0 0 C0.33 0.99 0.66 1.98 1 3 C3.00016466 4.20882096 3.00016466 4.20882096 5 5 C4.34 5 3.68 5 3 5 C3 6.65 3 8.3 3 10 C2.34 10 1.68 10 1 10 C0.67 11.32 0.34 12.64 0 14 C0 9.38 0 4.76 0 0 Z " fill="#1473B9" transform="translate(154,69)"/>
<path d="M0 0 C1.65 0 3.3 0 5 0 C5 0.66 5 1.32 5 2 C5.99 2 6.98 2 8 2 C8 2.99 8 3.98 8 5 C5.36 5 2.72 5 0 5 C1.32 4.34 2.64 3.68 4 3 C4 2.34 4 1.68 4 1 C2.68 0.67 1.36 0.34 0 0 Z " fill="#1D72B9" transform="translate(142,118)"/>
<path d="M0 0 C-0.33 1.32 -0.66 2.64 -1 4 C-1.721875 4.12375 -2.44375 4.2475 -3.1875 4.375 C-5.95721894 4.9904931 -8.3970354 5.88444374 -11 7 C-4.36842105 -0 -4.36842105 -0 0 0 Z " fill="#1872BA" transform="translate(85,8)"/>
<path d="M0 0 C1.98 0.66 3.96 1.32 6 2 C6 2.99 6 3.98 6 5 C3.03 4.505 3.03 4.505 0 4 C0 2.68 0 1.36 0 0 Z " fill="#0C68CA" transform="translate(222,142)"/>
<path d="M0 0 C0.33 0.99 0.66 1.98 1 3 C1.66 3.33 2.32 3.66 3 4 C3.33 3.67 3.66 3.34 4 3 C4.33 3.99 4.66 4.98 5 6 C3.68 6.33 2.36 6.66 1 7 C-2 3.25 -2 3.25 -2 1 C-1.34 0.67 -0.68 0.34 0 0 Z " fill="#0E71C2" transform="translate(138,64)"/>
<path d="M0 0 C3.8063457 0.67170806 7.35206816 1.72746564 11 3 C6.99799622 4.60080151 3.95443764 3.29279692 0 2 C0 1.34 0 0.68 0 0 Z " fill="#1A6FB8" transform="translate(91,141)"/>
<path d="M0 0 C0.66 0.33 1.32 0.66 2 1 C1.67 2.65 1.34 4.3 1 6 C-0.32 5.67 -1.64 5.34 -3 5 C-3 3.68 -3 2.36 -3 1 C-2.01 0.67 -1.02 0.34 0 0 Z " fill="#0B73CA" transform="translate(153,119)"/>
<path d="M0 0 C1.9375 0.6875 1.9375 0.6875 4 2 C4.75 4.625 4.75 4.625 5 7 C4.360625 6.67 3.72125 6.34 3.0625 6 C1.23205433 4.92728775 1.23205433 4.92728775 0 5 C0 3.35 0 1.7 0 0 Z " fill="#126FBE" transform="translate(175,13)"/>
<path d="M0 0 C2.64 0 5.28 0 8 0 C4.71536341 2.18975773 1.79303725 2.99806563 -2 4 C-1.34 2.68 -0.68 1.36 0 0 Z " fill="#156DB4" transform="translate(93,11)"/>
</svg>
